<svg width="169" height="64" viewBox="0 0 169 64" fill="none" xmlns="http://www.w3.org/2000/svg">
<path d="M168.781 63.6246H0L10.8133 48.434H157.969L168.781 63.6246Z" fill="#FBC341"/>
<path d="M168.781 63.6246H0L10.8133 48.434H157.969L168.781 63.6246Z" fill="#FBC341"/>
<path d="M165.623 59.1873H48.592C48.7666 58.9113 48.8693 58.5793 48.8693 58.2219C48.8693 58.2166 48.8693 58.2099 48.8693 58.2046C48.8693 58.2046 48.8693 58.2032 48.8693 58.2019C48.8693 58.1966 48.8693 58.1913 48.8693 58.1859C48.8693 58.1846 48.8693 58.1846 48.8693 58.1833C48.8693 58.1779 48.8693 58.1726 48.8693 58.1659C48.8653 58.0392 48.848 57.9152 48.82 57.7966L74.2226 53.8886C74.8866 53.7873 74.8666 52.8246 74.1986 52.7486L49.896 50.0139L50.044 49.1513C50.3266 48.9979 50.552 48.7432 50.68 48.4339H157.969L165.623 59.1873ZM45.1306 49.4766L44.3227 49.3859C44.6187 49.3646 44.8893 49.3459 45.128 49.3312L45.1306 49.4766V49.4766ZM37.3773 48.6046L35.8586 48.4339H37.5707C37.484 48.4712 37.42 48.5326 37.3773 48.6046" fill="#DC9632"/>
<path d="M50.5694 33.4233L49.58 33.3446C48.212 33.2366 47.18 32.0286 47.288 30.6593L48.924 9.94462C49.032 8.57529 50.24 7.54463 51.6094 7.65263L52.5987 7.72994C53.968 7.83794 54.9987 9.04729 54.8907 10.4153L53.2547 31.1299C53.1467 32.4993 51.9387 33.5313 50.5694 33.4233" fill="#D4533A"/>
<path d="M53.3067 30.4686C53.2213 29.854 52.9467 29.286 52.5347 28.8393L52.8213 25.206L53.1347 21.242L53.304 21.4966L54.056 20.9766L53.3067 30.4686" fill="#C9432E"/>
<path d="M47.392 30.3672L47.7613 46.4379L47.6986 46.7646L50.5746 47.2552L53.292 31.3766C53.5693 29.7539 52.4693 28.1993 50.8466 27.9219C49.224 27.6446 47.6693 28.7446 47.392 30.3672Z" fill="#D4533A"/>
<path d="M50.6014 47.1033C50.5534 47.0193 50.4974 46.9393 50.4347 46.8673L51.8147 38.8019C51.816 38.7966 51.816 38.79 51.8174 38.7846C51.8174 38.782 51.8187 38.7793 51.8187 38.7753C51.8187 38.7753 51.8187 38.7739 51.8187 38.7726C51.876 38.4206 51.8787 38.0699 51.832 37.7313L52.516 29.0739L52.5507 28.8619C53.144 29.5166 53.448 30.422 53.296 31.354V31.3553C53.2947 31.362 53.2933 31.3699 53.292 31.3766L50.6014 47.1033" fill="#C9432E"/>
<path d="M49.4853 46.3926V46.386C47.7787 46.3246 44.924 45.8659 42.8213 46.3099L37.5813 48.4286C37.2626 48.5579 37.224 49.0059 37.5253 49.1726C39.0373 50.0046 44.404 49.3033 45.8133 49.3033H49.3266L49.412 49.3126C50.176 49.3126 50.7946 48.6579 50.7946 47.8486C50.7946 47.0673 50.2147 46.4339 49.4853 46.3926" fill="#D4533A"/>
<path d="M50.7947 47.834V47.8326V47.834ZM50.7947 47.818C50.7947 47.818 50.7933 47.8167 50.7933 47.8153C50.7933 47.8167 50.7947 47.818 50.7947 47.818ZM50.7933 47.802V47.8007V47.802ZM50.792 47.7713V47.77V47.7713Z" fill="#F3C2AE"/>
<path d="M40.4133 49.5792C39.1853 49.5792 38.0879 49.4819 37.5253 49.1726C37.3733 49.0886 37.3079 48.9326 37.3213 48.7819C37.9239 48.9312 38.7546 48.9832 39.6533 48.9832C40.6866 48.9832 41.8106 48.9152 42.7866 48.8459C43.7626 48.7779 44.5919 48.7099 45.0333 48.7099C45.0346 48.7099 45.0346 48.7099 45.0359 48.7099H45.1133L45.1279 49.3312C44.6946 49.3565 44.1533 49.3992 43.5559 49.4406C42.5759 49.5099 41.4479 49.5792 40.4133 49.5792V49.5792ZM50.0439 49.1512L50.4346 46.8685C50.6426 47.1085 50.7746 47.4219 50.7919 47.7699V47.7712C50.7919 47.7752 50.7933 47.7806 50.7933 47.7859C50.7933 47.7912 50.7933 47.7952 50.7933 47.8005V47.8019C50.7933 47.8072 50.7933 47.8112 50.7933 47.8152C50.7933 47.8166 50.7946 47.8179 50.7946 47.8179C50.7946 47.8232 50.7946 47.8272 50.7946 47.8325V47.8339C50.7946 47.8392 50.7946 47.8432 50.7946 47.8486C50.7946 48.4166 50.4893 48.9086 50.0439 49.1512" fill="#C9432E"/>
<path d="M131.337 50.6899C130.721 50.6899 130.109 50.5899 129.527 50.3939L127.393 49.6739C126.423 49.3459 125.559 48.7619 124.893 47.9819L122.08 44.6833C121.627 44.1526 120.799 44.1806 120.383 44.7406L118.955 46.6619L104.063 45.1726C101.493 44.9166 98.8973 45.1779 96.4293 45.9406L94.1226 46.6553L94.3706 46.4179L93.9346 41.0379C93.872 40.2659 93.9386 39.4873 94.132 38.7379C94.2906 38.1246 94.364 37.4926 94.352 36.8593L94.2573 32.2033C94.304 31.7179 94.3413 31.2326 94.36 30.7459H94.228L94.1733 28.0179H88.8573V53.6713H101.453C104.349 53.6713 107.241 53.4379 110.1 52.9753L121.195 51.1779L127.441 52.6659C128.584 52.9379 129.755 53.0753 130.929 53.0753H132.684V52.0366C132.684 51.2939 132.081 50.6899 131.337 50.6899" fill="#D4533A"/>
<path d="M109.801 45.7473L104.063 45.1726C101.493 44.9166 98.8973 45.1779 96.4293 45.9406L94.1226 46.6553L94.3706 46.4179L93.9346 41.0379C93.872 40.2659 93.9386 39.4873 94.132 38.7379C94.2906 38.1246 94.364 37.4926 94.352 36.8593L94.2573 32.2033C94.304 31.7179 94.3413 31.2326 94.36 30.7459H94.228L94.1733 28.0179H88.8573V53.6713H101.453C104.249 53.6713 107.039 53.4499 109.801 53.0179V50.9939L103.249 49.3566L109.801 48.0193V45.7473" fill="#223C50"/>
<path d="M107.98 51.3619L107.855 51.3353C107.7 51.2659 107.631 51.0833 107.7 50.9299L109.304 47.3659C109.373 47.2113 109.556 47.1433 109.711 47.2113C109.864 47.2806 109.933 47.4633 109.864 47.618L108.26 51.182L107.98 51.3619" fill="#223C50"/>
<path d="M109.475 51.4072C109.352 51.4072 109.235 51.3312 109.188 51.2099L107.803 47.5552C107.743 47.3966 107.821 47.2192 107.98 47.1605C108.139 47.0992 108.316 47.1792 108.376 47.3379L109.761 50.9925C109.823 51.1499 109.743 51.3272 109.584 51.3872L109.475 51.4072" fill="#223C50"/>
<path d="M106.219 51.4899L106.093 51.4632C105.939 51.3925 105.869 51.2112 105.939 51.0565L107.543 47.4925C107.612 47.3379 107.795 47.2699 107.948 47.3392C108.104 47.4086 108.172 47.5899 108.103 47.7446L106.499 51.3086L106.219 51.4899Z" fill="#223C50"/>
<path d="M107.713 51.5339C107.589 51.5339 107.473 51.4593 107.427 51.3366L106.041 47.682C105.98 47.5233 106.06 47.3473 106.219 47.2873C106.377 47.226 106.555 47.3059 106.615 47.4646L108 51.1193C108.06 51.2766 107.981 51.4539 107.823 51.5139L107.713 51.5339" fill="#223C50"/>
<path d="M104.529 51.4899L104.404 51.4632C104.249 51.3925 104.18 51.2112 104.249 51.0565L105.853 47.4925C105.924 47.3379 106.105 47.2699 106.26 47.3392C106.415 47.4086 106.483 47.5899 106.413 47.7446L104.809 51.3086L104.529 51.4899" fill="#223C50"/>
<path d="M106.025 51.5339C105.901 51.5339 105.784 51.4593 105.737 51.3366L104.352 47.682C104.292 47.5233 104.371 47.3473 104.529 47.2873C104.688 47.226 104.865 47.3059 104.925 47.4646L106.311 51.1193C106.372 51.2766 106.292 51.4539 106.133 51.5139L106.025 51.5339Z" fill="#223C50"/>
<path d="M47.076 12.1539L53.304 21.4965L56.172 19.5126L59.4773 20.0406C60.88 20.2659 62.3107 19.8699 63.3987 18.9565L65.104 17.5272L75.0293 18.5192L80.356 25.8712L92.5773 17.5126L79.1453 5.96588C74.336 2.16855 68.388 0.103216 62.26 0.103216C57.6787 0.103216 53.2373 1.67787 49.6787 4.56187L48.0267 5.90188C46.1427 7.42721 45.7307 10.1366 47.076 12.1539" fill="#F0724E"/>
<path d="M46.6133 8.15539L42.4973 16.5314L47.0667 19.942L47.7813 19.4554L49.4867 20.05L49.4707 19.5914C49.444 18.81 49.82 18.0687 50.4666 17.6287L53.3613 11.9874L46.6133 8.15539" fill="#F0724E"/>
<path d="M46.4293 16.5073C46.208 16.438 45.9773 16.39 45.7427 16.3646C45.9853 16.2886 46.2214 16.2407 46.4534 16.2153L46.4293 16.5073" fill="#D3583A"/>
<path d="M39.4093 21.1232C42.8053 19.9739 44.732 16.5926 43.7093 13.5713C42.688 10.5486 39.1053 9.03127 35.708 10.1806C32.3093 11.3286 30.384 14.7099 31.4066 17.7326C32.428 20.7539 36.0106 22.2712 39.4093 21.1232Z" fill="#682B22"/>
<path d="M36.9147 11.8313L36.784 11.7966L36.7013 11.454C37.056 10.87 37.148 10.3033 36.9773 9.77131C36.584 8.55664 34.956 7.85532 34.9387 7.84865C34.812 7.79532 34.7533 7.64866 34.8067 7.52199C34.86 7.39532 35.0067 7.33666 35.1333 7.38866C35.208 7.42066 36.9853 8.18465 37.4493 9.61665C37.6693 10.2927 37.56 10.998 37.1267 11.7126L36.9147 11.8313" fill="#682B22"/>
<path d="M43.8587 15.8806C43.736 15.8806 43.628 15.7886 43.612 15.6633C43.5947 15.5273 43.6907 15.402 43.828 15.3846C44.5053 15.298 45.0053 15.0166 45.3133 14.55C46.0187 13.486 45.5507 11.7753 45.5467 11.7579C45.5093 11.6259 45.5853 11.4886 45.7187 11.4513C45.8547 11.4113 45.988 11.4913 46.0253 11.6233C46.048 11.7019 46.56 13.5659 45.7293 14.8233C45.3387 15.4166 44.72 15.7713 43.8907 15.8793L43.8587 15.8806" fill="#682B22"/>
<path d="M43.6573 15.5659C43.5293 15.5659 43.42 15.4673 43.4093 15.3379C43.3987 15.2006 43.5 15.0806 43.6374 15.0699C44.468 15.0006 45.0267 14.7166 45.3 14.2232C45.9227 13.0966 44.9613 11.2126 44.9507 11.1939C44.888 11.0726 44.936 10.9219 45.0573 10.8579C45.18 10.7966 45.3307 10.8433 45.3933 10.9646C45.4387 11.0513 46.4867 13.1073 45.7347 14.4659C45.376 15.1126 44.684 15.4833 43.6773 15.5646L43.6573 15.5659" fill="#682B22"/>
<path d="M36.3507 27.9007C39.5387 27.614 41.8147 23.946 41.4347 19.706C41.0547 15.4673 38.1613 12.262 34.9733 12.5487C31.7853 12.834 29.5093 16.5033 29.8893 20.742C30.2707 24.982 33.164 28.186 36.3507 27.9007Z" fill="#682B22"/>
<path d="M30.768 20.582C30.42 16.7113 32.2907 13.326 35.0453 12.5473L34.9733 12.5487C31.7853 12.834 29.5093 16.5033 29.8893 20.742C30.2707 24.982 33.164 28.186 36.3507 27.9007C36.628 27.8753 36.8947 27.8167 37.1573 27.742C33.9973 27.974 31.144 24.79 30.768 20.582" fill="#B14B3C"/>
<path d="M34.4759 16.7167C36.9199 15.89 38.2693 13.346 37.4866 11.034C36.7053 8.72201 34.0893 7.51802 31.6439 8.34602C29.1999 9.17269 27.852 11.7167 28.6346 14.0287C29.416 16.3407 32.0306 17.5447 34.4759 16.7167Z" fill="#682B22"/>
<path d="M34.756 16.1074C32.3106 16.934 29.696 15.73 28.9146 13.418C28.588 12.4567 28.6373 11.4567 28.9733 10.554C28.3946 11.5994 28.2333 12.8433 28.6346 14.0287C29.416 16.3407 32.0306 17.5447 34.476 16.7167C35.904 16.234 36.9533 15.1633 37.4266 13.898C36.876 14.8913 35.948 15.7034 34.756 16.1074" fill="#B14B3C"/>
<path d="M34.9573 26.6593C34.696 26.6593 34.4773 26.4566 34.4627 26.1913C34.4467 25.9166 34.656 25.682 34.9293 25.666C34.948 25.6646 36.924 25.5233 38.1426 23.8127C39.3413 22.1313 39.464 19.53 38.5067 16.0833C38.4333 15.8193 38.588 15.5446 38.8533 15.4713C39.1187 15.4006 39.392 15.5527 39.4667 15.818C40.5107 19.578 40.3333 22.4673 38.9426 24.406C37.4386 26.502 35.084 26.654 34.9853 26.6593H34.9573" fill="#682B22"/>
<path d="M37.636 19.8646L38.564 19.0953C38.564 19.0953 40.2186 17.5886 39.2586 15.47L37.672 15.0953L36.18 14.678L35.4106 15.6353L35.8266 17.9193L37.5986 19.6553L37.636 19.8646" fill="#682B22"/>
<path d="M34.8546 23.6393C34.8546 23.6393 36.732 26.3766 40.7146 25.6313C41.056 25.5686 41.408 25.5926 41.7386 25.702L44.2746 26.5353C44.4439 26.5913 44.6306 26.554 44.7653 26.438C44.904 26.3206 44.968 26.138 44.936 25.9593L44.8586 25.5393L44.8959 25.382L45.004 25.2406L45.332 25.1793L45.672 25.39L45.9906 25.0486L46.5013 24.9953L46.7986 24.9926C47.1453 24.9886 47.2693 24.6846 47.5413 24.47L48.788 24.462C49.7373 24.2833 50.3546 23.358 50.1533 22.4126L50.02 21.7887C49.804 20.7753 49.4386 19.8006 48.936 18.8953L48.5746 18.246C47.9559 17.1353 46.8119 16.4193 45.5426 16.3473L43.9346 16.2553C43.4 13.3193 40.2813 11.606 37.5333 12.7713C35.656 13.5686 33.988 14.9006 33.832 17.1246C33.832 17.1246 33.2946 20.9446 34.8546 23.6393" fill="#F0724E"/>
<path d="M45.5906 23.502C45.5973 23.7433 45.5867 24.4526 45.2707 25.0033C45.2707 25.0033 44.964 25.2713 45.2627 25.5887C45.2627 25.5887 45.676 25.7153 46.016 25.186C46.016 25.186 46.56 25.3206 46.74 25.2033C46.74 25.2033 47.0813 25.1526 46.732 24.6326C46.732 24.6326 46.1987 23.7087 45.668 23.4513L45.5906 23.502" fill="#B73C2B"/>
<path d="M44.7159 26.4752C44.7333 26.4646 44.7493 26.4512 44.7653 26.4379C44.8799 26.3405 44.9439 26.1979 44.9439 26.0512C44.9439 26.1979 44.8799 26.3405 44.7653 26.4379C44.7493 26.4512 44.7333 26.4646 44.7159 26.4752Z" fill="#DEBAA1"/>
<path d="M44.4373 26.558C44.3907 26.558 44.344 26.5527 44.2987 26.5393L44.2613 26.53C44.2613 26.53 44.36 26.4127 43.9013 25.8807C43.9013 25.8807 43.4946 25.5487 43.824 24.862C43.8826 24.7393 43.896 24.594 43.8493 24.4647L43.672 24.254C43.672 24.254 43.88 24.1407 44.104 24.1407C44.292 24.1407 44.4907 24.2207 44.5867 24.5127C44.5867 24.5127 44.8187 25.1247 44.8587 25.5393L44.8627 25.562L44.936 25.9593C44.9413 25.99 44.944 26.0207 44.944 26.0513C44.944 26.198 44.88 26.3407 44.7653 26.438C44.7493 26.4513 44.7333 26.4647 44.716 26.4753C44.6333 26.53 44.536 26.558 44.4373 26.558" fill="#D3583A"/>
<path d="M41.1053 24.7086C40.8773 24.5686 40.7413 24.3473 40.64 24.1206L40.5227 23.7673L40.4853 23.586L40.4707 23.4939L40.4587 23.4126C40.424 23.19 40.3787 22.9686 40.3173 22.7593L40.2013 22.4659L40.0213 22.2833L40.0013 22.2766L39.948 22.1726L40.032 22.1166L40.148 22.1286L40.2533 22.1753L40.3413 22.242L40.412 22.3166L40.6093 22.6526C40.708 22.8833 40.7627 23.1206 40.7987 23.3619C40.8187 23.4899 40.8227 23.5873 40.8453 23.7006L40.912 24.0259C40.9667 24.2366 41.0413 24.4526 41.164 24.6313L41.1693 24.6393L41.1573 24.7073L41.1053 24.7086" fill="#682B22"/>
<path d="M41.188 23.826C41.4067 23.786 41.5987 23.8407 41.6187 23.9487C41.6387 24.0567 41.4773 24.178 41.2586 24.2167C41.0413 24.2567 40.848 24.2007 40.8293 24.0927C40.8093 23.9847 40.9707 23.8647 41.188 23.826" fill="#682B22"/>
<path d="M41.7893 24.1874L41.7933 24.206L41.7559 24.2527L41.7093 24.2167C41.7093 24.214 41.6866 24.0327 41.5546 23.9514C41.4706 23.8994 41.3573 23.8967 41.2173 23.946L41.1639 23.9207L41.1893 23.8673C41.3546 23.81 41.4919 23.814 41.5999 23.8807C41.7386 23.9673 41.7799 24.1327 41.7893 24.1874Z" fill="#682B22"/>
<path d="M39.36 25.1472C39.2187 25.0726 39.1507 24.9659 39.1027 24.8512L38.9853 24.4952C38.9147 24.2592 38.8707 24.0139 38.8413 23.7699C38.8147 23.5246 38.8067 23.2779 38.828 23.0339C38.844 22.7899 38.8907 22.5499 38.9573 22.3179L39.0093 22.2886L39.04 22.3272V22.3285C39.052 22.5659 39.0573 22.7979 39.0973 23.0259C39.1293 23.2525 39.1747 23.4765 39.236 23.6952C39.2933 23.9152 39.368 24.1286 39.4507 24.3379L39.5867 24.6446C39.6307 24.7446 39.6627 24.8552 39.636 24.9872L39.6293 25.0192L39.4093 25.1646L39.36 25.1472" fill="#682B22"/>
<path d="M44.468 25.7565C44.3866 25.6419 44.3293 25.5192 44.3026 25.3819C44.276 25.2499 44.2773 25.0899 44.3226 24.9672L44.3186 24.6419L44.092 24.3952L44.0813 24.3552L44.1106 24.3406C44.2426 24.3606 44.3853 24.4419 44.456 24.5806C44.5306 24.7192 44.52 24.8779 44.476 25.0152C44.428 25.1326 44.4013 25.2405 44.4173 25.3619L44.5426 25.6992L44.544 25.7032L44.532 25.7686L44.468 25.7565" fill="#682B22"/>
<path d="M34.6866 26.4726C37.5506 26.2153 39.5786 22.7366 39.2173 18.7033C38.8546 14.6686 36.2399 11.6059 33.3759 11.8633C30.5133 12.1206 28.4853 15.5993 28.8466 19.6326C29.2093 23.6673 31.824 26.7286 34.6866 26.4726Z" fill="#682B22"/>
<path d="M34.94 26.1673C32.0813 26.4233 29.456 23.2112 29.0773 18.9939C28.976 17.8566 29.052 16.7673 29.2666 15.7713C28.8866 16.9206 28.7213 18.2419 28.8466 19.6326C29.2093 23.6673 31.824 26.7286 34.6866 26.4726C36.1546 26.3406 37.3986 25.3592 38.2186 23.8939C37.4106 25.1926 36.2693 26.0486 34.94 26.1673Z" fill="#B14B3C"/>
<path d="M35.8107 22.2153C35.8107 22.2153 36.6947 22.378 37.4854 20.5273C37.4854 20.5273 38.0294 19.65 38.7401 19.7847C38.7401 19.7847 40.6041 20.454 40.9681 19.358C40.9681 19.358 41.356 18.502 40.7627 18.2433C40.7627 18.2433 39.1321 17.8433 39.4707 16.4713C39.4707 16.4713 39.7387 15.0327 41.7627 15.2833C41.7627 15.2833 42.8174 15.3913 43.3427 16.2553C43.3427 16.2553 45.6521 16.642 45.8841 13.5553C45.8841 13.5553 44.516 9.71398 38.908 10.4673C36.5787 10.7807 34.544 12.2593 33.6147 14.418C33.0881 15.6433 32.7747 17.246 32.9974 19.3087C32.9974 19.3087 33.2107 21.922 34.7174 22.3606C34.7174 22.3606 35.008 22.5593 35.8107 22.2153Z" fill="#682B22"/>
<path d="M41.0306 17.7007C40.8013 17.618 40.0386 17.298 40.136 16.6847C40.136 16.6847 40.332 15.774 41.264 15.774C41.5666 15.774 41.948 15.87 42.424 16.126C42.424 16.126 43.4333 16.6034 43.3133 17.0087L43.28 17.1207L43.0426 17.054C42.8413 17.0114 42.6426 16.9913 42.4546 16.9913C41.764 16.9913 41.1973 17.2634 41.0306 17.7007" fill="#BE462D"/>
<path d="M43.7226 16.8939C43.892 16.8633 44.0546 16.9753 44.084 17.1446C44.116 17.3139 44.0026 17.4766 43.8333 17.5073C43.6653 17.5379 43.5026 17.4259 43.472 17.2566C43.4413 17.0873 43.5533 16.9246 43.7226 16.8939Z" fill="#923C1D"/>
<path d="M51.7759 20.5593C51.4706 20.5593 51.1653 20.5153 50.868 20.4247C50.0373 20.1727 49.3426 19.582 48.9599 18.8033L46.5266 13.8447L46.552 13.6887C47.1386 9.97269 49.3506 6.77268 52.6213 4.91268L58.4106 1.61935C58.6466 1.48202 58.9519 1.56601 59.0879 1.80601C59.2239 2.04467 59.14 2.34869 58.9013 2.48469L53.1133 5.77801C50.1533 7.46201 48.1359 10.3393 47.5599 13.69L49.8533 18.3647C50.1186 18.9047 50.5813 19.298 51.1573 19.4727C51.7319 19.646 52.336 19.5767 52.856 19.274L56.6253 17.082C56.8626 16.9447 57.1666 17.0247 57.3053 17.262C57.4453 17.4993 57.3639 17.8047 57.1266 17.942L53.356 20.134C52.8733 20.4153 52.3266 20.5593 51.7759 20.5593" fill="white"/>
<path d="M66.4574 0.434C65.0747 0.218 63.6734 0.103336 62.26 0.103336L62.1107 0.110009V19.7327C62.5721 19.5433 63.008 19.2847 63.3987 18.9567L65.104 17.5273L66.4574 17.662V0.434Z" fill="#3D7195"/>
<path d="M56.172 19.5126L59.4773 20.0406C60.88 20.2659 62.3107 19.8699 63.3987 18.9566L64.7853 17.7953V0.2246C63.948 0.145934 63.1067 0.103279 62.26 0.103279C60.7093 0.103279 59.172 0.283276 57.6813 0.633943" fill="white"/>
<path d="M132.627 54.6499C132.011 54.6499 131.399 54.5499 130.815 54.3526L128.683 53.6326C127.711 53.3046 126.847 52.7206 126.181 51.9406L123.368 48.6419C122.916 48.1112 122.087 48.1392 121.671 48.6992L120.244 50.6219L105.351 49.1326C102.781 48.8752 100.185 49.1366 97.7186 49.8992L95.412 50.6139L95.66 50.3779L95.2226 44.9966C95.16 44.2246 95.2266 43.4459 95.42 42.6952C95.5786 42.0832 95.6533 41.4512 95.64 40.8179L95.5467 36.1619C95.592 35.6765 95.4973 35.1912 95.5173 34.7046L95.4467 31.2019L95.6893 30.3646C97.1826 25.2152 95.424 19.7552 91.0826 16.0592L79.1453 5.96589L75.1013 18.4939L80.356 25.8712L80.712 32.4352C80.976 37.3006 82.072 42.0805 83.9347 46.6232C84.524 48.9232 85.252 51.1886 86.128 53.4032L87.0147 55.6432C87.4893 56.8419 88.6467 57.6299 89.9373 57.6299H102.741C105.637 57.6299 108.529 57.3979 111.388 56.9352L122.484 55.1366L128.729 56.6245C129.872 56.8965 131.043 57.0339 132.217 57.0339H133.972V55.9952C133.972 55.2525 133.369 54.6499 132.627 54.6499Z" fill="#F0724E"/>
<path d="M75.1013 18.4939L80.356 25.8712L80.712 32.4352C80.976 37.3006 82.072 42.0805 83.9347 46.6232C84.524 48.9232 85.252 51.1886 86.128 53.4032L87.0147 55.6432C87.4893 56.8419 88.6467 57.6299 89.9373 57.6299H102.741C105.537 57.6299 108.328 57.4086 111.089 56.9766V54.9526L104.537 53.3152L111.089 51.9779V49.7059L105.351 49.1326C102.781 48.8752 100.185 49.1366 97.7186 49.8992L95.412 50.6139L95.66 50.3779L95.2226 44.9966C95.16 44.2246 95.2266 43.4459 95.42 42.6952C95.5786 42.0832 95.6533 41.4512 95.64 40.8179L95.5467 36.1619C95.592 35.6765 95.4973 35.1912 95.5173 34.7046L95.4467 31.2019L95.6893 30.3646C97.1826 25.2152 95.424 19.7552 91.0826 16.0592L82.4293 8.74323" fill="#3D7195"/>
<path d="M76.2933 20.166L84.1879 10.23L83.6773 9.79801L75.8893 19.6007L76.2933 20.166" fill="#223C50"/>
<path d="M109.268 55.3219L109.143 55.2939C108.988 55.2245 108.919 55.0432 108.989 54.8886L110.592 51.3245C110.663 51.1699 110.844 51.1019 110.999 51.1699C111.153 51.2405 111.221 51.4219 111.152 51.5766L109.549 55.1406L109.268 55.3219" fill="#3D7195"/>
<path d="M110.764 55.366C110.64 55.366 110.524 55.2913 110.476 55.1686L109.091 51.514C109.031 51.3553 109.111 51.1793 109.269 51.1193C109.427 51.058 109.604 51.138 109.664 51.2966L111.051 54.9513C111.111 55.1087 111.031 55.286 110.872 55.346L110.764 55.366" fill="#3D7195"/>
<path d="M107.507 55.4486L107.381 55.4206C107.227 55.3526 107.157 55.1699 107.227 55.0153L108.832 51.4513C108.901 51.2979 109.083 51.2286 109.237 51.2979C109.392 51.3673 109.46 51.5499 109.391 51.7033L107.787 55.2673L107.507 55.4486Z" fill="#3D7195"/>
<path d="M109.001 55.4939C108.879 55.4939 108.761 55.4179 108.716 55.2952L107.329 51.6406C107.269 51.4832 107.349 51.3059 107.507 51.2446C107.665 51.1846 107.843 51.2646 107.903 51.4232L109.289 55.0766C109.349 55.2366 109.269 55.4126 109.111 55.4726L109.001 55.4939" fill="#3D7195"/>
<path d="M105.817 55.4486L105.692 55.4206C105.537 55.3526 105.469 55.1699 105.539 55.0153L107.141 51.4513C107.212 51.2979 107.393 51.2286 107.548 51.2979C107.703 51.3673 107.772 51.5499 107.701 51.7033L106.099 55.2673L105.817 55.4486Z" fill="#3D7195"/>
<path d="M107.313 55.4939C107.189 55.4939 107.073 55.4179 107.027 55.2952L105.64 51.6406C105.58 51.4832 105.66 51.3059 105.819 51.2446C105.976 51.1846 106.153 51.2646 106.213 51.4232L107.6 55.0766C107.66 55.2366 107.58 55.4126 107.421 55.4726L107.313 55.4939" fill="#3D7195"/>
<path d="M48.6041 41.2139L47.4387 41.1219C45.8241 40.9952 44.6081 39.5699 44.7361 37.9552L46.664 13.5326C46.792 11.9179 48.2174 10.7019 49.8307 10.8299L50.9974 10.9219C52.6107 11.0499 53.8267 12.4739 53.6987 14.0886L51.7707 38.5112C51.6427 40.1259 50.2187 41.3419 48.6041 41.2139Z" fill="#F0724E"/>
<path d="M52.8213 25.2059L53.1346 21.2419L52.8213 25.2059Z" fill="#AE3623"/>
<path d="M53.1346 21.2419L53.216 20.2113L53.1346 21.2419ZM53.3106 19.0086L53.6573 14.6259C53.656 14.6406 53.6546 14.6553 53.6533 14.6713L53.3106 19.0086" fill="#D3583A"/>
<path d="M53.2159 20.2113L53.3106 19.0086L53.2159 20.2113Z" fill="#DEC2B3"/>
<path d="M51.832 37.73C51.7174 36.902 51.3107 36.146 50.7027 35.594L52.368 14.5113C52.4987 12.8527 51.4441 11.3633 49.9214 10.8753C50.0081 10.87 50.0934 10.8673 50.18 10.8673C50.2574 10.8673 50.336 10.87 50.4147 10.8767C52.3334 11.0273 53.7827 12.71 53.6574 14.626L53.3107 19.0087L53.216 20.2113L53.1347 21.242L52.8214 25.206L51.832 37.73" fill="#D3583A"/>
<path d="M44.8586 37.6113L45.2933 56.558C45.2733 56.6807 45.248 56.8087 45.22 56.9433L48.6106 57.5233L51.8146 38.802C52.1413 36.8887 50.844 35.0553 48.932 34.7287C47.0186 34.402 45.1853 35.698 44.8586 37.6113" fill="#F0724E"/>
<path d="M50.4347 46.8673L51.8147 38.802C51.816 38.7966 51.816 38.79 51.8174 38.7847C51.816 38.79 51.816 38.7966 51.8147 38.802L50.4347 46.8673Z" fill="#AE3623"/>
<path d="M48.6413 57.3433C48.4066 56.9273 48.0106 56.6259 47.5453 56.5326L50.9413 35.8366C51.64 36.6073 51.9973 37.6739 51.8186 38.7726C51.8186 38.7739 51.8186 38.7753 51.8186 38.7753C51.8186 38.7793 51.8173 38.7819 51.8173 38.7846C51.816 38.7899 51.816 38.7966 51.8146 38.8019L50.4346 46.8673L50.044 49.1513L49.896 50.0139L48.6413 57.3433Z" fill="#D3583A"/>
<path d="M47.3267 56.5047V56.4967C45.3134 56.4247 41.948 55.8847 39.4707 56.4073L33.292 58.906C32.916 59.058 32.8694 59.5873 33.2254 59.782C35.0094 60.7633 41.336 59.9367 42.9974 59.9367L47.1387 59.938L47.24 59.9487C48.14 59.9487 48.8694 59.1753 48.8694 58.222C48.8694 57.2993 48.1854 56.554 47.3267 56.5047" fill="#F0724E"/>
<path d="M48.592 59.1873C48.7667 58.9113 48.8694 58.5793 48.8694 58.2219C48.8694 58.5793 48.7667 58.9113 48.592 59.1873ZM48.8694 58.2046C48.8694 58.2046 48.8694 58.2032 48.8694 58.2019C48.8694 58.2032 48.8694 58.2046 48.8694 58.2046ZM48.8694 58.1859C48.8694 58.1846 48.8694 58.1846 48.8694 58.1833C48.8694 58.1846 48.8694 58.1846 48.8694 58.1859Z" fill="#C17123"/>
<path d="M36.632 60.262C35.184 60.262 33.8893 60.1473 33.2253 59.782C33.0453 59.6833 32.9694 59.4993 32.9854 59.3233C33.696 59.498 34.6747 59.5593 35.736 59.5593C36.9534 59.5593 38.2773 59.4793 39.4293 59.398C40.58 59.318 41.5573 59.238 42.0787 59.238H42.08H46.2214L46.3227 59.2486C47.2227 59.2486 47.952 58.4753 47.952 57.5233C47.952 57.1686 47.8493 56.842 47.6773 56.5686C48.3467 56.766 48.8454 57.3993 48.8694 58.166C48.8694 58.1726 48.8694 58.178 48.8694 58.1833C48.8694 58.1847 48.8694 58.1847 48.8694 58.186C48.8694 58.1913 48.8694 58.1966 48.8694 58.202C48.8694 58.2033 48.8694 58.2046 48.8694 58.2046C48.8694 58.21 48.8694 58.2167 48.8694 58.222C48.8694 58.5793 48.7667 58.9113 48.592 59.1873C48.2987 59.646 47.8027 59.9486 47.24 59.9486L47.1387 59.938L42.9974 59.9366C41.9547 59.9366 39.0734 60.262 36.632 60.262" fill="#D3583A"/>
</svg>
