<svg width="170" height="132" viewBox="0 0 170 132" fill="none" xmlns="http://www.w3.org/2000/svg">
<path d="M169.172 131.205H0.390625L11.2026 116.014H158.357L169.172 131.205Z" fill="#FBC341"/>
<path d="M162.377 121.661L158.748 116.562L162.377 121.661Z" fill="#DEBAA1"/>
<path d="M167.86 129.365L69.5439 125.1L75.0653 124.572C75.608 124.645 76.1399 124.785 76.6506 124.989C77.4413 125.305 78.2839 125.468 79.1333 125.468H84.1106C84.9119 125.468 85.6719 125.108 86.1799 124.486L86.4533 124.152L85.124 123.609L158.748 116.562L162.377 121.661L167.86 129.365Z" fill="#DC9632"/>
<path d="M83.0106 51.3023L86.788 39.8716L91.8586 41.4716L91.88 42.2757L93.2586 43.2423L92.904 43.481C92.2973 43.8863 91.9413 44.5743 91.9613 45.3036L89.9533 51.897L83.0106 51.3023Z" fill="#F0724E"/>
<path d="M91.9692 45.0449C92.0146 44.5636 92.2253 44.1129 92.5599 43.7676C92.2253 44.1116 92.0172 44.5623 91.9692 45.0449ZM92.5626 43.7636C92.5653 43.7622 92.5666 43.7596 92.5679 43.7582C92.5666 43.7596 92.5653 43.7622 92.5626 43.7636ZM92.5759 43.7502C92.5773 43.7489 92.5773 43.7489 92.5786 43.7476C92.5773 43.7489 92.5773 43.7489 92.5759 43.7502Z" fill="#DEBAA1"/>
<path d="M91.9692 45.0449C91.3172 44.9343 90.4212 44.6836 89.6692 44.1209L89.7239 43.3156C90.1252 43.4742 90.5572 43.5582 90.9959 43.5582C91.1292 43.5582 91.2625 43.5502 91.3972 43.5356L92.0838 43.4542C92.4798 43.4076 92.8705 43.3383 93.2558 43.2436L92.9039 43.4809C92.7852 43.5596 92.6759 43.6489 92.5786 43.7476C92.5772 43.7489 92.5772 43.7489 92.5759 43.7502C92.5732 43.7529 92.5706 43.7556 92.5679 43.7582C92.5666 43.7596 92.5652 43.7622 92.5625 43.7636C92.5612 43.7649 92.5612 43.7662 92.5599 43.7676C92.2252 44.1129 92.0145 44.5636 91.9692 45.0449Z" fill="#D3583A"/>
<path d="M88.5787 35.033C89.5614 38.229 88.052 41.529 85.208 42.4023C82.3653 43.2743 79.264 41.3903 78.2827 38.1943C77.3013 34.997 78.8106 31.6983 81.6533 30.8236C84.4973 29.9516 87.5974 31.8357 88.5787 35.033Z" fill="#682B22"/>
<path d="M78.0453 39.9209C76.9466 39.9209 75.9159 39.3022 75.8639 39.2689L75.7919 38.9662L76.0932 38.8929C76.1079 38.9022 77.5265 39.7569 78.6692 39.3876C79.1679 39.2262 79.5492 38.8462 79.7986 38.2569L80.0879 38.1396L80.2039 38.4289C79.9026 39.1422 79.4292 39.6063 78.8012 39.8089C78.5532 39.8876 78.2986 39.9209 78.0453 39.9209Z" fill="#682B22"/>
<path d="M84.9172 45.2169L84.7106 45.0729L84.8412 44.7903C84.8559 44.7836 86.4106 44.2049 86.8359 43.0863C87.0199 42.5956 86.9612 42.0596 86.6559 41.4969L86.7439 41.1983L87.0426 41.2863C87.4119 41.9689 87.4799 42.6276 87.2466 43.2436C86.7506 44.5516 85.0653 45.1783 84.9933 45.2036L84.9172 45.2169Z" fill="#682B22"/>
<path d="M84.1198 45.0863L83.9025 44.8983C83.8839 44.777 83.9666 44.665 84.0879 44.649C84.1066 44.645 86.0665 44.3423 86.5799 43.253C86.8052 42.7743 86.7145 42.193 86.3132 41.525L86.3879 41.221L86.6892 41.297C87.1745 42.0996 87.2719 42.821 86.9786 43.441C86.3626 44.745 84.2425 45.0703 84.1519 45.0836L84.1198 45.0863Z" fill="#682B22"/>
<path d="M92.0413 29.0263C93.5626 31.5929 92.0253 35.3143 88.612 37.3369C85.196 39.3596 81.196 38.9169 79.676 36.3489C78.1546 33.7796 79.6892 30.0596 83.1052 28.0383C86.5212 26.0156 90.5199 26.4583 92.0413 29.0263Z" fill="#682B22"/>
<path d="M83.4626 28.7875C80.3453 30.6342 78.7999 33.8942 79.7133 36.4036L79.676 36.3489C78.1546 33.7795 79.6892 30.0596 83.1052 28.0382C86.5212 26.0156 90.5199 26.4582 92.0413 29.0262C92.1746 29.2489 92.2746 29.4836 92.3612 29.7222C90.8146 27.2049 86.8519 26.7809 83.4626 28.7875Z" fill="#B14B3C"/>
<path d="M82.5585 33.701C83.2639 36.001 82.0746 38.4076 79.8986 39.0756C77.7239 39.7436 75.3879 38.4196 74.6813 36.1196C73.9746 33.8183 75.1652 31.413 77.3412 30.745C79.5159 30.077 81.8532 31.3996 82.5585 33.701Z" fill="#682B22"/>
<path d="M82.2493 34.245C81.5427 31.9437 79.2066 30.621 77.0306 31.289C76.128 31.5663 75.396 32.149 74.8987 32.8943C75.372 31.8877 76.2267 31.0877 77.3413 30.745C79.516 30.077 81.8533 31.3997 82.5586 33.701C82.9706 35.0437 82.7333 36.4223 82.032 37.4703C82.484 36.5117 82.5933 35.3663 82.2493 34.245Z" fill="#B14B3C"/>
<path d="M84.4359 37.9717C84.2559 37.9717 84.0879 37.8623 84.0225 37.6837C83.9385 37.4543 84.0559 37.2023 84.2839 37.117C87.4199 35.961 89.3253 34.4463 89.9479 32.617C90.5799 30.7517 89.6052 29.1703 89.5959 29.1543C89.4652 28.949 89.5266 28.6784 89.7319 28.5464C89.9359 28.417 90.2092 28.477 90.3399 28.681C90.3892 28.7597 91.5506 30.613 90.7879 32.8837C90.0799 34.985 87.9959 36.689 84.5879 37.9437L84.4359 37.9717Z" fill="#682B22"/>
<path d="M86.6625 34.3756L86.5838 35.4983C86.5838 35.4983 86.3479 37.5703 84.2212 37.9983L83.0732 37.0023L81.9438 36.101L82.2492 34.997L84.2039 34.0676L86.4825 34.4623L86.6625 34.3756Z" fill="#682B22"/>
<path d="M88.0026 30.2142C88.0026 30.2142 91.0959 30.1449 92.7026 33.5649C92.8413 33.8569 93.052 34.1089 93.3133 34.3009L95.3266 35.7649C95.4613 35.8636 95.5333 36.0249 95.5199 36.1903C95.5066 36.3583 95.4039 36.5063 95.2506 36.5796L94.8919 36.7502L94.7933 36.8636L94.7439 37.0223L94.876 37.3049L95.2213 37.4463L95.1359 37.8729L95.3746 38.2889L95.5333 38.5156C95.7199 38.7809 95.5573 39.0383 95.5439 39.3636L96.216 40.3116C96.5986 41.1263 96.236 42.0956 95.4093 42.4596L94.8639 42.6996C93.9799 43.0876 93.0439 43.3423 92.0839 43.4543L91.3973 43.5356C90.2199 43.6716 89.0546 43.1983 88.3079 42.2756L87.3626 41.1089C84.8506 42.3049 81.8533 40.8783 81.24 38.1636C80.8186 36.3089 80.9173 34.3196 82.516 32.9903C82.516 32.9903 85.1133 30.5036 88.0026 30.2142Z" fill="#F0724E"/>
<path d="M95.5439 39.3636C95.5439 39.3636 94.4973 39.1757 94.0426 38.6063C94.2853 38.665 94.5652 38.6797 94.7919 38.6797C95.0399 38.6797 95.2252 38.661 95.2252 38.661C95.3999 38.6556 95.5093 38.6263 95.5759 38.5876C95.6106 38.6583 95.6226 38.7303 95.6226 38.8023C95.6226 38.9757 95.5519 39.1556 95.5439 39.3636Z" fill="#D3583A"/>
<path d="M93.7479 38.4142C93.9346 38.2875 94.4652 37.8929 94.7106 37.3542C94.7106 37.3542 94.7453 36.9756 95.1479 37.0289C95.1479 37.0289 95.4692 37.2729 95.2532 37.8169C95.2532 37.8169 95.6519 38.1556 95.6612 38.3569C95.6612 38.3569 95.8079 38.6436 95.2252 38.6609C95.2252 38.6609 94.2359 38.7609 93.7505 38.4996L93.7479 38.4142Z" fill="#B73C2B"/>
<path d="M94.8918 36.7502L95.2505 36.5796C95.4038 36.5063 95.5065 36.3583 95.5198 36.1903C95.5238 36.1516 95.5225 36.1143 95.5159 36.0783C95.5225 36.1143 95.5238 36.1516 95.5198 36.1903C95.5065 36.3583 95.4038 36.5063 95.2505 36.5796L94.9105 36.7409L94.8918 36.7502Z" fill="#DEBAA1"/>
<path d="M93.7813 37.1343C93.3453 37.1343 93.272 36.5529 93.272 36.5529L93.5267 36.5716C93.6507 36.5369 93.7533 36.4476 93.8147 36.3356C94.056 35.8943 94.364 35.8303 94.5226 35.8303C94.588 35.8303 94.628 35.841 94.628 35.841C94.736 35.8503 94.828 35.8543 94.9053 35.8543C95.2906 35.8543 95.3147 35.7596 95.3147 35.7596L95.344 35.7809C95.436 35.8556 95.4973 35.9623 95.516 36.0783C95.5226 36.1143 95.524 36.1516 95.52 36.1903C95.5066 36.3583 95.404 36.5063 95.2506 36.5796L94.892 36.7503C94.5546 36.9463 93.9666 37.1036 93.9666 37.1036C93.8986 37.1249 93.836 37.1343 93.7813 37.1343Z" fill="#D3583A"/>
<path d="M92.2159 34.3636C91.9865 34.265 91.7452 34.2836 91.5185 34.3303L91.1865 34.4343L91.0292 34.505L90.9532 34.5423L90.8838 34.5797C90.6972 34.673 90.5039 34.761 90.3119 34.8276L90.0278 34.8996L89.7918 34.8636L89.7759 34.8516L89.6692 34.869L89.6719 34.9623L89.7439 35.0437L89.8372 35.0983L89.9346 35.1276L90.0292 35.1423C90.1559 35.1477 90.2772 35.1357 90.3905 35.1077C90.6199 35.0557 90.8292 34.9676 91.0305 34.865L91.3132 34.7143L91.5945 34.589C91.7852 34.5156 91.9878 34.4543 92.1892 34.449H92.1999L92.2439 34.4023L92.2159 34.3636Z" fill="#682B22"/>
<path d="M91.5933 34.9063C91.6826 35.0943 91.8292 35.2076 91.9226 35.165C92.0159 35.121 92.0186 34.933 91.9293 34.7476C91.8413 34.5596 91.6933 34.4436 91.5999 34.4876C91.5079 34.533 91.5053 34.7197 91.5933 34.9063Z" fill="#682B22"/>
<path d="M92.1959 35.1636L92.2119 35.1556L92.2266 35.1036L92.1746 35.089C92.1719 35.0903 92.0226 35.1703 91.8892 35.1156C91.8026 35.0796 91.7413 34.9943 91.7013 34.8623L91.6532 34.8356L91.6266 34.8836C91.6733 35.041 91.7506 35.1436 91.8599 35.1876C92.0026 35.2463 92.1479 35.1876 92.1959 35.1636Z" fill="#682B22"/>
<path d="M91.5973 32.8023C91.4639 32.7369 91.3479 32.7423 91.2333 32.7689L90.9026 32.8756C90.6839 32.9503 90.4733 33.0489 90.2733 33.1609C90.0733 33.2743 89.8826 33.4022 89.7093 33.5502C89.5333 33.6969 89.3773 33.8649 89.2373 34.0383L89.2426 34.0956L89.2906 34.0969H89.2919C89.4773 33.9756 89.6559 33.8543 89.8506 33.7609C90.0386 33.6596 90.2346 33.5729 90.432 33.4996C90.6306 33.4236 90.832 33.3649 91.0346 33.3129L91.3413 33.2476L91.6279 33.0983L91.648 33.0769L91.6373 32.8303L91.5973 32.8023Z" fill="#682B22"/>
<path d="M94.8426 36.3356C94.7106 36.3369 94.5866 36.3609 94.4679 36.4156L94.1666 36.6556L93.9172 36.8303L93.6079 36.7929L93.5719 36.8076L93.5772 36.8369C93.6639 36.9263 93.8026 36.9889 93.9466 36.9676C94.0919 36.9476 94.2066 36.8543 94.2852 36.7463L94.5172 36.513L94.8399 36.4236H94.8439L94.8865 36.377L94.8426 36.3356Z" fill="#682B22"/>
<path d="M90.0546 28.5449C91.42 30.8516 89.8933 34.2809 86.6427 36.2063C83.3947 38.1303 79.6519 37.8196 78.2866 35.5129C76.9199 33.2049 78.448 29.7756 81.6973 27.8516C84.948 25.9289 88.688 26.2383 90.0546 28.5449Z" fill="#682B22"/>
<path d="M89.9612 28.9023C88.5972 26.5997 84.7386 26.3637 81.3399 28.3743C80.4239 28.9183 79.6399 29.569 79.0039 30.2743C79.6666 29.361 80.5772 28.5156 81.6972 27.8516C84.9479 25.929 88.6879 26.2383 90.0546 28.545C90.7546 29.7263 90.6919 31.2023 90.0279 32.621C90.5719 31.3036 90.5959 29.9743 89.9612 28.9023Z" fill="#B14B3C"/>
<path d="M87.4453 31.7142C87.4453 31.7142 88.0506 32.2956 87.0813 33.9009C87.0813 33.9009 86.7132 34.7903 87.2026 35.2556C87.2026 35.2556 88.7252 36.3009 88.0932 37.1743C88.0932 37.1743 87.6572 37.9343 87.1386 37.6263C87.1386 37.6263 85.9466 36.6089 85.0932 37.6129C85.0932 37.6129 84.1506 38.5996 85.4439 39.9943C85.4439 39.9943 86.0999 40.7343 87.0399 40.6609C87.0399 40.6609 88.5906 42.1983 86.3813 44.0556C86.3813 44.0556 82.7293 45.1129 80.2453 40.4596C79.2119 38.5263 79.2225 36.1809 80.3505 34.3023C80.9892 33.2343 82.0319 32.1249 83.7132 31.1689C83.7132 31.1689 85.8079 29.9076 86.9612 30.8089C86.9612 30.8089 87.2693 30.9196 87.4453 31.7142Z" fill="#682B22"/>
<path d="M87.7306 40.5997C87.7986 40.745 87.9719 40.8077 88.1186 40.7383C88.2626 40.669 88.3239 40.4956 88.2546 40.3503C88.1853 40.2063 88.0133 40.145 87.8679 40.213C87.7239 40.2823 87.6612 40.4557 87.7306 40.5997Z" fill="#923C1D"/>
<path d="M89.3373 50.5183H85.9746C83.136 50.5183 80.8346 52.8196 80.8346 55.6583V60.5596C80.8346 66.3703 76.1253 71.0797 70.316 71.0797C65.1 71.0797 60.8719 75.3076 60.8719 80.5223C60.8719 83.765 62.3693 86.8263 64.9293 88.8183L65.3147 89.117C70.9 93.461 77.324 96.5983 84.1826 98.333C79.9146 101.968 76.3599 106.361 73.6946 111.292L68.5106 120.882C68.2853 121.301 68.1853 121.774 68.2226 122.249C68.3239 123.526 69.392 124.512 70.6733 124.512H74.1693C75.0199 124.512 75.8613 124.673 76.6506 124.989C77.4413 125.305 78.2839 125.468 79.1333 125.468H84.1106C84.912 125.468 85.672 125.108 86.18 124.486L86.4533 124.152L75.3359 119.61L93.444 101.404C95.436 99.401 95.364 96.1436 93.288 94.229L80.3559 82.3156L91.832 73.9476L96.8106 67.4983C98.2133 65.6837 98.392 63.205 97.2653 61.2077L92.168 52.1717C91.5906 51.1503 90.5093 50.5183 89.3373 50.5183Z" fill="#F0724E"/>
<path d="M89.8946 75.361L91.8319 73.9476L89.8946 75.361ZM91.8319 73.9476L93.5226 71.757C93.5226 71.757 93.5226 71.757 93.5226 71.7583L91.8319 73.9476ZM78.8052 66.7716L78.7972 66.765C79.3052 66.0703 79.7346 65.3143 80.0626 64.505C80.0639 64.5063 80.0666 64.5076 80.0679 64.5076C79.9613 64.773 79.8439 65.0303 79.7172 65.2836C79.7132 65.2903 79.7106 65.2956 79.7079 65.3023C79.7053 65.305 79.7039 65.309 79.7026 65.3116C79.6346 65.445 79.5652 65.5756 79.4919 65.705C79.2839 66.0756 79.0546 66.4316 78.8052 66.7716Z" fill="#DEBAA1"/>
<path d="M89.8945 75.361L78.8052 66.7716C79.0545 66.4316 79.2838 66.0756 79.4918 65.7063L91.8319 73.9476L89.8945 75.361ZM79.7025 65.3116C79.7038 65.309 79.7052 65.305 79.7078 65.3023C79.7052 65.305 79.7038 65.309 79.7025 65.3116ZM79.7172 65.2836C79.8438 65.0303 79.9612 64.773 80.0679 64.5076C80.0679 64.509 80.0679 64.5076 80.0679 64.509C79.9612 64.773 79.8438 65.0303 79.7172 65.2836Z" fill="#D3583A"/>
<path d="M92.3613 56.5437V52.5156L92.168 52.1717C91.9493 51.785 91.6586 51.4556 91.3186 51.1943V55.6876C91.3186 58.3996 89.1 60.6183 86.388 60.6183C83.6773 60.6183 81.4586 58.3996 81.4586 55.6876V53.205C81.0613 53.933 80.8347 54.769 80.8347 55.6583V60.5596C80.8347 62.4303 80.3479 64.185 79.4919 65.705L91.832 73.9476L96.8106 67.4983C97.9146 66.0703 98.2466 64.233 97.7946 62.541C94.7559 62.241 92.3613 59.6583 92.3613 56.5437Z" fill="white"/>
<path d="M80.4919 63.2316C80.2639 64.1063 79.9253 64.9357 79.4919 65.7063L91.832 73.9476L93.7266 71.4943L80.4919 63.2316Z" fill="#3D7195"/>
<path d="M93.288 94.229L80.3559 82.3156L81.7973 81.265L73.5613 70.569C72.5386 70.8996 71.448 71.0796 70.316 71.0796C65.1 71.0796 60.8719 75.3076 60.8719 80.5223C60.8719 83.7649 62.3693 86.8263 64.9293 88.8183L65.3147 89.1169C70.9 93.4609 77.324 96.5983 84.1826 98.333C79.9146 101.968 76.3599 106.361 73.6946 111.292L73.0866 112.416L75.144 113.193L81.0147 107.929L77.9973 114.269L79.9226 114.998L93.444 101.404C95.436 99.401 95.364 96.1436 93.288 94.229Z" fill="#3D7195"/>
<path d="M87.5959 27.6556L87.1998 27.6289C85.4425 27.5076 83.9065 28.8449 83.7838 30.6023L82.2065 53.4329C82.0839 55.1903 83.4225 56.7276 85.1812 56.8489L85.5745 56.8756C87.3332 56.9983 88.8705 55.6596 88.9918 53.9023L90.5705 31.073C90.6919 29.3143 89.3532 27.7769 87.5959 27.6556Z" fill="#F0724E"/>
<path d="M85.4386 56.8663C85.4186 56.8663 85.3986 56.865 85.3786 56.8637C85.364 56.8623 85.3493 56.861 85.3333 56.8597L85.4386 56.8663Z" fill="#D3583A"/>
<path d="M89.2266 50.5183H89.2252L89.6679 44.1196L89.6692 44.121L89.2266 50.5183Z" fill="#D3583A"/>
<path d="M89.6693 44.121L89.668 44.1196L89.724 43.3156L89.6693 44.121Z" fill="#B8442B"/>
<path d="M89.7239 43.3156L90.2892 35.1276C90.2905 35.1276 90.2905 35.1276 90.2905 35.1276L89.7239 43.3156ZM90.3105 34.8289L90.4012 33.5116H90.4025L90.3105 34.8276V34.8289ZM90.4319 33.0769L90.5612 31.2022C90.5598 31.2249 90.5585 31.2476 90.5572 31.2689L90.4319 33.0769Z" fill="#D3583A"/>
<path d="M90.2893 35.1276L90.3107 34.8289V34.8276L90.2907 35.1276C90.2907 35.1276 90.2906 35.1276 90.2893 35.1276Z" fill="#59231C"/>
<path d="M90.4012 33.5116L90.4319 33.0769L90.4025 33.5116H90.4012Z" fill="#59231C"/>
<path d="M89.0012 53.7689L89.2252 50.5182H89.2265L89.0066 53.7049C89.0052 53.7263 89.0026 53.7476 89.0012 53.7689Z" fill="#D3583A"/>
<path d="M85.6133 56.8716C85.5559 56.8716 85.4973 56.8702 85.4386 56.8662L85.3333 56.8596C85.1893 56.8462 85.048 56.8222 84.9093 56.7929C86.4293 56.5436 87.6466 55.2743 87.7573 53.6743L89.2053 32.7262C89.4519 32.5022 89.66 32.2449 89.8266 31.9662C90.324 31.1809 90.4133 30.4076 90.304 29.7342C90.4933 30.1862 90.5866 30.6849 90.5613 31.2022L90.432 33.0769L90.4013 33.5116L90.3106 34.8289L90.2892 35.1276L89.7239 43.3156L89.668 44.1196L89.2253 50.5182L89.0013 53.7689C88.8466 55.5249 87.3586 56.8716 85.6133 56.8716Z" fill="#D3583A"/>
<path d="M83.9106 31.7983L78.6306 14.3089L78.448 13.9783L81.38 12.4303L89.9253 28.6223C90.7986 30.2769 90.16 32.3449 88.5053 33.2169C86.8506 34.0916 84.7826 33.4516 83.9106 31.7983Z" fill="#F0724E"/>
<path d="M90.2386 29.4236C90.2306 29.4076 90.2226 29.3929 90.216 29.3783C90.1506 29.1209 90.0546 28.8662 89.9253 28.6222C90.0506 28.8596 90.1626 29.1289 90.2386 29.4236Z" fill="#99392D"/>
<path d="M90.304 29.7343C90.2946 29.7103 90.2839 29.6876 90.2746 29.6649C90.2586 29.5689 90.2386 29.4729 90.2159 29.3783C90.2226 29.3929 90.2306 29.4076 90.2386 29.4236C90.2653 29.5236 90.2866 29.6276 90.304 29.7343Z" fill="#D3583A"/>
<path d="M89.8267 31.9663C90.2373 31.2823 90.4026 30.465 90.2746 29.665C90.284 29.6876 90.2947 29.7103 90.304 29.7343C90.4133 30.4076 90.324 31.181 89.8267 31.9663Z" fill="#B8442B"/>
<path d="M89.3999 32.5289L80.912 14.1996C81.276 13.8729 81.48 13.4209 81.48 12.9676C81.4813 12.7903 81.4506 12.6129 81.3866 12.4436L89.9253 28.6223C90.0546 28.8663 90.1506 29.1209 90.216 29.3783C90.2386 29.4729 90.2586 29.5689 90.2746 29.6649C90.4026 30.4649 90.2373 31.2823 89.8266 31.9663C89.708 32.1543 89.5666 32.3409 89.3999 32.5289Z" fill="#D3583A"/>
<path d="M78.3773 13.9329L78.3706 13.9369C77.3866 12.2636 75.3813 9.65959 74.6973 7.31425L74.0213 0.911618C73.98 0.520951 74.4147 0.236921 74.7453 0.447588C76.408 1.50492 78.5906 7.25694 79.352 8.66627L81.248 12.1796L81.3026 12.2596C81.7159 13.0236 81.384 14.001 80.5626 14.445C79.768 14.873 78.812 14.6396 78.3773 13.9329Z" fill="#F0724E"/>
<path d="M80.512 14.4703H80.5133H80.512ZM80.5239 14.465C80.5373 14.4583 80.5493 14.4517 80.5626 14.445C80.6919 14.3743 80.808 14.2917 80.912 14.1997C80.808 14.2917 80.6919 14.3743 80.5626 14.445C80.5493 14.4517 80.5373 14.4583 80.5239 14.465Z" fill="#D3583A"/>
<path d="M74.7453 0.447632C74.6973 0.416965 74.6466 0.39697 74.5959 0.386304C74.6466 0.39697 74.6973 0.416965 74.7453 0.447632Z" fill="#DEBAA1"/>
<path d="M79.7266 14.6583C79.2973 14.6583 78.8879 14.497 78.5919 14.201C78.6279 14.2037 78.664 14.205 78.7013 14.205C78.9827 14.205 79.2707 14.137 79.54 13.9917C80.3613 13.5477 80.692 12.5703 80.2813 11.8063L80.2266 11.7263L78.3293 8.21301C77.6453 6.94501 75.8107 2.17699 74.24 0.458326C74.3187 0.406326 74.4106 0.377011 74.5053 0.377011C74.5346 0.377011 74.5653 0.379654 74.596 0.386321C74.6466 0.396988 74.6973 0.416983 74.7453 0.447649C76.408 1.50498 78.5906 7.257 79.352 8.66633L81.248 12.1797L81.3026 12.2597C81.424 12.4837 81.4813 12.7263 81.48 12.9677C81.48 13.421 81.276 13.873 80.912 14.1997C80.808 14.2917 80.692 14.3743 80.5626 14.445C80.5493 14.4517 80.5373 14.4583 80.524 14.465C80.52 14.4663 80.5173 14.4677 80.5133 14.4703H80.512C80.2573 14.5983 79.988 14.6583 79.7266 14.6583Z" fill="#D3583A"/>
<path d="M80.7519 111.262L80.6799 111.35C80.5559 111.449 80.3746 111.429 80.2772 111.306L78.0199 108.474C77.9212 108.35 77.9413 108.172 78.0653 108.072C78.1879 107.974 78.3679 107.994 78.4666 108.117L80.7239 110.949L80.7519 111.262Z" fill="#3D7195"/>
<path d="M81.4199 110.097C81.3639 110.201 81.2492 110.264 81.1279 110.248L77.5359 109.744C77.3799 109.721 77.2706 109.577 77.2933 109.421C77.3133 109.264 77.4599 109.154 77.6159 109.176L81.2066 109.68C81.3626 109.702 81.4719 109.846 81.4506 110.004L81.4199 110.097Z" fill="#3D7195"/>
<path d="M80.1159 112.712L80.0412 112.801C79.9172 112.9 79.7372 112.878 79.6386 112.756L77.3813 109.925C77.2826 109.801 77.3013 109.622 77.4266 109.522C77.5506 109.425 77.7306 109.444 77.8293 109.568L80.0866 112.398L80.1159 112.712Z" fill="#3D7195"/>
<path d="M80.7825 111.548C80.7278 111.652 80.6118 111.713 80.4892 111.697L76.8985 111.193C76.7425 111.17 76.6332 111.026 76.6545 110.87C76.6772 110.714 76.8212 110.604 76.9772 110.626L80.5692 111.13C80.7265 111.152 80.8345 111.297 80.8132 111.453L80.7825 111.548Z" fill="#3D7195"/>
<path d="M79.404 114.049L79.3293 114.138C79.2053 114.237 79.0253 114.216 78.9266 114.093L76.6693 111.262C76.5719 111.138 76.5893 110.96 76.7147 110.86C76.8387 110.761 77.0186 110.781 77.1173 110.905L79.3746 113.736L79.404 114.049Z" fill="#3D7195"/>
<path d="M80.0707 112.885C80.016 112.988 79.9013 113.05 79.7787 113.034L76.1866 112.53C76.0293 112.508 75.92 112.364 75.9427 112.208C75.9667 112.05 76.1093 111.941 76.2653 111.964L79.8573 112.468C80.0147 112.489 80.124 112.634 80.1013 112.79L80.0707 112.885Z" fill="#3D7195"/>
<path d="M72.7718 70.7903C72.4332 70.8717 72.0865 70.929 71.7358 70.977L80.5918 82.1437L81.3425 81.5957L72.7718 70.7903Z" fill="#223C50"/>
</svg>
