<svg width="169" height="78" viewBox="0 0 169 78" fill="none" xmlns="http://www.w3.org/2000/svg">
<path d="M169 77.5493H0.218628L11.0317 62.3587H158.187L169 77.5493" fill="#FBC341"/>
<path d="M169 77.5493H0.218628L11.0317 62.3587H158.187L169 77.5493" fill="#FBC341"/>
<path d="M165.841 73.1119H39.9973L40.005 73.1106C40.0848 73.1106 40.1651 73.1119 40.2457 73.1119C41.466 73.1119 42.7963 73.0292 43.952 72.9479C45.1077 72.8666 46.0884 72.7852 46.6113 72.7852C46.6118 72.7852 46.6124 72.7852 46.6135 72.7852L50.7545 72.7866L50.8561 72.7973C51.6722 72.7973 52.3488 72.1599 52.4665 71.3306L76.6192 67.8799C77.326 67.7786 77.3014 66.7492 76.5894 66.6826L53.2301 64.5053L53.4697 63.1053L53.7373 63.1546L53.7536 63.0666L85.4869 62.8519C85.9421 64.3626 86.4613 65.8559 87.0436 67.3279L87.9296 69.5679C88.404 70.7666 89.5624 71.5546 90.852 71.5546H103.657C106.553 71.5546 109.444 71.3226 112.304 70.8599L123.399 69.0613L129.645 70.5492C130.788 70.8212 131.959 70.9586 133.133 70.9586H134.888V69.9199C134.888 69.1772 134.285 68.5746 133.541 68.5746C132.925 68.5746 132.313 68.4746 131.729 68.2773L129.597 67.5586C128.627 67.2293 127.763 66.6453 127.097 65.8653L124.301 62.5879L158.187 62.3586L165.841 73.1119V73.1119ZM121.159 64.5466L106.267 63.0559C105.627 62.9932 104.987 62.9613 104.347 62.9613C102.413 62.9613 100.487 63.2506 98.6333 63.8239L96.3026 64.5466L96.136 63.7946C96.0626 63.4573 95.9946 63.1199 95.9333 62.7812L122.605 62.5999C122.599 62.6079 122.592 62.6159 122.587 62.6239L121.159 64.5466" fill="#DC9632"/>
<path d="M133.541 61.8919C132.925 61.8919 132.313 61.7919 131.729 61.5946L129.597 60.876C128.627 60.548 127.763 59.9626 127.097 59.1839L124.283 55.8839C123.831 55.3533 123.001 55.3813 122.587 55.9413L121.159 57.8639L106.267 56.3746C103.696 56.1173 101.101 56.3786 98.6332 57.1426L96.3025 57.8639L96.1359 57.1133C95.6399 54.868 95.4425 52.5733 95.5452 50.2879H91.3987V64.8733H103.657C106.552 64.8733 109.444 64.6413 112.303 64.1773L123.399 62.38L129.645 63.8666C130.788 64.14 131.959 64.2773 133.133 64.2773H134.888V63.2386C134.888 62.4946 134.285 61.8919 133.541 61.8919" fill="#D4533A"/>
<path d="M115.847 57.3333L106.267 56.3746C103.696 56.1173 101.101 56.3786 98.6332 57.1426L96.3025 57.8639L96.1359 57.1133C95.6399 54.868 95.4425 52.5733 95.5452 50.2879H91.3987V64.8733H103.657C106.552 64.8733 109.444 64.6413 112.303 64.1773L115.847 63.604V61.7746L109.709 60.74L115.847 59.0306V57.3333" fill="#223C50"/>
<path d="M113.936 62.564L113.809 62.5373C113.655 62.468 113.585 62.2853 113.656 62.132L115.26 58.568C115.329 58.4133 115.511 58.3453 115.665 58.4133C115.82 58.4826 115.888 58.6653 115.82 58.8186L114.216 62.3826L113.936 62.564" fill="#223C50"/>
<path d="M115.431 62.6093C115.307 62.6093 115.191 62.5333 115.144 62.4119L113.757 58.7572C113.697 58.5986 113.777 58.4212 113.936 58.3612C114.093 58.3012 114.271 58.3813 114.331 58.5399L115.717 62.1932C115.777 62.3519 115.697 62.5292 115.539 62.5892L115.431 62.6093" fill="#223C50"/>
<path d="M112.173 62.6907L112.048 62.664C111.893 62.5947 111.825 62.4133 111.893 62.2587L113.497 58.6947C113.568 58.54 113.749 58.472 113.904 58.54C114.059 58.6107 114.128 58.792 114.057 58.9467L112.453 62.5107L112.173 62.6907" fill="#223C50"/>
<path d="M113.668 62.736C113.545 62.736 113.428 62.6613 113.383 62.5373L111.996 58.8839C111.936 58.7253 112.016 58.5479 112.173 58.4879C112.332 58.4279 112.509 58.508 112.569 58.6666L113.956 62.3199C114.016 62.4786 113.936 62.6559 113.777 62.7159L113.668 62.736" fill="#223C50"/>
<path d="M110.485 62.6907L110.359 62.664C110.204 62.5947 110.135 62.4133 110.205 62.2587L111.809 58.6947C111.879 58.54 112.06 58.472 112.215 58.54C112.369 58.6107 112.439 58.792 112.368 58.9467L110.765 62.5107L110.485 62.6907" fill="#223C50"/>
<path d="M111.98 62.736C111.856 62.736 111.74 62.6613 111.692 62.5373L110.307 58.8839C110.247 58.7253 110.327 58.5479 110.485 58.4879C110.643 58.4279 110.82 58.508 110.881 58.6666L112.267 62.3199C112.327 62.4786 112.247 62.6559 112.088 62.7159L111.98 62.736" fill="#223C50"/>
<path d="M53.8921 47.6026C52.0498 47.6852 50.4749 46.2452 50.3926 44.4039L49.4202 24.7505C49.3378 22.9092 50.7774 21.3332 52.6192 21.2505C54.4608 21.1679 56.0358 22.6079 56.1186 24.4492L57.0905 44.1026C57.1728 45.9452 55.7342 47.5199 53.8921 47.6026" fill="#D4533A"/>
<path d="M50.4478 44.472L50.6426 62.2147C50.6216 62.3293 50.5967 62.448 50.5696 62.5747L53.7372 63.1547L56.9472 45.664C57.2748 43.8773 56.0806 42.1467 54.294 41.8187H54.2935C52.506 41.4907 50.7759 42.684 50.4478 44.472Z" fill="#D4533A"/>
<path d="M52.0364 60.9186V60.912C50.1515 60.844 47.0015 60.3387 44.6796 60.828L38.8957 63.168C38.5436 63.3107 38.5004 63.8053 38.8332 63.988C39.9785 64.6173 43.1249 64.452 45.4911 64.2853C46.5744 64.2093 47.4941 64.132 47.9832 64.1333H51.8603L51.9556 64.1427C52.7973 64.1427 53.4807 63.42 53.4807 62.5267C53.4807 61.664 52.8405 60.9653 52.0364 60.9186" fill="#D4533A"/>
<path d="M53.0238 21.1707L46.5858 14.4134L41.806 17.5227L42.0154 18.3614L40.868 19.7547L41.3044 19.8987C42.0467 20.144 42.6123 20.7534 42.8019 21.512L47.0956 26.1774L53.0238 21.1707" fill="#F0724E"/>
<path d="M42.717 21.2479C42.5962 20.9306 42.4071 20.6479 42.1665 20.4173C42.4071 20.6479 42.5967 20.9306 42.7181 21.2466C42.7181 21.2466 42.7175 21.2466 42.717 21.2479V21.2479ZM42.1639 20.4146C42.1618 20.4133 42.1593 20.4106 42.1571 20.4093C42.1593 20.4106 42.1618 20.4133 42.1639 20.4146ZM42.1493 20.4013C42.1483 20.3999 42.1478 20.3999 42.1467 20.3986C42.1478 20.3999 42.1483 20.3999 42.1493 20.4013Z" fill="#DEBAA1"/>
<path d="M42.7181 21.2467C42.5967 20.9307 42.4071 20.648 42.1665 20.4173C42.1654 20.4173 42.165 20.416 42.1639 20.4147C42.1618 20.4133 42.1593 20.4107 42.1571 20.4094C42.1545 20.4067 42.1519 20.404 42.1493 20.4014C42.1483 20.4 42.1478 20.4 42.1467 20.3987C41.9093 20.176 41.6233 20.004 41.3045 19.8987L40.8706 19.756C41.2962 19.7427 41.7206 19.7027 42.1415 19.6374L42.8754 19.5227C44.0659 19.336 45.0869 18.5853 45.6211 17.516C45.5118 19.6013 43.8113 20.732 42.7181 21.2467Z" fill="#D3583A"/>
<path d="M43.3436 9.92798C43.2479 13.5133 45.7556 16.488 48.9447 16.5733C52.1332 16.6587 54.7963 13.8213 54.8921 10.236C54.9873 6.65065 52.4796 3.67464 49.2911 3.5893C46.102 3.5053 43.4395 6.34264 43.3436 9.92798" fill="#682B22"/>
<path d="M54.9112 12.0667L54.8175 12.0653C54.1082 12.0373 53.4836 11.692 52.9634 11.0373L53.003 10.688L53.353 10.728C53.7784 11.2626 54.2779 11.5453 54.8358 11.568C56.1112 11.6253 57.3336 10.3333 57.3456 10.32L57.6972 10.308L57.7087 10.66C57.6544 10.7186 56.3779 12.0667 54.9112 12.0667Z" fill="#682B22"/>
<path d="M49.9921 19.42L49.9722 19.4187C49.8905 19.4134 47.9634 19.2507 47.0706 18.0361C46.6503 17.4641 46.5311 16.7601 46.717 15.9454C46.7473 15.8121 46.8779 15.724 47.015 15.7587C47.1487 15.7894 47.2326 15.9227 47.2019 16.056C47.0498 16.724 47.1405 17.2894 47.4706 17.7401C48.2269 18.7694 49.9941 18.9214 50.0107 18.9227C50.1483 18.9347 50.2503 19.0534 50.2394 19.1907C50.229 19.3214 50.1202 19.42 49.9921 19.42" fill="#682B22"/>
<path d="M50.1295 19.0894C49.3473 19.0894 48.0878 18.9534 47.4055 18.164C46.9222 17.604 46.8139 16.828 47.0847 15.8547C47.1217 15.7214 47.2555 15.644 47.3905 15.6813C47.5233 15.7173 47.6009 15.856 47.5639 15.988C47.3405 16.7894 47.4145 17.4134 47.7826 17.8387C48.6243 18.8134 50.7238 18.5614 50.7462 18.56C50.8763 18.5374 51.0061 18.6387 51.0243 18.776C51.041 18.912 50.9446 19.036 50.8087 19.0534C50.7763 19.0574 50.5093 19.0894 50.1295 19.0894" fill="#682B22"/>
<path d="M38.041 4.71725C37.2076 7.80658 39.8639 11.2106 43.9732 12.3186C48.0826 13.4253 52.0894 11.8186 52.9222 8.72793C53.7555 5.63726 51.0992 2.23463 46.9899 1.12663C42.8806 0.0186253 38.8738 1.62658 38.041 4.71725Z" fill="#682B22"/>
<path d="M46.8373 2.00536C50.5889 3.01736 53.1212 5.94269 52.8993 8.79602L52.9222 8.72802C53.7556 5.63869 51.0993 2.23472 46.99 1.12672C42.8806 0.0187176 38.8738 1.62668 38.041 4.71734C37.9686 4.98534 37.9317 5.25602 37.9108 5.52802C38.7842 2.48269 42.7582 0.905363 46.8373 2.00536" fill="#B14B3C"/>
<path d="M49.1826 6.82136C49.1139 9.40136 51.0358 11.5454 53.4754 11.6107C55.9154 11.6747 57.9483 9.63736 58.0175 7.05736C58.0858 4.47736 56.1639 2.33334 53.7243 2.26801C51.2852 2.20267 49.2514 4.24136 49.1826 6.82136" fill="#682B22"/>
<path d="M49.6588 7.29463C49.7269 4.71463 51.7608 2.67598 54.2004 2.74131C55.2151 2.76798 56.1373 3.15862 56.8665 3.78662C56.0864 2.88262 54.9744 2.30127 53.7244 2.26794C51.2853 2.2026 49.2515 4.24129 49.1827 6.82129C49.1427 8.32796 49.7843 9.68263 50.8093 10.564C50.0671 9.70396 49.6249 8.5533 49.6588 7.29463Z" fill="#B14B3C"/>
<path d="M48.3436 11.816L48.3025 11.8147C44.4135 11.496 41.7629 10.332 40.4244 8.35738C38.9769 6.22005 39.6479 3.95872 39.6769 3.86405C39.7572 3.60139 40.0348 3.45603 40.2968 3.53469C40.5593 3.61469 40.7077 3.89074 40.6291 4.15474C40.6228 4.17341 40.0728 6.07607 41.2572 7.81073C42.4217 9.5174 44.8192 10.5307 48.3837 10.8227C48.6572 10.8454 48.8619 11.0854 48.84 11.3601C48.8187 11.6201 48.5999 11.816 48.3436 11.816Z" fill="#682B22"/>
<path d="M45.1368 8.6987L45.5388 9.83604C45.5388 9.83604 46.38 11.9094 48.7003 11.74L49.6003 10.38L50.5076 9.12536L49.8748 8.07204L47.5883 7.67338L45.3462 8.73604L45.1368 8.6987" fill="#682B22"/>
<path d="M42.5555 4.78399C42.5555 4.78399 39.3383 5.6 38.6623 9.596C38.603 9.93733 38.4582 10.2587 38.2426 10.5307L36.5837 12.624C36.4733 12.7627 36.443 12.9507 36.505 13.1173C36.5681 13.288 36.717 13.412 36.8957 13.4427L37.3165 13.516L37.4503 13.6053L37.5467 13.7547L37.491 14.0853L37.1749 14.3307L37.3858 14.748L37.2587 15.2453L37.1593 15.5253C37.0435 15.8533 37.2858 16.0733 37.393 16.404L36.9706 17.576C36.8093 18.528 37.4639 19.4267 38.4206 19.564L39.0525 19.656C40.0779 19.8027 41.1191 19.7973 42.1415 19.6373L42.8754 19.5227C44.1321 19.3267 45.1998 18.5013 45.7055 17.3347L46.3478 15.8573C49.2873 16.3693 51.9738 14.0347 51.8285 11.0547C51.729 9.01599 51.0555 6.99068 49.0233 6.07601C49.0233 6.07601 45.6243 4.25199 42.5555 4.78399" fill="#F0724E"/>
<path d="M37.393 16.4041C37.306 16.1347 37.1295 15.9387 37.129 15.7C37.1284 15.6707 37.1311 15.6414 37.1363 15.6121C37.1686 15.6201 37.2071 15.6254 37.2535 15.6254C37.3232 15.6254 37.4107 15.6147 37.5206 15.5867C37.5206 15.5867 38.2368 15.464 38.7259 15.1907C38.4191 15.9094 37.393 16.4041 37.393 16.4041Z" fill="#D3583A"/>
<path d="M38.9743 14.9066C38.7462 14.8306 38.0853 14.5746 37.6769 14.0879C37.6769 14.0879 37.5311 13.7066 37.1301 13.8786C37.1301 13.8786 36.8686 14.2226 37.2473 14.7239C37.2473 14.7239 36.9331 15.1879 36.9817 15.3973C36.9817 15.3973 36.9123 15.7359 37.5206 15.5866C37.5206 15.5866 38.5717 15.4053 38.9967 14.9973L38.9743 14.9066" fill="#B73C2B"/>
<path d="M37.3164 13.516L37.2935 13.512L36.8956 13.4427C36.717 13.412 36.568 13.288 36.505 13.1173C36.4972 13.0973 36.491 13.076 36.4863 13.0547C36.491 13.076 36.4972 13.0973 36.505 13.1173C36.568 13.288 36.717 13.412 36.8956 13.4427L37.3164 13.516V13.516ZM36.4858 13.0533C36.4858 13.0507 36.4852 13.0493 36.4847 13.048C36.4852 13.0493 36.4858 13.0507 36.4858 13.0533ZM36.4836 13.0427C36.4836 13.0427 36.4836 13.0427 36.4836 13.0413C36.4836 13.0427 36.4836 13.0427 36.4836 13.0427Z" fill="#DEBAA1"/>
<path d="M38.402 13.616C38.3927 13.616 38.3832 13.616 38.3739 13.616C38.3739 13.616 38.3671 13.616 38.3556 13.616C38.2473 13.616 37.6801 13.612 37.3165 13.516L36.8957 13.4427C36.7171 13.412 36.5681 13.288 36.5051 13.1173C36.4973 13.0973 36.4911 13.076 36.4864 13.0546C36.4864 13.0546 36.4864 13.0533 36.4859 13.0533C36.4859 13.0506 36.4853 13.0493 36.4848 13.048C36.4848 13.0466 36.4843 13.044 36.4837 13.0427C36.4837 13.0427 36.4837 13.0427 36.4837 13.0413C36.4561 12.904 36.4879 12.76 36.5707 12.6453L36.5931 12.6133C36.5931 12.6133 36.6135 12.6493 36.7255 12.6493C36.8291 12.6493 37.0108 12.6187 37.3275 12.5013C37.3275 12.5013 37.4379 12.4347 37.6145 12.4347C37.7936 12.4347 38.0416 12.5027 38.3088 12.7787C38.4051 12.8773 38.5364 12.94 38.6739 12.94L38.9321 12.8467C38.9321 12.8467 39.0457 13.616 38.402 13.616" fill="#D3583A"/>
<path d="M39.3935 10.28C39.603 10.1147 39.8582 10.064 40.105 10.048C40.2295 10.04 40.3544 10.0453 40.4768 10.0586L40.6602 10.0866L40.7514 10.104L40.8326 10.1213C41.0524 10.1653 41.2768 10.2 41.4946 10.2146L41.8087 10.208L42.0435 10.1013L42.0566 10.0853L42.1716 10.072L42.1956 10.1693L42.1435 10.2747L42.0639 10.3573L41.9716 10.416L41.8763 10.4573C41.7478 10.5 41.6191 10.5213 41.494 10.5266C41.2426 10.5386 41.0014 10.5066 40.7623 10.4586C40.6352 10.432 40.542 10.4026 40.4279 10.3853L40.1008 10.3347C39.8831 10.3133 39.6555 10.3093 39.4456 10.3626L39.4347 10.364L39.3768 10.3306L39.3935 10.28" fill="#682B22"/>
<path d="M40.193 10.6639C40.1555 10.8826 40.0363 11.0439 39.9279 11.0253C39.8197 11.0053 39.7629 10.8133 39.8003 10.5946C39.8389 10.3773 39.9577 10.2146 40.0659 10.2333C40.1743 10.2519 40.2317 10.4453 40.193 10.6639" fill="#682B22"/>
<path d="M39.6457 11.1027L39.6269 11.1L39.5962 11.0493L39.6462 11.0187C39.6487 11.0187 39.8259 11.06 39.9478 10.964C40.0263 10.9027 40.0675 10.7973 40.0697 10.648L40.1118 10.608L40.153 10.6493C40.1509 10.8253 40.0987 10.9533 39.9987 11.0307C39.8691 11.132 39.7009 11.1133 39.6457 11.1027" fill="#682B22"/>
<path d="M39.5852 8.49061C39.7035 8.38528 39.8259 8.35727 39.9519 8.35194C40.0768 8.35194 40.2008 8.35595 40.3248 8.36528C40.5722 8.38128 40.8159 8.42393 41.0555 8.48127C41.2956 8.54127 41.529 8.61861 41.7519 8.72261C41.9743 8.82261 42.1842 8.94928 42.379 9.09061L42.3883 9.14927L42.3415 9.16528H42.3394C42.1123 9.09328 41.8935 9.01996 41.6659 8.97863C41.4415 8.9293 41.2154 8.89463 40.9888 8.87729C40.7634 8.85329 40.5368 8.85061 40.3123 8.85594L39.9774 8.87729L39.6399 8.80529L39.6118 8.78794L39.5503 8.53195L39.5852 8.49061" fill="#682B22"/>
<path d="M37.2478 13.0747C37.3831 13.0374 37.518 13.0267 37.6566 13.0494C37.7894 13.0694 37.9383 13.1254 38.0378 13.2107L38.344 13.32L38.6544 13.192L38.6967 13.196L38.6998 13.228C38.6347 13.3454 38.5096 13.4507 38.3539 13.4694C38.1983 13.4907 38.0535 13.4267 37.9415 13.3387C37.8462 13.2521 37.755 13.1907 37.6347 13.164H37.2754L37.2711 13.1654L37.215 13.1307L37.2478 13.0747" fill="#682B22"/>
<path d="M39.9555 3.64794C39.2071 6.42394 41.7706 9.52927 45.6816 10.5826C49.592 11.6373 53.3691 10.2426 54.1175 7.46662C54.8659 4.69062 52.3019 1.58528 48.3915 0.530618C44.4811 -0.524049 40.7044 0.871936 39.9555 3.64794Z" fill="#682B22"/>
<path d="M40.1544 3.99064C40.9024 1.21997 44.8227 -0.133379 48.9118 0.969288C50.0134 1.26662 51.0102 1.71464 51.8711 2.25998C50.9227 1.50531 49.741 0.894616 48.392 0.530616C44.4811 -0.524051 40.7035 0.871933 39.9555 3.64793C39.5722 5.0706 40.0623 6.5786 41.1539 7.85327C40.215 6.6466 39.8071 5.27997 40.1544 3.99064Z" fill="#B14B3C"/>
<path d="M43.5629 6.17466C43.5629 6.17466 43.1036 6.94799 44.5671 8.32932C44.5671 8.32932 45.2025 9.14132 44.8307 9.76265C44.8307 9.76265 43.5583 11.28 44.4613 12C44.4613 12 45.1301 12.6613 45.578 12.1947C45.578 12.1947 46.5181 10.8013 47.6879 11.5933C47.6879 11.5933 48.9452 12.3413 48.0097 14.1546C48.0097 14.1546 47.5447 15.108 46.5525 15.3013C46.5525 15.3013 45.3921 17.336 48.2083 18.6186C48.2083 18.6186 52.2859 18.6627 53.516 13.14C54.0269 10.8453 53.3421 8.42533 51.6379 6.808C50.6697 5.88933 49.2739 5.04133 47.2624 4.53733C47.2624 4.53733 44.7348 3.83599 43.8025 5.09732C43.8025 5.09732 43.516 5.30133 43.5629 6.17466" fill="#682B22"/>
<path d="M46.0196 15.064C45.9582 15.064 45.9024 15.048 45.855 15.0133L45.7612 14.944L45.906 14.744C46.418 13.9306 46.443 13.024 45.9946 12.632C46.1211 12.4813 46.5118 12.06 46.9426 12.06C47.0467 12.06 47.153 12.084 47.2582 12.1426C47.2582 12.1426 48.6378 13.02 46.9915 14.484C46.9915 14.484 46.3998 15.064 46.0196 15.064" fill="#BE462D"/>
<path d="M45.8211 15.4374C45.7915 15.6067 45.63 15.72 45.4607 15.6907C45.291 15.6614 45.1774 15.5 45.2076 15.3307C45.2368 15.16 45.3983 15.0467 45.568 15.076C45.7372 15.1067 45.8508 15.268 45.8211 15.4374" fill="#923C1D"/>
<path d="M47.0957 26.1773L50.8206 21.8959C52.2468 20.2559 54.7186 20.0492 56.3978 21.4279L68.717 31.5413C69.5004 32.1853 70.4826 32.5359 71.4962 32.5359H73.7233C74.3181 32.5359 74.9077 32.4146 75.4545 32.1799L84.2202 28.4066C85.4217 27.8893 86.7165 27.6226 88.0254 27.6226C92.7561 27.6226 96.592 31.4572 96.592 36.1892V47.5719C96.592 49.3453 96.412 51.1146 96.0546 52.8519C95.3133 56.4652 95.3413 60.1932 96.136 63.7946L96.3026 64.5466L98.6333 63.8239C101.101 63.0612 103.696 62.7999 106.267 63.0559L121.159 64.5466L122.587 62.6239C123.001 62.0626 123.831 62.0359 124.283 62.5666L127.097 65.8652C127.763 66.6452 128.627 67.2292 129.597 67.5586L131.729 68.2773C132.313 68.4746 132.925 68.5746 133.541 68.5746C134.285 68.5746 134.888 69.1772 134.888 69.9199V70.9586H133.133C131.959 70.9586 130.788 70.8212 129.645 70.5492L123.399 69.0612L112.304 70.8599C109.444 71.3226 106.553 71.5546 103.657 71.5546H90.852C89.5624 71.5546 88.404 70.7666 87.9296 69.5679L87.0436 67.3279C84.8004 61.6572 83.4894 55.6612 83.1593 49.5719L82.8624 44.0972L81.7654 44.4892C79.1441 45.4252 76.3821 45.9039 73.5993 45.9039H64.1962C62.2394 45.9039 60.3321 45.2866 58.7462 44.1386L48.7993 36.9466C47.729 36.1733 47.0957 34.9333 47.0957 33.6119V26.1773" fill="#F0724E"/>
<path d="M56.867 21.8133L47.3436 33.3133L47.0957 33.6119C47.0957 34.9333 47.729 36.1733 48.7993 36.9466L56.4608 42.4866L65.8254 29.1679L56.867 21.8133" fill="white"/>
<path d="M64.226 27.8546L54.7733 41.2666L56.4608 42.4866L65.8254 29.1679L64.226 27.8546" fill="#3D7195"/>
<path d="M58.7462 44.1387L57.0311 42.8987L58.7462 44.1387Z" fill="#DEBAA1"/>
<path d="M57.0311 42.8987L56.0383 42.1813L56.4457 42.476L57.0311 42.8987" fill="#B9412C"/>
<path d="M58.9702 44.2893L58.7462 44.1387L57.0311 42.8986L56.4457 42.476L56.4607 42.4866L58.1555 40.076L58.9702 44.2893" fill="#D3583A"/>
<path d="M54.5634 24.5946C54.4572 24.2213 54.279 23.8786 54.0452 23.5813C54.328 23.7893 54.5801 24.0386 54.7905 24.3213L54.5634 24.5946" fill="#D3583A"/>
<path d="M55.3536 40.444L54.6979 25.8466C54.6968 25.8293 54.6963 25.8133 54.6952 25.796L54.6712 25.2626C54.6608 25.032 54.6239 24.8093 54.5635 24.5946L54.7905 24.3213C55.1988 24.8666 55.4536 25.536 55.4864 26.2653L57.6083 37.244L55.3536 40.444" fill="#DEC2B3"/>
<path d="M56.4607 42.4866L56.4457 42.4759L56.0383 42.1812L55.4112 41.7279L55.3535 40.4439L57.6082 37.2439L58.1555 40.0759L56.4607 42.4866" fill="#325569"/>
<path d="M109.709 67.4212L115.847 65.7119V64.0146L106.267 63.0572C103.696 62.7999 101.101 63.0612 98.6333 63.8239L96.3026 64.5466L96.1359 63.7946C95.3413 60.1932 95.3133 56.4652 96.0546 52.8519C96.4119 51.1146 96.5919 49.3453 96.5919 47.5719V36.1892C96.5919 31.4572 92.7561 27.6226 88.0259 27.6226C86.7165 27.6226 85.4217 27.8893 84.2202 28.4066L80.2493 30.1159V44.9692C80.7582 44.8239 81.265 44.6679 81.7654 44.4892L82.8623 44.0972L83.1593 49.5719C83.4894 55.6612 84.8003 61.6572 87.0435 67.3279L87.9295 69.5679C88.4039 70.7666 89.5623 71.5546 90.8519 71.5546H103.657C106.552 71.5546 109.444 71.3226 112.303 70.8599L115.847 70.2852V68.4559L109.709 67.4212" fill="#3D7195"/>
<path d="M48.4739 50.4599L48.9088 69.4066C48.8879 69.5293 48.8635 69.6573 48.8353 69.7919L52.2264 70.3719L55.4296 51.6506C55.7572 49.7373 54.4593 47.9053 52.5468 47.5773C50.6337 47.2506 48.8004 48.5479 48.4739 50.4599" fill="#F0724E"/>
<path d="M48.4739 50.4599L48.9088 69.4066C48.8879 69.5293 48.8635 69.6573 48.8353 69.7919L52.2264 70.3719L55.4296 51.6506C55.7572 49.7373 54.4593 47.9053 52.5468 47.5773C50.6337 47.2506 48.8004 48.5479 48.4739 50.4599" fill="#F0724E"/>
<path d="M52.9623 52.8106L51.7941 52.8626C50.1763 52.9359 48.7935 51.6719 48.7211 50.0546L47.6217 25.5799C47.5487 23.9626 48.8123 22.5799 50.4301 22.5066L51.5987 22.4546C53.2159 22.3812 54.5987 23.6452 54.6711 25.2626L55.7706 49.7372C55.8435 51.3546 54.5801 52.7372 52.9623 52.8106" fill="#F0724E"/>
<path d="M55.4353 42.26C55.4348 42.2587 55.4348 42.2587 55.4348 42.2587L55.4108 41.728H55.4113L55.4353 42.26" fill="#B9412C"/>
<path d="M55.7463 49.1932L55.4348 42.2586C55.4348 42.2586 55.4348 42.2586 55.4354 42.2599L55.7447 49.1532C55.7452 49.1666 55.7457 49.1799 55.7463 49.1932Z" fill="#B9412C"/>
<path d="M55.3531 40.444L54.6952 25.796C54.6963 25.8133 54.6968 25.8293 54.6979 25.8466L55.3536 40.444H55.3531Z" fill="#C0947E"/>
<path d="M55.4113 41.7279H55.4108L55.353 40.4439H55.3536L55.4113 41.7279Z" fill="#2B4149"/>
<path d="M50.9728 22.4827C50.9864 22.4813 51.0004 22.4814 51.014 22.48C51.0317 22.48 51.0493 22.4787 51.0665 22.4787L50.9728 22.4827Z" fill="#D3583A"/>
<path d="M55.4617 50.7C55.3763 49.8733 54.9992 49.1106 54.4216 48.5413L53.4024 25.8466C53.3273 24.1853 52.0967 22.8373 50.5259 22.5413C50.6721 22.5133 50.8205 22.4919 50.9727 22.4826L51.0664 22.4786C51.1024 22.4773 51.1377 22.4773 51.1732 22.4773C53.0259 22.4773 54.5847 23.9346 54.6951 25.7959L55.3529 40.444L55.4107 41.7279L55.4347 42.2586L55.7461 49.1933C55.7644 49.7253 55.6612 50.2373 55.4617 50.7" fill="#D3583A"/>
<path d="M48.4739 50.4599L48.9088 69.4066C48.8879 69.5293 48.8635 69.6573 48.8353 69.7919L52.2264 70.3719L55.4296 51.6506C55.7572 49.7373 54.4593 47.9053 52.5468 47.5773C50.6337 47.2506 48.8004 48.5479 48.4739 50.4599" fill="#F0724E"/>
<path d="M53.4697 63.1053L55.4296 51.6507C55.4307 51.644 55.4317 51.6387 55.4327 51.632C55.4317 51.6387 55.4307 51.644 55.4296 51.6507L53.4697 63.1053ZM55.4337 51.6253C55.4348 51.62 55.4353 51.6147 55.4364 51.6107C55.4353 51.6147 55.4348 51.62 55.4337 51.6253ZM55.4379 51.6C55.4379 51.5987 55.4384 51.596 55.4384 51.5947C55.4384 51.596 55.4379 51.5987 55.4379 51.6Z" fill="#B9412C"/>
<path d="M52.2571 70.1932C52.0222 69.7772 51.6259 69.4759 51.1597 69.3826L54.5555 48.6852C55.2493 49.4492 55.6071 50.5052 55.4383 51.5946C55.4383 51.5959 55.4378 51.5986 55.4378 51.5999C55.4373 51.6026 55.4369 51.6066 55.4363 51.6106C55.4353 51.6146 55.4347 51.6199 55.4337 51.6252C55.4331 51.6279 55.4331 51.6292 55.4326 51.6319C55.4317 51.6386 55.4306 51.6439 55.4295 51.6506L53.4697 63.1052L53.2301 64.5052L52.2571 70.1932Z" fill="#D3583A"/>
<path d="M50.9421 69.3546V69.3453C48.9291 69.2733 45.564 68.7332 43.0853 69.2559L36.9072 71.7546C36.5307 71.9079 36.4848 72.4359 36.8405 72.6319C38.064 73.3039 41.4249 73.1266 43.952 72.9479C45.1088 72.8666 46.0911 72.7852 46.6135 72.7852L50.7545 72.7866L50.8561 72.7972C51.7556 72.7972 52.4848 72.0239 52.4848 71.0706C52.4848 70.1493 51.8009 69.4026 50.9421 69.3546" fill="#F0724E"/>
<path d="M52.4847 71.0546C52.4847 71.0532 52.4847 71.0519 52.4847 71.0519C52.4847 71.0519 52.4847 71.0532 52.4847 71.0546ZM52.4847 71.0346C52.4847 71.0346 52.4847 71.0332 52.4847 71.0319C52.4847 71.0332 52.4847 71.0346 52.4847 71.0346ZM52.4842 71.0159C52.4836 71.0159 52.4836 71.0146 52.4836 71.0146C52.4836 71.0146 52.4836 71.0159 52.4842 71.0159Z" fill="#DC9632"/>
<path d="M40.2457 73.1119C38.7978 73.1119 37.5039 72.9973 36.8405 72.6319C36.6607 72.5319 36.5847 72.3493 36.6009 72.1719C37.3113 72.3479 38.2894 72.4079 39.3498 72.4079C41.7863 72.4079 44.6539 72.0852 45.6951 72.0852L49.8369 72.0866L49.9378 72.0973C50.8378 72.0973 51.5675 71.3253 51.5675 70.3719C51.5675 70.0173 51.4654 69.6906 51.2921 69.4186C51.9519 69.6119 52.4446 70.2279 52.4826 70.9786C52.4826 70.9853 52.4831 70.9906 52.4831 70.9973C52.4837 71.0026 52.4837 71.0092 52.4837 71.0146C52.4837 71.0146 52.4837 71.0159 52.4842 71.0159C52.4842 71.0212 52.4842 71.0266 52.4847 71.0319C52.4847 71.0333 52.4847 71.0346 52.4847 71.0346C52.4847 71.0413 52.4847 71.0466 52.4847 71.0519C52.4847 71.0519 52.4847 71.0532 52.4847 71.0546C52.4847 71.0599 52.4847 71.0653 52.4847 71.0706C52.4847 72.0239 51.7555 72.7973 50.8561 72.7973L50.7545 72.7866L46.6134 72.7852C46.6123 72.7852 46.6118 72.7852 46.6113 72.7852C46.0883 72.7852 45.1077 72.8666 43.9519 72.9479C42.7962 73.0292 41.4659 73.1119 40.2457 73.1119" fill="#D3583A"/>
<path d="M48.1665 33.4347H47.1711V26.04C47.1711 24.7014 47.8107 23.424 48.8831 22.624C49.953 21.8253 51.355 21.5733 52.6358 21.948L56.4249 23.06L56.1451 24.016L52.3561 22.904C51.3738 22.616 50.2987 22.808 49.4795 23.4213C48.6577 24.0347 48.1665 25.0147 48.1665 26.04V33.4347" fill="white"/>
<path d="M82.8623 44.0973L83.0196 46.9879C84.8763 41.0359 86.693 37.6586 86.693 37.6586C83.0107 41.4986 82.8623 44.0973 82.8623 44.0973" fill="#223C50"/>
<path d="M113.936 69.2466L113.809 69.2186C113.655 69.1492 113.585 68.9679 113.656 68.8132L115.26 65.2492C115.329 65.0946 115.511 65.0266 115.665 65.0946C115.82 65.1652 115.888 65.3466 115.82 65.5012L114.216 69.0652L113.936 69.2466" fill="#3D7195"/>
<path d="M115.431 69.2906C115.307 69.2906 115.191 69.216 115.144 69.0933L113.757 65.4387C113.697 65.28 113.777 65.104 113.936 65.044C114.093 64.9827 114.271 65.0626 114.331 65.2213L115.717 68.876C115.777 69.0333 115.697 69.2107 115.539 69.2707L115.431 69.2906Z" fill="#3D7195"/>
<path d="M112.173 69.3733L112.048 69.3453C111.893 69.2773 111.825 69.0946 111.893 68.94L113.497 65.376C113.568 65.2226 113.749 65.1533 113.904 65.2226C114.059 65.2919 114.128 65.4746 114.057 65.6279L112.453 69.1919L112.173 69.3733Z" fill="#3D7195"/>
<path d="M113.668 69.4186C113.545 69.4186 113.428 69.3426 113.383 69.2199L111.996 65.5653C111.936 65.4079 112.016 65.2306 112.173 65.1693C112.332 65.1093 112.509 65.1892 112.569 65.3479L113.956 69.0013C114.016 69.1613 113.936 69.3373 113.777 69.3973L113.668 69.4186" fill="#3D7195"/>
<path d="M110.485 69.3733L110.359 69.3453C110.204 69.2773 110.135 69.0946 110.205 68.94L111.809 65.376C111.879 65.2226 112.06 65.1533 112.215 65.2226C112.369 65.2919 112.439 65.4746 112.368 65.6279L110.765 69.1919L110.485 69.3733Z" fill="#3D7195"/>
<path d="M111.98 69.4186C111.856 69.4186 111.74 69.3426 111.692 69.2199L110.307 65.5653C110.247 65.4079 110.327 65.2306 110.485 65.1693C110.643 65.1093 110.82 65.1892 110.881 65.3479L112.267 69.0013C112.327 69.1613 112.247 69.3373 112.088 69.3973L111.98 69.4186" fill="#3D7195"/>
<path d="M81.064 44.7119C81.2681 44.6466 81.4744 44.5879 81.6774 44.5172V29.5012L81.064 29.7652V44.7119Z" fill="#223C50"/>
</svg>
