<svg width="622" height="78" viewBox="0 0 622 78" fill="none" xmlns="http://www.w3.org/2000/svg">
<path d="M301 70.6246H132.219L143.032 55.434H290.188L301 70.6246Z" fill="#FBC341"/>
<path d="M301 70.6246H132.219L143.032 55.434H290.188L301 70.6246Z" fill="#FBC341"/>
<path d="M297.841 66.1873H180.811C180.985 65.9113 181.088 65.5793 181.088 65.2219C181.088 65.2166 181.088 65.2099 181.088 65.2046C181.088 65.2046 181.088 65.2032 181.088 65.2019C181.088 65.1966 181.088 65.1913 181.088 65.1859C181.088 65.1846 181.088 65.1846 181.088 65.1833C181.088 65.1779 181.088 65.1726 181.088 65.1659C181.084 65.0392 181.067 64.9152 181.039 64.7966L206.441 60.8886C207.105 60.7873 207.085 59.8246 206.417 59.7486L182.115 57.0139L182.263 56.1513C182.545 55.9979 182.771 55.7432 182.899 55.4339H290.188L297.841 66.1873ZM177.349 56.4766L176.541 56.3859C176.837 56.3646 177.108 56.3459 177.347 56.3312L177.349 56.4766ZM169.596 55.6046L168.077 55.4339H169.789C169.703 55.4712 169.639 55.5326 169.596 55.6046Z" fill="#DC9632"/>
<path d="M182.788 40.4233L181.799 40.3446C180.431 40.2366 179.399 39.0286 179.507 37.6593L181.143 16.9446C181.251 15.5753 182.459 14.5446 183.828 14.6526L184.817 14.7299C186.187 14.8379 187.217 16.0473 187.109 17.4153L185.473 38.1299C185.365 39.4993 184.157 40.5313 182.788 40.4233Z" fill="#D4533A"/>
<path d="M185.525 37.4686C185.44 36.854 185.165 36.286 184.753 35.8393L185.04 32.206L185.353 28.242L185.523 28.4966L186.275 27.9766L185.525 37.4686Z" fill="#C9432E"/>
<path d="M179.611 37.3672L179.98 53.4379L179.917 53.7646L182.793 54.2552L185.511 38.3766C185.788 36.7539 184.688 35.1992 183.065 34.9219C181.443 34.6446 179.888 35.7446 179.611 37.3672Z" fill="#D4533A"/>
<path d="M182.82 54.1033C182.772 54.0193 182.716 53.9393 182.653 53.8673L184.033 45.8019C184.035 45.7966 184.035 45.79 184.036 45.7846C184.036 45.782 184.037 45.7793 184.037 45.7753C184.037 45.7753 184.037 45.7739 184.037 45.7726C184.095 45.4206 184.097 45.0699 184.051 44.7313L184.735 36.0739L184.769 35.8619C185.363 36.5166 185.667 37.422 185.515 38.354V38.3553C185.513 38.362 185.512 38.3699 185.511 38.3766L182.82 54.1033Z" fill="#C9432E"/>
<path d="M181.704 53.3926V53.386C179.997 53.3246 177.143 52.8659 175.04 53.3099L169.8 55.4286C169.481 55.5579 169.443 56.0059 169.744 56.1726C171.256 57.0046 176.623 56.3033 178.032 56.3033H181.545L181.631 56.3126C182.395 56.3126 183.013 55.6579 183.013 54.8486C183.013 54.0673 182.433 53.4339 181.704 53.3926Z" fill="#D4533A"/>
<path d="M183.013 54.834V54.8326V54.834ZM183.013 54.818C183.013 54.818 183.012 54.8167 183.012 54.8153C183.012 54.8167 183.013 54.818 183.013 54.818ZM183.012 54.802V54.8007V54.802ZM183.011 54.7713V54.77V54.7713Z" fill="#F3C2AE"/>
<path d="M172.632 56.5792C171.404 56.5792 170.307 56.4819 169.744 56.1726C169.592 56.0886 169.527 55.9326 169.54 55.7819C170.143 55.9312 170.973 55.9832 171.872 55.9832C172.905 55.9832 174.029 55.9152 175.005 55.8459C175.981 55.7779 176.811 55.7099 177.252 55.7099C177.253 55.7099 177.253 55.7099 177.255 55.7099H177.332L177.347 56.3312C176.913 56.3565 176.372 56.3992 175.775 56.4406C174.795 56.5099 173.667 56.5792 172.632 56.5792ZM182.263 56.1512L182.653 53.8685C182.861 54.1085 182.993 54.4219 183.011 54.7699V54.7712C183.011 54.7752 183.012 54.7806 183.012 54.7859C183.012 54.7912 183.012 54.7952 183.012 54.8005V54.8019C183.012 54.8072 183.012 54.8112 183.012 54.8152C183.012 54.8166 183.013 54.8179 183.013 54.8179C183.013 54.8232 183.013 54.8272 183.013 54.8325V54.8339C183.013 54.8392 183.013 54.8432 183.013 54.8486C183.013 55.4166 182.708 55.9086 182.263 56.1512Z" fill="#C9432E"/>
<path d="M263.556 57.6899C262.94 57.6899 262.328 57.5899 261.745 57.3939L259.612 56.6739C258.641 56.3459 257.777 55.7619 257.112 54.9819L254.299 51.6833C253.845 51.1526 253.017 51.1806 252.601 51.7406L251.173 53.6619L236.281 52.1726C233.712 51.9166 231.116 52.1779 228.648 52.9406L226.341 53.6553L226.589 53.4179L226.153 48.0379C226.091 47.2659 226.157 46.4873 226.351 45.7379C226.509 45.1246 226.583 44.4926 226.571 43.8593L226.476 39.2033C226.523 38.7179 226.56 38.2326 226.579 37.7459H226.447L226.392 35.0179H221.076V60.6713H233.672C236.568 60.6713 239.46 60.4379 242.319 59.9753L253.413 58.1779L259.66 59.6659C260.803 59.9379 261.973 60.0753 263.148 60.0753H264.903V59.0366C264.903 58.2939 264.3 57.6899 263.556 57.6899Z" fill="#D4533A"/>
<path d="M242.02 52.7473L236.281 52.1726C233.712 51.9166 231.116 52.1779 228.648 52.9406L226.341 53.6553L226.589 53.4179L226.153 48.0379C226.091 47.2659 226.157 46.4873 226.351 45.7379C226.509 45.1246 226.583 44.4926 226.571 43.8593L226.476 39.2033C226.523 38.7179 226.56 38.2326 226.579 37.7459H226.447L226.392 35.0179H221.076V60.6713H233.672C236.468 60.6713 239.257 60.4499 242.02 60.0179V57.9939L235.468 56.3566L242.02 55.0193V52.7473Z" fill="#223C50"/>
<path d="M240.199 58.3619L240.073 58.3353C239.919 58.2659 239.849 58.0833 239.919 57.9299L241.523 54.3659C241.592 54.2113 241.775 54.1433 241.929 54.2113C242.083 54.2806 242.152 54.4633 242.083 54.618L240.479 58.182L240.199 58.3619Z" fill="#223C50"/>
<path d="M241.693 58.4072C241.571 58.4072 241.453 58.3312 241.407 58.2099L240.021 54.5552C239.961 54.3966 240.04 54.2192 240.199 54.1605C240.357 54.0992 240.535 54.1792 240.595 54.3379L241.98 57.9925C242.041 58.1499 241.961 58.3272 241.803 58.3872L241.693 58.4072Z" fill="#223C50"/>
<path d="M238.437 58.4899L238.312 58.4632C238.157 58.3925 238.088 58.2112 238.157 58.0565L239.761 54.4925C239.831 54.3379 240.013 54.2699 240.167 54.3392C240.323 54.4086 240.391 54.5899 240.321 54.7446L238.717 58.3086L238.437 58.4899Z" fill="#223C50"/>
<path d="M239.932 58.5339C239.808 58.5339 239.692 58.4593 239.645 58.3366L238.26 54.682C238.199 54.5233 238.279 54.3473 238.437 54.2873C238.596 54.226 238.773 54.3059 238.833 54.4646L240.219 58.1193C240.279 58.2766 240.2 58.4539 240.041 58.5139L239.932 58.5339Z" fill="#223C50"/>
<path d="M236.748 58.4899L236.623 58.4632C236.468 58.3925 236.399 58.2112 236.468 58.0565L238.072 54.4925C238.143 54.3379 238.324 54.2699 238.479 54.3392C238.633 54.4086 238.701 54.5899 238.632 54.7446L237.028 58.3086L236.748 58.4899Z" fill="#223C50"/>
<path d="M238.244 58.5339C238.12 58.5339 238.003 58.4593 237.956 58.3366L236.571 54.682C236.511 54.5233 236.589 54.3473 236.748 54.2873C236.907 54.226 237.084 54.3059 237.144 54.4646L238.529 58.1193C238.591 58.2766 238.511 58.4539 238.352 58.5139L238.244 58.5339Z" fill="#223C50"/>
<path d="M179.295 19.1539L185.523 28.4965L188.391 26.5126L191.696 27.0406C193.099 27.2659 194.529 26.8699 195.617 25.9565L197.323 24.5272L207.248 25.5192L212.575 32.8712L224.796 24.5126L211.364 12.9659C206.555 9.16854 200.607 7.10322 194.479 7.10322C189.897 7.10322 185.456 8.67788 181.897 11.5619L180.245 12.9019C178.361 14.4272 177.949 17.1366 179.295 19.1539Z" fill="#F0724E"/>
<path d="M178.832 15.1554L174.716 23.5314L179.285 26.942L180 26.4554L181.705 27.05L181.689 26.5914C181.663 25.81 182.039 25.0687 182.685 24.6287L185.58 18.9874L178.832 15.1554Z" fill="#F0724E"/>
<path d="M178.648 23.5073C178.427 23.438 178.196 23.39 177.961 23.3646C178.204 23.2886 178.44 23.2407 178.672 23.2153L178.648 23.5073Z" fill="#D3583A"/>
<path d="M171.628 28.1232C175.024 26.9739 176.951 23.5926 175.928 20.5713C174.907 17.5486 171.324 16.0313 167.927 17.1806C164.528 18.3286 162.603 21.7099 163.625 24.7326C164.647 27.7539 168.229 29.2712 171.628 28.1232Z" fill="#682B22"/>
<path d="M169.133 18.8313L169.003 18.7966L168.92 18.454C169.275 17.87 169.367 17.3033 169.196 16.7713C168.803 15.5566 167.175 14.8553 167.157 14.8486C167.031 14.7953 166.972 14.6487 167.025 14.522C167.079 14.3953 167.225 14.3367 167.352 14.3887C167.427 14.4207 169.204 15.1847 169.668 16.6167C169.888 17.2927 169.779 17.998 169.345 18.7126L169.133 18.8313Z" fill="#682B22"/>
<path d="M176.077 22.8806C175.955 22.8806 175.847 22.7886 175.831 22.6633C175.813 22.5273 175.909 22.402 176.047 22.3846C176.724 22.298 177.224 22.0166 177.532 21.55C178.237 20.486 177.769 18.7753 177.765 18.7579C177.728 18.6259 177.804 18.4886 177.937 18.4513C178.073 18.4113 178.207 18.4913 178.244 18.6233C178.267 18.7019 178.779 20.5659 177.948 21.8233C177.557 22.4166 176.939 22.7713 176.109 22.8793L176.077 22.8806Z" fill="#682B22"/>
<path d="M175.876 22.5659C175.748 22.5659 175.639 22.4673 175.628 22.3379C175.617 22.2006 175.719 22.0806 175.856 22.0699C176.687 22.0006 177.245 21.7166 177.519 21.2232C178.141 20.0966 177.18 18.2126 177.169 18.1939C177.107 18.0726 177.155 17.9219 177.276 17.8579C177.399 17.7966 177.549 17.8433 177.612 17.9646C177.657 18.0513 178.705 20.1073 177.953 21.4659C177.595 22.1126 176.903 22.4832 175.896 22.5646L175.876 22.5659Z" fill="#682B22"/>
<path d="M168.569 34.9007C171.757 34.614 174.033 30.946 173.653 26.706C173.273 22.4673 170.38 19.262 167.192 19.5487C164.004 19.834 161.728 23.5033 162.108 27.742C162.489 31.982 165.383 35.186 168.569 34.9007Z" fill="#682B22"/>
<path d="M162.987 27.582C162.639 23.7113 164.509 20.326 167.264 19.5473L167.192 19.5487C164.004 19.834 161.728 23.5033 162.108 27.742C162.489 31.982 165.383 35.186 168.569 34.9007C168.847 34.8753 169.113 34.8167 169.376 34.742C166.216 34.974 163.363 31.79 162.987 27.582Z" fill="#B14B3C"/>
<path d="M166.695 23.7167C169.139 22.89 170.488 20.346 169.705 18.034C168.924 15.722 166.308 14.518 163.863 15.346C161.419 16.1727 160.071 18.7167 160.853 21.0287C161.635 23.3407 164.249 24.5447 166.695 23.7167Z" fill="#682B22"/>
<path d="M166.975 23.1074C164.529 23.934 161.915 22.73 161.133 20.418C160.807 19.4567 160.856 18.4567 161.192 17.554C160.613 18.5994 160.452 19.8433 160.853 21.0287C161.635 23.3407 164.249 24.5447 166.695 23.7167C168.123 23.234 169.172 22.1633 169.645 20.898C169.095 21.8913 168.167 22.7034 166.975 23.1074Z" fill="#B14B3C"/>
<path d="M167.176 33.6593C166.915 33.6593 166.696 33.4566 166.681 33.1913C166.665 32.9166 166.875 32.682 167.148 32.666C167.167 32.6646 169.143 32.5233 170.361 30.8127C171.56 29.1313 171.683 26.53 170.725 23.0833C170.652 22.8193 170.807 22.5446 171.072 22.4713C171.337 22.4006 171.611 22.5527 171.685 22.818C172.729 26.578 172.552 29.4673 171.161 31.406C169.657 33.502 167.303 33.654 167.204 33.6593H167.176Z" fill="#682B22"/>
<path d="M169.855 26.8646L170.783 26.0953C170.783 26.0953 172.437 24.5886 171.477 22.47L169.891 22.0953L168.399 21.678L167.629 22.6353L168.045 24.9193L169.817 26.6553L169.855 26.8646Z" fill="#682B22"/>
<path d="M167.073 30.6393C167.073 30.6393 168.951 33.3766 172.933 32.6313C173.275 32.5686 173.627 32.5926 173.957 32.702L176.493 33.5353C176.663 33.5913 176.849 33.554 176.984 33.438C177.123 33.3206 177.187 33.138 177.155 32.9593L177.077 32.5393L177.115 32.382L177.223 32.2406L177.551 32.1793L177.891 32.39L178.209 32.0486L178.72 31.9953L179.017 31.9926C179.364 31.9886 179.488 31.6846 179.76 31.47L181.007 31.462C181.956 31.2833 182.573 30.358 182.372 29.4126L182.239 28.7887C182.023 27.7753 181.657 26.8006 181.155 25.8953L180.793 25.246C180.175 24.1353 179.031 23.4193 177.761 23.3473L176.153 23.2553C175.619 20.3193 172.5 18.606 169.752 19.7713C167.875 20.5686 166.207 21.9006 166.051 24.1246C166.051 24.1246 165.513 27.9446 167.073 30.6393Z" fill="#F0724E"/>
<path d="M177.809 30.502C177.816 30.7433 177.805 31.4526 177.489 32.0033C177.489 32.0033 177.183 32.2713 177.481 32.5887C177.481 32.5887 177.895 32.7153 178.235 32.186C178.235 32.186 178.779 32.3206 178.959 32.2033C178.959 32.2033 179.3 32.1526 178.951 31.6326C178.951 31.6326 178.417 30.7087 177.887 30.4513L177.809 30.502Z" fill="#B73C2B"/>
<path d="M176.935 33.4752C176.952 33.4646 176.968 33.4512 176.984 33.4379C177.099 33.3405 177.163 33.1979 177.163 33.0512C177.163 33.1979 177.099 33.3405 176.984 33.4379C176.968 33.4512 176.952 33.4646 176.935 33.4752Z" fill="#DEBAA1"/>
<path d="M176.656 33.558C176.609 33.558 176.563 33.5527 176.517 33.5393L176.48 33.53C176.48 33.53 176.579 33.4127 176.12 32.8807C176.12 32.8807 175.713 32.5487 176.043 31.862C176.101 31.7393 176.115 31.594 176.068 31.4647L175.891 31.254C175.891 31.254 176.099 31.1407 176.323 31.1407C176.511 31.1407 176.709 31.2207 176.805 31.5127C176.805 31.5127 177.037 32.1247 177.077 32.5393L177.081 32.562L177.155 32.9593C177.16 32.99 177.163 33.0207 177.163 33.0513C177.163 33.198 177.099 33.3407 176.984 33.438C176.968 33.4513 176.952 33.4647 176.935 33.4753C176.852 33.53 176.755 33.558 176.656 33.558Z" fill="#D3583A"/>
<path d="M173.324 31.7086C173.096 31.5686 172.96 31.3473 172.859 31.1206L172.741 30.7673L172.704 30.586L172.689 30.4939L172.677 30.4126C172.643 30.19 172.597 29.9686 172.536 29.7593L172.42 29.4659L172.24 29.2833L172.22 29.2766L172.167 29.1726L172.251 29.1166L172.367 29.1286L172.472 29.1753L172.56 29.242L172.631 29.3166L172.828 29.6526C172.927 29.8833 172.981 30.1206 173.017 30.3619C173.037 30.4899 173.041 30.5873 173.064 30.7006L173.131 31.0259C173.185 31.2366 173.26 31.4526 173.383 31.6313L173.388 31.6393L173.376 31.7073L173.324 31.7086Z" fill="#682B22"/>
<path d="M173.407 30.826C173.625 30.786 173.817 30.8407 173.837 30.9487C173.857 31.0567 173.696 31.178 173.477 31.2167C173.26 31.2567 173.067 31.2007 173.048 31.0927C173.028 30.9847 173.189 30.8647 173.407 30.826Z" fill="#682B22"/>
<path d="M174.008 31.1874L174.012 31.206L173.975 31.2527L173.928 31.2167C173.928 31.214 173.905 31.0327 173.773 30.9514C173.689 30.8994 173.576 30.8967 173.436 30.946L173.383 30.9207L173.408 30.8673C173.573 30.81 173.711 30.814 173.819 30.8807C173.957 30.9673 173.999 31.1327 174.008 31.1874Z" fill="#682B22"/>
<path d="M171.579 32.1472C171.437 32.0726 171.369 31.9659 171.321 31.8512L171.204 31.4952C171.133 31.2592 171.089 31.0139 171.06 30.7699C171.033 30.5246 171.025 30.2779 171.047 30.0339C171.063 29.7899 171.109 29.5499 171.176 29.3179L171.228 29.2886L171.259 29.3272V29.3285C171.271 29.5659 171.276 29.7979 171.316 30.0259C171.348 30.2525 171.393 30.4765 171.455 30.6952C171.512 30.9152 171.587 31.1286 171.669 31.3379L171.805 31.6446C171.849 31.7446 171.881 31.8552 171.855 31.9872L171.848 32.0192L171.628 32.1646L171.579 32.1472Z" fill="#682B22"/>
<path d="M176.687 32.7565C176.605 32.6419 176.548 32.5192 176.521 32.3819C176.495 32.2499 176.496 32.0899 176.541 31.9672L176.537 31.6419L176.311 31.3952L176.3 31.3552L176.329 31.3406C176.461 31.3606 176.604 31.4419 176.675 31.5806C176.749 31.7192 176.739 31.8779 176.695 32.0152C176.647 32.1326 176.62 32.2405 176.636 32.3619L176.761 32.6992L176.763 32.7032L176.751 32.7686L176.687 32.7565Z" fill="#682B22"/>
<path d="M166.905 33.4726C169.769 33.2153 171.797 29.7366 171.436 25.7033C171.073 21.6686 168.459 18.6059 165.595 18.8633C162.732 19.1206 160.704 22.5993 161.065 26.6326C161.428 30.6673 164.043 33.7286 166.905 33.4726Z" fill="#682B22"/>
<path d="M167.159 33.1673C164.3 33.4233 161.675 30.2112 161.296 25.9939C161.195 24.8566 161.271 23.7673 161.485 22.7713C161.105 23.9206 160.94 25.2419 161.065 26.6326C161.428 30.6673 164.043 33.7286 166.905 33.4726C168.373 33.3406 169.617 32.3592 170.437 30.8939C169.629 32.1926 168.488 33.0486 167.159 33.1673Z" fill="#B14B3C"/>
<path d="M168.029 29.2153C168.029 29.2153 168.913 29.378 169.704 27.5273C169.704 27.5273 170.248 26.65 170.959 26.7847C170.959 26.7847 172.823 27.454 173.187 26.358C173.187 26.358 173.575 25.502 172.981 25.2433C172.981 25.2433 171.351 24.8433 171.689 23.4713C171.689 23.4713 171.957 22.0327 173.981 22.2833C173.981 22.2833 175.036 22.3913 175.561 23.2553C175.561 23.2553 177.871 23.642 178.103 20.5553C178.103 20.5553 176.735 16.714 171.127 17.4673C168.797 17.7807 166.763 19.2593 165.833 21.418C165.307 22.6433 164.993 24.246 165.216 26.3087C165.216 26.3087 165.429 28.922 166.936 29.3606C166.936 29.3606 167.227 29.5593 168.029 29.2153Z" fill="#682B22"/>
<path d="M173.249 24.7007C173.02 24.618 172.257 24.298 172.355 23.6847C172.355 23.6847 172.551 22.774 173.483 22.774C173.785 22.774 174.167 22.87 174.643 23.126C174.643 23.126 175.652 23.6034 175.532 24.0087L175.499 24.1207L175.261 24.054C175.06 24.0114 174.861 23.9913 174.673 23.9913C173.983 23.9913 173.416 24.2634 173.249 24.7007Z" fill="#BE462D"/>
<path d="M175.941 23.8939C176.111 23.8633 176.273 23.9753 176.303 24.1446C176.335 24.3139 176.221 24.4766 176.052 24.5073C175.884 24.5379 175.721 24.4259 175.691 24.2566C175.66 24.0873 175.772 23.9246 175.941 23.8939Z" fill="#923C1D"/>
<path d="M183.995 27.5593C183.689 27.5593 183.384 27.5153 183.087 27.4247C182.256 27.1727 181.561 26.582 181.179 25.8033L178.745 20.8447L178.771 20.6887C179.357 16.9727 181.569 13.7727 184.84 11.9127L190.629 8.61935C190.865 8.48202 191.171 8.56601 191.307 8.80601C191.443 9.04467 191.359 9.34869 191.12 9.48469L185.332 12.778C182.372 14.462 180.355 17.3393 179.779 20.69L182.072 25.3647C182.337 25.9047 182.8 26.298 183.376 26.4727C183.951 26.646 184.555 26.5767 185.075 26.274L188.844 24.082C189.081 23.9447 189.385 24.0247 189.524 24.262C189.664 24.4993 189.583 24.8047 189.345 24.942L185.575 27.134C185.092 27.4153 184.545 27.5593 183.995 27.5593Z" fill="white"/>
<path d="M198.676 7.434C197.293 7.218 195.892 7.10334 194.479 7.10334L194.329 7.11001V26.7327C194.791 26.5433 195.227 26.2847 195.617 25.9567L197.323 24.5273L198.676 24.662V7.434Z" fill="#3D7195"/>
<path d="M188.391 26.5126L191.696 27.0406C193.099 27.2659 194.529 26.8699 195.617 25.9566L197.004 24.7953V7.2246C196.167 7.14593 195.325 7.10328 194.479 7.10328C192.928 7.10328 191.391 7.28328 189.9 7.63394" fill="white"/>
<path d="M264.845 61.6499C264.229 61.6499 263.617 61.5499 263.033 61.3526L260.901 60.6326C259.929 60.3046 259.065 59.7206 258.4 58.9406L255.587 55.6419C255.135 55.1112 254.305 55.1392 253.889 55.6992L252.463 57.6219L237.569 56.1326C235 55.8752 232.404 56.1366 229.937 56.8992L227.631 57.6139L227.879 57.3779L227.441 51.9966C227.379 51.2246 227.445 50.4459 227.639 49.6952C227.797 49.0832 227.872 48.4512 227.859 47.8179L227.765 43.1619C227.811 42.6765 227.716 42.1912 227.736 41.7046L227.665 38.2019L227.908 37.3646C229.401 32.2152 227.643 26.7552 223.301 23.0592L211.364 12.9659L207.32 25.4939L212.575 32.8712L212.931 39.4352C213.195 44.3006 214.291 49.0805 216.153 53.6232C216.743 55.9232 217.471 58.1886 218.347 60.4032L219.233 62.6432C219.708 63.8419 220.865 64.6299 222.156 64.6299H234.96C237.856 64.6299 240.748 64.3979 243.607 63.9352L254.703 62.1366L260.948 63.6245C262.091 63.8965 263.261 64.0339 264.436 64.0339H266.191V62.9952C266.191 62.2525 265.588 61.6499 264.845 61.6499Z" fill="#F0724E"/>
<path d="M207.32 25.4939L212.575 32.8712L212.931 39.4352C213.195 44.3006 214.291 49.0805 216.153 53.6232C216.743 55.9232 217.471 58.1886 218.347 60.4032L219.233 62.6432C219.708 63.8419 220.865 64.6299 222.156 64.6299H234.96C237.756 64.6299 240.547 64.4086 243.308 63.9766V61.9526L236.756 60.3152L243.308 58.9779V56.7059L237.569 56.1326C235 55.8752 232.404 56.1366 229.937 56.8992L227.631 57.6139L227.879 57.3779L227.441 51.9966C227.379 51.2246 227.445 50.4459 227.639 49.6952C227.797 49.0832 227.872 48.4512 227.859 47.8179L227.765 43.1619C227.811 42.6765 227.716 42.1912 227.736 41.7046L227.665 38.2019L227.908 37.3646C229.401 32.2152 227.643 26.7552 223.301 23.0592L214.648 15.7432" fill="#3D7195"/>
<path d="M208.512 27.166L216.407 17.23L215.896 16.798L208.108 26.6007L208.512 27.166Z" fill="#223C50"/>
<path d="M241.487 62.3219L241.361 62.2939C241.207 62.2245 241.137 62.0432 241.208 61.8886L242.811 58.3245C242.881 58.1699 243.063 58.1019 243.217 58.1699C243.372 58.2405 243.44 58.4219 243.371 58.5766L241.768 62.1406L241.487 62.3219Z" fill="#3D7195"/>
<path d="M242.983 62.366C242.859 62.366 242.743 62.2913 242.695 62.1686L241.309 58.514C241.249 58.3553 241.329 58.1793 241.488 58.1193C241.645 58.058 241.823 58.138 241.883 58.2966L243.269 61.9513C243.329 62.1087 243.249 62.286 243.091 62.346L242.983 62.366Z" fill="#3D7195"/>
<path d="M239.725 62.4486L239.6 62.4206C239.445 62.3526 239.376 62.1699 239.445 62.0153L241.051 58.4513C241.12 58.2979 241.301 58.2286 241.456 58.2979C241.611 58.3673 241.679 58.5499 241.609 58.7033L240.005 62.2673L239.725 62.4486Z" fill="#3D7195"/>
<path d="M241.22 62.4939C241.097 62.4939 240.98 62.4179 240.935 62.2952L239.548 58.6406C239.488 58.4832 239.568 58.3059 239.725 58.2446C239.884 58.1846 240.061 58.2646 240.121 58.4232L241.508 62.0766C241.568 62.2366 241.488 62.4126 241.329 62.4726L241.22 62.4939Z" fill="#3D7195"/>
<path d="M238.036 62.4486L237.911 62.4206C237.756 62.3526 237.688 62.1699 237.757 62.0153L239.36 58.4513C239.431 58.2979 239.612 58.2286 239.767 58.2979C239.921 58.3673 239.991 58.5499 239.92 58.7033L238.317 62.2673L238.036 62.4486Z" fill="#3D7195"/>
<path d="M239.532 62.4939C239.408 62.4939 239.292 62.4179 239.245 62.2952L237.859 58.6406C237.799 58.4832 237.879 58.3059 238.037 58.2446C238.195 58.1846 238.372 58.2646 238.432 58.4232L239.819 62.0766C239.879 62.2366 239.799 62.4126 239.64 62.4726L239.532 62.4939Z" fill="#3D7195"/>
<path d="M180.823 48.2139L179.657 48.1219C178.043 47.9952 176.827 46.5699 176.955 44.9552L178.883 20.5326C179.011 18.9179 180.436 17.7019 182.049 17.8299L183.216 17.9219C184.829 18.0499 186.045 19.4739 185.917 21.0886L183.989 45.5112C183.861 47.1259 182.437 48.3419 180.823 48.2139Z" fill="#F0724E"/>
<path d="M185.04 32.2059L185.353 28.2419L185.04 32.2059Z" fill="#AE3623"/>
<path d="M185.353 28.2419L185.435 27.2113L185.353 28.2419ZM185.529 26.0086L185.876 21.6259C185.875 21.6406 185.873 21.6553 185.872 21.6713L185.529 26.0086Z" fill="#D3583A"/>
<path d="M185.435 27.2113L185.529 26.0086L185.435 27.2113Z" fill="#DEC2B3"/>
<path d="M184.051 44.73C183.936 43.902 183.529 43.146 182.921 42.594L184.587 21.5113C184.717 19.8527 183.663 18.3633 182.14 17.8753C182.227 17.87 182.312 17.8673 182.399 17.8673C182.476 17.8673 182.555 17.87 182.633 17.8767C184.552 18.0273 186.001 19.71 185.876 21.626L185.529 26.0087L185.435 27.2113L185.353 28.242L185.04 32.206L184.051 44.73Z" fill="#D3583A"/>
<path d="M177.077 44.6113L177.512 63.558C177.492 63.6807 177.467 63.8087 177.439 63.9433L180.829 64.5233L184.033 45.802C184.36 43.8887 183.063 42.0553 181.151 41.7287C179.237 41.402 177.404 42.698 177.077 44.6113Z" fill="#F0724E"/>
<path d="M182.653 53.8673L184.033 45.802C184.035 45.7966 184.035 45.79 184.036 45.7847C184.035 45.79 184.035 45.7966 184.033 45.802L182.653 53.8673Z" fill="#AE3623"/>
<path d="M180.86 64.3433C180.625 63.9273 180.229 63.6259 179.764 63.5326L183.16 42.8366C183.859 43.6073 184.216 44.6739 184.037 45.7726C184.037 45.7739 184.037 45.7753 184.037 45.7753C184.037 45.7793 184.036 45.7819 184.036 45.7846C184.035 45.7899 184.035 45.7966 184.033 45.8019L182.653 53.8673L182.263 56.1513L182.115 57.0139L180.86 64.3433Z" fill="#D3583A"/>
<path d="M179.545 63.5047V63.4967C177.532 63.4247 174.167 62.8847 171.689 63.4073L165.511 65.906C165.135 66.058 165.088 66.5873 165.444 66.782C167.228 67.7633 173.555 66.9367 175.216 66.9367L179.357 66.938L179.459 66.9487C180.359 66.9487 181.088 66.1753 181.088 65.222C181.088 64.2993 180.404 63.554 179.545 63.5047Z" fill="#F0724E"/>
<path d="M180.811 66.1873C180.985 65.9113 181.088 65.5793 181.088 65.2219C181.088 65.5793 180.985 65.9113 180.811 66.1873ZM181.088 65.2046C181.088 65.2046 181.088 65.2032 181.088 65.2019C181.088 65.2032 181.088 65.2046 181.088 65.2046ZM181.088 65.1859C181.088 65.1846 181.088 65.1846 181.088 65.1833C181.088 65.1846 181.088 65.1846 181.088 65.1859Z" fill="#C17123"/>
<path d="M168.851 67.262C167.403 67.262 166.108 67.1473 165.444 66.782C165.264 66.6833 165.188 66.4993 165.204 66.3233C165.915 66.498 166.893 66.5593 167.955 66.5593C169.172 66.5593 170.496 66.4793 171.648 66.398C172.799 66.318 173.776 66.238 174.297 66.238H174.299H178.44L178.541 66.2486C179.441 66.2486 180.171 65.4753 180.171 64.5233C180.171 64.1686 180.068 63.842 179.896 63.5686C180.565 63.766 181.064 64.3993 181.088 65.166C181.088 65.1726 181.088 65.178 181.088 65.1833C181.088 65.1847 181.088 65.1847 181.088 65.186C181.088 65.1913 181.088 65.1966 181.088 65.202C181.088 65.2033 181.088 65.2046 181.088 65.2046C181.088 65.21 181.088 65.2167 181.088 65.222C181.088 65.5793 180.985 65.9113 180.811 66.1873C180.517 66.646 180.021 66.9486 179.459 66.9486L179.357 66.938L175.216 66.9366C174.173 66.9366 171.292 67.262 168.851 67.262Z" fill="#D3583A"/>
<path d="M489.781 77.5493H321L331.813 62.3587H478.968L489.781 77.5493Z" fill="#FBC341"/>
<path d="M489.781 77.5493H321L331.813 62.3587H478.968L489.781 77.5493Z" fill="#FBC341"/>
<path d="M486.623 73.1119H360.779L360.786 73.1106C360.866 73.1106 360.946 73.1119 361.027 73.1119C362.247 73.1119 363.578 73.0292 364.733 72.9479C365.889 72.8666 366.87 72.7852 367.393 72.7852C367.393 72.7852 367.394 72.7852 367.395 72.7852L371.536 72.7866L371.637 72.7973C372.454 72.7973 373.13 72.1599 373.248 71.3306L397.401 67.8799C398.107 67.7786 398.083 66.7492 397.371 66.6826L374.011 64.5053L374.251 63.1053L374.519 63.1546L374.535 63.0666L406.268 62.8519C406.723 64.3626 407.243 65.8559 407.825 67.3279L408.711 69.5679C409.185 70.7666 410.344 71.5546 411.633 71.5546H424.439C427.335 71.5546 430.225 71.3226 433.085 70.8599L444.18 69.0613L450.427 70.5492C451.569 70.8212 452.74 70.9586 453.915 70.9586H455.669V69.9199C455.669 69.1772 455.067 68.5746 454.323 68.5746C453.707 68.5746 453.095 68.4746 452.511 68.2773L450.379 67.5586C449.408 67.2293 448.544 66.6453 447.879 65.8653L445.083 62.5879L478.968 62.3586L486.623 73.1119ZM441.94 64.5466L427.048 63.0559C426.408 62.9932 425.768 62.9613 425.128 62.9613C423.195 62.9613 421.268 63.2506 419.415 63.8239L417.084 64.5466L416.917 63.7946C416.844 63.4573 416.776 63.1199 416.715 62.7812L443.387 62.5999C443.38 62.6079 443.373 62.6159 443.368 62.6239L441.94 64.5466Z" fill="#DC9632"/>
<path d="M454.323 61.8919C453.707 61.8919 453.095 61.7919 452.511 61.5946L450.379 60.876C449.408 60.548 448.544 59.9626 447.879 59.1839L445.064 55.8839C444.612 55.3533 443.783 55.3813 443.368 55.9413L441.94 57.8639L427.048 56.3746C424.477 56.1173 421.883 56.3786 419.415 57.1426L417.084 57.8639L416.917 57.1133C416.421 54.868 416.224 52.5733 416.327 50.2879H412.18V64.8733H424.439C427.333 64.8733 430.225 64.6413 433.084 64.1773L444.18 62.38L450.427 63.8666C451.569 64.14 452.74 64.2773 453.915 64.2773H455.669V63.2386C455.669 62.4946 455.067 61.8919 454.323 61.8919Z" fill="#D4533A"/>
<path d="M436.628 57.3333L427.048 56.3746C424.477 56.1173 421.883 56.3786 419.415 57.1426L417.084 57.8639L416.917 57.1133C416.421 54.868 416.224 52.5733 416.327 50.2879H412.18V64.8733H424.439C427.333 64.8733 430.225 64.6413 433.084 64.1773L436.628 63.604V61.7746L430.491 60.74L436.628 59.0306V57.3333Z" fill="#223C50"/>
<path d="M434.717 62.564L434.591 62.5373C434.436 62.468 434.367 62.2853 434.437 62.132L436.041 58.568C436.111 58.4133 436.292 58.3453 436.447 58.4133C436.601 58.4826 436.669 58.6653 436.601 58.8186L434.997 62.3826L434.717 62.564Z" fill="#223C50"/>
<path d="M436.212 62.6093C436.088 62.6093 435.972 62.5333 435.925 62.4119L434.539 58.7572C434.479 58.5986 434.559 58.4212 434.717 58.3612C434.875 58.3012 435.052 58.3813 435.112 58.5399L436.499 62.1932C436.559 62.3519 436.479 62.5292 436.32 62.5892L436.212 62.6093Z" fill="#223C50"/>
<path d="M432.955 62.6907L432.829 62.664C432.675 62.5947 432.607 62.4133 432.675 62.2587L434.279 58.6947C434.349 58.54 434.531 58.472 434.685 58.54C434.84 58.6107 434.909 58.792 434.839 58.9467L433.235 62.5107L432.955 62.6907Z" fill="#223C50"/>
<path d="M434.449 62.736C434.327 62.736 434.209 62.6613 434.164 62.5373L432.777 58.8839C432.717 58.7253 432.797 58.5479 432.955 58.4879C433.113 58.4279 433.291 58.508 433.351 58.6666L434.737 62.3199C434.797 62.4786 434.717 62.6559 434.559 62.7159L434.449 62.736Z" fill="#223C50"/>
<path d="M431.267 62.6907L431.14 62.664C430.985 62.5947 430.916 62.4133 430.987 62.2587L432.591 58.6947C432.66 58.54 432.841 58.472 432.996 58.54C433.151 58.6107 433.22 58.792 433.149 58.9467L431.547 62.5107L431.267 62.6907Z" fill="#223C50"/>
<path d="M432.761 62.736C432.637 62.736 432.521 62.6613 432.473 62.5373L431.088 58.8839C431.028 58.7253 431.108 58.5479 431.267 58.4879C431.424 58.4279 431.601 58.508 431.663 58.6666L433.048 62.3199C433.108 62.4786 433.028 62.6559 432.869 62.7159L432.761 62.736Z" fill="#223C50"/>
<path d="M374.673 47.6026C372.831 47.6852 371.256 46.2452 371.174 44.4039L370.202 24.7505C370.119 22.9092 371.559 21.3332 373.401 21.2505C375.242 21.1679 376.817 22.6079 376.9 24.4492L377.872 44.1026C377.954 45.9452 376.516 47.5199 374.673 47.6026Z" fill="#D4533A"/>
<path d="M371.229 44.472L371.424 62.2147C371.403 62.3293 371.378 62.448 371.351 62.5747L374.519 63.1547L377.729 45.664C378.056 43.8773 376.862 42.1467 375.076 41.8187H375.075C373.288 41.4907 371.557 42.684 371.229 44.472Z" fill="#D4533A"/>
<path d="M372.818 60.9186V60.912C370.933 60.844 367.783 60.3387 365.461 60.828L359.677 63.168C359.325 63.3107 359.282 63.8053 359.615 63.988C360.76 64.6173 363.906 64.452 366.272 64.2853C367.356 64.2093 368.275 64.132 368.765 64.1333H372.642L372.737 64.1427C373.579 64.1427 374.262 63.42 374.262 62.5267C374.262 61.664 373.622 60.9653 372.818 60.9186Z" fill="#D4533A"/>
<path d="M373.805 21.1707L367.367 14.4134L362.587 17.5227L362.797 18.3614L361.649 19.7547L362.086 19.8987C362.828 20.144 363.394 20.7534 363.583 21.512L367.877 26.1774L373.805 21.1707Z" fill="#F0724E"/>
<path d="M363.498 21.2479C363.378 20.9306 363.188 20.6479 362.948 20.4173C363.188 20.6479 363.378 20.9306 363.499 21.2466C363.499 21.2466 363.499 21.2466 363.498 21.2479ZM362.945 20.4146C362.943 20.4133 362.941 20.4106 362.939 20.4093C362.941 20.4106 362.943 20.4133 362.945 20.4146ZM362.931 20.4013C362.93 20.3999 362.929 20.3999 362.928 20.3986C362.929 20.3999 362.93 20.3999 362.931 20.4013Z" fill="#DEBAA1"/>
<path d="M363.499 21.2467C363.378 20.9307 363.189 20.648 362.948 20.4173C362.947 20.4173 362.946 20.416 362.945 20.4147C362.943 20.4133 362.941 20.4107 362.939 20.4094C362.936 20.4067 362.933 20.404 362.931 20.4014C362.93 20.4 362.929 20.4 362.928 20.3987C362.691 20.176 362.405 20.004 362.086 19.8987L361.652 19.756C362.078 19.7427 362.502 19.7027 362.923 19.6374L363.657 19.5227C364.847 19.336 365.868 18.5853 366.403 17.516C366.293 19.6013 364.593 20.732 363.499 21.2467Z" fill="#D3583A"/>
<path d="M364.125 9.92798C364.029 13.5133 366.537 16.488 369.726 16.5733C372.915 16.6587 375.578 13.8213 375.674 10.236C375.769 6.65065 373.261 3.67464 370.072 3.5893C366.883 3.5053 364.221 6.34264 364.125 9.92798Z" fill="#682B22"/>
<path d="M375.693 12.0667L375.599 12.0653C374.89 12.0373 374.265 11.692 373.745 11.0373L373.784 10.688L374.134 10.728C374.56 11.2626 375.059 11.5453 375.617 11.568C376.893 11.6253 378.115 10.3333 378.127 10.32L378.479 10.308L378.49 10.66C378.436 10.7186 377.159 12.0667 375.693 12.0667Z" fill="#682B22"/>
<path d="M370.773 19.42L370.754 19.4187C370.672 19.4134 368.745 19.2507 367.852 18.0361C367.432 17.4641 367.313 16.7601 367.498 15.9454C367.529 15.8121 367.659 15.724 367.796 15.7587C367.93 15.7894 368.014 15.9227 367.983 16.056C367.831 16.724 367.922 17.2894 368.252 17.7401C369.008 18.7694 370.775 18.9214 370.792 18.9227C370.93 18.9347 371.032 19.0534 371.021 19.1907C371.01 19.3214 370.902 19.42 370.773 19.42Z" fill="#682B22"/>
<path d="M370.911 19.0894C370.129 19.0894 368.869 18.9534 368.187 18.164C367.704 17.604 367.595 16.828 367.866 15.8547C367.903 15.7214 368.037 15.644 368.172 15.6813C368.305 15.7173 368.382 15.856 368.345 15.988C368.122 16.7894 368.196 17.4134 368.564 17.8387C369.406 18.8134 371.505 18.5614 371.528 18.56C371.658 18.5374 371.787 18.6387 371.806 18.776C371.822 18.912 371.726 19.036 371.59 19.0534C371.558 19.0574 371.291 19.0894 370.911 19.0894Z" fill="#682B22"/>
<path d="M358.822 4.71725C357.989 7.80658 360.645 11.2106 364.755 12.3186C368.864 13.4253 372.871 11.8186 373.704 8.72793C374.537 5.63726 371.881 2.23462 367.771 1.12663C363.662 0.0186253 359.655 1.62658 358.822 4.71725Z" fill="#682B22"/>
<path d="M367.619 2.00536C371.37 3.01736 373.903 5.94269 373.681 8.79602L373.704 8.72802C374.537 5.63869 371.881 2.23472 367.771 1.12672C363.662 0.0187178 359.655 1.62668 358.822 4.71734C358.75 4.98534 358.713 5.25602 358.692 5.52802C359.566 2.48269 363.54 0.905364 367.619 2.00536Z" fill="#B14B3C"/>
<path d="M369.964 6.82136C369.895 9.40136 371.817 11.5454 374.257 11.6107C376.697 11.6747 378.73 9.63736 378.799 7.05736C378.867 4.47736 376.945 2.33334 374.506 2.26801C372.067 2.20267 370.033 4.24136 369.964 6.82136Z" fill="#682B22"/>
<path d="M370.44 7.29463C370.508 4.71463 372.542 2.67598 374.982 2.74131C375.996 2.76798 376.919 3.15862 377.648 3.78662C376.868 2.88262 375.756 2.30127 374.506 2.26794C372.067 2.2026 370.033 4.24129 369.964 6.82129C369.924 8.32796 370.566 9.68263 371.591 10.564C370.848 9.70396 370.406 8.5533 370.44 7.29463Z" fill="#B14B3C"/>
<path d="M369.125 11.816L369.084 11.8147C365.195 11.496 362.544 10.332 361.206 8.35738C359.758 6.22005 360.429 3.95872 360.458 3.86405C360.539 3.60139 360.816 3.45603 361.078 3.53469C361.341 3.61469 361.489 3.89075 361.41 4.15475C361.404 4.17341 360.854 6.07607 362.039 7.81073C363.203 9.5174 365.601 10.5307 369.165 10.8227C369.439 10.8454 369.643 11.0854 369.621 11.3601C369.6 11.6201 369.381 11.816 369.125 11.816Z" fill="#682B22"/>
<path d="M365.918 8.6987L366.32 9.83604C366.32 9.83604 367.161 11.9094 369.482 11.74L370.382 10.38L371.289 9.12536L370.656 8.07204L368.37 7.67338L366.128 8.73604L365.918 8.6987Z" fill="#682B22"/>
<path d="M363.337 4.78399C363.337 4.78399 360.12 5.6 359.444 9.596C359.384 9.93733 359.24 10.2587 359.024 10.5307L357.365 12.624C357.255 12.7627 357.224 12.9507 357.286 13.1173C357.349 13.288 357.498 13.412 357.677 13.4427L358.098 13.516L358.232 13.6053L358.328 13.7547L358.272 14.0853L357.956 14.3307L358.167 14.748L358.04 15.2453L357.941 15.5253C357.825 15.8533 358.067 16.0733 358.174 16.404L357.752 17.576C357.591 18.528 358.245 19.4267 359.202 19.564L359.834 19.656C360.859 19.8027 361.9 19.7973 362.923 19.6373L363.657 19.5227C364.913 19.3267 365.981 18.5013 366.487 17.3347L367.129 15.8573C370.069 16.3693 372.755 14.0347 372.61 11.0547C372.51 9.01599 371.837 6.99068 369.805 6.07601C369.805 6.07601 366.406 4.25199 363.337 4.78399Z" fill="#F0724E"/>
<path d="M358.174 16.4041C358.087 16.1347 357.911 15.9387 357.91 15.7C357.91 15.6707 357.912 15.6414 357.918 15.6121C357.95 15.6201 357.988 15.6254 358.035 15.6254C358.105 15.6254 358.192 15.6147 358.302 15.5867C358.302 15.5867 359.018 15.464 359.507 15.1907C359.2 15.9094 358.174 16.4041 358.174 16.4041Z" fill="#D3583A"/>
<path d="M359.756 14.9066C359.528 14.8306 358.867 14.5746 358.458 14.0879C358.458 14.0879 358.313 13.7066 357.911 13.8786C357.911 13.8786 357.65 14.2226 358.029 14.7239C358.029 14.7239 357.714 15.1879 357.763 15.3973C357.763 15.3973 357.694 15.7359 358.302 15.5866C358.302 15.5866 359.353 15.4053 359.778 14.9973L359.756 14.9066Z" fill="#B73C2B"/>
<path d="M358.098 13.516L358.075 13.512L357.677 13.4427C357.498 13.412 357.349 13.288 357.286 13.1173C357.279 13.0973 357.272 13.076 357.268 13.0547C357.272 13.076 357.279 13.0973 357.286 13.1173C357.349 13.288 357.498 13.412 357.677 13.4427L358.098 13.516ZM357.267 13.0533C357.267 13.0507 357.267 13.0493 357.266 13.048C357.267 13.0493 357.267 13.0507 357.267 13.0533ZM357.265 13.0427C357.265 13.0427 357.265 13.0427 357.265 13.0413C357.265 13.0427 357.265 13.0427 357.265 13.0427Z" fill="#DEBAA1"/>
<path d="M359.183 13.616C359.174 13.616 359.165 13.616 359.155 13.616C359.155 13.616 359.148 13.616 359.137 13.616C359.029 13.616 358.462 13.612 358.098 13.516L357.677 13.4427C357.498 13.412 357.35 13.288 357.286 13.1173C357.279 13.0973 357.272 13.076 357.268 13.0546C357.268 13.0546 357.268 13.0533 357.267 13.0533C357.267 13.0506 357.267 13.0493 357.266 13.048C357.266 13.0466 357.266 13.044 357.265 13.0427C357.265 13.0427 357.265 13.0427 357.265 13.0413C357.238 12.904 357.269 12.76 357.352 12.6453L357.374 12.6133C357.374 12.6133 357.395 12.6493 357.507 12.6493C357.61 12.6493 357.792 12.6187 358.109 12.5013C358.109 12.5013 358.219 12.4347 358.396 12.4347C358.575 12.4347 358.823 12.5027 359.09 12.7787C359.186 12.8773 359.318 12.94 359.455 12.94L359.714 12.8467C359.714 12.8467 359.827 13.616 359.183 13.616Z" fill="#D3583A"/>
<path d="M360.175 10.28C360.384 10.1147 360.64 10.064 360.886 10.048C361.011 10.04 361.136 10.0453 361.258 10.0586L361.442 10.0866L361.533 10.104L361.614 10.1213C361.834 10.1653 362.058 10.2 362.276 10.2146L362.59 10.208L362.825 10.1013L362.838 10.0853L362.953 10.072L362.977 10.1693L362.925 10.2747L362.845 10.3573L362.753 10.416L362.658 10.4573C362.529 10.5 362.4 10.5213 362.275 10.5266C362.024 10.5386 361.783 10.5066 361.544 10.4586C361.417 10.432 361.323 10.4026 361.209 10.3853L360.882 10.3347C360.664 10.3133 360.437 10.3093 360.227 10.3626L360.216 10.364L360.158 10.3306L360.175 10.28Z" fill="#682B22"/>
<path d="M360.974 10.6639C360.937 10.8826 360.818 11.0439 360.709 11.0253C360.601 11.0053 360.544 10.8133 360.582 10.5946C360.62 10.3773 360.739 10.2146 360.847 10.2333C360.956 10.2519 361.013 10.4453 360.974 10.6639Z" fill="#682B22"/>
<path d="M360.427 11.1027L360.408 11.1L360.378 11.0493L360.428 11.0187C360.43 11.0187 360.607 11.06 360.729 10.964C360.808 10.9027 360.849 10.7973 360.851 10.648L360.893 10.608L360.934 10.6493C360.932 10.8253 360.88 10.9533 360.78 11.0307C360.65 11.132 360.482 11.1133 360.427 11.1027Z" fill="#682B22"/>
<path d="M360.367 8.49061C360.485 8.38528 360.607 8.35727 360.733 8.35194C360.858 8.35194 360.982 8.35595 361.106 8.36528C361.354 8.38128 361.597 8.42393 361.837 8.48127C362.077 8.54127 362.31 8.61861 362.533 8.72261C362.756 8.82261 362.966 8.94928 363.16 9.09061L363.17 9.14927L363.123 9.16528H363.121C362.894 9.09328 362.675 9.01996 362.447 8.97863C362.223 8.9293 361.997 8.89463 361.77 8.87729C361.545 8.85329 361.318 8.85061 361.094 8.85594L360.759 8.87729L360.421 8.80529L360.393 8.78794L360.332 8.53195L360.367 8.49061Z" fill="#682B22"/>
<path d="M358.029 13.0747C358.164 13.0374 358.299 13.0267 358.438 13.0494C358.571 13.0694 358.72 13.1254 358.819 13.2107L359.125 13.32L359.436 13.192L359.478 13.196L359.481 13.228C359.416 13.3454 359.291 13.4507 359.135 13.4694C358.98 13.4907 358.835 13.4267 358.723 13.3387C358.628 13.2521 358.536 13.1907 358.416 13.164H358.057L358.052 13.1654L357.996 13.1307L358.029 13.0747Z" fill="#682B22"/>
<path d="M360.737 3.64794C359.988 6.42394 362.552 9.52927 366.463 10.5826C370.373 11.6373 374.15 10.2426 374.899 7.46662C375.647 4.69062 373.083 1.58528 369.173 0.530618C365.262 -0.524049 361.486 0.871936 360.737 3.64794Z" fill="#682B22"/>
<path d="M360.936 3.99064C361.684 1.21997 365.604 -0.133379 369.693 0.969287C370.795 1.26662 371.792 1.71464 372.652 2.25998C371.704 1.50531 370.522 0.894616 369.173 0.530616C365.262 -0.524051 361.485 0.871933 360.737 3.64793C360.354 5.0706 360.844 6.5786 361.935 7.85327C360.996 6.6466 360.588 5.27997 360.936 3.99064Z" fill="#B14B3C"/>
<path d="M364.344 6.17466C364.344 6.17466 363.885 6.94799 365.348 8.32932C365.348 8.32932 365.984 9.14132 365.612 9.76265C365.612 9.76265 364.34 11.28 365.243 12C365.243 12 365.911 12.6613 366.359 12.1947C366.359 12.1947 367.299 10.8013 368.469 11.5933C368.469 11.5933 369.726 12.3413 368.791 14.1546C368.791 14.1546 368.326 15.108 367.334 15.3013C367.334 15.3013 366.173 17.336 368.99 18.6186C368.99 18.6186 373.067 18.6627 374.297 13.14C374.808 10.8453 374.123 8.42533 372.419 6.808C371.451 5.88933 370.055 5.04133 368.044 4.53733C368.044 4.53733 365.516 3.83599 364.584 5.09732C364.584 5.09732 364.297 5.30133 364.344 6.17466Z" fill="#682B22"/>
<path d="M366.801 15.064C366.74 15.064 366.684 15.048 366.636 15.0133L366.543 14.944L366.687 14.744C367.199 13.9306 367.224 13.024 366.776 12.632C366.902 12.4813 367.293 12.06 367.724 12.06C367.828 12.06 367.934 12.084 368.04 12.1426C368.04 12.1426 369.419 13.02 367.773 14.484C367.773 14.484 367.181 15.064 366.801 15.064Z" fill="#BE462D"/>
<path d="M366.602 15.4374C366.573 15.6067 366.411 15.72 366.242 15.6907C366.072 15.6614 365.959 15.5 365.989 15.3307C366.018 15.16 366.18 15.0467 366.349 15.076C366.519 15.1067 366.632 15.268 366.602 15.4374Z" fill="#923C1D"/>
<path d="M367.877 26.1773L371.602 21.8959C373.028 20.2559 375.5 20.0492 377.179 21.4279L389.498 31.5413C390.282 32.1853 391.264 32.5359 392.278 32.5359H394.505C395.099 32.5359 395.689 32.4146 396.236 32.1799L405.002 28.4066C406.203 27.8893 407.498 27.6226 408.807 27.6226C413.537 27.6226 417.373 31.4572 417.373 36.1892V47.5719C417.373 49.3453 417.193 51.1146 416.836 52.8519C416.095 56.4652 416.123 60.1932 416.917 63.7946L417.084 64.5466L419.415 63.8239C421.883 63.0612 424.477 62.7999 427.048 63.0559L441.94 64.5466L443.368 62.6239C443.783 62.0626 444.612 62.0359 445.064 62.5666L447.879 65.8652C448.544 66.6452 449.408 67.2292 450.379 67.5586L452.511 68.2773C453.095 68.4746 453.707 68.5746 454.323 68.5746C455.067 68.5746 455.669 69.1772 455.669 69.9199V70.9586H453.915C452.74 70.9586 451.569 70.8212 450.427 70.5492L444.18 69.0612L433.085 70.8599C430.225 71.3226 427.335 71.5546 424.439 71.5546H411.633C410.344 71.5546 409.185 70.7666 408.711 69.5679L407.825 67.3279C405.582 61.6572 404.271 55.6613 403.941 49.5719L403.644 44.0972L402.547 44.4892C399.925 45.4252 397.163 45.9039 394.381 45.9039H384.978C383.021 45.9039 381.113 45.2866 379.528 44.1386L369.581 36.9466C368.51 36.1733 367.877 34.9333 367.877 33.6119V26.1773Z" fill="#F0724E"/>
<path d="M377.648 21.8133L368.125 33.3133L367.877 33.6119C367.877 34.9333 368.51 36.1733 369.581 36.9466L377.242 42.4866L386.607 29.1679L377.648 21.8133Z" fill="white"/>
<path d="M385.007 27.8546L375.555 41.2666L377.242 42.4866L386.607 29.1679L385.007 27.8546Z" fill="#3D7195"/>
<path d="M379.528 44.1387L377.812 42.8987L379.528 44.1387Z" fill="#DEBAA1"/>
<path d="M377.813 42.8987L376.82 42.1813L377.227 42.476L377.813 42.8987Z" fill="#B9412C"/>
<path d="M379.752 44.2893L379.528 44.1387L377.813 42.8986L377.227 42.476L377.242 42.4866L378.937 40.076L379.752 44.2893Z" fill="#D3583A"/>
<path d="M375.345 24.5946C375.239 24.2213 375.06 23.8786 374.827 23.5813C375.109 23.7893 375.361 24.0386 375.572 24.3213L375.345 24.5946Z" fill="#D3583A"/>
<path d="M376.135 40.444L375.479 25.8466C375.478 25.8293 375.478 25.8133 375.476 25.796L375.452 25.2626C375.442 25.032 375.405 24.8093 375.345 24.5946L375.572 24.3213C375.98 24.8666 376.235 25.536 376.268 26.2653L378.39 37.244L376.135 40.444Z" fill="#DEC2B3"/>
<path d="M377.242 42.4866L377.227 42.4759L376.82 42.1812L376.193 41.7279L376.135 40.4439L378.39 37.2439L378.937 40.0759L377.242 42.4866Z" fill="#325569"/>
<path d="M430.491 67.4212L436.628 65.7119V64.0146L427.048 63.0572C424.477 62.7999 421.883 63.0612 419.415 63.8239L417.084 64.5466L416.917 63.7946C416.123 60.1932 416.095 56.4652 416.836 52.8519C417.193 51.1146 417.373 49.3453 417.373 47.5719V36.1892C417.373 31.4572 413.537 27.6226 408.807 27.6226C407.498 27.6226 406.203 27.8893 405.002 28.4066L401.031 30.1159V44.9692C401.54 44.8239 402.046 44.6679 402.547 44.4892L403.644 44.0972L403.941 49.5719C404.271 55.6613 405.582 61.6572 407.825 67.3279L408.711 69.5679C409.185 70.7666 410.344 71.5546 411.633 71.5546H424.439C427.333 71.5546 430.225 71.3226 433.084 70.8599L436.628 70.2852V68.4559L430.491 67.4212Z" fill="#3D7195"/>
<path d="M369.255 50.4599L369.69 69.4066C369.669 69.5293 369.645 69.6573 369.617 69.7919L373.008 70.3719L376.211 51.6506C376.538 49.7373 375.241 47.9053 373.328 47.5773C371.415 47.2506 369.582 48.5479 369.255 50.4599Z" fill="#F0724E"/>
<path d="M369.255 50.4599L369.69 69.4066C369.669 69.5293 369.645 69.6573 369.617 69.7919L373.008 70.3719L376.211 51.6506C376.538 49.7373 375.241 47.9053 373.328 47.5773C371.415 47.2506 369.582 48.5479 369.255 50.4599Z" fill="#F0724E"/>
<path d="M373.744 52.8106L372.575 52.8626C370.958 52.9359 369.575 51.6719 369.503 50.0546L368.403 25.5799C368.33 23.9626 369.594 22.5799 371.211 22.5066L372.38 22.4546C373.997 22.3812 375.38 23.6452 375.452 25.2626L376.552 49.7372C376.625 51.3546 375.361 52.7372 373.744 52.8106Z" fill="#F0724E"/>
<path d="M376.217 42.26C376.216 42.2587 376.216 42.2587 376.216 42.2587L376.192 41.728H376.193L376.217 42.26Z" fill="#B9412C"/>
<path d="M376.528 49.1932L376.216 42.2586C376.216 42.2586 376.216 42.2586 376.217 42.2599L376.526 49.1532C376.526 49.1666 376.527 49.1799 376.528 49.1932Z" fill="#B9412C"/>
<path d="M376.134 40.444L375.477 25.796C375.478 25.8133 375.478 25.8293 375.479 25.8466L376.135 40.444H376.134Z" fill="#C0947E"/>
<path d="M376.193 41.7279H376.192L376.134 40.4439H376.135L376.193 41.7279Z" fill="#2B4149"/>
<path d="M371.754 22.4827C371.768 22.4813 371.782 22.4814 371.795 22.48C371.813 22.48 371.831 22.4787 371.848 22.4787L371.754 22.4827Z" fill="#D3583A"/>
<path d="M376.243 50.7C376.158 49.8733 375.781 49.1106 375.203 48.5413L374.184 25.8466C374.109 24.1853 372.878 22.8373 371.307 22.5413C371.454 22.5133 371.602 22.4919 371.754 22.4826L371.848 22.4786C371.884 22.4773 371.919 22.4773 371.955 22.4773C373.807 22.4773 375.366 23.9346 375.477 25.7959L376.134 40.444L376.192 41.7279L376.216 42.2586L376.528 49.1933C376.546 49.7253 376.443 50.2373 376.243 50.7Z" fill="#D3583A"/>
<path d="M369.255 50.4599L369.69 69.4066C369.669 69.5293 369.645 69.6573 369.617 69.7919L373.008 70.3719L376.211 51.6506C376.538 49.7373 375.241 47.9053 373.328 47.5773C371.415 47.2506 369.582 48.5479 369.255 50.4599Z" fill="#F0724E"/>
<path d="M374.251 63.1053L376.211 51.6507C376.212 51.644 376.213 51.6387 376.214 51.632C376.213 51.6387 376.212 51.644 376.211 51.6507L374.251 63.1053ZM376.215 51.6253C376.216 51.62 376.217 51.6147 376.218 51.6107C376.217 51.6147 376.216 51.62 376.215 51.6253ZM376.219 51.6C376.219 51.5987 376.22 51.596 376.22 51.5947C376.22 51.596 376.219 51.5987 376.219 51.6Z" fill="#B9412C"/>
<path d="M373.039 70.1932C372.804 69.7772 372.407 69.4759 371.941 69.3826L375.337 48.6852C376.031 49.4492 376.389 50.5052 376.22 51.5946C376.22 51.5959 376.219 51.5986 376.219 51.5999C376.219 51.6026 376.218 51.6066 376.218 51.6106C376.217 51.6146 376.216 51.6199 376.215 51.6252C376.215 51.6279 376.215 51.6292 376.214 51.6319C376.213 51.6386 376.212 51.6439 376.211 51.6506L374.251 63.1052L374.011 64.5052L373.039 70.1932Z" fill="#D3583A"/>
<path d="M371.723 69.3546V69.3453C369.71 69.2733 366.345 68.7332 363.867 69.2559L357.688 71.7546C357.312 71.9079 357.266 72.4359 357.622 72.6319C358.845 73.3039 362.206 73.1266 364.733 72.9479C365.89 72.8666 366.872 72.7852 367.395 72.7852L371.536 72.7866L371.637 72.7972C372.537 72.7972 373.266 72.0239 373.266 71.0706C373.266 70.1493 372.582 69.4026 371.723 69.3546Z" fill="#F0724E"/>
<path d="M373.266 71.0546C373.266 71.0532 373.266 71.0519 373.266 71.0519C373.266 71.0519 373.266 71.0532 373.266 71.0546ZM373.266 71.0346C373.266 71.0346 373.266 71.0332 373.266 71.0319C373.266 71.0332 373.266 71.0346 373.266 71.0346ZM373.266 71.0159C373.265 71.0159 373.265 71.0146 373.265 71.0146C373.265 71.0146 373.265 71.0159 373.266 71.0159Z" fill="#DC9632"/>
<path d="M361.027 73.1119C359.579 73.1119 358.285 72.9973 357.622 72.6319C357.442 72.5319 357.366 72.3493 357.382 72.1719C358.093 72.3479 359.071 72.4079 360.131 72.4079C362.568 72.4079 365.435 72.0852 366.477 72.0852L370.618 72.0866L370.719 72.0973C371.619 72.0973 372.349 71.3253 372.349 70.3719C372.349 70.0173 372.247 69.6906 372.073 69.4186C372.733 69.6119 373.226 70.2279 373.264 70.9786C373.264 70.9853 373.265 70.9906 373.265 70.9973C373.265 71.0026 373.265 71.0092 373.265 71.0146C373.265 71.0146 373.265 71.0159 373.266 71.0159C373.266 71.0212 373.266 71.0266 373.266 71.0319C373.266 71.0333 373.266 71.0346 373.266 71.0346C373.266 71.0413 373.266 71.0466 373.266 71.0519C373.266 71.0519 373.266 71.0532 373.266 71.0546C373.266 71.0599 373.266 71.0653 373.266 71.0706C373.266 72.0239 372.537 72.7973 371.637 72.7973L371.536 72.7866L367.395 72.7852C367.394 72.7852 367.393 72.7852 367.393 72.7852C366.87 72.7852 365.889 72.8666 364.733 72.9479C363.578 73.0292 362.247 73.1119 361.027 73.1119Z" fill="#D3583A"/>
<path d="M368.948 33.4347H367.953V26.04C367.953 24.7014 368.592 23.424 369.665 22.624C370.734 21.8253 372.136 21.5733 373.417 21.948L377.206 23.06L376.927 24.016L373.137 22.904C372.155 22.616 371.08 22.808 370.261 23.4213C369.439 24.0347 368.948 25.0147 368.948 26.04V33.4347Z" fill="white"/>
<path d="M403.644 44.0973L403.801 46.9879C405.658 41.0359 407.474 37.6586 407.474 37.6586C403.792 41.4986 403.644 44.0973 403.644 44.0973Z" fill="#223C50"/>
<path d="M434.717 69.2466L434.591 69.2186C434.436 69.1492 434.367 68.9679 434.437 68.8132L436.041 65.2492C436.111 65.0946 436.292 65.0266 436.447 65.0946C436.601 65.1652 436.669 65.3466 436.601 65.5012L434.997 69.0652L434.717 69.2466Z" fill="#3D7195"/>
<path d="M436.212 69.2906C436.088 69.2906 435.972 69.216 435.925 69.0933L434.539 65.4387C434.479 65.28 434.559 65.104 434.717 65.044C434.875 64.9827 435.052 65.0626 435.112 65.2213L436.499 68.876C436.559 69.0333 436.479 69.2107 436.32 69.2707L436.212 69.2906Z" fill="#3D7195"/>
<path d="M432.955 69.3733L432.829 69.3453C432.675 69.2773 432.607 69.0946 432.675 68.94L434.279 65.376C434.349 65.2226 434.531 65.1533 434.685 65.2226C434.84 65.2919 434.909 65.4746 434.839 65.6279L433.235 69.1919L432.955 69.3733Z" fill="#3D7195"/>
<path d="M434.449 69.4186C434.327 69.4186 434.209 69.3426 434.164 69.2199L432.777 65.5653C432.717 65.4079 432.797 65.2306 432.955 65.1693C433.113 65.1093 433.291 65.1892 433.351 65.3479L434.737 69.0013C434.797 69.1613 434.717 69.3373 434.559 69.3973L434.449 69.4186Z" fill="#3D7195"/>
<path d="M431.267 69.3733L431.14 69.3453C430.985 69.2773 430.916 69.0946 430.987 68.94L432.591 65.376C432.66 65.2226 432.841 65.1533 432.996 65.2226C433.151 65.2919 433.22 65.4746 433.149 65.6279L431.547 69.1919L431.267 69.3733Z" fill="#3D7195"/>
<path d="M432.761 69.4186C432.637 69.4186 432.521 69.3426 432.473 69.2199L431.088 65.5653C431.028 65.4079 431.108 65.2306 431.267 65.1693C431.424 65.1093 431.601 65.1892 431.663 65.3479L433.048 69.0013C433.108 69.1613 433.028 69.3373 432.869 69.3973L432.761 69.4186Z" fill="#3D7195"/>
<path d="M401.845 44.7119C402.049 44.6466 402.256 44.5879 402.459 44.5172V29.5012L401.845 29.7652V44.7119Z" fill="#223C50"/>
</svg>
