<svg width="170" height="33" viewBox="0 0 170 33" fill="none" xmlns="http://www.w3.org/2000/svg">
<path d="M169.391 32.1788H0.609375L11.4224 16.9894H158.577L169.391 32.1788" fill="#FBC341"/>
<path d="M169.248 31.9788L44.8781 27.6321L59.7881 27.5241C60.0823 27.6201 60.3911 27.6694 60.7037 27.6694C61.1146 27.6694 61.5313 27.5827 61.9271 27.4001L62.4359 27.1667C62.4433 27.1627 62.451 27.1588 62.4583 27.1561L71.2146 23.1201C71.2381 23.1094 71.2619 23.0988 71.2854 23.0868L71.4479 23.0121L72.002 22.9627L73.0553 23.3174C73.1515 23.3321 73.2468 23.3388 73.3406 23.3388C73.8911 23.3388 74.4004 23.1028 74.7562 22.7148L79.7395 22.2667C80.2886 22.2187 80.2594 21.4054 79.7078 21.3961L75.2881 21.3228L75.2985 21.2374L79.0323 19.5161C79.8401 20.5628 81.0834 21.2387 82.4682 21.2987L91.6667 21.6947L91.6537 22.6081C91.6531 22.6348 91.6531 22.6628 91.6531 22.6894C91.6505 24.9828 92.9515 27.0828 95.0134 28.1028L96.236 28.7068C97.0107 29.0894 97.8614 29.2881 98.724 29.2881H103.104H106.573C107.667 29.2881 108.757 29.1534 109.817 28.8854L116.087 27.3041V26.8094L126.752 22.6748L129.22 23.9521C129.716 24.3108 130.305 24.4961 130.899 24.4961C131.229 24.4961 131.56 24.4388 131.879 24.3228L134.727 24.1574C134.915 24.0881 135.076 23.9654 135.192 23.8028C135.316 23.6294 135.377 23.4267 135.376 23.2267C135.376 22.9601 135.267 22.6974 135.059 22.5054L130.345 19.2828C129.931 18.8974 129.385 18.6854 128.82 18.6854C128.243 18.6854 127.688 18.4641 127.269 18.0654L126.764 17.5854L144.572 16.9894H158.577L169.248 31.9788V31.9788ZM115.813 22.9267C115.828 22.9254 115.843 22.9254 115.856 22.9241C115.843 22.9254 115.828 22.9254 115.813 22.9267ZM115.871 22.9241C115.88 22.9228 115.891 22.9228 115.9 22.9214C115.891 22.9228 115.88 22.9228 115.871 22.9241ZM115.916 22.9214C115.925 22.9201 115.936 22.9201 115.947 22.9188C115.936 22.9201 115.925 22.9201 115.916 22.9214ZM115.959 22.9188C115.971 22.9174 115.983 22.9174 115.993 22.9161C115.983 22.9174 115.971 22.9174 115.959 22.9188ZM116.003 22.9161C116.017 22.9148 116.032 22.9134 116.047 22.9134C116.032 22.9134 116.017 22.9148 116.003 22.9161ZM116.053 22.9121C116.065 22.9121 116.077 22.9108 116.091 22.9094C116.079 22.9108 116.065 22.9121 116.053 22.9121ZM116.101 22.9094C116.112 22.9081 116.124 22.9081 116.135 22.9068C116.124 22.9081 116.112 22.9081 116.101 22.9094ZM116.145 22.9068C116.157 22.9054 116.169 22.9041 116.183 22.9041C116.169 22.9041 116.157 22.9054 116.145 22.9068ZM116.189 22.9028C116.219 22.9001 116.248 22.8987 116.279 22.8961C116.248 22.8987 116.219 22.9001 116.189 22.9028ZM116.283 22.8961C116.296 22.8947 116.309 22.8934 116.323 22.8921C116.309 22.8934 116.296 22.8947 116.283 22.8961ZM116.328 22.8921C116.341 22.8908 116.356 22.8894 116.369 22.8881C116.356 22.8894 116.341 22.8908 116.328 22.8921ZM116.372 22.8881C121.32 22.4548 123.933 19.7268 125.159 17.8694C123.935 19.7268 121.321 22.4534 116.372 22.8881Z" fill="#DC9632"/>
<path d="M61.1286 19.7774L60.7182 18.8868C60.1495 17.6534 60.6943 16.1801 61.9266 15.6121L80.5812 7.01343C81.8146 6.44676 83.288 6.98944 83.8562 8.22277L84.2662 9.11343C84.8348 10.3454 84.2911 11.8188 83.0588 12.3881L64.4036 20.9854C63.1708 21.5548 61.6974 21.0094 61.1286 19.7774" fill="#D4533A"/>
<path d="M63.1375 15.1694L47.563 18.3201L47.2349 18.3161L47.2562 21.2001L63.1802 21.0854C64.8073 21.0734 66.1286 19.7321 66.1171 18.1054C66.1053 16.4787 64.7646 15.1574 63.1375 15.1694" fill="#D4533A"/>
<path d="M47.2703 21.2001C47.8093 21.1267 48.2509 20.7147 48.4047 20.1681L55.4343 20.0694C55.6979 20.4641 55.9963 20.8214 56.326 21.1347L47.2703 21.2001Z" fill="#C9432E"/>
<path d="M47.1719 18.2815V18.2748C45.4843 18.2095 42.664 17.7442 40.5848 18.1855L35.4004 20.3028C35.0848 20.4321 35.0457 20.8815 35.3432 21.0482C36.3703 21.6242 39.1995 21.4761 41.3198 21.3281C42.2838 21.2615 43.101 21.1948 43.5364 21.1948L47.0094 21.2028L47.0938 21.2122C47.8484 21.2135 48.461 20.5575 48.463 19.7455C48.464 18.9602 47.8922 18.3242 47.1719 18.2815Z" fill="#D4533A"/>
<path d="M38.2432 21.4628C37.011 21.4628 35.9062 21.3641 35.3432 21.0481C35.2671 21.0055 35.213 20.9441 35.1802 20.8748C35.213 20.9441 35.2671 21.0055 35.3432 21.0481C35.9062 21.3641 37.011 21.4628 38.2432 21.4628C39.2594 21.4628 40.3614 21.3948 41.3198 21.3281C42.278 21.2614 43.0916 21.1948 43.5286 21.1948C43.5312 21.1948 43.5338 21.1948 43.5364 21.1948L47.0094 21.2028L47.0938 21.2121C47.0943 21.2121 47.0952 21.2121 47.0958 21.2121C47.1547 21.2121 47.213 21.2081 47.2703 21.2001C47.213 21.2081 47.1547 21.2121 47.0958 21.2121C47.0952 21.2121 47.0943 21.2121 47.0938 21.2121L47.0094 21.2028L43.5364 21.1948C43.5338 21.1948 43.5312 21.1948 43.5286 21.1948C43.0916 21.1948 42.278 21.2614 41.3198 21.3281C40.3614 21.3948 39.2594 21.4628 38.2432 21.4628Z" fill="#F09B31"/>
<path d="M38.2433 21.4628C37.011 21.4628 35.9062 21.3641 35.3433 21.0481C35.2672 21.0055 35.213 20.9441 35.1802 20.8748C35.1797 20.8734 35.1786 20.8721 35.1781 20.8708C35.1474 20.8041 35.136 20.7295 35.1428 20.6575C35.748 20.8095 36.5849 20.8628 37.4906 20.8628C38.5042 20.8628 39.6026 20.7961 40.5573 20.7308C41.511 20.6641 42.3214 20.5988 42.7589 20.5988C42.762 20.5988 42.7652 20.5988 42.7682 20.5988L46.2412 20.6068L46.3256 20.6148C46.3266 20.6148 46.3272 20.6148 46.3281 20.6148C47.0813 20.6148 47.6928 19.9601 47.6948 19.1481C47.6953 18.8468 47.61 18.5681 47.4657 18.3361C48.0401 18.5094 48.4636 19.0708 48.463 19.7455C48.461 20.4935 47.9417 21.1081 47.2704 21.2001C47.213 21.2081 47.1548 21.2121 47.0958 21.2121C47.0953 21.2121 47.0944 21.2121 47.0938 21.2121L47.0094 21.2028L43.5365 21.1948C43.5338 21.1948 43.5313 21.1948 43.5286 21.1948C43.0917 21.1948 42.2781 21.2614 41.3198 21.3281C40.3614 21.3948 39.2594 21.4628 38.2433 21.4628" fill="#C9432E"/>
<path d="M128.82 18.6854C128.243 18.6854 127.688 18.4641 127.269 18.0654L125.827 16.6961C125.067 18.2761 122.399 22.5921 115.813 22.9267L115.949 24.7734L109.657 27.3041L116.087 26.1414V26.8094L126.752 22.6747L129.22 23.9521C129.991 24.5081 130.987 24.6481 131.879 24.3228L134.727 24.1574C134.915 24.0881 135.076 23.9654 135.192 23.8027C135.481 23.3987 135.424 22.8414 135.059 22.5054L130.345 19.2828C129.931 18.8974 129.385 18.6854 128.82 18.6854" fill="#F0724E"/>
<path d="M78.7334 8.74812L69.2916 12.6255L72.8843 17.9041L73.8171 17.6521L75.4047 18.9028L75.5552 18.4108C75.813 17.5734 76.4818 16.9281 77.3266 16.6974L81.8198 15.4774L78.7334 8.74812" fill="#F0724E"/>
<path d="M73.6848 14.2108C73.4151 13.9841 73.1145 13.7894 72.7891 13.6347C73.3323 13.6521 73.8203 13.7668 74.2557 13.9481L73.6848 14.2108" fill="#D3583A"/>
<path d="M64.3453 16.3601C68.3614 16.3841 71.6344 13.5081 71.6553 9.93609C71.6766 6.36276 68.4376 3.44944 64.4214 3.42411C60.4058 3.40011 57.1329 6.27744 57.1114 9.84944C57.0906 13.4214 60.3286 16.3374 64.3453 16.3601Z" fill="#682B22"/>
<path d="M66.3187 3.78409C66.2228 4.41076 65.8755 4.97741 65.2843 5.46808L65.0682 5.44943L65.088 5.23208C65.7062 4.71874 66.0286 4.1201 66.0395 3.45743C66.0676 1.9681 64.5578 0.596093 64.5432 0.58276L64.5312 0.36541L64.7474 0.35343C64.8135 0.41343 66.3771 1.83207 66.3463 3.46141L66.3187 3.78409" fill="#682B22"/>
<path d="M74.6432 9.13745C74.5385 9.82278 74.2161 11.1654 73.2604 11.8988C72.6588 12.3614 71.9088 12.5041 71.0291 12.3215L70.9104 12.1401L71.0916 12.0201C71.8796 12.1828 72.5463 12.0615 73.0728 11.6561C74.2567 10.7481 74.3853 8.71477 74.3853 8.69344L74.5473 8.54946L74.6921 8.71079C74.6905 8.73345 74.6801 8.89611 74.6432 9.13745" fill="#682B22"/>
<path d="M74.252 9.67608C74.1484 10.3508 73.9072 11.0601 73.388 11.5281C72.8052 12.0534 71.9765 12.1828 70.9244 11.9134L70.8135 11.7281L71.0004 11.6161C71.9463 11.8574 72.6812 11.7521 73.1823 11.3001C74.3026 10.2921 73.964 7.87876 73.9609 7.85343L74.09 7.67875L74.2646 7.80942C74.2734 7.87075 74.3957 8.74008 74.252 9.67608Z" fill="#682B22"/>
<path d="M58.6337 22.4175C62.1129 23.2801 65.8619 20.2268 67.0061 15.6001C68.1515 10.9735 66.2593 6.52545 62.7801 5.66411C59.3015 4.80278 55.5525 7.85613 54.4072 12.4828C53.2629 17.1095 55.1552 21.5575 58.6337 22.4175" fill="#682B22"/>
<path d="M55.3946 12.6335C56.44 8.40813 59.6561 5.50815 62.8561 5.68815L62.7796 5.66412C59.3015 4.80279 55.5525 7.85614 54.4072 12.4828C53.2629 17.1095 55.1552 21.5575 58.6342 22.4175C58.9364 22.4935 59.2405 22.5281 59.5452 22.5455C56.1161 21.6375 54.2582 17.2255 55.3946 12.6335Z" fill="#B14B3C"/>
<path d="M60.7317 9.89609C63.6219 9.91209 65.9771 7.71078 65.9937 4.97878C66.0099 2.24544 63.6801 0.0160972 60.79 9.72288e-05C57.9004 -0.0172361 55.5447 2.18278 55.5285 4.91611C55.5124 7.64945 57.8416 9.87876 60.7317 9.89609" fill="#682B22"/>
<path d="M61.2504 9.35078C58.3613 9.33478 56.0312 7.10544 56.0473 4.37344C56.0547 3.2361 56.4703 2.19476 57.1561 1.36276C56.1619 2.25743 55.5369 3.51611 55.5285 4.91611C55.5124 7.64945 57.8416 9.87876 60.7317 9.89609C62.4192 9.90543 63.9213 9.15612 64.8848 7.98812C63.9391 8.83878 62.6593 9.36011 61.2504 9.35078Z" fill="#B14B3C"/>
<path d="M65.8744 12.8334C65.39 15.9961 64.2619 18.2201 62.5093 19.4601C60.2479 21.0627 57.8124 20.3947 57.7099 20.3654C57.5468 20.3187 57.45 20.1534 57.4989 19.9868C57.5447 19.8241 57.714 19.7294 57.8776 19.7761C57.9 19.7814 60.1452 20.3894 62.1624 18.9534C64.114 17.5668 65.2301 14.7934 65.4796 10.7121C65.4916 10.5374 65.6359 10.4134 65.8052 10.4241C65.9744 10.4348 66.1031 10.5801 66.0932 10.7494C66.0473 11.4841 65.9755 12.1788 65.8744 12.8334Z" fill="#682B22"/>
<path d="M62.9276 14.3815L64.191 13.9041C64.191 13.9041 66.4921 12.9148 66.2494 10.3215L64.7066 9.34547L63.2806 8.35748L62.1167 9.09215L61.7228 11.6615L62.964 14.1455" fill="#682B22"/>
<path d="M58.6047 17.3615C58.6047 17.3615 59.5938 20.9455 64.0823 21.6095C64.4667 21.6681 64.8302 21.8228 65.14 22.0575L67.5203 23.8655C67.6791 23.9868 67.89 24.0148 68.0755 23.9428C68.264 23.8668 68.4 23.6975 68.4302 23.4975L68.5031 23.0241L68.5995 22.8735L68.7651 22.7615L69.1354 22.8161L69.4182 23.1641L69.8796 22.9188L70.4395 23.0495L70.7558 23.1535C71.125 23.2761 71.3662 23.0001 71.7334 22.8721L73.0552 23.3175C74.1255 23.4761 75.1167 22.7228 75.2479 21.6481L75.3354 20.9388C75.4766 19.7881 75.4458 18.6215 75.2427 17.4801L75.0979 16.6615C74.849 15.2601 73.8995 14.0828 72.5828 13.5441L70.913 12.8601C71.4192 9.55612 68.7438 6.60413 65.4088 6.83613C63.1296 6.99346 60.8776 7.79482 59.901 10.0908C59.901 10.0908 57.938 13.9401 58.6047 17.3615" fill="#F0724E"/>
<path d="M71.2146 23.1201L71.2854 23.0868C71.2619 23.0988 71.2381 23.1095 71.2146 23.1201Z" fill="#D3583A"/>
<path d="M70.0213 21.1361C69.94 21.3934 69.6702 22.1388 69.1342 22.6081C69.1342 22.6081 68.7113 22.7801 68.9124 23.2255C68.9124 23.2255 69.3041 23.5095 69.8552 23.0735C69.8552 23.0735 70.3828 23.4148 70.617 23.3561C70.617 23.3561 70.9968 23.4255 70.8166 22.7481C70.8166 22.7481 70.5885 21.5761 70.1213 21.1095L70.0213 21.1361Z" fill="#B73C2B"/>
<path d="M64.8323 20.7748C64.6421 20.5441 64.5785 20.2601 64.5547 19.9828C64.5437 19.8428 64.5463 19.7041 64.5593 19.5654L64.5859 19.3601L64.6031 19.2588L64.6203 19.1667C64.6645 18.9201 64.6979 18.6681 64.7099 18.4241C64.7151 18.3014 64.7119 18.1814 64.6943 18.0721L64.5697 17.8121L64.5515 17.7974L64.5333 17.6694L64.6427 17.6388L64.7609 17.6947L64.8561 17.7841L64.9239 17.8854L64.9719 17.9908C65.0233 18.1334 65.05 18.2774 65.0577 18.4161C65.0776 18.6974 65.0484 18.9694 64.9989 19.2374C64.9733 19.3801 64.9427 19.4854 64.9244 19.6134C64.9015 19.7348 64.8869 19.8588 64.8765 19.9814C64.8577 20.2254 64.8588 20.4801 64.9219 20.7134L64.9249 20.7267L64.8875 20.7908L64.8323 20.7748" fill="#682B22"/>
<path d="M65.2422 19.8708C65.4875 19.9068 65.6714 20.0374 65.6531 20.1588C65.6343 20.2814 65.4198 20.3481 65.1744 20.3108C64.9291 20.2734 64.7452 20.1441 64.7646 20.0214C64.7828 19.9001 64.9968 19.8334 65.2422 19.8708" fill="#682B22"/>
<path d="M65.7474 20.4734L65.7438 20.4948L65.6875 20.5294L65.6515 20.4734C65.652 20.4708 65.6943 20.2721 65.5843 20.1374C65.5146 20.0521 65.3947 20.0081 65.2286 20.0081L65.1818 19.9628L65.228 19.9161C65.4239 19.9134 65.5682 19.9694 65.6572 20.0788C65.7734 20.2228 65.7567 20.4108 65.7474 20.4734Z" fill="#682B22"/>
<path d="M62.8238 20.6015C62.7014 20.4708 62.6686 20.3348 62.6593 20.1948C62.6561 20.0548 62.6588 19.9148 62.6661 19.7775C62.6776 19.5001 62.7202 19.2255 62.7785 18.9548C62.84 18.6855 62.9213 18.4215 63.0317 18.1708C63.1394 17.9188 63.2765 17.6801 63.4312 17.4588L63.4957 17.4481L63.515 17.5001L63.5145 17.5028C63.44 17.7575 63.3624 18.0054 63.3208 18.2601C63.2713 18.5121 63.2385 18.7668 63.2238 19.0201C63.203 19.2735 63.2052 19.5268 63.2161 19.7788C63.2218 19.9041 63.2333 20.0295 63.2473 20.1535C63.2577 20.2761 63.2509 20.4028 63.1744 20.5335L63.1561 20.5641L62.8702 20.6388L62.8238 20.6015" fill="#682B22"/>
<path d="M68.0094 23.1121C67.9656 22.9601 67.95 22.8095 67.9714 22.6548C67.9906 22.5055 68.051 22.3375 68.1438 22.2255L68.2583 21.8788L68.1078 21.5335L68.1114 21.4868L68.1484 21.4828C68.2807 21.5521 68.402 21.6908 68.426 21.8641C68.4536 22.0374 68.3854 22.2014 68.2891 22.3294C68.1952 22.4374 68.1276 22.5415 68.101 22.6761C68.0728 22.8068 68.075 22.9521 68.1088 23.0788L68.1099 23.0828L68.0728 23.1481L68.0094 23.1121" fill="#682B22"/>
<path d="M57.3937 20.2987C60.5186 21.0721 63.9353 18.1294 65.0254 13.7281C66.1145 9.32541 64.464 5.1281 61.339 4.35477C58.214 3.58277 54.7973 6.52407 53.7082 10.9267C52.6181 15.3307 54.2686 19.5254 57.3937 20.2987" fill="#682B22"/>
<path d="M57.7728 20.0681C54.652 19.2961 53.0468 14.9388 54.1864 10.3348C54.4926 9.09477 54.9718 7.96812 55.5624 6.99212C54.7405 8.06946 54.0837 9.40809 53.7082 10.9268C52.6181 15.3308 54.2686 19.5254 57.3937 20.2988C58.9952 20.6948 60.6713 20.1121 62.0733 18.8601C60.7442 19.9401 59.2238 20.4268 57.7728 20.0681Z" fill="#B14B3C"/>
<path d="M60.138 16.2028C60.138 16.2028 61.0145 16.6988 62.5265 15.0281C62.5265 15.0281 63.4218 14.2974 64.1249 14.6988C64.1249 14.6988 65.8541 16.0881 66.64 15.0614C66.64 15.0614 67.364 14.2961 66.8301 13.8054C66.8301 13.8054 65.2484 12.7855 66.1088 11.4575C66.1088 11.4575 66.9181 10.0334 68.9686 11.0388C68.9686 11.0388 70.0463 11.5361 70.2864 12.6428C70.2864 12.6428 72.5905 13.8961 73.9629 10.7121C73.9629 10.7121 73.9161 6.14542 67.7052 4.89609C65.1249 4.37876 62.4307 5.20144 60.6593 7.14677C59.6536 8.25211 58.7369 9.83476 58.2203 12.0988C58.2203 12.0988 57.4921 14.9441 58.9271 15.9575C58.9271 15.9575 59.1618 16.2748 60.138 16.2028" fill="#682B22"/>
<path d="M69.9047 13.5374L69.6771 13.3801C69.2037 13.0948 68.7053 12.9548 68.2745 12.9548C67.8671 12.9548 67.5203 13.0801 67.3119 13.3294C67.0985 13.1587 66.4083 12.5401 66.7349 11.9267C66.7349 11.9267 67.1162 11.2974 67.8225 11.2974C68.2307 11.2974 68.7474 11.5081 69.3619 12.1707C69.3619 12.1707 70.2553 13.0454 69.9813 13.4294L69.9047 13.5374" fill="#BE462D"/>
<path d="M70.4553 13.4575C70.6458 13.4881 70.7766 13.6668 70.7474 13.8561C70.7182 14.0468 70.5401 14.1774 70.3495 14.1481C70.1589 14.1201 70.0286 13.9414 70.0578 13.7508C70.0865 13.5601 70.2651 13.4295 70.4553 13.4575Z" fill="#923C1D"/>
<path d="M78.1943 17.7428L77.1249 13.0975C76.4905 10.3428 78.0812 7.56548 80.7765 6.71748L88.3484 4.3348C93.5828 2.6868 98.9547 1.51215 104.399 0.825486L109.613 0.166795C114.033 -0.390539 118.492 0.873466 121.96 3.67213L122.928 4.45215C126.393 7.24948 127.664 11.9601 126.075 16.1201C126.075 16.1201 123.884 22.5161 115.813 22.9268L115.949 24.7735L109.657 27.3041L116.087 26.1415V27.3041L109.817 28.8855C108.757 29.1535 107.667 29.2881 106.573 29.2881H98.724C97.8613 29.2881 97.0107 29.0895 96.236 28.7068L95.0133 28.1028C92.9271 27.0708 91.6197 24.9335 91.6536 22.6081L91.6667 21.6948L82.4681 21.2988C80.4061 21.2095 78.6577 19.7548 78.1943 17.7428" fill="#F0724E"/>
<path d="M93.8009 2.80146C92.1692 3.20679 90.5489 3.65614 88.9411 4.14947L87.9031 21.5335L91.6667 21.6948L91.6536 22.6081C91.6197 24.9335 92.9271 27.0708 95.012 28.1028L96.236 28.7068C97.0107 29.0895 97.8613 29.2881 98.724 29.2881H102.201L93.8009 2.80146" fill="white"/>
<path d="M93.8009 2.80146C93.0828 2.98013 92.3666 3.16679 91.652 3.36145L100.085 29.2881H102.201L93.8009 2.80146" fill="#3D7195"/>
<path d="M126.075 16.1201C127.664 11.9601 126.393 7.24948 122.928 4.45215L121.96 3.67213C119.044 1.32013 115.428 0.0668154 111.724 0.0548154L113.884 0.95615C114.472 1.20148 114.659 1.94413 114.257 2.4388L109.136 8.74814C108.588 9.42414 108.289 10.2681 108.289 11.1375C108.289 12.1508 107.695 13.0695 106.771 13.4868L95.388 18.6148C93.8927 19.2868 92.6067 20.3521 91.6667 21.6948L91.6536 22.6081C91.6197 24.9335 92.9271 27.0708 95.0133 28.1028L96.236 28.7068C97.0107 29.0895 97.8613 29.2881 98.724 29.2881H106.573C107.667 29.2881 108.757 29.1535 109.817 28.8855L116.087 27.3041V26.1415L109.657 27.3041L115.949 24.7735L115.813 22.9268C123.884 22.5161 126.075 16.1201 126.075 16.1201Z" fill="#3D7195"/>
<path d="M126.075 16.1201C127.664 11.9601 126.393 7.24948 122.928 4.45215L121.96 3.67213C119.044 1.32013 115.428 0.0668154 111.724 0.0548154L113.884 0.95615C114.472 1.20148 114.659 1.94413 114.257 2.4388L109.136 8.74814C108.588 9.42414 108.289 10.2681 108.289 11.1375C108.289 12.1508 107.695 13.0695 106.771 13.4868L95.388 18.6148C93.8927 19.2868 92.6067 20.3521 91.6667 21.6948L91.6536 22.6081C91.6197 24.9335 92.9271 27.0708 95.0133 28.1028L96.236 28.7068C97.0107 29.0895 97.8613 29.2881 98.724 29.2881H106.573C107.667 29.2881 108.757 29.1535 109.817 28.8855L116.087 27.3041V26.1415L109.657 27.3041L115.949 24.7735L115.813 22.9268C123.884 22.5161 126.075 16.1201 126.075 16.1201Z" fill="#3D7195"/>
<path d="M114.067 27.3908L113.988 27.3922L113.84 27.1708L114.311 24.8241L114.532 24.6761L114.68 24.8988L114.209 27.2441L114.067 27.3908" fill="#3D7195"/>
<path d="M114.965 27.2134L114.767 27.1334L113.441 25.1428L113.493 24.8828L113.753 24.9348L115.08 26.9255L115.028 27.1854L114.965 27.2134Z" fill="#3D7195"/>
<path d="M113.032 27.7068L112.953 27.7081L112.805 27.4868L113.276 25.1401L113.497 24.9934L113.645 25.2148L113.175 27.5615L113.032 27.7068" fill="#3D7195"/>
<path d="M113.931 27.5294L113.732 27.4508L112.407 25.4574L112.459 25.1974L112.719 25.2494L114.045 27.2414L113.993 27.5028L113.931 27.5294Z" fill="#3D7195"/>
<path d="M112.024 27.9374L111.945 27.9388L111.799 27.7175L112.269 25.3708L112.491 25.2241L112.637 25.4455L112.167 27.7908L112.024 27.9374" fill="#3D7195"/>
<path d="M112.923 27.7601L112.724 27.6801L111.397 25.6881L111.451 25.4281L111.711 25.4814L113.037 27.4721L112.985 27.7321L112.923 27.7601Z" fill="#3D7195"/>
<path d="M108.025 12.2641C108.709 12.0561 109.459 11.7561 109.459 10.8601C109.459 10.0681 109.733 9.29345 110.232 8.68011L115.352 2.37077C115.611 2.05211 115.701 1.64145 115.601 1.24411C115.503 0.850779 115.235 0.53878 114.863 0.377446C114.065 0.221446 113.256 0.124122 112.439 0.0867886L114.592 0.985454C114.773 1.06279 114.905 1.21611 114.953 1.40678C115.001 1.59878 114.957 1.79478 114.833 1.94945L109.712 8.25879C109.119 8.99213 108.791 9.91476 108.791 10.8601C108.791 11.1588 108.623 11.3228 108.264 11.4708C108.228 11.7494 108.147 12.0161 108.025 12.2641" fill="#223C50"/>
<path d="M76.5348 16.2028L76.4463 16.1894C76.2807 16.1401 76.1853 15.9654 76.2343 15.7988L76.3328 15.4681C77.6161 11.1148 80.9167 7.55477 85.1609 5.94544L89.8328 4.17476C89.9943 4.11476 90.176 4.19478 90.2369 4.35611C90.2989 4.51878 90.2176 4.70008 90.0547 4.76142L85.3828 6.53209C81.3219 8.07209 78.1619 11.4788 76.9343 15.6454L76.8359 15.9774C76.7952 16.1148 76.6708 16.2028 76.5348 16.2028" fill="white"/>
<path d="M58.0214 25.9588L57.5318 24.8961C56.8542 23.4268 57.5031 21.6695 58.9734 20.9921L81.2234 10.7361C82.6932 10.0601 84.4504 10.7081 85.128 12.1775L85.6176 13.2401C86.2952 14.7108 85.6468 16.4681 84.1771 17.1455L61.9271 27.4001C60.4572 28.0788 58.6995 27.4295 58.0214 25.9588" fill="#F0724E"/>
<path d="M62.4359 27.1667L71.2124 23.1214C71.2135 23.1201 71.214 23.1201 71.2146 23.1201L62.4583 27.1561C62.451 27.1588 62.4432 27.1627 62.4359 27.1667" fill="#C17123"/>
<path d="M71.4474 23.0121L71.7443 22.8761L71.4479 23.0121H71.4474Z" fill="#DC9632"/>
<path d="M71.2854 23.0868C71.2865 23.0868 71.287 23.0868 71.2875 23.0868L71.4474 23.0121H71.4479L71.2854 23.0868V23.0868ZM75.2985 21.2374L79.0323 19.5161L75.2985 21.2374Z" fill="#C17123"/>
<path d="M71.7443 22.8761L75.2984 21.2374L71.7443 22.8761Z" fill="#D3583A"/>
<path d="M71.2124 23.1215L71.2875 23.0868C71.2869 23.0868 71.2864 23.0868 71.2853 23.0868L71.2145 23.1201C71.214 23.1201 71.2135 23.1201 71.2124 23.1215" fill="#B8442B"/>
<path d="M79.0322 19.5161L82.8176 17.7721L79.0322 19.5161ZM85.3728 12.7094L85.3656 12.6934C85.3681 12.6988 85.3708 12.7041 85.3728 12.7094Z" fill="#D3583A"/>
<path d="M61.0125 27.4788C61.8813 27.3521 62.8474 26.9054 63.4781 25.7854C63.6026 25.5761 63.7058 25.3534 63.7854 25.1201L83.1567 16.1908C84.6682 15.4948 85.451 13.8454 85.1329 12.2801C85.2177 12.4121 85.2979 12.5467 85.3657 12.6934L85.3729 12.7094C86.1854 14.4708 85.4083 16.5774 83.6458 17.3908L82.8177 17.7721L79.0323 19.5161L75.2985 21.2374L71.7443 22.8761L71.4474 23.0121L71.2875 23.0868L71.2125 23.1214L62.4359 27.1667C61.9745 27.3747 61.4906 27.4748 61.0125 27.4788" fill="#D3583A"/>
<path d="M60.4171 20.4628L41.8427 24.2228C41.7187 24.2228 41.5875 24.2215 41.4504 24.2175L41.476 27.6575L60.4687 27.5188C62.4088 27.5068 63.9854 25.9054 63.9714 23.9654C63.9572 22.0254 62.3578 20.4494 60.4171 20.4628Z" fill="#F0724E"/>
<path d="M59.7881 27.5241L60.4687 27.5188C60.4761 27.5188 60.4838 27.5188 60.4912 27.5188C60.4838 27.5188 60.4766 27.5188 60.4687 27.5188L59.7881 27.5241ZM60.4917 27.5188C60.6578 27.5161 60.8214 27.5028 60.9813 27.4788C60.9849 27.4788 60.9881 27.4788 60.9917 27.4788C60.9985 27.4788 61.0058 27.4788 61.0125 27.4788C60.8334 27.5041 60.6589 27.5174 60.4917 27.5188Z" fill="#D3583A"/>
<path d="M60.9916 27.4788C60.988 27.4788 60.9848 27.4788 60.9812 27.4788C62.0421 27.3148 62.9495 26.6734 63.478 25.7854C62.8473 26.9054 61.8812 27.3521 61.0124 27.4788C61.0057 27.4788 60.9984 27.4788 60.9916 27.4788" fill="#B8442B"/>
<path d="M41.4938 27.6575C42.1567 27.5655 42.6958 27.0441 42.8619 26.3628L63.7807 25.1201C63.6922 25.3655 63.59 25.5855 63.478 25.7855C62.9495 26.6735 62.0422 27.3148 60.9812 27.4788C60.8214 27.5028 60.6578 27.5161 60.4916 27.5188H60.4911C60.4838 27.5188 60.476 27.5188 60.4687 27.5188L59.788 27.5241L44.878 27.6321L41.4938 27.6575" fill="#D3583A"/>
<path d="M41.3755 24.1761V24.1668C39.3624 24.0894 35.999 23.5348 33.5182 24.0614L27.3354 26.5868C26.9594 26.7401 26.9119 27.2774 27.2676 27.4761C28.4922 28.1628 31.8671 27.9868 34.3963 27.8094C35.5458 27.7294 36.5203 27.6494 37.0395 27.6508L41.1812 27.6601L41.2818 27.6721C42.1818 27.6721 42.9124 26.8894 42.9146 25.9214C42.9167 24.9854 42.2343 24.2268 41.3755 24.1761Z" fill="#F0724E"/>
<path d="M30.7244 27.9694C29.2552 27.9694 27.9385 27.8521 27.2676 27.4761C27.088 27.3748 27.0113 27.1881 27.028 27.0081C27.75 27.1908 28.7489 27.2548 29.8296 27.2548C31.0369 27.2548 32.3457 27.1761 33.4837 27.0974C34.6208 27.0187 35.5875 26.9401 36.1093 26.9401C36.114 26.9401 36.1186 26.9401 36.1228 26.9401L40.265 26.9481L40.3661 26.9588C40.3666 26.9588 40.3676 26.9588 40.3681 26.9588C41.2666 26.9588 41.9968 26.1774 41.9989 25.2094C41.9995 24.8494 41.8978 24.5174 41.7249 24.2401C42.4113 24.4481 42.9161 25.1174 42.9145 25.9214C42.9124 26.8881 42.1828 27.6721 41.2837 27.6721C41.2833 27.6721 41.2828 27.6721 41.2817 27.6721L41.1812 27.6601L37.0394 27.6508C37.0369 27.6508 37.0343 27.6508 37.0323 27.6508C36.5109 27.6508 35.54 27.7308 34.3962 27.8094C33.253 27.8894 31.9369 27.9694 30.7244 27.9694" fill="#D3583A"/>
<path d="M109.657 27.3041L111.879 26.4108L112.019 26.6201L111.964 26.8868L109.657 27.3041V27.3041ZM116.087 26.8094V26.1414L114.721 26.3881L114.46 25.9947L114.596 25.3174L115.949 24.7734C115.949 24.7734 123.941 24.2894 125.825 16.6987C125.827 16.6987 125.827 16.6974 125.827 16.6961L127.269 18.0654C127.688 18.4641 128.243 18.6854 128.82 18.6854C129.385 18.6854 129.931 18.8974 130.345 19.2828L135.059 22.5054C135.267 22.6974 135.376 22.9601 135.376 23.2267C135.377 23.4267 135.316 23.6294 135.192 23.8027C135.076 23.9654 134.915 24.0881 134.727 24.1574L131.879 24.3228C131.56 24.4388 131.229 24.4961 130.899 24.4961C130.305 24.4961 129.716 24.3108 129.22 23.9521L126.752 22.6747L116.087 26.8094V26.8094ZM114.165 25.5521L114.133 25.5041L114.179 25.4854L114.165 25.5521Z" fill="#E45A3E"/>
<path d="M106.573 29.2881H103.104L115.813 22.9268L115.949 24.7735L114.596 25.3175L114.68 24.8988L114.532 24.6761L114.311 24.8241L114.179 25.4855L114.133 25.5041L113.753 24.9348L113.493 24.8828L113.467 25.0135L113.276 25.1401L113.131 25.8681L112.719 25.2495L112.459 25.1975L112.447 25.2521L112.269 25.3708L112.123 26.1001L111.711 25.4815L111.451 25.4281L111.397 25.6881L111.879 26.4108L109.657 27.3041L111.964 26.8868L111.799 27.7175L111.945 27.9388L112.024 27.9375L112.167 27.7908L112.313 27.0628L112.724 27.6801L112.923 27.7601L112.985 27.7321L112.991 27.7068H113.032L113.175 27.5615L113.321 26.8321L113.732 27.4508L113.931 27.5295L113.993 27.5028L114.015 27.3908H114.067L114.209 27.2441L114.355 26.5161L114.767 27.1335L114.965 27.2135L115.028 27.1855L115.08 26.9255L114.721 26.3881L116.087 26.1415V26.8095V27.3041L109.817 28.8855C108.757 29.1535 107.667 29.2881 106.573 29.2881V29.2881ZM125.825 16.6988C125.827 16.6988 125.827 16.6975 125.827 16.6961C125.827 16.6975 125.827 16.6988 125.825 16.6988Z" fill="#355970"/>
<path d="M112.573 26.7775L112.417 26.5415L112.493 26.1641L112.795 26.0415L113.027 26.3895L112.963 26.7068L112.573 26.7775" fill="#E45A3E"/>
<path d="M112.861 27.2095L112.573 26.7775L112.963 26.7068L112.861 27.2095ZM112.493 26.1641L112.581 25.7215L112.795 26.0415L112.493 26.1641Z" fill="#355970"/>
<path d="M113.611 26.5895L113.425 26.3108L113.54 25.7428L113.777 25.6468L114.06 26.0735L113.971 26.5241L113.611 26.5895" fill="#E45A3E"/>
<path d="M113.877 26.9894L113.611 26.5894L113.971 26.5241L113.877 26.9894ZM113.54 25.7428L113.609 25.3961L113.777 25.6468L113.54 25.7428Z" fill="#355970"/>
<path d="M114.015 27.3908L114.045 27.2415L113.877 26.9895L113.971 26.5241L114.06 26.0735L114.355 26.5161L114.209 27.2441L114.067 27.3908H114.015V27.3908ZM114.46 25.9948L114.165 25.5521L114.179 25.4855L114.311 24.8241L114.532 24.6761L114.68 24.8988L114.596 25.3175L114.46 25.9948" fill="#355970"/>
<path d="M114.965 27.2134L114.767 27.1334L114.355 26.5161L114.06 26.0734L113.777 25.6468L113.609 25.3961L113.645 25.2148L113.497 24.9934L113.467 25.0134L113.493 24.8828L113.753 24.9348L114.133 25.5041L114.165 25.5521L114.46 25.9948L114.721 26.3881L115.08 26.9255L115.028 27.1854L114.965 27.2134" fill="#355970"/>
<path d="M112.991 27.7068L113.037 27.4721L112.861 27.2095L112.963 26.7068L113.027 26.3895L113.321 26.8321L113.175 27.5614L113.032 27.7068H112.991V27.7068ZM113.425 26.3108L113.131 25.8681L113.276 25.1401L113.467 25.0135L113.497 24.9934L113.645 25.2148L113.609 25.3961L113.54 25.7428L113.425 26.3108Z" fill="#355970"/>
<path d="M113.931 27.5294L113.732 27.4508L113.321 26.8321L113.027 26.3894L112.795 26.0414L112.581 25.7214L112.637 25.4454L112.491 25.2241L112.447 25.2521L112.459 25.1974L112.719 25.2494L113.131 25.8681L113.425 26.3108L113.611 26.5894L113.877 26.9894L114.045 27.2414L114.015 27.3908L113.993 27.5028L113.931 27.5294" fill="#355970"/>
<path d="M111.945 27.9388L111.799 27.7175L111.964 26.8868L112.019 26.6201L112.313 27.0628L112.167 27.7908L112.024 27.9374L111.945 27.9388V27.9388ZM112.417 26.5415L112.123 26.1001L112.269 25.3708L112.447 25.2521L112.491 25.2241L112.637 25.4455L112.581 25.7215L112.493 26.1641L112.417 26.5415" fill="#355970"/>
<path d="M112.923 27.7601L112.724 27.6801L112.313 27.0627L112.019 26.6201L111.879 26.4108L111.397 25.6881L111.451 25.4281L111.711 25.4814L112.123 26.1001L112.417 26.5414L112.573 26.7774L112.861 27.2094L113.037 27.4721L112.991 27.7068L112.985 27.7321L112.923 27.7601" fill="#355970"/>
<path d="M115.836 22.9268C115.821 22.9268 115.813 22.9268 115.813 22.9268C115.828 22.9254 115.843 22.9255 115.856 22.9241C115.861 22.9241 115.865 22.9241 115.871 22.9241C115.88 22.9228 115.891 22.9228 115.9 22.9215C115.905 22.9215 115.911 22.9215 115.916 22.9215C115.925 22.9201 115.936 22.9201 115.947 22.9188C115.951 22.9188 115.955 22.9188 115.959 22.9188C115.971 22.9174 115.983 22.9174 115.993 22.9161C115.997 22.9161 116 22.9161 116.003 22.9161C116.017 22.9148 116.032 22.9134 116.047 22.9134C116.049 22.9134 116.051 22.9121 116.053 22.9121C116.065 22.9121 116.079 22.9108 116.091 22.9094C116.093 22.9094 116.097 22.9094 116.101 22.9094C116.112 22.9081 116.124 22.9081 116.135 22.9068C116.139 22.9068 116.143 22.9068 116.145 22.9068C116.157 22.9054 116.169 22.9041 116.183 22.9041C116.184 22.9028 116.187 22.9028 116.189 22.9028C116.219 22.9001 116.248 22.8988 116.279 22.8961C116.28 22.8961 116.281 22.8961 116.283 22.8961C116.296 22.8948 116.309 22.8935 116.323 22.8921C116.325 22.8921 116.325 22.8921 116.328 22.8921C116.341 22.8908 116.356 22.8895 116.369 22.8881C116.371 22.8881 116.371 22.8881 116.372 22.8881C121.321 22.4535 123.935 19.7268 125.159 17.8694C125.44 17.4414 125.648 17.0601 125.795 16.7641C122.879 22.8268 116.271 22.9268 115.836 22.9268" fill="#E45A3E"/>
<path d="M115.856 22.9241C115.861 22.9241 115.865 22.9241 115.871 22.9241C115.865 22.9241 115.861 22.9241 115.856 22.9241ZM115.9 22.9215C115.905 22.9215 115.911 22.9215 115.916 22.9215C115.911 22.9215 115.905 22.9215 115.9 22.9215ZM115.947 22.9188C115.951 22.9188 115.955 22.9188 115.959 22.9188C115.955 22.9188 115.951 22.9188 115.947 22.9188ZM115.993 22.9161C115.997 22.9161 116 22.9161 116.003 22.9161C116 22.9161 115.997 22.9161 115.993 22.9161ZM116.047 22.9135C116.049 22.9135 116.051 22.9121 116.053 22.9121C116.051 22.9121 116.049 22.9135 116.047 22.9135ZM116.091 22.9095C116.093 22.9095 116.097 22.9095 116.101 22.9095C116.097 22.9095 116.093 22.9095 116.091 22.9095ZM116.135 22.9068C116.139 22.9068 116.143 22.9068 116.145 22.9068C116.143 22.9068 116.139 22.9068 116.135 22.9068ZM116.183 22.9041C116.184 22.9028 116.187 22.9028 116.189 22.9028C116.187 22.9028 116.184 22.9028 116.183 22.9041ZM116.279 22.8961C116.28 22.8961 116.28 22.8961 116.283 22.8961C116.281 22.8961 116.28 22.8961 116.279 22.8961ZM116.323 22.8921C116.325 22.8921 116.325 22.8921 116.328 22.8921C116.325 22.8921 116.325 22.8921 116.323 22.8921ZM116.369 22.8881C116.371 22.8881 116.371 22.8881 116.372 22.8881C116.371 22.8881 116.371 22.8881 116.369 22.8881ZM125.159 17.8694C125.461 17.4081 125.68 17.0014 125.827 16.6961C125.816 16.7188 125.805 16.7414 125.795 16.7641C125.648 17.0601 125.44 17.4414 125.159 17.8694Z" fill="#355970"/>
<path d="M115.949 24.7734L115.813 22.9268C115.813 22.9268 115.821 22.9268 115.836 22.9268C116.271 22.9268 122.879 22.8268 125.795 16.7641C125.805 16.7414 125.816 16.7201 125.825 16.6988C123.941 24.2894 115.949 24.7734 115.949 24.7734" fill="#DA4732"/>
<path d="M115.949 24.7734L115.813 22.9268L115.949 24.7734ZM125.795 16.7641C125.805 16.7414 125.816 16.7188 125.827 16.6961C125.827 16.6974 125.827 16.6988 125.825 16.6988C125.816 16.7201 125.805 16.7414 125.795 16.7641" fill="#304855"/>
</svg>
