<svg width="170" height="68" viewBox="0 0 170 68" fill="none" xmlns="http://www.w3.org/2000/svg">
<path d="M169.391 67.376H0.609375L11.4227 52.184H158.579L169.391 67.376Z" fill="#FBC341"/>
<path d="M169.391 67.376H0.609375L11.4227 52.184H158.579L169.391 67.376Z" fill="#FBC341"/>
<path d="M168.601 66.2666L35.9614 64.0559L38.6814 62.2919L66.8307 60.4226C67.4934 60.3213 68.1854 59.2253 64.1854 58.7279L44.7708 58.3426L47.5454 56.5413L54.8574 56.2546C56.0601 56.8879 57.3081 57.2119 58.4508 57.2119C58.5641 57.2119 58.6761 57.2093 58.7868 57.2026C59.2481 57.2919 59.7041 57.3359 60.1481 57.3359C61.5934 57.3359 62.9108 56.8653 63.8508 55.9026L131.839 53.2333L132.641 54.4146C133.165 55.1839 133.035 56.2253 132.335 56.8413L127.483 61.1132C127.151 61.4065 126.723 61.5679 126.279 61.5679H123.491C122.827 61.5679 122.396 62.2653 122.693 62.8586C122.784 63.0413 122.936 63.1879 123.124 63.2719L127.853 65.4053H132.673L137.791 61.5679L139.807 60.7039C141.243 60.0879 141.732 58.2986 140.811 57.0372L139.028 54.5999C138.648 54.0813 138.292 53.5452 137.96 52.9932L158.579 52.1839L168.601 66.2666Z" fill="#DC9632"/>
<path d="M133.356 49.1212C132.663 48.1719 132.061 47.1586 131.564 46.0946L127.304 36.9825C126.665 35.6159 125.812 34.3586 124.777 33.2613L123.999 32.4346H114.031L117.797 35.7639C119.779 37.5159 121.535 39.5092 123.024 41.6959L127.971 48.9626C128.413 49.6132 128.303 50.4906 127.713 51.0092L123.621 54.6119C123.341 54.8586 122.981 54.9946 122.608 54.9946H120.256C119.696 54.9946 119.333 55.5825 119.583 56.0825C119.66 56.2372 119.788 56.3613 119.947 56.4333L123.933 58.2306H127.999L132.312 54.9946L134.012 54.2666C135.223 53.7479 135.636 52.2386 134.859 51.1759L133.356 49.1212Z" fill="#D4533A"/>
<path d="M124.213 33.2612L123.435 32.4345H113.468L117.233 35.7639C119.215 37.5159 120.971 39.5092 122.46 41.6958L125.377 45.9812L126.444 45.2598L124.452 39.8012L128.46 43.8972L129.609 43.1199L126.74 36.9825C126.101 35.6158 125.248 34.3585 124.213 33.2612Z" fill="#223C50"/>
<path d="M124.947 44.6932L124.912 44.5919C124.895 44.4493 124.996 44.3212 125.137 44.3039L128.409 43.9132C128.552 43.8972 128.68 43.9986 128.697 44.1399C128.715 44.2813 128.613 44.4106 128.471 44.4279L125.199 44.8173L124.947 44.6932Z" fill="#223C50"/>
<path d="M125.564 45.7932L125.583 45.4999L127.62 42.9105L127.983 42.8666L128.025 43.2306L125.989 45.8199L125.625 45.8639L125.564 45.7932Z" fill="#223C50"/>
<path d="M124.089 43.476L124.053 43.3733C124.037 43.2319 124.139 43.1026 124.28 43.0866L127.552 42.6959C127.693 42.6786 127.823 42.7813 127.84 42.9213C127.857 43.0639 127.755 43.1933 127.613 43.2093L124.341 43.6L124.089 43.476Z" fill="#223C50"/>
<path d="M124.707 44.576L124.725 44.2826L126.763 41.6933L127.125 41.6493L127.169 42.0133L125.132 44.6027L124.769 44.6466L124.707 44.576Z" fill="#223C50"/>
<path d="M123.356 42.2559L123.32 42.1546C123.303 42.0119 123.405 41.8826 123.547 41.8666L126.819 41.4759C126.96 41.4586 127.088 41.5599 127.107 41.7026C127.123 41.8439 127.021 41.9733 126.88 41.9893L123.608 42.3799L123.356 42.2559Z" fill="#223C50"/>
<path d="M123.972 43.356L123.991 43.0626L126.028 40.4733L126.392 40.4306L126.435 40.792L124.397 43.3826L124.035 43.4253L123.972 43.356Z" fill="#223C50"/>
<path d="M52.7587 47.2973L52.036 46.3772C51.0347 45.1039 51.2587 43.2439 52.5307 42.2439L71.7947 27.1066C73.068 26.1066 74.928 26.3306 75.928 27.6026L76.6507 28.5226C77.6507 29.7959 77.4281 31.6559 76.1547 32.6559L56.8907 47.7932C55.6187 48.7932 53.7587 48.5706 52.7587 47.2973Z" fill="#D4533A"/>
<path d="M52.868 42.1012L39.2334 55.2639L38.9 55.4705L40.7734 58.3572L56.708 48.0225C58.336 46.9652 58.804 44.7692 57.748 43.1412C56.692 41.5132 54.496 41.0452 52.868 42.1012Z" fill="#D4533A"/>
<path d="M40.0187 55.0639L40.0201 55.0559C38.0107 54.9025 34.6707 54.2252 32.1721 54.6479L25.8974 56.8945C25.5161 57.0305 25.4481 57.5572 25.7961 57.7666C27.0467 58.5226 30.6747 58.4412 33.2361 58.3612C34.2427 58.3292 35.0854 58.2972 35.5547 58.3172L39.6921 58.4852L39.7934 58.5012C40.6921 58.5372 41.4521 57.7945 41.4907 56.8425C41.5281 55.9212 40.8747 55.1479 40.0187 55.0639Z" fill="#D4533A"/>
<path d="M30.6467 58.4119C28.652 58.4119 26.6587 58.2879 25.796 57.7666C25.756 57.7426 25.72 57.7145 25.6907 57.6812C25.72 57.7145 25.756 57.7426 25.796 57.7666C26.6587 58.2879 28.652 58.4119 30.6467 58.4119C31.544 58.4119 32.4413 58.3865 33.236 58.3612C34.0293 58.3359 34.7213 58.3119 35.208 58.3119C35.3387 58.3119 35.4547 58.3132 35.5547 58.3172L36.9027 58.3719L35.5547 58.3172C35.4547 58.3132 35.3387 58.3119 35.208 58.3119C34.7213 58.3119 34.0293 58.3359 33.236 58.3612C32.4413 58.3865 31.544 58.4119 30.6467 58.4119Z" fill="#F09B31"/>
<path d="M25.6907 57.6813C25.6894 57.6799 25.688 57.6786 25.6867 57.6759C25.688 57.6786 25.6894 57.6799 25.6907 57.6813ZM25.6854 57.6746C25.684 57.6733 25.6827 57.6719 25.6814 57.6706C25.6827 57.6719 25.684 57.6733 25.6854 57.6746ZM25.6787 57.6679C25.6787 57.6666 25.6774 57.6666 25.6774 57.6666C25.6774 57.6666 25.6787 57.6666 25.6787 57.6679Z" fill="#F09B31"/>
<path d="M30.6467 58.4119C28.6521 58.4119 26.6587 58.2879 25.7961 57.7666C25.7561 57.7426 25.7201 57.7145 25.6907 57.6812C25.6894 57.6799 25.6881 57.6785 25.6867 57.6759C25.6854 57.6759 25.6854 57.6746 25.6854 57.6746C25.6841 57.6732 25.6828 57.6719 25.6814 57.6705C25.6814 57.6692 25.6801 57.6692 25.6787 57.6679C25.6787 57.6665 25.6774 57.6666 25.6774 57.6666C25.6761 57.6639 25.6747 57.6625 25.6734 57.6598C25.5894 57.5572 25.5574 57.4239 25.5747 57.2972C26.5974 57.5946 28.1961 57.6732 29.7921 57.6732C30.6814 57.6732 31.5707 57.6478 32.3587 57.6238C33.1454 57.5998 33.8308 57.5759 34.3148 57.5759C34.4481 57.5759 34.5654 57.5772 34.6654 57.5812L37.5988 57.7012L36.9027 58.3719L35.5547 58.3172C35.4547 58.3132 35.3387 58.3119 35.2081 58.3119C34.7214 58.3119 34.0294 58.3359 33.2361 58.3612C32.4414 58.3865 31.5441 58.4119 30.6467 58.4119Z" fill="#C9432E"/>
<path d="M68.4014 31.2599L58.3374 39.5146L66.3481 42.6106L66.5361 41.7667L68.1854 41.0333L67.8587 40.7093C67.3041 40.1573 67.0707 39.3599 67.2414 38.5959L73.4081 35.1599L68.4014 31.2599Z" fill="#F0724E"/>
<path d="M68.1814 41.0293C68.1081 40.9946 68.0334 40.9627 67.9587 40.9307L68.0281 40.876L68.1814 41.0293Z" fill="#D3583A"/>
<path d="M61.5787 48.7172C63.2667 45.5532 62.3533 41.7706 59.5387 40.2693C56.7227 38.7679 53.0733 40.1159 51.3853 43.2812C49.6973 46.4452 50.6107 50.2279 53.4253 51.7292C56.2413 53.2306 59.8907 51.8826 61.5787 48.7172Z" fill="#682B22"/>
<path d="M53.2254 43.7252L52.9814 43.5279C52.8401 42.8599 52.5201 42.3839 52.0307 42.1145C50.9121 41.4985 49.2454 42.1025 49.2281 42.1092C49.1001 42.1559 48.9561 42.0905 48.9081 41.9625C48.8601 41.8332 48.9267 41.6905 49.0547 41.6425C49.1321 41.6145 50.9494 40.9505 52.2694 41.6772C52.892 42.0198 53.2961 42.6079 53.4694 43.4252C53.4974 43.5599 53.4121 43.6918 53.2774 43.7212L53.2254 43.7252Z" fill="#682B22"/>
<path d="M61.0586 41.9159L60.9 41.8613L60.8653 41.5093C61.3013 40.9813 61.4733 40.4332 61.3786 39.8826C61.16 38.6212 59.6493 37.6999 59.6346 37.6906L59.5493 37.3492L59.8907 37.2639C59.9613 37.3066 61.612 38.3132 61.868 39.7986C61.9893 40.4986 61.7813 41.1812 61.2507 41.8266L61.0586 41.9159Z" fill="#682B22"/>
<path d="M60.696 41.8265L60.5293 41.7612L60.512 41.4105C61.0693 40.7919 61.2827 40.2026 61.144 39.6559C60.8253 38.4079 58.8333 37.6946 58.8147 37.6866C58.684 37.6412 58.616 37.4999 58.6627 37.3705C58.708 37.2399 58.8493 37.1706 58.9787 37.2172C59.072 37.2492 61.244 38.0292 61.6253 39.5332C61.808 40.2506 61.5573 40.9945 60.8813 41.7439L60.696 41.8265Z" fill="#682B22"/>
<path d="M63.9933 55.7492C66.12 53.3572 65.2654 49.1253 62.084 46.2973C58.9027 43.4706 54.6 43.1172 52.4733 45.5092C50.348 47.9012 51.2027 52.1332 54.3827 54.9599C57.564 57.7879 61.8667 58.1412 63.9933 55.7492Z" fill="#682B22"/>
<path d="M54.9134 54.2439C52.008 51.6612 51.052 47.9132 52.5254 45.4586L52.4733 45.5092C50.348 47.9012 51.2027 52.1332 54.3827 54.9599C57.564 57.7879 61.8667 58.1412 63.9933 55.7492C64.1787 55.5412 64.332 55.3159 64.472 55.0825C62.3293 57.4159 58.0707 57.0505 54.9134 54.2439Z" fill="#B14B3C"/>
<path d="M54.9667 48.8866C56.1814 46.6092 55.4201 43.8332 53.2667 42.6839C51.1134 41.5359 48.3841 42.4506 47.1694 44.7279C45.9547 47.0039 46.7161 49.7826 48.8694 50.9306C51.0227 52.0786 53.7521 51.1639 54.9667 48.8866Z" fill="#682B22"/>
<path d="M54.7533 48.2505C53.5386 50.5279 50.808 51.4426 48.6546 50.2946C47.7586 49.8159 47.108 49.0545 46.7373 48.1679C47.0306 49.3239 47.7653 50.3426 48.8693 50.9306C51.0226 52.0786 53.752 51.1639 54.9666 48.8866C55.676 47.5572 55.708 46.0585 55.1853 44.8119C55.464 45.9132 55.3453 47.1412 54.7533 48.2505Z" fill="#B14B3C"/>
<path d="M61.7894 55.9359C61.6667 55.9359 61.5441 55.8905 61.4467 55.7985C61.2481 55.6105 61.24 55.2959 61.4267 55.0959C61.44 55.0812 62.7827 53.6252 62.4987 51.5426C62.22 49.4972 60.5281 47.5185 57.4707 45.6652C57.2347 45.5212 57.16 45.2159 57.3014 44.9812C57.4454 44.7452 57.7507 44.6705 57.9867 44.8132C61.3227 46.8372 63.1734 49.0626 63.4881 51.4279C63.8281 53.9852 62.2174 55.7092 62.1481 55.7812C62.0507 55.8839 61.9201 55.9359 61.7894 55.9359Z" fill="#682B22"/>
<path d="M59.4253 49.0146L59.5747 47.8186C59.5747 47.8186 59.748 45.588 57.5973 44.7027L56.184 45.516L54.8107 46.2333L54.9067 47.4587L56.7747 48.8373L59.2547 48.8893L59.4253 49.0146Z" fill="#682B22"/>
<path d="M59.9854 53.6705C59.9854 53.6705 63.2281 54.3785 65.6188 51.1065C65.8254 50.8265 66.0974 50.6038 66.4121 50.4572L68.8307 49.3265C68.9921 49.2518 69.1028 49.0972 69.1214 48.9199C69.1414 48.7399 69.0641 48.5612 68.9174 48.4545L68.5748 48.1999L68.4947 48.0612L68.4748 47.8839C68.4614 47.7572 68.5467 47.6399 68.6721 47.6145L69.0654 47.5359L69.0627 47.0692L69.3987 46.6798L69.6121 46.4732C69.8628 46.2332 69.7454 45.9279 69.7961 45.5839L70.6974 44.7238C71.2681 43.9438 71.0841 42.8479 70.2894 42.2972L69.7654 41.9332C68.9134 41.3425 67.9801 40.8825 66.9934 40.5692L66.2854 40.3425C65.0748 39.9572 63.7494 40.2185 62.7761 41.0359L61.5414 42.0705C59.1401 40.2972 55.6934 41.1865 54.4921 43.9185C53.6694 45.7852 53.3668 47.8985 54.7774 49.6252C54.7774 49.6252 57.0028 52.7758 59.9854 53.6705Z" fill="#F0724E"/>
<path d="M69.6721 46.4066C69.6094 46.3519 69.5001 46.2986 69.3174 46.2573C69.3174 46.2573 68.7001 46.0706 68.1614 46.0706C68.1281 46.0706 68.0947 46.0719 68.0614 46.0733C68.6201 45.5986 69.6561 45.584 69.7841 45.584C69.7921 45.584 69.7961 45.584 69.7961 45.584C69.7827 45.6733 69.7814 45.7587 69.7814 45.8413C69.7814 45.88 69.7814 45.916 69.7814 45.9533C69.7814 46.1186 69.7721 46.2719 69.6721 46.4066Z" fill="#D3583A"/>
<path d="M67.7134 46.216C67.8827 46.3866 68.36 46.9107 68.508 47.528C68.508 47.528 68.4667 47.9346 68.9027 47.96C68.9027 47.96 69.2907 47.7693 69.1747 47.152C69.1747 47.152 69.664 46.876 69.7147 46.668C69.7147 46.668 69.928 46.3973 69.3174 46.2573C69.3174 46.2573 68.296 45.9493 67.7334 46.1253L67.7134 46.216Z" fill="#B73C2B"/>
<path d="M68.8174 49.3319C68.8174 49.3319 68.8094 49.1799 68.1107 49.1053C68.1107 49.1053 68.1067 49.1053 68.0974 49.1053C68.016 49.1053 67.5654 49.0746 67.3574 48.4173C67.3147 48.2866 67.2254 48.1706 67.1027 48.1093L66.8307 48.0772C66.8307 48.0772 67 47.5599 67.3934 47.5599C67.476 47.5599 67.5694 47.5826 67.6734 47.6386C67.6734 47.6386 68.26 47.9253 68.5747 48.1999L68.5934 48.2146L68.9174 48.4546C69.048 48.5506 69.124 48.7026 69.1253 48.8613C69.1253 48.8813 69.124 48.8999 69.1214 48.9199C69.104 49.0893 69.0014 49.2346 68.852 49.3132L68.8174 49.3319Z" fill="#D3583A"/>
<path d="M65.2707 50.1679C65.0094 50.2213 64.7574 50.1532 64.5294 50.0572L64.2014 49.8813L64.0507 49.7746L63.976 49.7186L63.912 49.6666C63.7347 49.528 63.5494 49.3973 63.3614 49.2866L63.0774 49.1533L62.82 49.1439L62.8014 49.1519L62.692 49.1132L62.7134 49.0146L62.8067 48.9439L62.9147 48.9053L63.024 48.8946L63.128 48.9C63.2614 48.9186 63.3867 48.9573 63.5 49.0093C63.7307 49.1106 63.9333 49.2466 64.1253 49.3973L64.3907 49.6119L64.6627 49.8026C64.8467 49.9186 65.0494 50.0239 65.26 50.0706L65.2707 50.0733L65.3067 50.1306L65.2707 50.1679Z" fill="#682B22"/>
<path d="M64.7253 49.4666C64.8573 49.2879 65.036 49.1972 65.124 49.2625C65.2133 49.3279 65.1787 49.5252 65.0467 49.7039C64.9147 49.8812 64.736 49.9733 64.648 49.9079C64.5587 49.8426 64.5946 49.6452 64.7253 49.4666Z" fill="#682B22"/>
<path d="M65.4134 49.3185L65.4267 49.3306L65.4321 49.3892L65.3734 49.3946C65.3721 49.3919 65.2321 49.2772 65.0801 49.3079C64.9814 49.3266 64.8974 49.4039 64.8307 49.5359L64.7748 49.5532L64.7561 49.4972C64.8361 49.3426 64.9401 49.2492 65.0641 49.2252C65.2241 49.1932 65.3668 49.2852 65.4134 49.3185Z" fill="#682B22"/>
<path d="M64.2987 51.6826C64.1453 51.7252 64.024 51.6946 63.9093 51.6439L63.5813 51.4652C63.3667 51.3399 63.1667 51.1919 62.9787 51.0333C62.792 50.8733 62.616 50.7 62.464 50.508C62.3093 50.3186 62.1787 50.1106 62.068 49.8973L62.0853 49.8399L62.1347 49.8479L62.136 49.8492C62.3067 50.0146 62.4693 50.1786 62.656 50.3159C62.8333 50.4612 63.0213 50.5919 63.216 50.7093C63.4067 50.8306 63.6093 50.9359 63.812 51.0306L64.12 51.1613L64.3907 51.3772L64.408 51.4039L64.348 51.6613L64.2987 51.6826Z" fill="#682B22"/>
<path d="M68.4387 48.6266C68.3014 48.5999 68.1747 48.5493 68.0614 48.4666C67.9507 48.3893 67.8427 48.2719 67.7934 48.1519L67.5667 47.9173C67.4734 47.8653 67.3547 47.8653 67.232 47.8933L67.196 47.8706L67.2081 47.8399C67.3187 47.7639 67.4774 47.7252 67.6254 47.7799C67.7747 47.8292 67.8747 47.9519 67.9361 48.0813L68.132 48.3746L68.4534 48.5346L68.4574 48.536L68.4934 48.592L68.4387 48.6266Z" fill="#682B22"/>
<path d="M61.804 55.8492C63.7134 53.6998 62.808 49.7772 59.78 47.0865C56.7534 44.3945 52.7507 43.9558 50.84 46.1038C48.9307 48.2532 49.836 52.1759 52.8627 54.8665C55.8907 57.5585 59.8934 57.9985 61.804 55.8492Z" fill="#682B22"/>
<path d="M61.7774 55.4546C59.8707 57.5999 55.7587 57.0573 52.5934 54.2426C51.7414 53.4853 51.0494 52.6386 50.524 51.7666C51.0347 52.8639 51.8201 53.9399 52.8627 54.8666C55.8907 57.5586 59.8934 57.9972 61.804 55.8492C62.7814 54.7479 63.0174 53.1812 62.6107 51.5519C62.9121 53.0506 62.6654 54.4559 61.7774 55.4546Z" fill="#B14B3C"/>
<path d="M59.7054 51.9772C59.7054 51.9772 60.4614 51.4906 59.7707 49.6012C59.7707 49.6012 59.5641 48.5906 60.1747 48.2012C60.1747 48.2012 61.9907 47.4119 61.5054 46.3639C61.5054 46.3639 61.2027 45.4732 60.5921 45.6919C60.5921 45.6919 59.1294 46.5172 58.4374 45.2852C58.4374 45.2852 57.6467 44.0546 59.2934 42.8506C59.2934 42.8506 60.1361 42.2066 61.1094 42.4759C61.1094 42.4759 63.0574 41.1759 61.1121 38.7679C61.1121 38.7679 57.4828 36.9079 53.9134 41.2972C52.4321 43.1212 51.9628 45.5919 52.7654 47.8012C53.2201 49.0559 54.0894 50.4385 55.6654 51.7879C55.6654 51.7879 57.6121 53.5452 59.0094 52.8332C59.0094 52.8332 59.3574 52.7785 59.7054 51.9772Z" fill="#682B22"/>
<path d="M61.824 42.6812C61.9267 42.5425 62.1213 42.5145 62.26 42.6158C62.3986 42.7185 62.428 42.9132 62.3253 43.0518C62.2226 43.1905 62.028 43.2199 61.8893 43.1172C61.7507 43.0145 61.7213 42.8198 61.824 42.6812Z" fill="#923C1D"/>
<path d="M66.6694 34.9986L70.0867 38.2173C70.9 38.9839 72.0147 39.3479 73.124 39.2066L80.032 38.3346C80.9894 38.2146 81.88 37.7826 82.568 37.1079L90.1507 29.6786C90.9214 28.9226 91.3947 27.9132 91.4814 26.8372L91.8027 22.8399C91.9534 20.9706 92.7627 19.2173 94.088 17.8919L96.2054 15.7759C96.3387 15.6412 96.52 15.5666 96.7094 15.5666H97.8747C98.12 15.5666 98.3494 15.6933 98.48 15.9026C102.291 22.0306 107.109 27.4692 112.735 31.9906L114.765 33.6226L120.573 38.7586C122.924 40.8373 125.007 43.1999 126.773 45.7932L132.641 54.4146C133.165 55.1839 133.035 56.2253 132.335 56.8413L127.483 61.1132C127.151 61.4065 126.723 61.5679 126.279 61.5679H123.491C122.827 61.5679 122.396 62.2653 122.693 62.8586C122.784 63.0413 122.936 63.1879 123.124 63.2719L127.853 65.4053H132.673L137.791 61.5679L139.807 60.7039C141.243 60.0879 141.732 58.2986 140.811 57.0372L139.028 54.5999C138.205 53.4759 137.493 52.2732 136.903 51.0105L131.851 40.2026C131.092 38.5813 130.08 37.0919 128.853 35.7893L121.063 27.5212L109.103 6.09323C105.773 0.129234 97.816 -1.29208 92.6267 3.15059L89.86 5.51856C88.8267 6.40389 87.9694 7.47588 87.3294 8.67722C86.8614 9.55855 86.2734 10.3733 85.5814 11.0946L66.5654 30.9613C65.472 32.1026 65.52 33.9146 66.6694 34.9986Z" fill="#F0724E"/>
<path d="M69.1254 37.4333C68.9668 37.4333 68.8108 37.3573 68.7148 37.216L67.5041 35.4266C66.7414 33.5426 67.1521 31.3707 68.5521 29.8947L73.7401 24.4213C73.9294 24.2226 74.2441 24.2134 74.4428 24.4027C74.6428 24.592 74.6521 24.9067 74.4628 25.1067L69.2734 30.58C68.1548 31.76 67.8174 33.492 68.4081 35.004L69.5361 36.6546C69.6908 36.8813 69.6321 37.1907 69.4054 37.3453L69.1254 37.4333Z" fill="white"/>
<path d="M123.892 42.0826C124.928 43.2573 125.889 44.4973 126.773 45.7933L130.233 50.876L131.499 50.0213L129.136 43.5466L133.889 48.4053L135.253 47.4826L131.851 40.2027C131.661 39.7973 131.456 39.4 131.235 39.012C130.573 37.848 129.775 36.7667 128.853 35.7893L121.063 27.5213L109.103 6.09467C107.225 2.73333 103.88 0.815979 100.388 0.575981C97.684 0.390648 94.892 1.21199 92.6267 3.15065L89.86 5.51862L89.856 5.52396C89.588 5.7533 89.3334 5.99465 89.0907 6.24799L89.0787 6.26263C88.8387 6.51463 88.6107 6.77732 88.396 7.05066L92.76 19.6693C93.1147 19.0227 93.5587 18.4213 94.088 17.892L96.2053 15.776L96.4373 15.6213L96.7093 15.5667H97.8747L98.0547 15.5893C98.2294 15.6347 98.3827 15.7467 98.48 15.9027C98.956 16.6693 99.448 17.424 99.956 18.168C100.463 18.912 100.985 19.6453 101.524 20.3667C103.675 23.2493 106.065 25.948 108.669 28.4307C109.321 29.052 109.985 29.6586 110.664 30.252C111.34 30.8453 112.031 31.4253 112.735 31.9893L114.765 33.6227L120.573 38.7587C121.748 39.7973 122.857 40.908 123.892 42.0826Z" fill="#3D7195"/>
<path d="M88.0626 31.7239L76.9026 20.1613L73.5293 23.6852L76.3453 28.9946C77.668 31.4893 77.688 34.4746 76.396 36.9879L75.404 38.9199L80.032 38.3346C80.9893 38.2146 81.88 37.7826 82.568 37.1079L88.0626 31.7239Z" fill="white"/>
<path d="M86.784 32.9773L88.0627 31.724L76.9027 20.1613L75.7094 21.408" fill="#3D7195"/>
<path d="M47.3333 53.3933L46.6107 52.4733C45.6107 51.2013 45.8347 49.3413 47.1067 48.34L66.3706 33.2027C67.6426 32.204 69.5026 32.4253 70.5026 33.7L71.2266 34.6186C72.2266 35.8919 72.0026 37.7519 70.7306 38.7519L51.4666 53.8893C50.1933 54.8893 48.3333 54.6666 47.3333 53.3933Z" fill="#F0724E"/>
<path d="M68.0281 40.876L70.2894 39.1C70.2828 39.104 70.2774 39.1093 70.2708 39.1133L68.0281 40.876Z" fill="#DEBAA1"/>
<path d="M67.9587 40.9307L68.0281 40.876L67.9587 40.9307Z" fill="#B8442B"/>
<path d="M62.7987 44.9852L67.9587 40.9306L62.7987 44.9852Z" fill="#D3583A"/>
<path d="M70.8907 34.1919L70.8654 34.1586C70.8734 34.1706 70.8827 34.1812 70.8907 34.1919Z" fill="#D3583A"/>
<path d="M52.0814 53.4066C52.6134 52.7613 52.8934 51.948 52.8881 51.1253L69.5161 38.0599C70.8254 37.0319 71.2041 35.248 70.5321 33.7973C70.6494 33.9093 70.7614 34.028 70.8641 34.1586H70.8654L70.8908 34.192C72.0548 35.7106 71.7881 37.9066 70.2894 39.1L68.0281 40.876L67.9587 40.9306L62.7987 44.9853L52.0814 53.4066Z" fill="#D3583A"/>
<path d="M47.4427 48.1973L33.8081 61.3599L33.4747 61.5666L35.3481 64.4532L51.2827 54.1185C52.9107 53.0612 53.3801 50.8666 52.3241 49.2372C51.2681 47.6092 49.0707 47.1413 47.4427 48.1973Z" fill="#F0724E"/>
<path d="M51.3041 54.1039C51.3067 54.1025 51.3094 54.1012 51.3121 54.0999C51.3094 54.1012 51.3067 54.1025 51.3041 54.1039ZM51.3241 54.0905C51.3267 54.0892 51.3294 54.0865 51.3334 54.0852C51.3294 54.0865 51.3267 54.0892 51.3241 54.0905ZM51.3441 54.0772C51.3481 54.0759 51.3507 54.0732 51.3534 54.0705C51.3507 54.0732 51.3481 54.0759 51.3441 54.0772ZM51.3641 54.0639C51.3681 54.0612 51.3707 54.0585 51.3734 54.0572C51.3707 54.0585 51.3681 54.0612 51.3641 54.0639ZM51.3854 54.0492C51.3881 54.0479 51.3907 54.0452 51.3934 54.0426C51.3907 54.0452 51.3881 54.0479 51.3854 54.0492ZM51.4108 54.0319C51.4108 54.0305 51.4121 54.0305 51.4134 54.0292C51.4121 54.0305 51.4108 54.0305 51.4108 54.0319ZM51.4334 54.0146C51.4347 54.0146 51.4361 54.0132 51.4361 54.0132C51.4361 54.0132 51.4347 54.0146 51.4334 54.0146ZM51.4534 53.9999C51.4561 53.9986 51.4574 53.9972 51.4587 53.9972C51.4574 53.9972 51.4547 53.9986 51.4534 53.9999ZM51.4747 53.9839C51.4761 53.9839 51.4774 53.9825 51.4774 53.9825C51.4774 53.9825 51.4761 53.9839 51.4747 53.9839ZM51.4961 53.9679C51.4974 53.9679 51.4974 53.9679 51.4974 53.9679C51.4974 53.9679 51.4974 53.9679 51.4961 53.9679Z" fill="#DC9632"/>
<path d="M35.348 64.4532L35.2787 64.3465C35.7307 64.0559 36.0414 63.5386 36.0654 62.9386C36.0654 62.9333 36.0667 62.9279 36.0667 62.9226C36.0667 62.9212 36.0667 62.9199 36.0667 62.9185C36.0667 62.9132 36.0667 62.9092 36.0667 62.9039C36.0667 62.9026 36.0667 62.8999 36.0667 62.8986C36.0667 62.8946 36.0667 62.8892 36.0667 62.8852C36.0667 62.8825 36.0667 62.8812 36.0667 62.8786C36.0667 62.8759 36.0667 62.8719 36.0667 62.8693C36.0667 62.8666 36.0667 62.8639 36.0667 62.8613C36.0667 62.8573 36.0667 62.8532 36.0667 62.8492C36.0667 62.8479 36.0667 62.8452 36.0667 62.8439C36.0667 62.8385 36.0667 62.8346 36.0667 62.8306C36.0667 62.8279 36.0667 62.8266 36.0667 62.8239C36.0667 62.8199 36.0667 62.8159 36.0667 62.8119C36.0667 62.8106 36.0667 62.8093 36.0667 62.8079C36.0667 62.8026 36.0667 62.7986 36.0654 62.7932C36.0654 62.7932 36.0654 62.7919 36.0654 62.7906C36.0654 62.7852 36.0654 62.7799 36.0654 62.7746C36.0654 62.7733 36.0654 62.7733 36.0654 62.7719C36.0614 62.6946 36.0533 62.6199 36.04 62.5465L52.8707 51.4652C52.784 52.4292 52.3094 53.3492 51.4974 53.9679C51.4974 53.9679 51.4974 53.9679 51.496 53.9679C51.4907 53.9732 51.484 53.9772 51.4774 53.9825C51.4774 53.9825 51.476 53.9839 51.4747 53.9839C51.4693 53.9879 51.464 53.9919 51.4587 53.9973C51.4573 53.9973 51.456 53.9986 51.4533 53.9999C51.448 54.0039 51.4427 54.0092 51.436 54.0132C51.436 54.0132 51.4347 54.0146 51.4333 54.0146C51.4267 54.0199 51.42 54.0239 51.4134 54.0292C51.412 54.0306 51.4107 54.0306 51.4107 54.0319C51.4054 54.0359 51.3987 54.0399 51.3934 54.0426C51.3907 54.0452 51.388 54.0479 51.3853 54.0492C51.3813 54.0519 51.3773 54.0546 51.3733 54.0572C51.3707 54.0586 51.368 54.0613 51.364 54.0639C51.3614 54.0666 51.3573 54.0692 51.3533 54.0706C51.3507 54.0732 51.348 54.0759 51.344 54.0772C51.34 54.0799 51.3373 54.0825 51.3333 54.0852C51.3293 54.0865 51.3267 54.0892 51.324 54.0906C51.32 54.0932 51.316 54.0973 51.312 54.0999C51.3094 54.1013 51.3067 54.1026 51.304 54.1039C51.2973 54.1092 51.2894 54.1132 51.2827 54.1185L35.348 64.4532Z" fill="#D3583A"/>
<path d="M34.5947 61.1599V61.1519C32.5854 60.9985 29.2454 60.3212 26.7467 60.7439L20.4734 62.9905C20.0907 63.1265 20.0241 63.6532 20.3707 63.8626C21.6227 64.6186 25.2507 64.5385 27.8121 64.4572C28.8187 64.4265 29.6614 64.3945 30.1294 64.4132L34.2681 64.5825L34.3681 64.5973C35.2667 64.6333 36.0281 63.8906 36.0654 62.9386C36.1041 62.0173 35.4507 61.2439 34.5947 61.1599Z" fill="#F0724E"/>
<path d="M34.4307 64.5986C34.4107 64.5986 34.3893 64.5987 34.368 64.5973L34.268 64.5826L30.1293 64.4133C30.0307 64.4093 29.9147 64.408 29.7827 64.408C29.2973 64.408 28.6053 64.4333 27.812 64.4573C27.0173 64.4826 26.12 64.508 25.2226 64.508C23.228 64.508 21.2333 64.384 20.3706 63.8626C20.3253 63.836 20.288 63.8027 20.256 63.7667C20.288 63.8027 20.3253 63.836 20.3706 63.8626C21.2333 64.384 23.228 64.508 25.2226 64.508C26.12 64.508 27.0173 64.4826 27.812 64.4573C28.6053 64.4333 29.2973 64.408 29.7827 64.408C29.9147 64.408 30.0307 64.4093 30.1293 64.4133L34.268 64.5826L34.368 64.5973C34.3893 64.5987 34.4107 64.5986 34.4307 64.5986C34.74 64.5986 35.0307 64.5066 35.2787 64.3466C35.0307 64.5066 34.74 64.5986 34.4307 64.5986Z" fill="#DC9632"/>
<path d="M20.2531 63.7639C20.2531 63.7629 20.2531 63.7629 20.2521 63.7629C20.2531 63.7629 20.2531 63.7629 20.2531 63.7639Z" fill="#DC9632"/>
<path d="M36.0667 62.9226C36.0667 62.9213 36.0667 62.9199 36.0667 62.9186C36.0667 62.9199 36.0667 62.9213 36.0667 62.9226ZM36.0667 62.9039C36.0667 62.9026 36.0667 62.8999 36.0667 62.8986C36.0667 62.8999 36.0667 62.9026 36.0667 62.9039ZM36.0667 62.8852C36.0667 62.8826 36.0667 62.8813 36.0667 62.8786C36.0667 62.8813 36.0667 62.8826 36.0667 62.8852ZM36.0667 62.8693C36.0667 62.8666 36.0667 62.8639 36.0667 62.8613C36.0667 62.8639 36.0667 62.8666 36.0667 62.8693ZM36.0667 62.8492C36.0667 62.8479 36.0667 62.8452 36.0667 62.8439C36.0667 62.8452 36.0667 62.8479 36.0667 62.8492ZM36.0667 62.8306C36.0667 62.8279 36.0667 62.8266 36.0667 62.8239C36.0667 62.8266 36.0667 62.8279 36.0667 62.8306ZM36.0667 62.8119C36.0667 62.8106 36.0667 62.8093 36.0667 62.808C36.0667 62.8093 36.0667 62.8106 36.0667 62.8119ZM36.0654 62.7932C36.0654 62.7932 36.0654 62.7919 36.0654 62.7906C36.0654 62.7919 36.0654 62.7932 36.0654 62.7932ZM36.0654 62.7746C36.0654 62.7733 36.0654 62.7733 36.0654 62.772C36.0654 62.7733 36.0654 62.7733 36.0654 62.7746Z" fill="#B8442B"/>
<path d="M34.4307 64.5986C34.4107 64.5986 34.3893 64.5987 34.368 64.5973L34.268 64.5826L30.1293 64.4133C30.0307 64.4093 29.9147 64.408 29.7827 64.408C29.2973 64.408 28.6053 64.4333 27.812 64.4573C27.0173 64.4826 26.12 64.508 25.2227 64.508C23.228 64.508 21.2333 64.384 20.3707 63.8626C20.3253 63.836 20.288 63.8027 20.256 63.7667C20.256 63.7653 20.2547 63.7653 20.2533 63.764C20.2533 63.7627 20.2533 63.7626 20.252 63.7626C20.1653 63.6573 20.1333 63.5227 20.1507 63.3947C21.172 63.6907 22.7707 63.7693 24.3653 63.7693C25.2573 63.7693 26.1467 63.7453 26.936 63.72C27.724 63.696 28.4093 63.672 28.8933 63.672C29.0253 63.672 29.1413 63.6733 29.2413 63.6773L33.38 63.8466L33.48 63.8613C33.5013 63.8613 33.5213 63.8626 33.5427 63.8626C34.4147 63.8626 35.14 63.1333 35.1773 62.2027C35.192 61.848 35.1027 61.5173 34.9413 61.2387C35.5707 61.452 36.0293 62.0533 36.0653 62.772C36.0653 62.7733 36.0653 62.7733 36.0653 62.7747C36.0653 62.78 36.0653 62.7853 36.0653 62.7906C36.0653 62.792 36.0653 62.7933 36.0653 62.7933C36.0667 62.7986 36.0667 62.8027 36.0667 62.808C36.0667 62.8093 36.0667 62.8106 36.0667 62.812C36.0667 62.816 36.0667 62.82 36.0667 62.824C36.0667 62.8266 36.0667 62.828 36.0667 62.8307C36.0667 62.8347 36.0667 62.8386 36.0667 62.8439C36.0667 62.8453 36.0667 62.848 36.0667 62.8493C36.0667 62.8533 36.0667 62.8573 36.0667 62.8613C36.0667 62.864 36.0667 62.8667 36.0667 62.8693C36.0667 62.872 36.0667 62.876 36.0667 62.8786C36.0667 62.8813 36.0667 62.8826 36.0667 62.8853C36.0667 62.8893 36.0667 62.8946 36.0667 62.8986C36.0667 62.9 36.0667 62.9026 36.0667 62.904C36.0667 62.9093 36.0667 62.9133 36.0667 62.9186C36.0667 62.92 36.0667 62.9213 36.0667 62.9227C36.0667 62.928 36.0653 62.9333 36.0653 62.9387C36.0413 63.5387 35.7307 64.0559 35.2787 64.3466C35.0307 64.5066 34.74 64.5986 34.4307 64.5986Z" fill="#D3583A"/>
<path d="M89.9054 5.48133L89.86 5.51864L89.8561 5.52397C89.6854 5.67064 89.528 5.83067 89.368 5.98667L93.7574 18.2546C93.8654 18.132 93.9721 18.0093 94.0881 17.892L94.2774 17.7027L89.9054 5.48133Z" fill="#223C50"/>
<path d="M129.723 48.6813L129.681 48.5586C129.661 48.3906 129.781 48.2372 129.949 48.2186L133.831 47.7546C133.999 47.7359 134.151 47.8559 134.171 48.0226C134.192 48.1919 134.072 48.3453 133.903 48.3639L130.023 48.8266C129.899 48.8426 129.784 48.7813 129.723 48.6813Z" fill="#3D7195"/>
<path d="M130.455 49.9852L130.477 49.6373L132.893 46.5666C132.997 46.4333 133.192 46.4093 133.324 46.5146C133.457 46.6186 133.48 46.8119 133.376 46.9453L130.959 50.0159C130.855 50.1492 130.661 50.1732 130.528 50.0679L130.455 49.9852Z" fill="#3D7195"/>
<path d="M128.707 47.2359L128.664 47.1159C128.644 46.9465 128.764 46.7933 128.933 46.7746L132.813 46.3119C132.981 46.2906 133.135 46.4119 133.155 46.5799C133.175 46.7479 133.053 46.8999 132.885 46.9212L129.005 47.3839C128.881 47.3972 128.767 47.3373 128.707 47.2359Z" fill="#3D7195"/>
<path d="M129.439 48.5413L129.46 48.1932L131.877 45.1212C131.981 44.9879 132.175 44.9652 132.307 45.0706C132.441 45.1746 132.464 45.3679 132.359 45.5012L129.943 48.5719C129.837 48.7053 129.644 48.7279 129.512 48.6239L129.439 48.5413Z" fill="#3D7195"/>
<path d="M127.835 45.7893L127.793 45.6679C127.773 45.4999 127.893 45.3466 128.061 45.3266L131.943 44.8639C132.111 44.8439 132.263 44.9639 132.284 45.1319C132.304 45.2999 132.184 45.4533 132.016 45.4733L128.135 45.936C128.011 45.952 127.896 45.8906 127.835 45.7893Z" fill="#3D7195"/>
<path d="M128.568 47.0946L128.589 46.7452L131.005 43.6746C131.111 43.5413 131.303 43.5186 131.437 43.6239C131.569 43.7279 131.593 43.9213 131.488 44.0533L129.072 47.1253C128.967 47.2586 128.775 47.2812 128.64 47.1759L128.568 47.0946Z" fill="#3D7195"/>
<path d="M96.256 15.7412L96.4374 15.6212L96.7094 15.5665H97.8747L98.0547 15.5892C98.0547 15.5892 96.0734 12.3198 96.1214 8.88783C96.1214 8.88783 95.4454 11.8465 96.256 15.7412Z" fill="#223C50"/>
</svg>
