<svg width="170" height="97" viewBox="0 0 170 97" fill="none" xmlns="http://www.w3.org/2000/svg">
<path d="M169.609 96.7848H0.828003L11.6413 81.5941H158.797L169.609 96.7848Z" fill="#FBC341"/>
<path d="M169.609 96.7848H165.255L91.8667 89.1165C92.224 89.0009 92.5654 88.8343 92.8774 88.6155L95.4974 87.29C95.9294 87.0712 96.2134 86.6405 96.2454 86.1592L160.287 83.6873L169.609 96.7848ZM74.1507 87.2649L72.3854 87.0807L74.0427 87.0165C74.0747 87.102 74.1107 87.1848 74.1507 87.2649Z" fill="#DC9632"/>
<path d="M101.529 43.4647L91.764 59.274L86.1627 56.1727L86.3294 55.2167L84.9347 53.7474L85.412 53.55C86.224 53.2167 86.808 52.49 86.96 51.6247L92.564 41.1247L101.529 43.4647Z" fill="#F0724E"/>
<path d="M85.412 53.55C86.1267 53.2567 86.664 52.6567 86.8867 51.9287C86.8867 51.9287 86.8867 51.9287 86.888 51.9287C86.6653 52.6581 86.1267 53.2567 85.412 53.55Z" fill="#DEBAA1"/>
<path d="M90.4359 55.8754C89.7519 54.7207 88.5479 53.9607 87.2013 53.8474L86.3706 53.7767C86.0439 53.75 85.7186 53.7367 85.392 53.7367C85.2413 53.7367 85.0906 53.7394 84.9399 53.7447L85.4119 53.55C86.1266 53.2567 86.6653 52.658 86.888 51.9287C88.1533 52.418 90.1466 53.5487 90.4359 55.8754Z" fill="#D3583A"/>
<path d="M88.4893 64.5567C88.0973 60.55 90.6693 57.0167 94.2346 56.6674C97.7986 56.3194 101.008 59.2847 101.4 63.2927C101.793 67.3019 99.22 70.8342 95.656 71.1831C92.0906 71.5326 88.8826 68.5659 88.4893 64.5567Z" fill="#682B22"/>
<path d="M104.332 63.0474L104.163 62.9807C104.148 62.966 102.648 61.6034 101.228 61.7754C100.595 61.846 100.052 62.2074 99.612 62.8474L99.2653 62.9114L99.2013 62.566C99.7266 61.7994 100.391 61.3674 101.175 61.2807C102.857 61.0834 104.433 62.5527 104.5 62.6154L104.515 62.9674L104.332 63.0474Z" fill="#682B22"/>
<path d="M92.056 57.7168L91.8173 57.5408C91.548 56.6501 91.624 55.8621 92.044 55.1955C92.94 53.7755 95.0733 53.4421 95.1639 53.4301C95.3039 53.4061 95.4266 53.5021 95.4466 53.6381C95.4666 53.7741 95.3733 53.9008 95.2373 53.9208C95.2173 53.9235 93.2373 54.2368 92.4639 55.4621C92.1253 56.0008 92.0679 56.6515 92.2946 57.3928C92.3333 57.5261 92.2599 57.6648 92.1293 57.7048L92.056 57.7168Z" fill="#682B22"/>
<path d="M92.4707 57.7767L92.236 57.6114C91.86 56.5527 91.9174 55.6834 92.4094 55.0274C93.4414 53.6434 96.0121 53.7674 96.1227 53.7714C96.2601 53.7794 96.3654 53.8967 96.3587 54.0354C96.3507 54.1714 96.2214 54.2714 96.096 54.2701C96.0734 54.2647 93.6787 54.1567 92.8067 55.3261C92.4214 55.8407 92.388 56.5527 92.7054 57.4434C92.7507 57.5741 92.6841 57.7167 92.5547 57.7621L92.4707 57.7767Z" fill="#682B22"/>
<path d="M82.9639 70.8181C81.7853 67.4222 84.4893 63.3981 89.004 61.8287C93.5186 60.2621 98.1346 61.7434 99.3146 65.1381C100.493 68.5342 97.7893 72.5566 93.2746 74.1249C88.76 75.6925 84.1439 74.2129 82.9639 70.8181Z" fill="#682B22"/>
<path d="M93.0333 73.1539C97.1559 71.7206 99.7586 68.2435 99.2826 65.0647L99.3146 65.1381C100.493 68.5342 97.7893 72.5566 93.2746 74.1249C88.76 75.6925 84.1439 74.2129 82.9653 70.8181C82.8613 70.5222 82.7986 70.2206 82.7533 69.9191C83.9746 73.2607 88.5519 74.7102 93.0333 73.1539Z" fill="#B14B3C"/>
<path d="M95.2773 67.5727C94.9947 64.6874 96.976 62.134 99.704 61.866C102.432 61.5994 104.872 63.7207 105.155 66.6044C105.437 69.4899 103.455 72.0446 100.727 72.3112C98 72.5779 95.56 70.4566 95.2773 67.5727Z" fill="#682B22"/>
<path d="M95.772 67.0034C96.0546 69.8872 98.4946 72.0102 101.223 71.742C102.356 71.631 103.359 71.1206 104.125 70.3591C103.324 71.4342 102.125 72.1738 100.727 72.3112C97.9999 72.5779 95.56 70.4566 95.2773 67.5727C95.112 65.8872 95.7226 64.3194 96.8 63.25C96.0386 64.2714 95.6346 65.598 95.772 67.0034Z" fill="#B14B3C"/>
<path d="M85.3853 71.9379C85.1867 71.9379 84.9987 71.8165 84.9213 71.6192C84.8827 71.5165 83.9613 69.0635 85.3973 66.5807C86.7293 64.2768 89.5907 62.7728 93.9027 62.1101C94.176 62.0715 94.4293 62.2555 94.4707 62.5261C94.512 62.7981 94.3267 63.0515 94.0547 63.0941C90.064 63.7088 87.444 65.0448 86.2667 67.0649C85.064 69.1301 85.8427 71.2405 85.8507 71.2635C85.948 71.5192 85.82 71.8061 85.564 71.9035L85.3853 71.9379Z" fill="#682B22"/>
<path d="M90.5959 65.7916L90.956 64.4861C90.956 64.4861 91.7333 62.0968 94.3453 62.1021L95.4613 63.5514L96.5773 64.8848L95.952 66.1154L93.4226 66.7446L90.8266 65.7326" fill="#682B22"/>
<path d="M88.0161 70.382C88.0161 70.382 84.3481 69.7232 83.2721 65.302C83.1774 64.9247 82.9907 64.5754 82.7267 64.2874L80.7027 62.0767C80.5681 61.9287 80.5187 61.7207 80.5747 61.5287C80.6334 61.3327 80.7894 61.182 80.9867 61.134L81.4521 61.018L81.5947 60.9074L81.6907 60.7314C81.7614 60.606 81.7214 60.4474 81.6027 60.3674L81.2294 60.1167C81.1267 60.0487 81.4067 59.754 81.432 59.6327L81.2507 59.086L81.1161 58.7794C80.9614 58.422 81.2147 58.1567 81.3081 57.7767L80.7414 56.498C80.4854 55.4434 81.1467 54.3847 82.2081 54.1554L82.9081 54.002C84.0454 53.7567 85.2121 53.6794 86.3707 53.7767L87.2014 53.8474C88.624 53.9674 89.8854 54.8074 90.5454 56.0727L91.3827 57.6767C94.6347 56.8687 97.8281 59.2687 97.9041 62.6207C97.9547 64.9114 97.3614 67.2342 95.1587 68.4206C95.1587 68.4206 91.4947 70.7326 88.0161 70.382Z" fill="#F0724E"/>
<path d="M82.1174 59.4688C82.0454 59.4688 81.972 59.4674 81.8973 59.4647L81.928 58.4714C81.932 58.3488 81.9374 58.2274 81.9427 58.1048C82.2934 58.3221 82.6987 58.6394 82.9 59.0368C83.0707 59.3728 82.6507 59.4688 82.1174 59.4688Z" fill="#D3583A"/>
<path d="M83.1986 59.3274C82.9493 59.4328 82.2293 59.7714 81.8106 60.3488C81.8106 60.3488 81.6773 60.7861 81.2146 60.6274C81.2146 60.6274 80.8946 60.2634 81.2786 59.6714C81.2786 59.6714 80.8893 59.1754 80.928 58.9381C80.928 58.9381 80.8226 58.5634 81.516 58.6821C81.516 58.6821 82.708 58.8021 83.216 59.2261L83.1986 59.3274Z" fill="#B73C2B"/>
<path d="M81.816 62.2074C81.8147 62.2074 81.8133 62.2074 81.812 62.2074L81.852 60.9181C82.236 60.8461 82.628 60.8221 82.628 60.8221C82.66 60.8181 82.6907 60.8167 82.7187 60.8167C83.3774 60.8167 83.316 61.6394 83.316 61.6394L83.0187 61.5554C82.8654 61.5661 82.7214 61.6474 82.6227 61.7661C82.3187 62.1274 82.0213 62.2074 81.816 62.2074Z" fill="#D3583A"/>
<path d="M84.0373 64.4768C84.284 64.6461 84.5747 64.6821 84.8533 64.6808C84.9933 64.6794 85.132 64.6634 85.268 64.6394L85.4706 64.5928L85.572 64.5661L85.6613 64.5408C85.904 64.4741 86.1533 64.4181 86.3946 64.3834C86.5173 64.3674 86.636 64.3594 86.748 64.3661L87.0187 64.4661L87.0346 64.4848L87.1653 64.4901L87.1853 64.3794L87.1187 64.2648L87.0213 64.1781L86.9133 64.1194L86.804 64.0821C86.6573 64.0434 86.5106 64.0301 86.3706 64.0354C86.088 64.0407 85.82 64.0954 85.556 64.1687C85.4147 64.2087 85.3133 64.2487 85.188 64.2781C85.068 64.3127 84.9467 64.3381 84.824 64.3594C84.5827 64.3994 84.3267 64.4234 84.0893 64.3821L84.0773 64.3794L84.0146 64.4234L84.0373 64.4768Z" fill="#682B22"/>
<path d="M84.9026 63.9847C84.8413 63.742 84.696 63.57 84.576 63.6007C84.456 63.63 84.408 63.85 84.468 64.0927C84.528 64.3327 84.6733 64.5047 84.7933 64.4754C84.9133 64.4447 84.9626 64.2247 84.9026 63.9847Z" fill="#682B22"/>
<path d="M84.2533 63.5354L84.2333 63.5421L84.2026 63.6007L84.2613 63.6301C84.264 63.6301 84.4586 63.5701 84.604 63.6661C84.696 63.7287 84.7506 63.8447 84.764 64.0101L84.8146 64.0527L84.8573 64.0021C84.8413 63.8074 84.7733 63.6674 84.6547 63.5887C84.5013 63.4861 84.3147 63.5194 84.2533 63.5354Z" fill="#682B22"/>
<path d="M84.3934 66.4659C84.5347 66.5754 84.6747 66.5967 84.816 66.594C84.956 66.5831 85.0947 66.5675 85.232 66.5487C85.508 66.5112 85.7787 66.4435 86.0427 66.3607C86.3054 66.2738 86.5614 66.1686 86.8014 66.0352C87.044 65.9044 87.2694 65.7462 87.4747 65.5714L87.4814 65.5047L87.428 65.4927H87.4254C87.1774 65.59 86.9374 65.6899 86.6854 65.7555C86.4374 65.8274 86.188 65.8831 85.936 65.9222C85.6854 65.9659 85.432 65.9872 85.18 65.9976C85.0534 66.0044 84.928 66.0044 84.8027 66.0019C84.6787 66.0019 84.552 66.0206 84.4294 66.1087L84.4 66.131L84.3521 66.4232L84.3934 66.4659Z" fill="#682B22"/>
<path d="M81.4107 61.5181C81.5654 61.5488 81.7174 61.5501 81.8707 61.5141C82.0187 61.4821 82.1814 61.4061 82.2841 61.3035L82.6201 61.1568L82.9774 61.2741L83.0241 61.2688V61.2301C82.9427 61.1048 82.7947 60.9955 82.6187 60.9888C82.4427 60.9768 82.2854 61.0595 82.1654 61.1675C82.0667 61.2715 81.9694 61.3475 81.8361 61.3875C81.7094 61.4275 81.5641 61.4381 81.4347 61.4168L81.4294 61.4155L81.3694 61.4581L81.4107 61.5181Z" fill="#682B22"/>
<path d="M85.1933 71.8607C84.1347 68.8113 86.7587 65.1287 91.056 63.6367C95.352 62.1447 99.6934 63.4074 100.753 66.4566C101.812 69.5061 99.188 73.1889 94.892 74.6806C90.5947 76.1728 86.2533 74.9113 85.1933 71.8607Z" fill="#682B22"/>
<path d="M85.3894 71.4618C86.448 74.5061 90.9467 75.7102 95.44 74.1498C96.6507 73.7285 97.7307 73.1473 98.652 72.4676C97.6494 73.3873 96.3747 74.166 94.892 74.6806C90.5947 76.1728 86.2533 74.9113 85.1933 71.8607C84.652 70.2977 85.08 68.5701 86.2013 67.0555C85.2453 68.4821 84.8987 70.0462 85.3894 71.4618Z" fill="#B14B3C"/>
<path d="M89.0333 68.7446C89.0333 68.7446 88.4573 67.9154 89.9867 66.2514C89.9867 66.2514 90.6333 65.29 90.168 64.6247C90.168 64.6247 88.6227 63.026 89.576 62.1474C89.576 62.1474 90.2733 61.3527 90.812 61.8407C90.812 61.8407 91.9747 63.3274 93.2227 62.346C93.2227 62.346 94.572 61.4074 93.3787 59.4514C93.3787 59.4514 92.7827 58.422 91.656 58.282C91.656 58.282 90.1933 56.098 93.2467 54.434C93.2467 54.434 97.8106 54.062 99.628 60.15C100.383 62.678 99.808 65.4434 98.028 67.3915C97.0173 68.4967 95.5213 69.5582 93.308 70.282C93.308 70.282 90.5333 71.27 89.388 69.9315C89.388 69.9315 89.0507 69.7248 89.0333 68.7446Z" fill="#682B22"/>
<path d="M92.2974 61.8848C91.8334 61.8848 91.3907 61.4701 91.2427 61.3181C91.7147 60.8421 91.6147 59.8288 90.976 58.9594L90.7987 58.7461L90.8987 58.6594C90.956 58.6114 91.028 58.5901 91.1094 58.5901C91.5374 58.5901 92.2121 59.1634 92.2121 59.1634C94.1734 60.6728 92.6974 61.7648 92.6974 61.7648C92.5667 61.8501 92.4307 61.8848 92.2974 61.8848Z" fill="#BE462D"/>
<path d="M90.8266 58.1887C90.7786 58.0007 90.5893 57.8874 90.4026 57.9354C90.2146 57.9807 90.1 58.1701 90.1466 58.3581C90.1933 58.5461 90.3826 58.6607 90.5706 58.6127C90.7586 58.5661 90.8733 58.3767 90.8266 58.1887Z" fill="#923C1D"/>
<path d="M85.2441 45.2701L89.6894 49.2808C94.5081 49.2808 98.7947 47.0021 101.529 43.4647C104.035 40.2234 104.915 36.0074 104.268 31.9634L103.028 24.2194C100.324 15.3794 94.4174 7.86343 86.4654 3.14609L85.9667 2.86474C79.68 0.964745 78.6094 0.415421 74.1987 2.50875C72.6827 3.22876 71.7161 4.75675 71.7161 6.43541V15.4901H81.5254L85.0827 31.8194L85.2441 45.2701Z" fill="#F0724E"/>
<path d="M104.268 31.9634L103.899 29.6607H84.6121L85.0814 31.8194L85.2441 45.2701L87.0827 46.9301V44.8234C87.0827 42.2247 89.2094 40.1007 91.8054 40.1007C94.4041 40.1007 96.528 42.2247 96.528 44.8234V47.6194C98.484 46.6114 100.193 45.1914 101.529 43.4647C104.035 40.2234 104.915 36.0074 104.268 31.9634Z" fill="white"/>
<path d="M85.0894 32.4554H104.323C104.301 32.2914 104.293 32.1261 104.268 31.9635L103.899 29.6608H84.6121L85.0814 31.8194L85.0894 32.4554Z" fill="#3D7195"/>
<path d="M95.5921 84.3044L83.2574 81.9555C81.9201 81.7128 81.2761 79.4487 81.3187 78.0915L81.928 58.4714C82.0094 55.8767 82.5507 53.318 83.4974 50.8994C84.5174 48.294 85.04 45.5207 85.04 42.722V20.2967H85.9667V2.8647L82.7987 1.61138C80.48 0.695381 77.8947 0.499374 75.528 1.29005C69.7627 3.21671 66.0041 9.41672 67.7214 15.83L74.1201 39.7047C75.0894 43.3194 74.9267 47.1434 73.6547 50.6634L73.1174 52.1487C72.4841 53.8994 72.2227 55.7647 72.3481 57.622L73.8827 80.3394V86.1258C73.8827 87.6008 75.132 88.7659 76.6027 88.6618L81.2441 88.3404L90.3 89.2795C91.2107 89.3754 92.1254 89.1394 92.8774 88.6154L95.4974 87.2899C95.9374 87.0675 96.2241 86.6248 96.2467 86.1326L96.2881 85.2738C96.3094 84.8284 96.0214 84.4274 95.5921 84.3044Z" fill="#F0724E"/>
<path d="M85.9667 2.86478L82.7987 1.61146C80.48 0.695457 77.8947 0.499451 75.528 1.29012C69.7627 3.21678 66.0041 9.41679 67.7214 15.8301L74.1201 39.7048C75.0894 43.3194 74.9267 47.1435 73.6547 50.6621L73.1174 52.1488C72.4841 53.8994 72.2227 55.7648 72.3481 57.6221L73.2307 70.678H75.1534L77.3441 62.5261L79.5787 70.678H81.5494L81.928 58.4714C82.0094 55.8768 82.5507 53.3194 83.4974 50.8994C84.5174 48.2941 85.04 45.5208 85.04 42.7221V20.2968L85.9667 2.86478Z" fill="#3D7195"/>
<path d="M79.3653 65.8285L79.348 65.9676C79.2867 66.1488 79.0907 66.2447 78.9107 66.1832L74.7814 64.7821C74.6014 64.7208 74.5053 64.5275 74.5653 64.3448C74.628 64.1648 74.8227 64.0688 75.0027 64.1301L79.132 65.5315C79.2667 65.5768 79.3547 65.6968 79.3653 65.8285Z" fill="#3D7195"/>
<path d="M79.2841 64.2167C79.2961 64.3567 79.2201 64.4941 79.0854 64.5567L75.1174 66.3831C74.9441 66.4618 74.74 66.3858 74.66 66.2139C74.58 66.0421 74.656 65.8353 74.828 65.7566L78.7974 63.9314C78.9694 63.8514 79.1747 63.9274 79.2534 64.1007L79.2841 64.2167Z" fill="#3D7195"/>
<path d="M79.6613 67.7154L79.6453 67.8525C79.584 68.0326 79.388 68.1285 79.208 68.0686L75.0773 66.6676C74.8987 66.6061 74.8 66.4129 74.8626 66.2301C74.924 66.0498 75.12 65.9525 75.2987 66.014L79.4293 67.4154C79.564 67.4608 79.652 67.5821 79.6613 67.7154Z" fill="#3D7195"/>
<path d="M79.5814 66.1008C79.5934 66.2404 79.5174 66.3795 79.3827 66.4404L75.4134 68.2675C75.2414 68.3462 75.036 68.2711 74.9574 68.0982C74.8774 67.9258 74.952 67.7191 75.1254 67.6404L79.0933 65.8154C79.2667 65.7352 79.4707 65.8128 79.5507 65.9847L79.5814 66.1008Z" fill="#3D7195"/>
<path d="M79.8107 69.5326L79.7933 69.6701C79.732 69.8514 79.536 69.9473 79.356 69.8858L75.2267 68.4864C75.0467 68.4249 74.9494 68.2301 75.0107 68.0488C75.072 67.8686 75.268 67.7712 75.448 67.831L79.5774 69.2326C79.712 69.278 79.7987 69.3993 79.8107 69.5326Z" fill="#3D7195"/>
<path d="M79.7294 67.9192C79.7414 68.0582 79.6654 68.1982 79.5307 68.2608L75.5614 70.0858C75.3894 70.1644 75.184 70.09 75.104 69.9165C75.0254 69.7436 75.1014 69.5394 75.2734 69.4592L79.2427 67.6342C79.4147 67.554 79.62 67.6301 79.6987 67.8034L79.7294 67.9192Z" fill="#3D7195"/>
<path d="M96.2454 86.1592C96.2454 86.1582 96.2454 86.1566 96.2454 86.1556C96.2454 86.1566 96.2454 86.1582 96.2454 86.1592ZM96.2467 86.153C96.2467 86.1462 96.2467 86.1394 96.2467 86.1326L96.2653 85.7566L96.2467 86.1326C96.2467 86.1394 96.2467 86.1462 96.2467 86.153Z" fill="#DC9632"/>
<path d="M96.176 86.502L93.8266 86.2712C93.62 86.2498 93.4693 86.066 93.4893 85.8608C93.5093 85.666 93.672 85.5222 93.8626 85.5222L93.9 85.5233L96.2653 85.7566L96.2467 86.1326C96.2467 86.1394 96.2467 86.1462 96.2467 86.153C96.2467 86.154 96.2467 86.1556 96.2453 86.1556C96.2453 86.1566 96.2453 86.1582 96.2453 86.1592C96.2373 86.2769 96.2133 86.3925 96.176 86.502Z" fill="#D3583A"/>
<path d="M91.1293 42.6287L68.1507 43.6421C67.52 43.4701 66.8414 43.4501 66.1707 43.6434C64.224 44.2061 63.0907 46.2581 63.652 48.2047L69.1507 67.2566L72.6014 66.2607C72.5574 66.1249 72.516 65.9941 72.48 65.8701L71.1254 50.6061L91.4414 49.7087C93.388 49.6221 94.9107 47.9594 94.8254 46.0127C94.74 44.0647 93.076 42.5434 91.1293 42.6287Z" fill="#F0724E"/>
<path d="M87.9 49.8647L90.7374 49.7394C90.736 49.7394 90.736 49.7394 90.7347 49.7394L87.9 49.8647Z" fill="#D3583A"/>
<path d="M72.5333 66.0463C72.3213 65.6925 71.984 65.4355 71.5893 65.3075L70.0426 50.0035C70.0026 49.6128 70.3026 49.2701 70.696 49.2581L91.172 48.5928C91.172 48.5928 94.7093 48.4528 94.6426 45.0875C94.896 45.8661 94.9826 46.7195 94.2826 47.7875C93.504 48.9755 92.156 49.6768 90.7373 49.7395L87.9 49.8648L83.812 50.0448L73.7146 50.4915L71.1253 50.6061L72.48 65.8701C72.4973 65.9275 72.5146 65.9864 72.5333 66.0463Z" fill="#D3583A"/>
<path d="M72.6653 66.3249L72.6746 66.3222C73.3493 68.3129 74.9026 71.5154 75.1106 74.1555L74.4186 81.0925C74.376 81.5154 73.852 81.7206 73.548 81.4249C72.02 79.9367 70.9693 73.3582 70.472 71.6952L69.236 67.5514L69.1933 67.4539C68.9253 66.554 69.4919 65.5901 70.4613 65.3008C71.3973 65.0208 72.3586 65.4794 72.6653 66.3249Z" fill="#F0724E"/>
<path d="M73.8907 81.5649C73.8894 81.5649 73.8894 81.5649 73.8881 81.5649C73.8894 81.5649 73.8894 81.5649 73.8907 81.5649ZM73.8974 81.5649C74.1307 81.5619 74.3601 81.3983 74.4107 81.1447C74.3601 81.3983 74.1307 81.5619 73.8974 81.5649Z" fill="#D3583A"/>
<path d="M72.6654 66.3248L72.6734 66.3222L72.6654 66.3248ZM72.6654 66.3248C72.664 66.3196 72.6614 66.3139 72.66 66.3087C72.6614 66.3139 72.664 66.3196 72.6654 66.3248ZM72.6587 66.3071C72.6574 66.3019 72.6561 66.2976 72.6534 66.2924C72.6547 66.2976 72.6574 66.3019 72.6587 66.3071ZM72.6534 66.2924C72.6481 66.2768 72.6414 66.2607 72.6347 66.2462C72.6414 66.2607 72.6481 66.2768 72.6534 66.2924ZM72.6347 66.2462C72.6307 66.2367 72.6267 66.2258 72.6214 66.2164C72.6267 66.2258 72.6307 66.2367 72.6347 66.2462ZM72.6201 66.2112C72.6187 66.2087 72.6174 66.206 72.6161 66.2044C72.6174 66.2071 72.6187 66.2087 72.6201 66.2112ZM72.6121 66.1967C72.6121 66.1951 72.6121 66.194 72.6121 66.194C72.6121 66.194 72.6121 66.1951 72.6121 66.1967Z" fill="#DEBAA1"/>
<path d="M73.8907 81.5649C73.8894 81.5649 73.8894 81.5649 73.888 81.5649C73.772 81.5635 73.656 81.5233 73.56 81.4368C73.556 81.4327 73.552 81.4285 73.548 81.4249L73.504 81.3728L73.628 81.0925L74.32 74.1556C74.1107 71.5155 72.5574 68.3129 71.8827 66.3223L71.8747 66.3249C71.7667 66.0259 71.68 65.6261 71.536 65.2955C72.0067 65.4328 72.4054 65.7499 72.612 66.1941C72.612 66.1941 72.612 66.1952 72.612 66.1968C72.6134 66.1993 72.6147 66.202 72.616 66.2045C72.6174 66.2061 72.6187 66.2088 72.62 66.2113C72.62 66.2129 72.6214 66.2155 72.6214 66.2165C72.6267 66.2259 72.6307 66.2368 72.6347 66.2463C72.6413 66.2608 72.648 66.2769 72.6534 66.2925C72.656 66.2977 72.6574 66.302 72.6587 66.3072L72.66 66.3088C72.6613 66.314 72.664 66.3197 72.6653 66.3249L72.6733 66.3223C73.3493 68.3129 74.9027 71.5155 75.1107 74.1556L74.4187 81.0925C74.4174 81.0993 74.4174 81.1072 74.416 81.114C74.4147 81.1249 74.4134 81.1353 74.4107 81.1447C74.36 81.3983 74.1307 81.5619 73.8973 81.5649C73.8947 81.5649 73.8934 81.5649 73.8907 81.5649Z" fill="#D3583A"/>
<path d="M74.0867 81.6643L73.9574 81.5779L74.0347 81.3951C74.1734 81.3404 74.2654 81.2222 74.2801 81.0779L74.972 74.1404C74.8974 73.2191 74.636 72.0924 74.1734 70.7222L74.2614 70.5462L74.4374 70.6326C74.908 72.0258 75.1734 73.1738 75.2507 74.1446L74.5561 81.106C74.5321 81.3514 74.3734 81.5618 74.14 81.6566L74.0867 81.6643Z" fill="#B14430"/>
<path d="M84.908 25.2448L85.0399 25.2261V24.2087L82.892 9.38341L82.6146 9.42208L84.908 25.2448Z" fill="#223C50"/>
<path d="M84.788 2.39804L84.1506 18.8607L84.3959 19.7567L85.0653 2.50738L84.788 2.39804Z" fill="#223C50"/>
</svg>
