<svg width="622" height="132" viewBox="0 0 622 132" fill="none" xmlns="http://www.w3.org/2000/svg">
<path d="M216.609 113.785H47.828L58.6413 98.5941H205.797L216.609 113.785Z" fill="#FBC341"/>
<path d="M216.609 113.785H212.255L138.867 106.117C139.224 106.001 139.565 105.834 139.877 105.615L142.497 104.29C142.929 104.071 143.213 103.641 143.245 103.159L207.287 100.687L216.609 113.785V113.785ZM121.151 104.265L119.385 104.081L121.043 104.017C121.075 104.102 121.111 104.185 121.151 104.265" fill="#DC9632"/>
<path d="M148.529 60.4647L138.764 76.274L133.163 73.1727L133.329 72.2167L131.935 70.7474L132.412 70.55C133.224 70.2167 133.808 69.49 133.96 68.6247L139.564 58.1247L148.529 60.4647" fill="#F0724E"/>
<path d="M132.412 70.55C133.127 70.2567 133.664 69.6567 133.887 68.9287C133.887 68.9287 133.887 68.9287 133.888 68.9287C133.665 69.6581 133.127 70.2567 132.412 70.55Z" fill="#DEBAA1"/>
<path d="M137.436 72.8754C136.752 71.7207 135.548 70.9607 134.201 70.8474L133.371 70.7767C133.044 70.75 132.719 70.7367 132.392 70.7367C132.241 70.7367 132.091 70.7394 131.94 70.7447L132.412 70.55C133.127 70.2567 133.665 69.658 133.888 68.9287C135.153 69.418 137.147 70.5487 137.436 72.8754" fill="#D3583A"/>
<path d="M135.489 81.5567C135.097 77.55 137.669 74.0167 141.235 73.6674C144.799 73.3194 148.008 76.2847 148.4 80.2927C148.793 84.3019 146.22 87.8342 142.656 88.1831C139.091 88.5326 135.883 85.5659 135.489 81.5567" fill="#682B22"/>
<path d="M151.332 80.0474L151.163 79.9807C151.148 79.966 149.648 78.6034 148.228 78.7754C147.595 78.846 147.052 79.2074 146.612 79.8474L146.265 79.9114L146.201 79.566C146.727 78.7994 147.391 78.3674 148.175 78.2807C149.857 78.0834 151.433 79.5527 151.5 79.6154L151.515 79.9674L151.332 80.0474" fill="#682B22"/>
<path d="M139.056 74.7168L138.817 74.5408C138.548 73.6501 138.624 72.8621 139.044 72.1955C139.94 70.7755 142.073 70.4421 142.164 70.4301C142.304 70.4061 142.427 70.5021 142.447 70.6381C142.467 70.7741 142.373 70.9008 142.237 70.9208C142.217 70.9235 140.237 71.2368 139.464 72.4621C139.125 73.0008 139.068 73.6515 139.295 74.3928C139.333 74.5261 139.26 74.6648 139.129 74.7048L139.056 74.7168" fill="#682B22"/>
<path d="M139.471 74.7767L139.236 74.6114C138.86 73.5527 138.917 72.6834 139.409 72.0274C140.441 70.6434 143.012 70.7674 143.123 70.7714C143.26 70.7794 143.365 70.8967 143.359 71.0354C143.351 71.1714 143.221 71.2714 143.096 71.2701C143.073 71.2647 140.679 71.1567 139.807 72.3261C139.421 72.8407 139.388 73.5527 139.705 74.4434C139.751 74.5741 139.684 74.7167 139.555 74.7621L139.471 74.7767" fill="#682B22"/>
<path d="M129.964 87.8181C128.785 84.4222 131.489 80.3981 136.004 78.8287C140.519 77.2621 145.135 78.7434 146.315 82.1381C147.493 85.5342 144.789 89.5566 140.275 91.1249C135.76 92.6925 131.144 91.2129 129.964 87.8181Z" fill="#682B22"/>
<path d="M140.033 90.1539C144.156 88.7206 146.759 85.2435 146.283 82.0647L146.315 82.1381C147.493 85.5342 144.789 89.5566 140.275 91.1249C135.76 92.6925 131.144 91.2129 129.965 87.8181C129.861 87.5222 129.799 87.2206 129.753 86.9191C130.975 90.2607 135.552 91.7102 140.033 90.1539" fill="#B14B3C"/>
<path d="M142.277 84.5727C141.995 81.6874 143.976 79.134 146.704 78.866C149.432 78.5994 151.872 80.7207 152.155 83.6044C152.437 86.4899 150.455 89.0446 147.727 89.3112C145 89.5779 142.56 87.4566 142.277 84.5727" fill="#682B22"/>
<path d="M142.772 84.0034C143.055 86.8872 145.495 89.0102 148.223 88.742C149.356 88.631 150.359 88.1206 151.125 87.3591C150.324 88.4342 149.125 89.1738 147.727 89.3112C145 89.5779 142.56 87.4566 142.277 84.5727C142.112 82.8872 142.723 81.3194 143.8 80.25C143.039 81.2714 142.635 82.598 142.772 84.0034" fill="#B14B3C"/>
<path d="M132.385 88.9379C132.187 88.9379 131.999 88.8165 131.921 88.6192C131.883 88.5165 130.961 86.0635 132.397 83.5807C133.729 81.2768 136.591 79.7728 140.903 79.1101C141.176 79.0715 141.429 79.2555 141.471 79.5261C141.512 79.7981 141.327 80.0515 141.055 80.0941C137.064 80.7088 134.444 82.0448 133.267 84.0649C132.064 86.1301 132.843 88.2405 132.851 88.2635C132.948 88.5192 132.82 88.8061 132.564 88.9035L132.385 88.9379" fill="#682B22"/>
<path d="M137.596 82.7916L137.956 81.4861C137.956 81.4861 138.733 79.0968 141.345 79.1021L142.461 80.5514L143.577 81.8848L142.952 83.1154L140.423 83.7446L137.827 82.7326" fill="#682B22"/>
<path d="M135.016 87.382C135.016 87.382 131.348 86.7232 130.272 82.302C130.177 81.9247 129.991 81.5754 129.727 81.2874L127.703 79.0767C127.568 78.9287 127.519 78.7207 127.575 78.5287C127.633 78.3327 127.789 78.182 127.987 78.134L128.452 78.018L128.595 77.9074L128.691 77.7314C128.761 77.606 128.721 77.4474 128.603 77.3674L128.229 77.1167C128.127 77.0487 128.407 76.754 128.432 76.6327L128.251 76.086L128.116 75.7794C127.961 75.422 128.215 75.1567 128.308 74.7767L127.741 73.498C127.485 72.4434 128.147 71.3847 129.208 71.1554L129.908 71.002C131.045 70.7567 132.212 70.6794 133.371 70.7767L134.201 70.8474C135.624 70.9674 136.885 71.8074 137.545 73.0727L138.383 74.6767C141.635 73.8687 144.828 76.2687 144.904 79.6207C144.955 81.9114 144.361 84.2342 142.159 85.4206C142.159 85.4206 138.495 87.7326 135.016 87.382" fill="#F0724E"/>
<path d="M129.117 76.4688C129.045 76.4688 128.972 76.4674 128.897 76.4647L128.928 75.4714C128.932 75.3488 128.937 75.2274 128.943 75.1048C129.293 75.3221 129.699 75.6394 129.9 76.0368C130.071 76.3728 129.651 76.4688 129.117 76.4688Z" fill="#D3583A"/>
<path d="M130.199 76.3274C129.949 76.4328 129.229 76.7714 128.811 77.3488C128.811 77.3488 128.677 77.7861 128.215 77.6274C128.215 77.6274 127.895 77.2634 128.279 76.6714C128.279 76.6714 127.889 76.1754 127.928 75.9381C127.928 75.9381 127.823 75.5634 128.516 75.6821C128.516 75.6821 129.708 75.8021 130.216 76.2261L130.199 76.3274" fill="#B73C2B"/>
<path d="M128.816 79.2074C128.815 79.2074 128.813 79.2074 128.812 79.2074L128.852 77.9181C129.236 77.8461 129.628 77.8221 129.628 77.8221C129.66 77.8181 129.691 77.8167 129.719 77.8167C130.377 77.8167 130.316 78.6394 130.316 78.6394L130.019 78.5554C129.865 78.5661 129.721 78.6474 129.623 78.7661C129.319 79.1274 129.021 79.2074 128.816 79.2074" fill="#D3583A"/>
<path d="M131.037 81.4768C131.284 81.6461 131.575 81.6821 131.853 81.6808C131.993 81.6794 132.132 81.6634 132.268 81.6394L132.471 81.5928L132.572 81.5661L132.661 81.5408C132.904 81.4741 133.153 81.4181 133.395 81.3834C133.517 81.3674 133.636 81.3594 133.748 81.3661L134.019 81.4661L134.035 81.4848L134.165 81.4901L134.185 81.3794L134.119 81.2648L134.021 81.1781L133.913 81.1194L133.804 81.0821C133.657 81.0434 133.511 81.0301 133.371 81.0354C133.088 81.0407 132.82 81.0954 132.556 81.1687C132.415 81.2087 132.313 81.2487 132.188 81.2781C132.068 81.3127 131.947 81.3381 131.824 81.3594C131.583 81.3994 131.327 81.4234 131.089 81.3821L131.077 81.3794L131.015 81.4234L131.037 81.4768" fill="#682B22"/>
<path d="M131.903 80.9847C131.841 80.742 131.696 80.57 131.576 80.6007C131.456 80.63 131.408 80.85 131.468 81.0927C131.528 81.3327 131.673 81.5047 131.793 81.4754C131.913 81.4447 131.963 81.2247 131.903 80.9847" fill="#682B22"/>
<path d="M131.253 80.5354L131.233 80.5421L131.203 80.6007L131.261 80.6301C131.264 80.6301 131.459 80.5701 131.604 80.6661C131.696 80.7287 131.751 80.8447 131.764 81.0101L131.815 81.0527L131.857 81.0021C131.841 80.8074 131.773 80.6674 131.655 80.5887C131.501 80.4861 131.315 80.5194 131.253 80.5354" fill="#682B22"/>
<path d="M131.393 83.4659C131.535 83.5754 131.675 83.5967 131.816 83.594C131.956 83.5831 132.095 83.5675 132.232 83.5487C132.508 83.5112 132.779 83.4435 133.043 83.3607C133.305 83.2738 133.561 83.1686 133.801 83.0352C134.044 82.9044 134.269 82.7462 134.475 82.5714L134.481 82.5047L134.428 82.4927H134.425C134.177 82.59 133.937 82.6899 133.685 82.7555C133.437 82.8274 133.188 82.8831 132.936 82.9222C132.685 82.9659 132.432 82.9872 132.18 82.9976C132.053 83.0044 131.928 83.0044 131.803 83.0019C131.679 83.0019 131.552 83.0206 131.429 83.1087L131.4 83.131L131.352 83.4232L131.393 83.4659" fill="#682B22"/>
<path d="M128.411 78.5181C128.565 78.5488 128.717 78.5501 128.871 78.5141C129.019 78.4821 129.181 78.4061 129.284 78.3035L129.62 78.1568L129.977 78.2741L130.024 78.2688V78.2301C129.943 78.1048 129.795 77.9955 129.619 77.9888C129.443 77.9768 129.285 78.0595 129.165 78.1675C129.067 78.2715 128.969 78.3475 128.836 78.3875C128.709 78.4275 128.564 78.4381 128.435 78.4168L128.429 78.4155L128.369 78.4581L128.411 78.5181" fill="#682B22"/>
<path d="M132.193 88.8607C131.135 85.8113 133.759 82.1287 138.056 80.6367C142.352 79.1447 146.693 80.4074 147.753 83.4566C148.812 86.5061 146.188 90.1889 141.892 91.6806C137.595 93.1728 133.253 91.9113 132.193 88.8607Z" fill="#682B22"/>
<path d="M132.389 88.4618C133.448 91.5061 137.947 92.7102 142.44 91.1498C143.651 90.7285 144.731 90.1473 145.652 89.4676C144.649 90.3873 143.375 91.166 141.892 91.6806C137.595 93.1728 133.253 91.9113 132.193 88.8607C131.652 87.2977 132.08 85.5701 133.201 84.0555C132.245 85.4821 131.899 87.0462 132.389 88.4618" fill="#B14B3C"/>
<path d="M136.033 85.7446C136.033 85.7446 135.457 84.9154 136.987 83.2514C136.987 83.2514 137.633 82.29 137.168 81.6247C137.168 81.6247 135.623 80.026 136.576 79.1474C136.576 79.1474 137.273 78.3527 137.812 78.8407C137.812 78.8407 138.975 80.3274 140.223 79.346C140.223 79.346 141.572 78.4074 140.379 76.4514C140.379 76.4514 139.783 75.422 138.656 75.282C138.656 75.282 137.193 73.098 140.247 71.434C140.247 71.434 144.811 71.062 146.628 77.15C147.383 79.678 146.808 82.4434 145.028 84.3915C144.017 85.4967 142.521 86.5582 140.308 87.282C140.308 87.282 137.533 88.27 136.388 86.9315C136.388 86.9315 136.051 86.7248 136.033 85.7446" fill="#682B22"/>
<path d="M139.297 78.8848C138.833 78.8848 138.391 78.4701 138.243 78.3181C138.715 77.8421 138.615 76.8288 137.976 75.9594L137.799 75.7461L137.899 75.6594C137.956 75.6114 138.028 75.5901 138.109 75.5901C138.537 75.5901 139.212 76.1634 139.212 76.1634C141.173 77.6728 139.697 78.7648 139.697 78.7648C139.567 78.8501 139.431 78.8848 139.297 78.8848Z" fill="#BE462D"/>
<path d="M137.827 75.1887C137.779 75.0007 137.589 74.8874 137.403 74.9354C137.215 74.9807 137.1 75.1701 137.147 75.3581C137.193 75.5461 137.383 75.6607 137.571 75.6127C137.759 75.5661 137.873 75.3767 137.827 75.1887Z" fill="#923C1D"/>
<path d="M132.244 62.2701L136.689 66.2808C141.508 66.2808 145.795 64.0021 148.529 60.4647C151.035 57.2234 151.915 53.0074 151.268 48.9634L150.028 41.2194C147.324 32.3794 141.417 24.8634 133.465 20.1461L132.967 19.8647C126.68 17.9647 125.609 17.4154 121.199 19.5088C119.683 20.2288 118.716 21.7567 118.716 23.4354V32.4901H128.525L132.083 48.8194L132.244 62.2701" fill="#F0724E"/>
<path d="M151.268 48.9634L150.899 46.6607H131.612L132.081 48.8194L132.244 62.2701L134.083 63.9301V61.8234C134.083 59.2247 136.209 57.1007 138.805 57.1007C141.404 57.1007 143.528 59.2247 143.528 61.8234V64.6194C145.484 63.6114 147.193 62.1914 148.529 60.4647C151.035 57.2234 151.915 53.0074 151.268 48.9634Z" fill="white"/>
<path d="M132.089 49.4554H151.323C151.301 49.2914 151.293 49.1261 151.268 48.9635L150.899 46.6608H131.612L132.081 48.8194L132.089 49.4554Z" fill="#3D7195"/>
<path d="M142.592 101.304L130.257 98.9555C128.92 98.7128 128.276 96.4487 128.319 95.0915L128.928 75.4714C129.009 72.8767 129.551 70.318 130.497 67.8994C131.517 65.294 132.04 62.5207 132.04 59.722V37.2967H132.967V19.8647L129.799 18.6114C127.48 17.6954 124.895 17.4994 122.528 18.29C116.763 20.2167 113.004 26.4167 114.721 32.83L121.12 56.7047C122.089 60.3194 121.927 64.1434 120.655 67.6634L120.117 69.1487C119.484 70.8994 119.223 72.7647 119.348 74.622L120.883 97.3394V103.126C120.883 104.601 122.132 105.766 123.603 105.662L128.244 105.34L137.3 106.28C138.211 106.375 139.125 106.139 139.877 105.615L142.497 104.29C142.937 104.068 143.224 103.625 143.247 103.133L143.288 102.274C143.309 101.828 143.021 101.427 142.592 101.304" fill="#F0724E"/>
<path d="M132.967 19.8648L129.799 18.6115C127.48 17.6955 124.895 17.4994 122.528 18.2901C116.763 20.2168 113.004 26.4168 114.721 32.8301L121.12 56.7048C122.089 60.3194 121.927 64.1435 120.655 67.6621L120.117 69.1488C119.484 70.8994 119.223 72.7648 119.348 74.6221L120.231 87.678H122.153L124.344 79.5261L126.579 87.678H128.549L128.928 75.4714C129.009 72.8768 129.551 70.3194 130.497 67.8994C131.517 65.2941 132.04 62.5208 132.04 59.7221V37.2968L132.967 19.8648" fill="#3D7195"/>
<path d="M126.365 82.8285L126.348 82.9676C126.287 83.1488 126.091 83.2447 125.911 83.1832L121.781 81.7821C121.601 81.7208 121.505 81.5275 121.565 81.3448C121.628 81.1648 121.823 81.0688 122.003 81.1301L126.132 82.5315C126.267 82.5768 126.355 82.6968 126.365 82.8285" fill="#3D7195"/>
<path d="M126.284 81.2167C126.296 81.3567 126.22 81.4941 126.085 81.5567L122.117 83.3831C121.944 83.4618 121.74 83.3858 121.66 83.2139C121.58 83.0421 121.656 82.8353 121.828 82.7566L125.797 80.9314C125.969 80.8514 126.175 80.9274 126.253 81.1007L126.284 81.2167" fill="#3D7195"/>
<path d="M126.661 84.7154L126.645 84.8525C126.584 85.0326 126.388 85.1285 126.208 85.0686L122.077 83.6676C121.899 83.6061 121.8 83.4129 121.863 83.2301C121.924 83.0498 122.12 82.9525 122.299 83.014L126.429 84.4154C126.564 84.4608 126.652 84.5821 126.661 84.7154" fill="#3D7195"/>
<path d="M126.581 83.1008C126.593 83.2404 126.517 83.3795 126.383 83.4404L122.413 85.2675C122.241 85.3462 122.036 85.2711 121.957 85.0982C121.877 84.9258 121.952 84.7191 122.125 84.6404L126.093 82.8154C126.267 82.7352 126.471 82.8128 126.551 82.9847L126.581 83.1008" fill="#3D7195"/>
<path d="M126.811 86.5326L126.793 86.6701C126.732 86.8514 126.536 86.9473 126.356 86.8858L122.227 85.4864C122.047 85.4249 121.949 85.2301 122.011 85.0488C122.072 84.8686 122.268 84.7712 122.448 84.831L126.577 86.2326C126.712 86.278 126.799 86.3993 126.811 86.5326" fill="#3D7195"/>
<path d="M126.729 84.9192C126.741 85.0582 126.665 85.1982 126.531 85.2608L122.561 87.0858C122.389 87.1644 122.184 87.09 122.104 86.9165C122.025 86.7436 122.101 86.5394 122.273 86.4592L126.243 84.6342C126.415 84.554 126.62 84.6301 126.699 84.8034L126.729 84.9192" fill="#3D7195"/>
<path d="M143.245 103.159C143.245 103.158 143.245 103.157 143.245 103.156C143.245 103.157 143.245 103.158 143.245 103.159ZM143.247 103.153C143.247 103.146 143.247 103.139 143.247 103.133L143.265 102.757L143.247 103.133C143.247 103.139 143.247 103.146 143.247 103.153Z" fill="#DC9632"/>
<path d="M143.176 103.502L140.827 103.271C140.62 103.25 140.469 103.066 140.489 102.861C140.509 102.666 140.672 102.522 140.863 102.522L140.9 102.523L143.265 102.757L143.247 103.133C143.247 103.139 143.247 103.146 143.247 103.153C143.247 103.154 143.247 103.156 143.245 103.156C143.245 103.157 143.245 103.158 143.245 103.159C143.237 103.277 143.213 103.392 143.176 103.502" fill="#D3583A"/>
<path d="M138.129 59.6287L115.151 60.6421C114.52 60.4701 113.841 60.4501 113.171 60.6434C111.224 61.2061 110.091 63.2581 110.652 65.2047L116.151 84.2566L119.601 83.2607C119.557 83.1249 119.516 82.9941 119.48 82.8701L118.125 67.6061L138.441 66.7087C140.388 66.6221 141.911 64.9594 141.825 63.0127C141.74 61.0647 140.076 59.5434 138.129 59.6287" fill="#F0724E"/>
<path d="M134.9 66.8647L137.737 66.7394C137.736 66.7394 137.736 66.7394 137.735 66.7394L134.9 66.8647Z" fill="#D3583A"/>
<path d="M119.533 83.0463C119.321 82.6925 118.984 82.4355 118.589 82.3075L117.043 67.0035C117.003 66.6128 117.303 66.2701 117.696 66.2581L138.172 65.5928C138.172 65.5928 141.709 65.4528 141.643 62.0875C141.896 62.8661 141.983 63.7195 141.283 64.7875C140.504 65.9755 139.156 66.6768 137.737 66.7395L134.9 66.8648L130.812 67.0448L120.715 67.4915L118.125 67.6061L119.48 82.8701C119.497 82.9275 119.515 82.9864 119.533 83.0463" fill="#D3583A"/>
<path d="M119.665 83.3249L119.675 83.3222C120.349 85.3129 121.903 88.5154 122.111 91.1555L121.419 98.0925C121.376 98.5154 120.852 98.7206 120.548 98.4249C119.02 96.9367 117.969 90.3582 117.472 88.6952L116.236 84.5514L116.193 84.4539C115.925 83.5539 116.492 82.5901 117.461 82.3008C118.397 82.0208 119.359 82.4794 119.665 83.3249" fill="#F0724E"/>
<path d="M120.891 98.5649C120.889 98.5649 120.889 98.5649 120.888 98.5649C120.889 98.5649 120.889 98.5649 120.891 98.5649ZM120.897 98.5649C121.131 98.5619 121.36 98.3983 121.411 98.1447C121.36 98.3983 121.131 98.5619 120.897 98.5649Z" fill="#D3583A"/>
<path d="M119.665 83.3248L119.673 83.3222L119.665 83.3248ZM119.665 83.3248C119.664 83.3196 119.661 83.3139 119.66 83.3087C119.661 83.3139 119.664 83.3196 119.665 83.3248ZM119.659 83.3071C119.657 83.3019 119.656 83.2976 119.653 83.2924C119.655 83.2976 119.657 83.3019 119.659 83.3071ZM119.653 83.2924C119.648 83.2768 119.641 83.2607 119.635 83.2462C119.641 83.2607 119.648 83.2768 119.653 83.2924ZM119.635 83.2462C119.631 83.2367 119.627 83.2258 119.621 83.2164C119.627 83.2258 119.631 83.2367 119.635 83.2462ZM119.62 83.2112C119.619 83.2087 119.617 83.206 119.616 83.2044C119.617 83.2071 119.619 83.2087 119.62 83.2112ZM119.612 83.1967C119.612 83.1951 119.612 83.194 119.612 83.194C119.612 83.194 119.612 83.1951 119.612 83.1967Z" fill="#DEBAA1"/>
<path d="M120.891 98.5649C120.889 98.5649 120.889 98.5649 120.888 98.5649C120.772 98.5635 120.656 98.5233 120.56 98.4368C120.556 98.4327 120.552 98.4285 120.548 98.4249L120.504 98.3728L120.628 98.0925L121.32 91.1556C121.111 88.5155 119.557 85.3129 118.883 83.3223L118.875 83.3249C118.767 83.0259 118.68 82.6261 118.536 82.2955C119.007 82.4328 119.405 82.7499 119.612 83.1941C119.612 83.1941 119.612 83.1952 119.612 83.1968C119.613 83.1993 119.615 83.202 119.616 83.2045C119.617 83.2061 119.619 83.2088 119.62 83.2113C119.62 83.2129 119.621 83.2155 119.621 83.2165C119.627 83.2259 119.631 83.2368 119.635 83.2463C119.641 83.2608 119.648 83.2769 119.653 83.2925C119.656 83.2977 119.657 83.302 119.659 83.3072L119.66 83.3088C119.661 83.314 119.664 83.3197 119.665 83.3249L119.673 83.3223C120.349 85.3129 121.903 88.5155 122.111 91.1556L121.419 98.0925C121.417 98.0993 121.417 98.1072 121.416 98.114C121.415 98.1249 121.413 98.1353 121.411 98.1447C121.36 98.3983 121.131 98.5619 120.897 98.5649C120.895 98.5649 120.893 98.5649 120.891 98.5649" fill="#D3583A"/>
<path d="M121.087 98.6643L120.957 98.5779L121.035 98.3951C121.173 98.3404 121.265 98.2222 121.28 98.0779L121.972 91.1404C121.897 90.2191 121.636 89.0924 121.173 87.7222L121.261 87.5462L121.437 87.6326C121.908 89.0258 122.173 90.1738 122.251 91.1446L121.556 98.106C121.532 98.3514 121.373 98.5618 121.14 98.6566L121.087 98.6643" fill="#B14430"/>
<path d="M131.908 42.2448L132.04 42.2261V41.2087L129.892 26.3834L129.615 26.4221L131.908 42.2448" fill="#223C50"/>
<path d="M131.788 19.398L131.151 35.8607L131.396 36.7567L132.065 19.5074L131.788 19.398" fill="#223C50"/>
<path d="M395.391 113.835H226.609L237.421 98.6444H384.579L395.391 113.835" fill="#FBC341"/>
<path d="M395.284 113.686L303.139 108.795L307.493 108.578C308.344 108.537 309.131 108.113 309.637 107.429L309.909 107.058L309.505 106.858L322.42 105.734C322.664 106.587 322.951 107.284 323.295 107.687C323.403 107.814 323.548 107.872 323.693 107.872C323.748 107.872 323.803 107.865 323.855 107.849C324.043 107.794 324.204 107.643 324.247 107.425L324.616 105.543L385.703 100.225L395.284 113.686V113.686ZM300.12 108.635L293.268 108.273L296.937 108.09C297.035 108.085 297.133 108.082 297.231 108.082C298.067 108.082 298.891 108.257 299.691 108.513C299.832 108.558 299.976 108.599 300.12 108.635" fill="#DC9632"/>
<path d="M320.745 37.8568L331.572 31.4968L335.357 35.6914L334.943 36.4408L335.687 38.0661L335.232 38.0941C334.791 38.1194 334.373 38.2741 334.028 38.5288C333.093 39.2168 332.197 39.9514 331.197 40.5368L326.757 43.1274L320.745 37.8568" fill="#F0724E"/>
<path d="M333.536 39.0261C333.509 39.0035 333.483 38.9808 333.456 38.9568C333.645 38.8128 333.836 38.6701 334.028 38.5288C334.36 38.2848 334.757 38.1328 335.18 38.0981C334.52 38.1515 333.92 38.4941 333.536 39.0261ZM335.185 38.0968C335.189 38.0968 335.193 38.0968 335.196 38.0968C335.193 38.0968 335.189 38.0968 335.185 38.0968ZM335.205 38.0955C335.208 38.0955 335.211 38.0955 335.213 38.0955C335.211 38.0955 335.208 38.0955 335.205 38.0955Z" fill="#DEBAA1"/>
<path d="M333.456 38.9568C332.544 38.1661 331.292 36.6808 331.705 34.7141C331.945 35.8741 332.732 36.8528 333.823 37.3341L334.497 37.6301C334.884 37.7995 335.279 37.9461 335.681 38.0661L335.232 38.0941C335.225 38.0941 335.22 38.0941 335.213 38.0955C335.211 38.0955 335.208 38.0955 335.205 38.0955C335.203 38.0955 335.199 38.0955 335.196 38.0968C335.193 38.0968 335.189 38.0968 335.185 38.0968C335.184 38.0968 335.183 38.0968 335.18 38.0981C334.757 38.1328 334.36 38.2848 334.028 38.5288C333.836 38.6701 333.645 38.8128 333.456 38.9568" fill="#D3583A"/>
<path d="M335.816 28.0275C334.996 31.4848 331.839 33.6955 328.763 32.9648C325.688 32.2355 323.86 28.8408 324.683 25.3835C325.503 21.9261 328.661 19.7155 331.736 20.4448C334.811 21.1755 336.639 24.5701 335.816 28.0275Z" fill="#682B22"/>
<path d="M324.773 27.2114C324.611 27.2114 324.449 27.1914 324.287 27.1568C322.828 26.8301 321.913 25.1448 321.873 25.0741C321.809 24.9528 321.856 24.8021 321.975 24.7381C322.097 24.6714 322.247 24.7181 322.312 24.8381C322.32 24.8541 323.161 26.3941 324.396 26.6701C324.935 26.7888 325.484 26.6474 326.029 26.2434L326.377 26.2954L326.325 26.6448C325.817 27.0208 325.297 27.2114 324.773 27.2114" fill="#682B22"/>
<path d="M327.939 35.5007C327.447 35.5007 327.087 35.4367 327.055 35.4314C326.92 35.4061 326.829 35.2754 326.855 35.1407C326.88 35.0061 327.012 34.9154 327.144 34.9421C327.163 34.9447 328.892 35.2487 329.875 34.4554C330.308 34.1087 330.537 33.5914 330.561 32.9141C330.565 32.7767 330.671 32.6874 330.817 32.6741C330.956 32.6794 331.063 32.7941 331.059 32.9327C331.029 33.7607 330.736 34.4034 330.187 34.8447C329.516 35.3834 328.605 35.5007 327.939 35.5007Z" fill="#682B22"/>
<path d="M328.368 35.2727C327.363 35.2727 326.407 34.8914 326.347 34.8674C326.22 34.8154 326.159 34.67 326.209 34.5434C326.26 34.4154 326.408 34.3527 326.533 34.406C326.553 34.4127 328.503 35.1874 329.553 34.47C330.013 34.1567 330.243 33.5794 330.232 32.7567C330.231 32.618 330.341 32.506 330.477 32.5034C330.615 32.4914 330.728 32.6127 330.729 32.75C330.741 33.7514 330.439 34.4687 329.833 34.882C329.405 35.1727 328.88 35.2727 328.368 35.2727" fill="#682B22"/>
<path d="M342.221 24.3874C342.232 27.558 338.823 30.1407 334.607 30.1567C330.389 30.17 326.963 27.6114 326.951 24.442C326.939 21.2714 330.349 18.6874 334.565 18.6727C338.783 18.658 342.209 21.2167 342.221 24.3874Z" fill="#682B22"/>
<path d="M334.488 19.5541C330.639 19.5661 327.471 21.7234 326.956 24.5114L326.951 24.4421C326.939 21.2714 330.349 18.6874 334.565 18.6728C338.783 18.6581 342.209 21.2168 342.221 24.3874C342.221 24.6634 342.189 24.9328 342.14 25.1968C342.079 22.0581 338.675 19.5381 334.488 19.5541" fill="#B14B3C"/>
<path d="M331.017 23.5674C330.425 26.0541 328.04 27.6181 325.688 27.0594C323.336 26.5008 321.908 24.0328 322.499 21.5448C323.088 19.0568 325.475 17.4941 327.827 18.0514C330.18 18.6101 331.608 21.0794 331.017 23.5674Z" fill="#682B22"/>
<path d="M330.441 23.8994C331.031 21.4114 329.603 18.942 327.252 18.3847C326.272 18.1514 325.291 18.29 324.432 18.706C325.409 18.0394 326.621 17.766 327.827 18.0514C330.18 18.61 331.608 21.0794 331.017 23.5674C330.672 25.0194 329.712 26.154 328.508 26.7367C329.436 26.1034 330.152 25.1114 330.441 23.8994" fill="#B14B3C"/>
<path d="M333.797 28.8901C332.819 28.8901 331.749 28.7861 330.587 28.5768C330.317 28.5288 330.139 28.2701 330.187 27.9981C330.236 27.7288 330.491 27.5541 330.764 27.5981C334.261 28.2261 336.815 27.8635 338.363 26.5181C339.937 25.1488 339.883 23.2128 339.881 23.1928C339.871 22.9168 340.087 22.6861 340.36 22.6741H340.379C340.645 22.6741 340.865 22.8861 340.876 23.1541C340.88 23.2528 340.947 25.5901 339.016 27.2701C337.773 28.3488 336.025 28.8901 333.797 28.8901Z" fill="#682B22"/>
<path d="M334.413 26.3941L333.739 27.3821C333.739 27.3821 332.407 29.1514 330.228 28.3994L329.711 26.8687L329.161 25.4367L330.036 24.5887L332.327 24.7887L334.203 26.3768L334.413 26.3941" fill="#682B22"/>
<path d="M337.88 23.3034C337.88 23.3034 340.755 24.9034 340.384 28.9008C340.355 29.2434 340.411 29.5887 340.548 29.9034L341.604 32.3301C341.675 32.4914 341.655 32.6781 341.553 32.8234C341.449 32.9687 341.276 33.0501 341.096 33.0341L340.675 32.9981L340.525 33.0488L340.393 33.1674L340.364 33.4968L340.603 33.8141L340.296 34.1594L340.291 34.6674L340.313 34.9608C340.341 35.3048 340.053 35.4528 339.867 35.7421L339.973 36.9727C339.885 37.9261 339.029 38.6181 338.08 38.5074L337.451 38.4341C336.431 38.3141 335.436 38.0434 334.497 37.6301L333.823 37.3341C332.671 36.8261 331.859 35.7634 331.671 34.5181L331.432 32.9394C328.485 32.6834 326.509 29.7648 327.407 26.9461C328.02 25.0208 329.181 23.2528 331.36 22.8928C331.36 22.8928 335.079 22.0127 337.88 23.3034" fill="#F0724E"/>
<path d="M339.867 35.7421C339.867 35.7421 339.009 35.0074 338.899 34.2407C339.297 34.6274 339.952 34.9287 339.952 34.9287C340.115 35.0167 340.231 35.0487 340.313 35.0501C340.289 35.3327 340.036 35.4794 339.867 35.7421" fill="#D3583A"/>
<path d="M338.733 33.9074C338.973 33.8914 339.669 33.8154 340.185 33.4528C340.185 33.4528 340.42 33.1261 340.761 33.3914C340.761 33.3914 340.924 33.7874 340.433 34.1701C340.433 34.1701 340.616 34.6954 340.517 34.8848C340.517 34.8848 340.497 35.2248 339.952 34.9288C339.952 34.9288 338.992 34.4874 338.691 33.9874L338.733 33.9074" fill="#B73C2B"/>
<path d="M341.14 33.0354C341.125 33.0354 341.111 33.0354 341.096 33.0341L340.697 32.9994L340.675 32.9981L341.096 33.0341C341.111 33.0354 341.125 33.0354 341.14 33.0354C341.304 33.0354 341.457 32.9567 341.553 32.8234C341.457 32.9567 341.304 33.0354 341.14 33.0354Z" fill="#DEBAA1"/>
<path d="M341.14 33.0354C341.125 33.0354 341.111 33.0354 341.096 33.0341L340.675 32.9981C340.261 32.9967 339.637 32.8247 339.637 32.8247C338.985 32.6727 339.299 31.9447 339.299 31.9447L339.523 32.1007C339.561 32.1101 339.6 32.1154 339.64 32.1154C339.735 32.1154 339.831 32.0874 339.913 32.0381C340.135 31.9047 340.323 31.8621 340.475 31.8621C340.765 31.8621 340.923 32.0221 340.923 32.0221C341.295 32.2847 341.468 32.3301 341.544 32.3301C341.585 32.3301 341.597 32.3181 341.597 32.3181L341.611 32.3527C341.669 32.5087 341.649 32.6847 341.553 32.8234C341.457 32.9567 341.304 33.0354 341.14 33.0354" fill="#D3583A"/>
<path d="M339.509 29.3715C339.352 29.1595 339.12 29.0461 338.887 28.9661C338.769 28.9288 338.649 28.9008 338.529 28.8835L338.347 28.8635L338.255 28.8555L338.172 28.8515C337.951 28.8381 337.727 28.8141 337.515 28.7741L337.216 28.6861L337.019 28.5248L337.011 28.5048L336.903 28.4635L336.855 28.5515L336.877 28.6648L336.933 28.7648L337.007 28.8435L337.087 28.9075L337.436 29.0715C337.673 29.1475 337.913 29.1781 338.153 29.1928C338.283 29.2008 338.379 29.1955 338.492 29.2075L338.819 29.2435C339.031 29.2781 339.252 29.3315 339.439 29.4355L339.448 29.4421L339.513 29.4221L339.509 29.3715" fill="#682B22"/>
<path d="M338.645 29.5341C338.628 29.7527 338.699 29.9381 338.808 29.9474C338.917 29.9567 339.021 29.7874 339.039 29.5674C339.059 29.3487 338.985 29.1647 338.877 29.1554C338.768 29.146 338.665 29.3154 338.645 29.5341Z" fill="#682B22"/>
<path d="M339.059 30.0941L339.079 30.0955L339.12 30.0541L339.08 30.0128C339.077 30.0128 338.897 30.0061 338.805 29.8848C338.745 29.8061 338.733 29.6941 338.768 29.5515L338.74 29.5008L338.689 29.5315C338.645 29.6995 338.663 29.8341 338.74 29.9354C338.837 30.0634 339.004 30.0901 339.059 30.0941" fill="#682B22"/>
<path d="M339.781 27.6087C339.696 27.4767 339.585 27.4194 339.467 27.3821C339.347 27.3488 339.227 27.3234 339.105 27.2994C338.864 27.2514 338.62 27.2301 338.376 27.2234C338.132 27.2207 337.888 27.2354 337.648 27.2781C337.409 27.3181 337.176 27.3861 336.955 27.4714L336.929 27.5261L336.972 27.5527H336.973C337.208 27.5434 337.436 27.5274 337.665 27.5461C337.893 27.5554 338.119 27.5794 338.339 27.6207C338.561 27.6567 338.779 27.7114 338.992 27.7741L339.308 27.8794C339.412 27.9127 339.521 27.9341 339.649 27.8954L339.681 27.8874L339.805 27.6567L339.781 27.6087" fill="#682B22"/>
<path d="M340.853 32.5914C340.733 32.5221 340.607 32.4781 340.469 32.4634C340.336 32.4487 340.179 32.4647 340.063 32.5207L339.741 32.5474L339.476 32.3461L339.435 32.3381L339.424 32.3701C339.456 32.4981 339.549 32.6314 339.693 32.6887C339.837 32.7487 339.992 32.7234 340.123 32.6674C340.235 32.6101 340.337 32.5741 340.461 32.5794L340.805 32.6701L340.808 32.6714L340.871 32.6541L340.853 32.5914" fill="#682B22"/>
<path d="M340.659 22.8781C340.669 25.7247 337.424 28.0474 333.412 28.0607C329.4 28.0741 326.139 25.7767 326.128 22.9287C326.117 20.0807 329.363 17.7607 333.375 17.7461C337.388 17.7314 340.649 20.0287 340.659 22.8781Z" fill="#682B22"/>
<path d="M340.381 23.1554C340.371 20.3114 336.963 18.0167 332.765 18.0327C331.636 18.0367 330.567 18.2127 329.604 18.5154C330.703 18.0354 331.991 17.75 333.375 17.746C337.388 17.7314 340.649 20.0287 340.659 22.878C340.664 24.3367 339.811 25.6554 338.441 26.5994C339.648 25.682 340.387 24.478 340.381 23.1554" fill="#B14B3C"/>
<path d="M336.563 24.3781C336.563 24.3781 336.807 25.2341 335.053 26.1848C335.053 26.1848 334.237 26.8021 334.435 27.4914C334.435 27.4914 335.267 29.2688 334.219 29.7274C334.219 29.7274 333.411 30.1901 333.101 29.6288C333.101 29.6288 332.556 28.0555 331.235 28.5168C331.235 28.5168 329.84 28.9141 330.273 30.8861C330.273 30.8861 330.476 31.9181 331.376 32.3554C331.376 32.3554 331.972 34.5995 328.948 35.1115C328.948 35.1115 325.032 34.1141 325.26 28.5141C325.355 26.1875 326.627 24.0448 328.669 22.9301C329.831 22.2955 331.383 21.8394 333.437 21.8701C333.437 21.8701 336.035 21.8394 336.607 23.2861C336.607 23.2861 336.829 23.5541 336.563 24.3781" fill="#682B22"/>
<path d="M332.027 32.2754C331.648 32.2754 331.165 31.4621 331.165 31.4621C329.961 29.6407 331.505 29.1527 331.505 29.1527C331.561 29.1381 331.615 29.1314 331.667 29.1314C332.171 29.1314 332.497 29.7447 332.591 29.9421C332.061 30.2034 331.855 31.0781 332.139 31.9861L332.225 32.2154L332.117 32.2581C332.088 32.2687 332.057 32.2754 332.027 32.2754" fill="#BE462D"/>
<path d="M332.043 32.6714C332.028 32.842 332.153 32.9927 332.323 33.006C332.493 33.0207 332.643 32.8954 332.657 32.7247C332.673 32.5554 332.547 32.406 332.377 32.39C332.207 32.3767 332.057 32.502 332.043 32.6714Z" fill="#923C1D"/>
<path d="M323.575 33.0235L312.913 30.7955L290.993 20.2008C289.393 19.4288 287.583 19.1488 285.84 19.4915C279.113 20.8115 275.011 27.5755 276.867 34.1075L278.663 40.4355L283.791 62.1741L283.344 68.8795C282.832 76.5595 284.492 84.2273 288.137 91.0075L289.688 93.8913C290.809 95.9779 291.595 98.2263 292.019 100.557L292.179 101.436L290.695 104.542C290.271 105.427 290.364 106.514 291.047 107.35C291.579 108.002 292.427 108.315 293.268 108.273L296.937 108.09C297.873 108.043 298.797 108.226 299.691 108.513C300.504 108.774 301.359 108.885 302.212 108.842L307.493 108.578C308.344 108.537 309.131 108.113 309.637 107.429L309.909 107.058L298.849 101.577L296.816 92.9929C295.528 87.0075 295.221 83.0261 294.707 76.7848L293.981 67.9941C293.893 66.9208 294.021 65.8208 294.495 64.8541C294.871 64.0835 295.093 63.2475 295.147 62.3915L295.253 60.6821C295.677 53.9088 295.271 47.1101 294.045 40.4355L296.711 41.0515L301.952 46.2848C303.124 47.4555 304.712 48.1128 306.368 48.1128H308.607L314.237 52.2795C316.243 53.7648 318.992 53.7288 320.96 52.1955L325.636 48.5475C327.036 47.4541 327.785 45.7221 327.619 43.9528L326.948 36.7995C326.773 34.9381 325.405 33.4061 323.575 33.0235" fill="#F0724E"/>
<path d="M312.913 30.7954L308.867 28.8394L304.871 47.9234C305.357 48.0434 305.859 48.1128 306.368 48.1128H308.607L310.3 49.3661C312.068 43.8101 315.169 34.8888 315.937 31.4274L312.913 30.7954" fill="#223C50"/>
<path d="M297.555 96.1101L296.816 92.994C295.528 87.0074 295.221 83.0261 294.707 76.7848L293.98 67.9874C293.888 66.8661 294.087 65.7394 294.559 64.7194C294.897 63.9861 295.096 63.1981 295.147 62.3914L295.253 60.6821C295.677 53.9088 295.271 47.1088 294.045 40.4354L296.711 41.0515L296.311 22.7728L290.993 20.2008C289.253 19.3595 287.276 19.1434 285.395 19.5874C278.933 21.1128 275.051 27.7208 276.865 34.1074L278.663 40.4354L283.791 62.1741L283.344 68.8808C282.832 76.5594 284.492 84.2273 288.137 91.0074L289.687 93.8913C290.073 94.6101 290.405 95.3565 290.711 96.1101H291.803L291.077 87.1194L296.311 96.1101H297.555" fill="#3D7195"/>
<path d="M323.575 33.0234L312.913 30.7954L310.467 29.6128L307.044 48.1128H308.607L314.237 52.2794C316.243 53.7648 318.992 53.7288 320.96 52.1954L325.636 48.5474C327.036 47.4541 327.785 45.7221 327.619 43.9528L326.948 36.7994C326.773 34.9381 325.405 33.4061 323.575 33.0234" fill="#3D7195"/>
<path d="M310.467 29.6128L307.044 48.1128H308.607L312.913 30.7955L310.467 29.6128Z" fill="white"/>
<path d="M327.017 43.1274C327.017 45.846 324.812 48.05 322.093 48.05C319.375 48.05 317.171 45.846 317.171 43.1274C317.171 40.4087 319.375 38.206 322.093 38.206C324.812 38.206 327.017 40.4087 327.017 43.1274Z" fill="#F0724E"/>
<path d="M318.979 73.8087L320.268 73.9367C322.052 74.1114 323.656 72.7954 323.832 71.0114L326.489 44.0127C326.665 42.2287 325.349 40.6247 323.565 40.4487L322.276 40.3234C320.492 40.1474 318.888 41.4634 318.712 43.2474L316.055 70.2461C315.879 72.0301 317.196 73.6327 318.979 73.8087Z" fill="#F0724E"/>
<path d="M316.121 70.3981C316.093 70.1381 316.092 69.8714 316.119 69.6021L318.649 43.8914C318.847 41.8821 320.557 40.3674 322.537 40.3674C322.664 40.3674 322.792 40.3741 322.92 40.3874C323.104 40.4034 323.283 40.4394 323.457 40.4821C321.701 40.7181 320.263 42.1341 320.083 43.9687L317.744 67.7181C317.628 67.8007 317.519 67.8901 317.413 67.9847C316.559 68.7167 316.207 69.5861 316.121 70.3981" fill="#D3583A"/>
<path d="M323.856 70.1715L323.727 91.158C323.752 91.2913 323.781 91.4341 323.815 91.582L320.072 92.2861L316.176 71.6181C315.777 69.5061 317.18 67.4528 319.292 67.0555C321.404 66.6581 323.457 68.0595 323.856 70.1715" fill="#F0724E"/>
<path d="M320.068 92.2659L316.176 71.6181C316.175 71.6115 316.173 71.6035 316.172 71.5968C316.173 71.6035 316.175 71.6115 316.176 71.6181L320.068 92.2659V92.2659ZM316.171 71.5928C316.156 71.5088 316.143 71.4221 316.132 71.3328C316.132 71.3368 316.133 71.3395 316.133 71.3421C316.144 71.4261 316.156 71.5088 316.171 71.5928" fill="#DEBAA1"/>
<path d="M316.133 71.342C316.133 71.3394 316.132 71.3367 316.132 71.3327C316.096 71.0394 316.088 70.7234 316.121 70.398C316.124 70.4247 316.128 70.4514 316.131 70.4767C316.1 70.7607 316.1 71.05 316.133 71.342Z" fill="#D3583A"/>
<path d="M316.131 70.4767C316.128 70.4514 316.124 70.4247 316.121 70.398C316.207 69.586 316.559 68.7167 317.413 67.9847C316.703 68.6234 316.237 69.51 316.131 70.4767" fill="#B8442B"/>
<path d="M320.068 92.2659L316.176 71.6181C316.175 71.6115 316.173 71.6035 316.172 71.5968C316.172 71.5955 316.171 71.5941 316.171 71.5928C316.156 71.5088 316.144 71.4261 316.133 71.3421C316.1 71.0501 316.1 70.7608 316.131 70.4768C316.237 69.5101 316.703 68.6235 317.413 67.9848C317.608 67.8181 317.828 67.6595 318.077 67.5088L321.184 90.5049C320.508 90.8153 320.065 91.4659 320.065 92.17C320.065 92.2023 320.067 92.2341 320.068 92.2659" fill="#D3583A"/>
<path d="M323.876 91.6538L323.885 91.6527C324.399 93.8236 325.717 97.3606 325.673 100.167L324.247 107.425C324.16 107.866 323.587 108.031 323.295 107.687C321.829 105.965 321.38 98.9111 321.023 97.1074L320.132 92.6084L320.097 92.4991C319.904 91.5231 320.599 90.5606 321.651 90.3538C322.668 90.1527 323.639 90.7314 323.876 91.6538" fill="#F0724E"/>
<path d="M323.693 107.872C323.548 107.872 323.403 107.814 323.295 107.687C322.951 107.284 322.664 106.587 322.42 105.734C322.664 106.587 322.951 107.284 323.295 107.687C323.403 107.814 323.548 107.872 323.695 107.872C323.748 107.872 323.803 107.863 323.855 107.849C323.803 107.865 323.748 107.872 323.693 107.872Z" fill="#C17123"/>
<path d="M323.695 107.872C323.548 107.872 323.403 107.814 323.295 107.687C322.951 107.284 322.664 106.587 322.42 105.734C321.624 102.948 321.296 98.4888 321.023 97.1074L320.132 92.6085L320.097 92.4992C320.076 92.3899 320.065 92.2794 320.065 92.17C320.065 91.3153 320.719 90.5383 321.651 90.3539C321.787 90.3273 321.923 90.3143 322.055 90.3143C322.773 90.3143 323.419 90.6956 323.731 91.2872C323.509 91.2049 323.269 91.158 323.02 91.158C322.889 91.158 322.755 91.1716 322.62 91.1981C321.568 91.406 320.872 92.3674 321.067 93.3434L321.1 93.4513L321.991 97.9503C322.312 99.5741 322.711 105.429 323.855 107.849C323.803 107.863 323.748 107.872 323.695 107.872" fill="#D3583A"/>
<path d="M294.655 91.1262L294.653 91.2486C294.619 91.4127 294.457 91.5169 294.293 91.4835L290.531 90.6751C290.367 90.6407 290.263 90.4809 290.297 90.3153C290.333 90.1513 290.495 90.0475 290.659 90.0809L294.42 90.8871C294.543 90.9142 294.632 91.0101 294.655 91.1262" fill="#3D7195"/>
<path d="M294.42 89.7205C294.444 89.8418 294.392 89.9716 294.28 90.0393L290.988 92.0445C290.845 92.1314 290.657 92.0861 290.571 91.9418C290.483 91.8008 290.529 91.6112 290.672 91.5246L293.964 89.5205C294.107 89.4325 294.293 89.4778 294.38 89.6205L294.42 89.7205Z" fill="#3D7195"/>
<path d="M295.107 92.7475V92.8715C295.072 93.0355 294.911 93.1393 294.745 93.1049L290.983 92.2965C290.819 92.2631 290.715 92.1033 290.751 91.9366C290.785 91.7726 290.947 91.6674 291.111 91.7033L294.872 92.5085C294.995 92.5355 295.085 92.6314 295.107 92.7475" fill="#3D7195"/>
<path d="M294.872 91.3407C294.896 91.4631 294.844 91.5929 294.732 91.6606L291.44 93.6647C291.297 93.7527 291.111 93.7074 291.024 93.5631C290.936 93.4204 290.98 93.2325 291.124 93.1461L294.416 91.1418C294.559 91.0538 294.747 91.0991 294.833 91.2434L294.872 91.3407" fill="#3D7195"/>
<path d="M295.423 94.3262L295.421 94.4475C295.387 94.6127 295.225 94.7179 295.061 94.6819L291.299 93.8767C291.136 93.8407 291.031 93.6808 291.065 93.5142C291.1 93.3502 291.261 93.246 291.425 93.2808L295.189 94.0871C295.309 94.1127 295.4 94.21 295.423 94.3262Z" fill="#3D7195"/>
<path d="M295.188 92.9194C295.211 93.0418 295.159 93.17 295.047 93.2393L291.756 95.2434C291.613 95.3314 291.425 95.2846 291.339 95.1418C291.252 94.9981 291.297 94.8128 291.44 94.7232L294.731 92.7205C294.873 92.6325 295.061 92.6778 295.148 92.8221L295.188 92.9194" fill="#3D7195"/>
<path d="M293.917 21.6128L294.423 40.5221L295.399 40.7474L294.897 22.0888L293.917 21.6128Z" fill="#223C50"/>
<path d="M574.172 131.205H405.391L416.203 116.014H563.357L574.172 131.205Z" fill="#FBC341"/>
<path d="M567.377 121.661L563.748 116.562L567.377 121.661Z" fill="#DEBAA1"/>
<path d="M572.86 129.365L474.544 125.1L480.065 124.572C480.608 124.645 481.14 124.785 481.651 124.989C482.441 125.305 483.284 125.468 484.133 125.468H489.111C489.912 125.468 490.672 125.108 491.18 124.486L491.453 124.152L490.124 123.609L563.748 116.562L567.377 121.661L572.86 129.365" fill="#DC9632"/>
<path d="M488.011 51.3023L491.788 39.8716L496.859 41.4716L496.88 42.2757L498.259 43.2423L497.904 43.481C497.297 43.8863 496.941 44.5743 496.961 45.3036L494.953 51.897L488.011 51.3023Z" fill="#F0724E"/>
<path d="M496.969 45.0449C497.015 44.5636 497.225 44.1129 497.56 43.7676C497.225 44.1116 497.017 44.5623 496.969 45.0449ZM497.563 43.7636C497.565 43.7622 497.567 43.7596 497.568 43.7582C497.567 43.7596 497.565 43.7622 497.563 43.7636ZM497.576 43.7502C497.577 43.7489 497.577 43.7489 497.579 43.7476C497.577 43.7489 497.577 43.7489 497.576 43.7502Z" fill="#DEBAA1"/>
<path d="M496.969 45.0449C496.317 44.9343 495.421 44.6836 494.669 44.1209L494.724 43.3156C495.125 43.4742 495.557 43.5582 495.996 43.5582C496.129 43.5582 496.263 43.5502 496.397 43.5356L497.084 43.4542C497.48 43.4076 497.871 43.3383 498.256 43.2436L497.904 43.4809C497.785 43.5596 497.676 43.6489 497.579 43.7476C497.577 43.7489 497.577 43.7489 497.576 43.7502C497.573 43.7529 497.571 43.7556 497.568 43.7582C497.567 43.7596 497.565 43.7622 497.563 43.7636C497.561 43.7649 497.561 43.7662 497.56 43.7676C497.225 44.1129 497.015 44.5636 496.969 45.0449" fill="#D3583A"/>
<path d="M493.579 35.033C494.561 38.229 493.052 41.529 490.208 42.4023C487.365 43.2743 484.264 41.3903 483.283 38.1943C482.301 34.997 483.811 31.6983 486.653 30.8236C489.497 29.9516 492.597 31.8357 493.579 35.033Z" fill="#682B22"/>
<path d="M483.045 39.9209C481.947 39.9209 480.916 39.3022 480.864 39.2689L480.792 38.9662L481.093 38.8929C481.108 38.9022 482.527 39.7569 483.669 39.3876C484.168 39.2262 484.549 38.8462 484.799 38.2569L485.088 38.1396L485.204 38.4289C484.903 39.1422 484.429 39.6063 483.801 39.8089C483.553 39.8876 483.299 39.9209 483.045 39.9209Z" fill="#682B22"/>
<path d="M489.917 45.2169L489.711 45.0729L489.841 44.7903C489.856 44.7836 491.411 44.2049 491.836 43.0863C492.02 42.5956 491.961 42.0596 491.656 41.4969L491.744 41.1983L492.043 41.2863C492.412 41.9689 492.48 42.6276 492.247 43.2436C491.751 44.5516 490.065 45.1783 489.993 45.2036L489.917 45.2169" fill="#682B22"/>
<path d="M489.12 45.0863L488.903 44.8983C488.884 44.777 488.967 44.665 489.088 44.649C489.107 44.645 491.067 44.3423 491.58 43.253C491.805 42.7743 491.715 42.193 491.313 41.525L491.388 41.221L491.689 41.297C492.175 42.0996 492.272 42.821 491.979 43.441C491.363 44.745 489.243 45.0703 489.152 45.0836L489.12 45.0863" fill="#682B22"/>
<path d="M497.041 29.0263C498.563 31.5929 497.025 35.3143 493.612 37.3369C490.196 39.3596 486.196 38.9169 484.676 36.3489C483.155 33.7796 484.689 30.0596 488.105 28.0383C491.521 26.0156 495.52 26.4583 497.041 29.0263Z" fill="#682B22"/>
<path d="M488.463 28.7875C485.345 30.6342 483.8 33.8942 484.713 36.4036L484.676 36.3489C483.155 33.7795 484.689 30.0596 488.105 28.0382C491.521 26.0156 495.52 26.4582 497.041 29.0262C497.175 29.2489 497.275 29.4836 497.361 29.7222C495.815 27.2049 491.852 26.7809 488.463 28.7875" fill="#B14B3C"/>
<path d="M487.559 33.701C488.264 36.001 487.075 38.4076 484.899 39.0756C482.724 39.7436 480.388 38.4196 479.681 36.1196C478.975 33.8183 480.165 31.413 482.341 30.745C484.516 30.077 486.853 31.3996 487.559 33.701Z" fill="#682B22"/>
<path d="M487.249 34.245C486.543 31.9437 484.207 30.621 482.031 31.289C481.128 31.5663 480.396 32.149 479.899 32.8943C480.372 31.8877 481.227 31.0877 482.341 30.745C484.516 30.077 486.853 31.3997 487.559 33.701C487.971 35.0437 487.733 36.4223 487.032 37.4703C487.484 36.5117 487.593 35.3663 487.249 34.245Z" fill="#B14B3C"/>
<path d="M489.436 37.9717C489.256 37.9717 489.088 37.8623 489.023 37.6837C488.939 37.4543 489.056 37.2023 489.284 37.117C492.42 35.961 494.325 34.4463 494.948 32.617C495.58 30.7517 494.605 29.1703 494.596 29.1543C494.465 28.949 494.527 28.6784 494.732 28.5464C494.936 28.417 495.209 28.477 495.34 28.681C495.389 28.7597 496.551 30.613 495.788 32.8837C495.08 34.985 492.996 36.689 489.588 37.9437L489.436 37.9717" fill="#682B22"/>
<path d="M491.663 34.3756L491.584 35.4983C491.584 35.4983 491.348 37.5703 489.221 37.9983L488.073 37.0023L486.944 36.101L487.249 34.997L489.204 34.0676L491.483 34.4623L491.663 34.3756Z" fill="#682B22"/>
<path d="M493.003 30.2142C493.003 30.2142 496.096 30.1449 497.703 33.5649C497.841 33.8569 498.052 34.1089 498.313 34.3009L500.327 35.7649C500.461 35.8636 500.533 36.0249 500.52 36.1903C500.507 36.3583 500.404 36.5063 500.251 36.5796L499.892 36.7502L499.793 36.8636L499.744 37.0223L499.876 37.3049L500.221 37.4463L500.136 37.8729L500.375 38.2889L500.533 38.5156C500.72 38.7809 500.557 39.0383 500.544 39.3636L501.216 40.3116C501.599 41.1263 501.236 42.0956 500.409 42.4596L499.864 42.6996C498.98 43.0876 498.044 43.3423 497.084 43.4543L496.397 43.5356C495.22 43.6716 494.055 43.1983 493.308 42.2756L492.363 41.1089C489.851 42.3049 486.853 40.8783 486.24 38.1636C485.819 36.3089 485.917 34.3196 487.516 32.9903C487.516 32.9903 490.113 30.5036 493.003 30.2142" fill="#F0724E"/>
<path d="M500.544 39.3636C500.544 39.3636 499.497 39.1757 499.043 38.6063C499.285 38.665 499.565 38.6797 499.792 38.6797C500.04 38.6797 500.225 38.661 500.225 38.661C500.4 38.6556 500.509 38.6263 500.576 38.5876C500.611 38.6583 500.623 38.7303 500.623 38.8023C500.623 38.9757 500.552 39.1556 500.544 39.3636" fill="#D3583A"/>
<path d="M498.748 38.4142C498.935 38.2875 499.465 37.8929 499.711 37.3542C499.711 37.3542 499.745 36.9756 500.148 37.0289C500.148 37.0289 500.469 37.2729 500.253 37.8169C500.253 37.8169 500.652 38.1556 500.661 38.3569C500.661 38.3569 500.808 38.6436 500.225 38.6609C500.225 38.6609 499.236 38.7609 498.751 38.4996L498.748 38.4142" fill="#B73C2B"/>
<path d="M499.892 36.7502L500.251 36.5796C500.404 36.5063 500.507 36.3583 500.52 36.1903C500.524 36.1516 500.523 36.1143 500.516 36.0783C500.523 36.1143 500.524 36.1516 500.52 36.1903C500.507 36.3583 500.404 36.5063 500.251 36.5796L499.911 36.7409L499.892 36.7502" fill="#DEBAA1"/>
<path d="M498.781 37.1343C498.345 37.1343 498.272 36.5529 498.272 36.5529L498.527 36.5716C498.651 36.5369 498.753 36.4476 498.815 36.3356C499.056 35.8943 499.364 35.8303 499.523 35.8303C499.588 35.8303 499.628 35.841 499.628 35.841C499.736 35.8503 499.828 35.8543 499.905 35.8543C500.291 35.8543 500.315 35.7596 500.315 35.7596L500.344 35.7809C500.436 35.8556 500.497 35.9623 500.516 36.0783C500.523 36.1143 500.524 36.1516 500.52 36.1903C500.507 36.3583 500.404 36.5063 500.251 36.5796L499.892 36.7503C499.555 36.9463 498.967 37.1036 498.967 37.1036C498.899 37.1249 498.836 37.1343 498.781 37.1343Z" fill="#D3583A"/>
<path d="M497.216 34.3636C496.987 34.265 496.745 34.2836 496.519 34.3303L496.187 34.4343L496.029 34.505L495.953 34.5423L495.884 34.5797C495.697 34.673 495.504 34.761 495.312 34.8276L495.028 34.8996L494.792 34.8636L494.776 34.8516L494.669 34.869L494.672 34.9623L494.744 35.0437L494.837 35.0983L494.935 35.1276L495.029 35.1423C495.156 35.1477 495.277 35.1357 495.391 35.1077C495.62 35.0557 495.829 34.9676 496.031 34.865L496.313 34.7143L496.595 34.589C496.785 34.5156 496.988 34.4543 497.189 34.449H497.2L497.244 34.4023L497.216 34.3636" fill="#682B22"/>
<path d="M496.593 34.9063C496.683 35.0943 496.829 35.2076 496.923 35.165C497.016 35.121 497.019 34.933 496.929 34.7476C496.841 34.5596 496.693 34.4436 496.6 34.4876C496.508 34.533 496.505 34.7197 496.593 34.9063Z" fill="#682B22"/>
<path d="M497.196 35.1636L497.212 35.1556L497.227 35.1036L497.175 35.089C497.172 35.0903 497.023 35.1703 496.889 35.1156C496.803 35.0796 496.741 34.9943 496.701 34.8623L496.653 34.8356L496.627 34.8836C496.673 35.041 496.751 35.1436 496.86 35.1876C497.003 35.2463 497.148 35.1876 497.196 35.1636" fill="#682B22"/>
<path d="M496.597 32.8023C496.464 32.7369 496.348 32.7423 496.233 32.7689L495.903 32.8756C495.684 32.9503 495.473 33.0489 495.273 33.1609C495.073 33.2743 494.883 33.4022 494.709 33.5502C494.533 33.6969 494.377 33.8649 494.237 34.0383L494.243 34.0956L494.291 34.0969H494.292C494.477 33.9756 494.656 33.8543 494.851 33.7609C495.039 33.6596 495.235 33.5729 495.432 33.4996C495.631 33.4236 495.832 33.3649 496.035 33.3129L496.341 33.2476L496.628 33.0983L496.648 33.0769L496.637 32.8303L496.597 32.8023" fill="#682B22"/>
<path d="M499.843 36.3356C499.711 36.3369 499.587 36.3609 499.468 36.4156L499.167 36.6556L498.917 36.8303L498.608 36.7929L498.572 36.8076L498.577 36.8369C498.664 36.9263 498.803 36.9889 498.947 36.9676C499.092 36.9476 499.207 36.8543 499.285 36.7463L499.517 36.513L499.84 36.4236H499.844L499.887 36.377L499.843 36.3356" fill="#682B22"/>
<path d="M495.055 28.5449C496.42 30.8516 494.893 34.2809 491.643 36.2063C488.395 38.1303 484.652 37.8196 483.287 35.5129C481.92 33.2049 483.448 29.7756 486.697 27.8516C489.948 25.9289 493.688 26.2383 495.055 28.5449Z" fill="#682B22"/>
<path d="M494.961 28.9023C493.597 26.5997 489.739 26.3637 486.34 28.3743C485.424 28.9183 484.64 29.569 484.004 30.2743C484.667 29.361 485.577 28.5156 486.697 27.8516C489.948 25.929 493.688 26.2383 495.055 28.545C495.755 29.7263 495.692 31.2023 495.028 32.621C495.572 31.3036 495.596 29.9743 494.961 28.9023Z" fill="#B14B3C"/>
<path d="M492.445 31.7142C492.445 31.7142 493.051 32.2956 492.081 33.9009C492.081 33.9009 491.713 34.7903 492.203 35.2556C492.203 35.2556 493.725 36.3009 493.093 37.1743C493.093 37.1743 492.657 37.9343 492.139 37.6263C492.139 37.6263 490.947 36.6089 490.093 37.6129C490.093 37.6129 489.151 38.5996 490.444 39.9943C490.444 39.9943 491.1 40.7343 492.04 40.6609C492.04 40.6609 493.591 42.1983 491.381 44.0556C491.381 44.0556 487.729 45.1129 485.245 40.4596C484.212 38.5263 484.223 36.1809 485.351 34.3023C485.989 33.2343 487.032 32.1249 488.713 31.1689C488.713 31.1689 490.808 29.9076 491.961 30.8089C491.961 30.8089 492.269 30.9196 492.445 31.7142" fill="#682B22"/>
<path d="M492.731 40.5997C492.799 40.745 492.972 40.8077 493.119 40.7383C493.263 40.669 493.324 40.4956 493.255 40.3503C493.185 40.2063 493.013 40.145 492.868 40.213C492.724 40.2823 492.661 40.4557 492.731 40.5997" fill="#923C1D"/>
<path d="M494.337 50.5183H490.975C488.136 50.5183 485.835 52.8196 485.835 55.6583V60.5596C485.835 66.3703 481.125 71.0797 475.316 71.0797C470.1 71.0797 465.872 75.3076 465.872 80.5223C465.872 83.765 467.369 86.8263 469.929 88.8183L470.315 89.117C475.9 93.461 482.324 96.5983 489.183 98.333C484.915 101.968 481.36 106.361 478.695 111.292L473.511 120.882C473.285 121.301 473.185 121.774 473.223 122.249C473.324 123.526 474.392 124.512 475.673 124.512H479.169C480.02 124.512 480.861 124.673 481.651 124.989C482.441 125.305 483.284 125.468 484.133 125.468H489.111C489.912 125.468 490.672 125.108 491.18 124.486L491.453 124.152L480.336 119.61L498.444 101.404C500.436 99.401 500.364 96.1436 498.288 94.229L485.356 82.3156L496.832 73.9476L501.811 67.4983C503.213 65.6837 503.392 63.205 502.265 61.2077L497.168 52.1717C496.591 51.1503 495.509 50.5183 494.337 50.5183" fill="#F0724E"/>
<path d="M494.895 75.361L496.832 73.9476L494.895 75.361ZM496.832 73.9476L498.523 71.757C498.523 71.757 498.523 71.757 498.523 71.7583L496.832 73.9476V73.9476ZM483.805 66.7716L483.797 66.765C484.305 66.0703 484.735 65.3143 485.063 64.505C485.064 64.5063 485.067 64.5076 485.068 64.5076C484.961 64.773 484.844 65.0303 484.717 65.2836C484.713 65.2903 484.711 65.2956 484.708 65.3023C484.705 65.305 484.704 65.309 484.703 65.3116C484.635 65.445 484.565 65.5756 484.492 65.705C484.284 66.0756 484.055 66.4316 483.805 66.7716Z" fill="#DEBAA1"/>
<path d="M494.894 75.361L483.805 66.7716C484.055 66.4316 484.284 66.0756 484.492 65.7063L496.832 73.9476L494.894 75.361ZM484.703 65.3116C484.704 65.309 484.705 65.305 484.708 65.3023C484.705 65.305 484.704 65.309 484.703 65.3116ZM484.717 65.2836C484.844 65.0303 484.961 64.773 485.068 64.5076C485.068 64.509 485.068 64.5076 485.068 64.509C484.961 64.773 484.844 65.0303 484.717 65.2836Z" fill="#D3583A"/>
<path d="M497.361 56.5437V52.5156L497.168 52.1717C496.949 51.785 496.659 51.4556 496.319 51.1943V55.6876C496.319 58.3996 494.1 60.6183 491.388 60.6183C488.677 60.6183 486.459 58.3996 486.459 55.6876V53.205C486.061 53.933 485.835 54.769 485.835 55.6583V60.5596C485.835 62.4303 485.348 64.185 484.492 65.705L496.832 73.9476L501.811 67.4983C502.915 66.0703 503.247 64.233 502.795 62.541C499.756 62.241 497.361 59.6583 497.361 56.5437" fill="white"/>
<path d="M485.492 63.2316C485.264 64.1063 484.925 64.9357 484.492 65.7063L496.832 73.9476L498.727 71.4943L485.492 63.2316Z" fill="#3D7195"/>
<path d="M498.288 94.229L485.356 82.3156L486.797 81.265L478.561 70.569C477.539 70.8996 476.448 71.0796 475.316 71.0796C470.1 71.0796 465.872 75.3076 465.872 80.5223C465.872 83.765 467.369 86.8263 469.929 88.8183L470.315 89.1169C475.9 93.4609 482.324 96.5983 489.183 98.333C484.915 101.968 481.36 106.361 478.695 111.292L478.087 112.416L480.144 113.193L486.015 107.929L482.997 114.269L484.923 114.998L498.444 101.404C500.436 99.401 500.364 96.1436 498.288 94.229" fill="#3D7195"/>
<path d="M492.596 27.6556L492.2 27.6289C490.442 27.5076 488.906 28.8449 488.784 30.6023L487.207 53.4329C487.084 55.1903 488.423 56.7276 490.181 56.8489L490.575 56.8756C492.333 56.9983 493.87 55.6596 493.992 53.9023L495.571 31.073C495.692 29.3143 494.353 27.7769 492.596 27.6556Z" fill="#F0724E"/>
<path d="M490.439 56.8663C490.419 56.8663 490.399 56.865 490.379 56.8637C490.364 56.8623 490.349 56.861 490.333 56.8597L490.439 56.8663Z" fill="#D3583A"/>
<path d="M494.227 50.5183H494.225L494.668 44.1196L494.669 44.121L494.227 50.5183" fill="#D3583A"/>
<path d="M494.669 44.121L494.668 44.1196L494.724 43.3156L494.669 44.121" fill="#B8442B"/>
<path d="M494.724 43.3156L495.289 35.1276C495.291 35.1276 495.291 35.1276 495.291 35.1276L494.724 43.3156ZM495.311 34.8289L495.401 33.5116H495.403L495.311 34.8276V34.8289V34.8289ZM495.432 33.0769L495.561 31.2022C495.56 31.2249 495.559 31.2476 495.557 31.2689L495.432 33.0769" fill="#D3583A"/>
<path d="M495.289 35.1276L495.311 34.8289V34.8276L495.291 35.1276C495.291 35.1276 495.291 35.1276 495.289 35.1276Z" fill="#59231C"/>
<path d="M495.401 33.5116L495.432 33.0769L495.403 33.5116H495.401" fill="#59231C"/>
<path d="M494.001 53.7689L494.225 50.5182H494.227L494.007 53.7049C494.005 53.7263 494.003 53.7476 494.001 53.7689" fill="#D3583A"/>
<path d="M490.613 56.8716C490.556 56.8716 490.497 56.8702 490.439 56.8662L490.333 56.8596C490.189 56.8462 490.048 56.8222 489.909 56.7929C491.429 56.5436 492.647 55.2743 492.757 53.6743L494.205 32.7262C494.452 32.5022 494.66 32.2449 494.827 31.9662C495.324 31.1809 495.413 30.4076 495.304 29.7342C495.493 30.1862 495.587 30.6849 495.561 31.2022L495.432 33.0769L495.401 33.5116L495.311 34.8289L495.289 35.1276L494.724 43.3156L494.668 44.1196L494.225 50.5182L494.001 53.7689C493.847 55.5249 492.359 56.8716 490.613 56.8716" fill="#D3583A"/>
<path d="M488.911 31.7983L483.631 14.3089L483.448 13.9783L486.38 12.4303L494.925 28.6223C495.799 30.2769 495.16 32.3449 493.505 33.2169C491.851 34.0916 489.783 33.4516 488.911 31.7983Z" fill="#F0724E"/>
<path d="M495.239 29.4236C495.231 29.4076 495.223 29.3929 495.216 29.3783C495.151 29.1209 495.055 28.8662 494.925 28.6222C495.051 28.8596 495.163 29.1289 495.239 29.4236Z" fill="#99392D"/>
<path d="M495.304 29.7343C495.295 29.7103 495.284 29.6876 495.275 29.6649C495.259 29.5689 495.239 29.4729 495.216 29.3783C495.223 29.3929 495.231 29.4076 495.239 29.4236C495.265 29.5236 495.287 29.6276 495.304 29.7343Z" fill="#D3583A"/>
<path d="M494.827 31.9663C495.237 31.2823 495.403 30.465 495.275 29.665C495.284 29.6876 495.295 29.7103 495.304 29.7343C495.413 30.4076 495.324 31.181 494.827 31.9663" fill="#B8442B"/>
<path d="M494.4 32.5289L485.912 14.1996C486.276 13.8729 486.48 13.4209 486.48 12.9676C486.481 12.7903 486.451 12.6129 486.387 12.4436L494.925 28.6223C495.055 28.8663 495.151 29.1209 495.216 29.3783C495.239 29.4729 495.259 29.5689 495.275 29.6649C495.403 30.4649 495.237 31.2823 494.827 31.9663C494.708 32.1543 494.567 32.3409 494.4 32.5289" fill="#D3583A"/>
<path d="M483.377 13.9329L483.371 13.9369C482.387 12.2636 480.381 9.65959 479.697 7.31425L479.021 0.911618C478.98 0.520951 479.415 0.236921 479.745 0.447588C481.408 1.50492 483.591 7.25694 484.352 8.66627L486.248 12.1796L486.303 12.2596C486.716 13.0236 486.384 14.001 485.563 14.445C484.768 14.873 483.812 14.6396 483.377 13.9329" fill="#F0724E"/>
<path d="M485.512 14.4703H485.513H485.512ZM485.524 14.465C485.537 14.4583 485.549 14.4517 485.563 14.445C485.692 14.3743 485.808 14.2917 485.912 14.1997C485.808 14.2917 485.692 14.3743 485.563 14.445C485.549 14.4517 485.537 14.4583 485.524 14.465Z" fill="#D3583A"/>
<path d="M479.745 0.447632C479.697 0.416965 479.647 0.39697 479.596 0.386304C479.647 0.39697 479.697 0.416965 479.745 0.447632Z" fill="#DEBAA1"/>
<path d="M484.727 14.6583C484.297 14.6583 483.888 14.497 483.592 14.201C483.628 14.2037 483.664 14.205 483.701 14.205C483.983 14.205 484.271 14.137 484.54 13.9917C485.361 13.5477 485.692 12.5703 485.281 11.8063L485.227 11.7263L483.329 8.21301C482.645 6.94501 480.811 2.17699 479.24 0.458326C479.319 0.406326 479.411 0.377011 479.505 0.377011C479.535 0.377011 479.565 0.379654 479.596 0.386321C479.647 0.396988 479.697 0.416982 479.745 0.447649C481.408 1.50498 483.591 7.257 484.352 8.66633L486.248 12.1797L486.303 12.2597C486.424 12.4837 486.481 12.7263 486.48 12.9677C486.48 13.421 486.276 13.873 485.912 14.1997C485.808 14.2917 485.692 14.3743 485.563 14.445C485.549 14.4517 485.537 14.4583 485.524 14.465C485.52 14.4663 485.517 14.4677 485.513 14.4703H485.512C485.257 14.5983 484.988 14.6583 484.727 14.6583" fill="#D3583A"/>
<path d="M485.752 111.262L485.68 111.35C485.556 111.449 485.375 111.429 485.277 111.306L483.02 108.474C482.921 108.35 482.941 108.172 483.065 108.072C483.188 107.974 483.368 107.994 483.467 108.117L485.724 110.949L485.752 111.262Z" fill="#3D7195"/>
<path d="M486.42 110.097C486.364 110.201 486.249 110.264 486.128 110.248L482.536 109.744C482.38 109.721 482.271 109.577 482.293 109.421C482.313 109.264 482.46 109.154 482.616 109.176L486.207 109.68C486.363 109.702 486.472 109.846 486.451 110.004L486.42 110.097" fill="#3D7195"/>
<path d="M485.116 112.712L485.041 112.801C484.917 112.9 484.737 112.878 484.639 112.756L482.381 109.925C482.283 109.801 482.301 109.622 482.427 109.522C482.551 109.425 482.731 109.444 482.829 109.568L485.087 112.398L485.116 112.712Z" fill="#3D7195"/>
<path d="M485.783 111.548C485.728 111.652 485.612 111.713 485.489 111.697L481.899 111.193C481.743 111.17 481.633 111.026 481.655 110.87C481.677 110.714 481.821 110.604 481.977 110.626L485.569 111.13C485.726 111.152 485.835 111.297 485.813 111.453L485.783 111.548Z" fill="#3D7195"/>
<path d="M484.404 114.049L484.329 114.138C484.205 114.237 484.025 114.216 483.927 114.093L481.669 111.262C481.572 111.138 481.589 110.96 481.715 110.86C481.839 110.761 482.019 110.781 482.117 110.905L484.375 113.736L484.404 114.049Z" fill="#3D7195"/>
<path d="M485.071 112.885C485.016 112.988 484.901 113.05 484.779 113.034L481.187 112.53C481.029 112.508 480.92 112.364 480.943 112.208C480.967 112.05 481.109 111.941 481.265 111.964L484.857 112.468C485.015 112.489 485.124 112.634 485.101 112.79L485.071 112.885" fill="#3D7195"/>
<path d="M477.772 70.7903C477.433 70.8717 477.087 70.929 476.736 70.977L485.592 82.1437L486.343 81.5957L477.772 70.7903Z" fill="#223C50"/>
</svg>
