<svg width="170" height="97" viewBox="0 0 170 97" fill="none" xmlns="http://www.w3.org/2000/svg">
<path d="M169.391 96.835H0.609375L11.4214 81.6444H158.579L169.391 96.835Z" fill="#FBC341"/>
<path d="M169.284 96.686L77.1387 91.7955L81.4934 91.5778C82.3441 91.5366 83.1307 91.1127 83.6374 90.4288L83.9094 90.0579L83.5054 89.8579L96.42 88.734C96.6641 89.5871 96.9507 90.2835 97.2947 90.6871C97.4027 90.8142 97.5481 90.8715 97.6934 90.8715C97.7481 90.8715 97.8027 90.8647 97.8547 90.8486C98.0427 90.7939 98.2041 90.6434 98.2467 90.4246L98.6161 88.5434L159.703 83.2246L169.284 96.686ZM74.1201 91.6355L67.2681 91.2726L70.9374 91.0903C71.0347 91.0846 71.1334 91.0819 71.2307 91.0819C72.0667 91.0819 72.8907 91.257 73.6907 91.5127C73.8321 91.5579 73.9761 91.5991 74.1201 91.6355Z" fill="#DC9632"/>
<path d="M94.7454 20.8568L105.572 14.4968L109.357 18.6914L108.943 19.4408L109.687 21.0661L109.232 21.0941C108.791 21.1194 108.373 21.2741 108.028 21.5288C107.093 22.2168 106.197 22.9514 105.197 23.5368L100.757 26.1274L94.7454 20.8568Z" fill="#F0724E"/>
<path d="M107.536 22.0261C107.509 22.0035 107.483 21.9808 107.456 21.9568C107.645 21.8128 107.836 21.6701 108.028 21.5288C108.36 21.2848 108.757 21.1328 109.18 21.0981C108.52 21.1515 107.92 21.4941 107.536 22.0261ZM109.185 21.0968C109.189 21.0968 109.193 21.0968 109.196 21.0968C109.193 21.0968 109.189 21.0968 109.185 21.0968ZM109.205 21.0955C109.208 21.0955 109.211 21.0955 109.213 21.0955C109.211 21.0955 109.208 21.0955 109.205 21.0955Z" fill="#DEBAA1"/>
<path d="M107.456 21.9568C106.544 21.1661 105.292 19.6808 105.705 17.7141C105.945 18.8741 106.732 19.8528 107.823 20.3341L108.497 20.6301C108.884 20.7995 109.279 20.9461 109.681 21.0661L109.232 21.0941C109.225 21.0941 109.22 21.0941 109.213 21.0955C109.211 21.0955 109.208 21.0955 109.205 21.0955C109.203 21.0955 109.199 21.0955 109.196 21.0968C109.193 21.0968 109.189 21.0968 109.185 21.0968C109.184 21.0968 109.183 21.0968 109.18 21.0981C108.757 21.1328 108.36 21.2848 108.028 21.5288C107.836 21.6701 107.645 21.8128 107.456 21.9568Z" fill="#D3583A"/>
<path d="M109.816 11.0275C108.996 14.4848 105.839 16.6955 102.763 15.9648C99.688 15.2355 97.86 11.8408 98.6827 8.38347C99.5027 4.92614 102.661 2.71547 105.736 3.4448C108.811 4.17547 110.639 7.57013 109.816 11.0275Z" fill="#682B22"/>
<path d="M98.7734 10.2114C98.6107 10.2114 98.4494 10.1914 98.2867 10.1568C96.828 9.83009 95.9134 8.14476 95.8734 8.07409C95.8094 7.95276 95.856 7.80209 95.9747 7.73809C96.0974 7.67142 96.2467 7.71809 96.312 7.83809C96.32 7.85409 97.1614 9.39408 98.396 9.67008C98.9347 9.78875 99.484 9.64742 100.029 9.24342L100.377 9.29543L100.325 9.64476C99.8174 10.0208 99.2974 10.2114 98.7734 10.2114Z" fill="#682B22"/>
<path d="M101.939 18.5007C101.447 18.5007 101.087 18.4367 101.055 18.4314C100.92 18.4061 100.829 18.2754 100.855 18.1407C100.88 18.0061 101.012 17.9154 101.144 17.9421C101.163 17.9447 102.892 18.2487 103.875 17.4554C104.308 17.1087 104.537 16.5914 104.561 15.9141C104.565 15.7767 104.671 15.6874 104.817 15.6741C104.956 15.6794 105.063 15.7941 105.059 15.9327C105.029 16.7607 104.736 17.4034 104.187 17.8447C103.516 18.3834 102.605 18.5007 101.939 18.5007Z" fill="#682B22"/>
<path d="M102.368 18.2727C101.363 18.2727 100.407 17.8914 100.347 17.8674C100.22 17.8154 100.159 17.67 100.209 17.5434C100.26 17.4154 100.408 17.3527 100.533 17.406C100.553 17.4127 102.503 18.1874 103.553 17.47C104.013 17.1567 104.243 16.5794 104.232 15.7567C104.231 15.618 104.341 15.506 104.477 15.5034C104.615 15.4914 104.728 15.6127 104.729 15.75C104.741 16.7514 104.439 17.4687 103.833 17.882C103.405 18.1727 102.88 18.2727 102.368 18.2727Z" fill="#682B22"/>
<path d="M116.221 7.38735C116.232 10.558 112.823 13.1407 108.607 13.1567C104.389 13.17 100.963 10.6114 100.951 7.44202C100.939 4.27135 104.349 1.68735 108.565 1.67269C112.783 1.65802 116.209 4.21668 116.221 7.38735Z" fill="#682B22"/>
<path d="M108.488 2.5541C104.639 2.5661 101.471 4.72344 100.956 7.51144L100.951 7.44211C100.939 4.27144 104.349 1.68744 108.565 1.67277C112.783 1.6581 116.209 4.21677 116.221 7.38743C116.221 7.66343 116.189 7.93278 116.14 8.19678C116.079 5.05811 112.675 2.5381 108.488 2.5541Z" fill="#B14B3C"/>
<path d="M105.017 6.56744C104.425 9.0541 102.04 10.6181 99.688 10.0594C97.336 9.50076 95.908 7.03277 96.4986 4.54477C97.088 2.05677 99.4746 0.494105 101.827 1.05144C104.18 1.61011 105.608 4.07944 105.017 6.56744Z" fill="#682B22"/>
<path d="M104.441 6.89937C105.031 4.41137 103.603 1.94204 101.252 1.38471C100.272 1.15138 99.2907 1.29003 98.432 1.70603C99.4093 1.03936 100.621 0.766043 101.827 1.05138C104.18 1.61004 105.608 4.07938 105.017 6.56737C104.672 8.01937 103.712 9.15403 102.508 9.73669C103.436 9.10336 104.152 8.11137 104.441 6.89937Z" fill="#B14B3C"/>
<path d="M107.797 11.8901C106.819 11.8901 105.749 11.7861 104.587 11.5768C104.317 11.5288 104.139 11.2701 104.187 10.9981C104.236 10.7288 104.491 10.5541 104.764 10.5981C108.261 11.2261 110.815 10.8635 112.363 9.51815C113.937 8.14881 113.883 6.21281 113.881 6.19281C113.871 5.91681 114.087 5.68614 114.36 5.67414H114.379C114.645 5.67414 114.865 5.88613 114.876 6.15413C114.88 6.2528 114.947 8.59013 113.016 10.2701C111.773 11.3488 110.025 11.8901 107.797 11.8901Z" fill="#682B22"/>
<path d="M108.413 9.39408L107.739 10.3821C107.739 10.3821 106.407 12.1514 104.228 11.3994L103.711 9.86874L103.161 8.43674L104.036 7.58875L106.327 7.78875L108.203 9.37675L108.413 9.39408Z" fill="#682B22"/>
<path d="M111.88 6.30341C111.88 6.30341 114.755 7.90343 114.384 11.9008C114.355 12.2434 114.411 12.5887 114.548 12.9034L115.604 15.3301C115.675 15.4914 115.655 15.6781 115.553 15.8234C115.449 15.9687 115.276 16.0501 115.096 16.0341L114.675 15.9981L114.525 16.0488L114.393 16.1674L114.364 16.4968L114.603 16.8141L114.296 17.1594L114.291 17.6674L114.313 17.9608C114.341 18.3048 114.053 18.4528 113.867 18.7421L113.973 19.9727C113.885 20.9261 113.029 21.6181 112.08 21.5074L111.451 21.4341C110.431 21.3141 109.436 21.0434 108.497 20.6301L107.823 20.3341C106.671 19.8261 105.859 18.7634 105.671 17.5181L105.432 15.9394C102.485 15.6834 100.509 12.7648 101.407 9.94609C102.02 8.02075 103.181 6.25275 105.36 5.89275C105.36 5.89275 109.079 5.01275 111.88 6.30341Z" fill="#F0724E"/>
<path d="M113.867 18.7421C113.867 18.7421 113.009 18.0074 112.899 17.2407C113.297 17.6274 113.952 17.9287 113.952 17.9287C114.115 18.0167 114.231 18.0487 114.313 18.0501C114.289 18.3327 114.036 18.4794 113.867 18.7421Z" fill="#D3583A"/>
<path d="M112.733 16.9074C112.973 16.8914 113.669 16.8154 114.185 16.4528C114.185 16.4528 114.42 16.1261 114.761 16.3914C114.761 16.3914 114.924 16.7874 114.433 17.1701C114.433 17.1701 114.616 17.6954 114.517 17.8848C114.517 17.8848 114.497 18.2248 113.952 17.9288C113.952 17.9288 112.992 17.4874 112.691 16.9874L112.733 16.9074Z" fill="#B73C2B"/>
<path d="M115.14 16.0354C115.125 16.0354 115.111 16.0354 115.096 16.0341L114.697 15.9994L114.675 15.9981L115.096 16.0341C115.111 16.0354 115.125 16.0354 115.14 16.0354C115.304 16.0354 115.457 15.9567 115.553 15.8234C115.457 15.9567 115.304 16.0354 115.14 16.0354Z" fill="#DEBAA1"/>
<path d="M115.14 16.0354C115.125 16.0354 115.111 16.0354 115.096 16.0341L114.675 15.9981C114.261 15.9967 113.637 15.8247 113.637 15.8247C112.985 15.6727 113.299 14.9447 113.299 14.9447L113.523 15.1007C113.561 15.1101 113.6 15.1154 113.64 15.1154C113.735 15.1154 113.831 15.0874 113.913 15.0381C114.135 14.9047 114.323 14.8621 114.475 14.8621C114.765 14.8621 114.923 15.0221 114.923 15.0221C115.295 15.2847 115.468 15.3301 115.544 15.3301C115.585 15.3301 115.597 15.3181 115.597 15.3181L115.611 15.3527C115.669 15.5087 115.649 15.6847 115.553 15.8234C115.457 15.9567 115.304 16.0354 115.14 16.0354Z" fill="#D3583A"/>
<path d="M113.509 12.3715C113.352 12.1595 113.12 12.0461 112.887 11.9661C112.769 11.9288 112.649 11.9008 112.529 11.8835L112.347 11.8635L112.255 11.8555L112.172 11.8515C111.951 11.8381 111.727 11.8141 111.515 11.7741L111.216 11.6861L111.019 11.5248L111.011 11.5048L110.903 11.4635L110.855 11.5515L110.877 11.6648L110.933 11.7648L111.007 11.8435L111.087 11.9075L111.436 12.0715C111.673 12.1475 111.913 12.1781 112.153 12.1928C112.283 12.2008 112.379 12.1955 112.492 12.2075L112.819 12.2435C113.031 12.2781 113.252 12.3315 113.439 12.4355L113.448 12.4421L113.513 12.4221L113.509 12.3715Z" fill="#682B22"/>
<path d="M112.645 12.5341C112.628 12.7527 112.699 12.9381 112.808 12.9474C112.917 12.9567 113.021 12.7874 113.039 12.5674C113.059 12.3487 112.985 12.1647 112.877 12.1554C112.768 12.146 112.665 12.3154 112.645 12.5341Z" fill="#682B22"/>
<path d="M113.059 13.0941L113.079 13.0955L113.12 13.0541L113.08 13.0128C113.077 13.0128 112.897 13.0061 112.805 12.8848C112.745 12.8061 112.733 12.6941 112.768 12.5515L112.74 12.5008L112.689 12.5315C112.645 12.6995 112.663 12.8341 112.74 12.9354C112.837 13.0634 113.004 13.0901 113.059 13.0941Z" fill="#682B22"/>
<path d="M113.781 10.6087C113.696 10.4767 113.585 10.4194 113.467 10.3821C113.347 10.3488 113.227 10.3234 113.105 10.2994C112.864 10.2514 112.62 10.2301 112.376 10.2234C112.132 10.2207 111.888 10.2354 111.648 10.2781C111.409 10.3181 111.176 10.3861 110.955 10.4714L110.929 10.5261L110.972 10.5527H110.973C111.208 10.5434 111.436 10.5274 111.665 10.5461C111.893 10.5554 112.119 10.5794 112.339 10.6207C112.561 10.6567 112.779 10.7114 112.992 10.7741L113.308 10.8794C113.412 10.9127 113.521 10.9341 113.649 10.8954L113.681 10.8874L113.805 10.6567L113.781 10.6087Z" fill="#682B22"/>
<path d="M114.853 15.5914C114.733 15.5221 114.607 15.4781 114.469 15.4634C114.336 15.4487 114.179 15.4647 114.063 15.5207L113.741 15.5474L113.476 15.3461L113.435 15.3381L113.424 15.3701C113.456 15.4981 113.549 15.6314 113.693 15.6887C113.837 15.7487 113.992 15.7234 114.123 15.6674C114.235 15.6101 114.337 15.5741 114.461 15.5794L114.805 15.6701L114.808 15.6714L114.871 15.6541L114.853 15.5914Z" fill="#682B22"/>
<path d="M114.659 5.87807C114.669 8.72473 111.424 11.0474 107.412 11.0607C103.4 11.0741 100.139 8.77673 100.128 5.92873C100.117 3.08073 103.363 0.760736 107.375 0.746069C111.388 0.731402 114.649 3.02873 114.659 5.87807Z" fill="#682B22"/>
<path d="M114.381 6.15535C114.371 3.31135 110.963 1.0167 106.765 1.0327C105.636 1.0367 104.567 1.2127 103.604 1.51536C104.703 1.03536 105.991 0.750029 107.375 0.746028C111.388 0.731361 114.649 3.02869 114.659 5.87803C114.664 7.33669 113.811 8.65537 112.441 9.59937C113.648 8.68203 114.387 7.47802 114.381 6.15535Z" fill="#B14B3C"/>
<path d="M110.563 7.37812C110.563 7.37812 110.807 8.23412 109.053 9.18479C109.053 9.18479 108.237 9.80211 108.435 10.4914C108.435 10.4914 109.267 12.2688 108.219 12.7274C108.219 12.7274 107.411 13.1901 107.101 12.6288C107.101 12.6288 106.556 11.0555 105.235 11.5168C105.235 11.5168 103.84 11.9141 104.273 13.8861C104.273 13.8861 104.476 14.9181 105.376 15.3554C105.376 15.3554 105.972 17.5995 102.948 18.1115C102.948 18.1115 99.0321 17.1141 99.2601 11.5141C99.3547 9.18745 100.627 7.04479 102.669 5.93012C103.831 5.29545 105.383 4.83944 107.437 4.87011C107.437 4.87011 110.035 4.83944 110.607 6.28611C110.607 6.28611 110.829 6.55412 110.563 7.37812Z" fill="#682B22"/>
<path d="M106.027 15.2754C105.648 15.2754 105.165 14.4621 105.165 14.4621C103.961 12.6407 105.505 12.1527 105.505 12.1527C105.561 12.1381 105.615 12.1314 105.667 12.1314C106.171 12.1314 106.497 12.7447 106.591 12.9421C106.061 13.2034 105.855 14.0781 106.139 14.9861L106.225 15.2154L106.117 15.2581C106.088 15.2687 106.057 15.2754 106.027 15.2754Z" fill="#BE462D"/>
<path d="M106.043 15.6714C106.028 15.842 106.153 15.9927 106.323 16.006C106.493 16.0207 106.643 15.8954 106.657 15.7247C106.673 15.5554 106.547 15.406 106.377 15.39C106.207 15.3767 106.057 15.502 106.043 15.6714Z" fill="#923C1D"/>
<path d="M97.5746 16.0235L86.9133 13.7955L64.9933 3.20081C63.3933 2.42881 61.5826 2.1488 59.84 2.49147C53.1133 3.81147 49.0106 10.5755 50.8666 17.1075L52.6626 23.4355L57.7906 45.1741L57.344 51.8795C56.832 59.5595 58.492 67.2273 62.1373 74.0075L63.688 76.8913C64.8093 78.9779 65.5947 81.2263 66.0187 83.5565L66.1786 84.4356L64.6946 87.5419C64.2706 88.4273 64.364 89.5143 65.0466 90.3503C65.5786 91.0017 66.4266 91.3153 67.268 91.2727L70.9373 91.0904C71.8733 91.0435 72.7973 91.2263 73.6906 91.5128C74.504 91.7741 75.3586 91.8847 76.212 91.8419L81.4933 91.5779C82.344 91.5367 83.1306 91.1128 83.6373 90.4289L83.9093 90.058L72.8493 84.5768L70.816 75.9929C69.528 70.0075 69.2213 66.0261 68.7066 59.7848L67.9813 50.9941C67.8933 49.9208 68.0213 48.8208 68.4946 47.8541C68.8706 47.0835 69.0933 46.2475 69.1466 45.3915L69.2533 43.6821C69.6773 36.9088 69.2706 30.1101 68.0453 23.4355L70.7106 24.0515L75.952 29.2848C77.124 30.4555 78.712 31.1128 80.368 31.1128H82.6066L88.2373 35.2795C90.2426 36.7648 92.992 36.7288 94.96 35.1955L99.636 31.5475C101.036 30.4541 101.785 28.7221 101.619 26.9528L100.948 19.7995C100.773 17.9381 99.4053 16.4061 97.5746 16.0235Z" fill="#F0724E"/>
<path d="M86.9134 13.7954L82.8667 11.8394L78.8707 30.9234C79.3574 31.0434 79.8587 31.1128 80.3681 31.1128H82.6067L84.3001 32.3661C86.0681 26.8101 89.1694 17.8888 89.9374 14.4274L86.9134 13.7954Z" fill="#223C50"/>
<path d="M71.5547 79.1101L70.816 75.994C69.528 70.0074 69.2213 66.0261 68.7067 59.7848L67.98 50.9874C67.888 49.8661 68.0867 48.7394 68.5587 47.7194C68.8973 46.9861 69.096 46.1981 69.1467 45.3914L69.2533 43.6821C69.6773 36.9088 69.2707 30.1088 68.0453 23.4354L70.7107 24.0515L70.3107 5.77277L64.9933 3.20078C63.2533 2.35945 61.276 2.14344 59.3947 2.58744C52.9333 4.11277 49.0507 10.7208 50.8653 17.1074L52.6627 23.4354L57.7907 45.1741L57.344 51.8808C56.832 59.5594 58.492 67.2273 62.1373 74.0074L63.6867 76.8913C64.0733 77.6101 64.4053 78.3565 64.7107 79.1101H65.8027L65.0773 70.1194L70.3107 79.1101H71.5547Z" fill="#3D7195"/>
<path d="M97.5747 16.0234L86.9134 13.7954L84.4667 12.6128L81.0441 31.1128H82.6067L88.2374 35.2794C90.2427 36.7648 92.9921 36.7288 94.9601 35.1954L99.6361 31.5474C101.036 30.4541 101.785 28.7221 101.619 26.9528L100.948 19.7994C100.773 17.9381 99.4054 16.4061 97.5747 16.0234Z" fill="#3D7195"/>
<path d="M84.4667 12.6128L81.0441 31.1128H82.6067L86.9134 13.7955L84.4667 12.6128Z" fill="white"/>
<path d="M101.017 26.1274C101.017 28.846 98.812 31.05 96.0933 31.05C93.3746 31.05 91.1707 28.846 91.1707 26.1274C91.1707 23.4087 93.3746 21.206 96.0933 21.206C98.812 21.206 101.017 23.4087 101.017 26.1274Z" fill="#F0724E"/>
<path d="M92.9787 56.8087L94.2681 56.9367C96.0521 57.1114 97.6561 55.7954 97.8321 54.0114L100.489 27.0127C100.665 25.2287 99.3494 23.6247 97.5654 23.4487L96.2761 23.3234C94.4921 23.1474 92.8881 24.4634 92.7121 26.2474L90.0547 53.2461C89.8787 55.0301 91.1961 56.6327 92.9787 56.8087Z" fill="#F0724E"/>
<path d="M90.1213 53.3981C90.0933 53.1381 90.092 52.8714 90.1187 52.6021L92.6494 26.8914C92.8467 24.8821 94.5573 23.3674 96.5373 23.3674C96.664 23.3674 96.792 23.3741 96.92 23.3874C97.104 23.4034 97.2827 23.4394 97.4573 23.4821C95.7013 23.7181 94.2627 25.1341 94.0827 26.9687L91.744 50.7181C91.628 50.8007 91.5187 50.8901 91.4134 50.9847C90.5587 51.7167 90.2067 52.5861 90.1213 53.3981Z" fill="#D3583A"/>
<path d="M97.856 53.1715L97.7267 74.158C97.752 74.2913 97.7813 74.4341 97.8147 74.582L94.072 75.2861L90.176 54.6181C89.7773 52.5061 91.18 50.4528 93.292 50.0555C95.404 49.6581 97.4573 51.0595 97.856 53.1715Z" fill="#F0724E"/>
<path d="M94.068 75.2659L90.176 54.6181C90.1746 54.6115 90.1733 54.6035 90.172 54.5968C90.1733 54.6035 90.1746 54.6115 90.176 54.6181L94.068 75.2659ZM90.1706 54.5928C90.156 54.5088 90.1426 54.4221 90.132 54.3328C90.132 54.3368 90.1333 54.3395 90.1333 54.3421C90.144 54.4261 90.156 54.5088 90.1706 54.5928Z" fill="#DEBAA1"/>
<path d="M90.1334 54.342C90.1334 54.3394 90.132 54.3367 90.132 54.3327C90.096 54.0394 90.088 53.7234 90.1213 53.398C90.124 53.4247 90.128 53.4514 90.1307 53.4767C90.1 53.7607 90.1 54.05 90.1334 54.342Z" fill="#D3583A"/>
<path d="M90.1307 53.4767C90.128 53.4514 90.124 53.4247 90.1213 53.398C90.2067 52.586 90.5587 51.7167 91.4134 50.9847C90.7027 51.6234 90.2373 52.51 90.1307 53.4767Z" fill="#B8442B"/>
<path d="M94.068 75.2659L90.1761 54.6181C90.1747 54.6115 90.1734 54.6035 90.172 54.5968C90.172 54.5955 90.1707 54.5941 90.1707 54.5928C90.156 54.5088 90.144 54.4261 90.1334 54.3421C90.1 54.0501 90.1 53.7608 90.1307 53.4768C90.2374 52.5101 90.7027 51.6235 91.4134 50.9848C91.6081 50.8181 91.8281 50.6595 92.0774 50.5088L95.1841 73.5049C94.5081 73.8153 94.0654 74.4659 94.0654 75.17C94.0654 75.2023 94.0667 75.2341 94.068 75.2659Z" fill="#D3583A"/>
<path d="M97.876 74.6538L97.8854 74.6527C98.3987 76.8236 99.7174 80.3606 99.6734 83.1674L98.2467 90.4246C98.16 90.8658 97.5867 91.0314 97.2947 90.6871C95.8293 88.9647 95.38 81.9111 95.0227 80.1074L94.132 75.6084L94.0974 75.4991C93.904 74.5231 94.5987 73.5606 95.6507 73.3538C96.668 73.1527 97.6387 73.7314 97.876 74.6538Z" fill="#F0724E"/>
<path d="M97.6934 90.8716C97.5481 90.8716 97.4027 90.8142 97.2947 90.6872C96.9507 90.2836 96.664 89.5872 96.42 88.7341C96.664 89.5872 96.9507 90.2836 97.2947 90.6872C97.4027 90.8142 97.5481 90.8716 97.6947 90.8716C97.7481 90.8716 97.8027 90.8632 97.8547 90.8486C97.8027 90.8648 97.7481 90.8716 97.6934 90.8716Z" fill="#C17123"/>
<path d="M97.6946 90.8716C97.548 90.8716 97.4026 90.8142 97.2946 90.6872C96.9506 90.2836 96.664 89.5872 96.42 88.7341C95.624 85.9476 95.296 81.4888 95.0226 80.1074L94.132 75.6085L94.0973 75.4992C94.076 75.3899 94.0653 75.2794 94.0653 75.17C94.0653 74.3153 94.7187 73.5382 95.6507 73.3538C95.7867 73.3273 95.9226 73.3143 96.0546 73.3143C96.7733 73.3143 97.4186 73.6956 97.7306 74.2872C97.5093 74.2049 97.2693 74.158 97.02 74.158C96.8893 74.158 96.7546 74.1716 96.62 74.1981C95.568 74.406 94.872 75.3674 95.0666 76.3434L95.1 76.4513L95.9906 80.9503C96.312 82.5741 96.7106 88.4289 97.8546 90.8486C97.8026 90.8632 97.748 90.8716 97.6946 90.8716Z" fill="#D3583A"/>
<path d="M68.6546 74.1262L68.6533 74.2486C68.6186 74.4127 68.4573 74.5169 68.2933 74.4835L64.5306 73.6751C64.3666 73.6407 64.2626 73.4809 64.2973 73.3153C64.3333 73.1513 64.4946 73.0475 64.6586 73.0809L68.42 73.8871C68.5426 73.9142 68.632 74.0101 68.6546 74.1262Z" fill="#3D7195"/>
<path d="M68.42 72.7205C68.444 72.8418 68.392 72.9716 68.28 73.0393L64.988 75.0445C64.8454 75.1314 64.6574 75.0861 64.5707 74.9418C64.4827 74.8008 64.5294 74.6112 64.672 74.5246L67.964 72.5205C68.1067 72.4325 68.2934 72.4778 68.38 72.6205L68.42 72.7205Z" fill="#3D7195"/>
<path d="M69.1066 75.7475V75.8715C69.072 76.0355 68.9106 76.1393 68.7453 76.1049L64.9827 75.2965C64.8187 75.2631 64.7147 75.1033 64.7507 74.9366C64.7853 74.7726 64.9466 74.6674 65.1106 74.7033L68.872 75.5085C68.9946 75.5355 69.0853 75.6314 69.1066 75.7475Z" fill="#3D7195"/>
<path d="M68.872 74.3407C68.896 74.4631 68.844 74.5929 68.732 74.6606L65.44 76.6647C65.2974 76.7527 65.1107 76.7074 65.024 76.5631C64.936 76.4204 64.98 76.2325 65.124 76.1461L68.416 74.1418C68.5587 74.0538 68.7467 74.0991 68.8334 74.2434L68.872 74.3407Z" fill="#3D7195"/>
<path d="M69.4226 77.3262L69.4213 77.4475C69.3866 77.6127 69.2253 77.7179 69.0613 77.6819L65.2987 76.8767C65.136 76.8407 65.0307 76.6808 65.0653 76.5142C65.1 76.3502 65.2613 76.246 65.4253 76.2808L69.1893 77.0871C69.3093 77.1127 69.4 77.21 69.4226 77.3262Z" fill="#3D7195"/>
<path d="M69.188 75.9194C69.2107 76.0418 69.1587 76.17 69.0467 76.2393L65.756 78.2434C65.6133 78.3314 65.4253 78.2846 65.3387 78.1418C65.252 77.9981 65.2973 77.8128 65.44 77.7232L68.7307 75.7205C68.8733 75.6325 69.0613 75.6778 69.148 75.8221L69.188 75.9194Z" fill="#3D7195"/>
<path d="M67.9174 4.61277L68.4227 23.5221L69.3987 23.7474L68.8973 5.08876L67.9174 4.61277Z" fill="#223C50"/>
</svg>
