<svg width="587" height="423" viewBox="0 0 587 423" fill="none" xmlns="http://www.w3.org/2000/svg">
<path d="M587 423H0L37.6065 370.085H549.393L587 423Z" fill="#FBC341"/>
<path d="M582.484 416.646L110.738 408.217H141.106C141.002 407.501 140.789 406.833 140.483 406.22L442.576 385.942L444.24 390.661L441.862 400.915C440.994 404.649 443.818 408.217 447.649 408.217H455.986C457.104 408.217 458.203 407.929 459.172 407.381C460.151 406.828 461.245 406.548 462.358 406.548C462.566 406.548 462.775 406.557 462.984 406.577L479.979 408.217H498.862C500.211 408.217 501.305 407.119 501.305 405.764V403.317H499.877C498.421 403.317 496.997 402.865 495.801 402.03C494.609 401.189 493.186 400.733 491.73 400.733H490.38C489.518 400.733 488.664 400.581 487.862 400.274L474.744 395.276C469.453 393.261 465.186 389.42 462.594 384.594L555.287 378.375L577.559 409.716L582.484 416.646Z" fill="#DC9632"/>
<path d="M294.174 174.399L308.277 131.702L327.189 137.68L327.268 140.69L332.41 144.294L331.079 145.19C328.821 146.704 327.495 149.277 327.564 151.999L320.066 176.624L294.174 174.399Z" fill="#F0724E"/>
<path d="M327.602 151.033C327.602 151.033 327.602 151.033 327.597 151.033C327.727 149.695 328.191 148.418 328.933 147.327C328.191 148.418 327.727 149.695 327.602 151.033ZM328.951 147.299C328.956 147.294 328.956 147.289 328.96 147.285C328.956 147.289 328.956 147.294 328.951 147.299Z" fill="#DEBAA1"/>
<path d="M327.597 151.033C324.903 150.569 321.1 149.472 318.138 146.858L318.561 144.285C320.24 145.06 322.083 145.478 323.968 145.474C324.464 145.474 324.963 145.446 325.464 145.39L328.033 145.088C329.498 144.916 330.954 144.656 332.387 144.308L331.08 145.19C330.236 145.757 329.521 146.472 328.96 147.285C328.956 147.289 328.956 147.294 328.951 147.299C328.946 147.308 328.937 147.317 328.933 147.327C328.191 148.418 327.727 149.695 327.597 151.033Z" fill="#D3583A"/>
<path d="M314.965 113.622C318.624 125.567 312.99 137.894 302.383 141.149C291.777 144.41 280.213 137.364 276.554 125.423C272.897 113.482 278.53 101.151 289.136 97.8954C299.745 94.6396 311.308 101.681 314.965 113.622Z" fill="#682B22"/>
<path d="M275.67 131.912C271.556 131.912 267.707 129.589 267.508 129.469L267.222 128.28L268.412 127.992C268.462 128.029 273.755 131.196 277.982 129.84C279.831 129.241 281.242 127.834 282.171 125.637C282.358 125.196 282.867 124.987 283.305 125.177C283.745 125.368 283.952 125.879 283.763 126.315C282.626 129 280.858 130.741 278.503 131.498C277.574 131.796 276.615 131.912 275.67 131.912Z" fill="#682B22"/>
<path d="M301.291 151.711L300.479 151.144C300.316 150.694 300.546 150.197 300.996 150.03C301.054 150.011 306.832 147.851 308.408 143.695C309.098 141.869 308.871 139.886 307.743 137.791C307.513 137.364 307.672 136.844 308.09 136.616C308.513 136.389 309.038 136.547 309.265 136.96C310.646 139.528 310.904 141.999 310.023 144.312C308.161 149.222 301.854 151.562 301.588 151.66L301.291 151.711Z" fill="#682B22"/>
<path d="M298.318 151.219C297.898 151.219 297.528 150.907 297.465 150.48C297.394 150.006 297.722 149.56 298.193 149.495C298.269 149.486 305.551 148.358 307.456 144.308C308.291 142.538 307.958 140.383 306.465 137.898L306.761 136.709L307.951 137.002C309.759 140.016 310.119 142.724 309.021 145.055C306.714 149.941 298.782 151.163 298.445 151.209L298.318 151.219Z" fill="#682B22"/>
<path d="M327.884 91.1888C333.556 100.784 327.819 114.681 315.083 122.232C302.341 129.78 287.42 128.126 281.751 118.531C276.083 108.935 281.814 95.0344 294.556 87.4871C307.294 79.9351 322.217 81.5933 327.884 91.1888Z" fill="#682B22"/>
<path d="M295.885 90.2923C284.252 97.1847 278.492 109.363 281.89 118.735L281.751 118.531C276.083 108.935 281.814 95.0343 294.556 87.487C307.294 79.9351 322.217 81.5932 327.884 91.1887C328.376 92.0247 328.752 92.8979 329.076 93.785C323.314 84.3845 308.531 82.7961 295.885 90.2923Z" fill="#B14B3C"/>
<path d="M292.509 108.643C295.139 117.235 290.694 126.222 282.583 128.716C274.468 131.21 265.755 126.264 263.123 117.667C260.493 109.07 264.934 100.088 273.049 97.5935C281.164 95.0994 289.875 100.046 292.509 108.643Z" fill="#682B22"/>
<path d="M291.353 110.672C288.723 102.08 280.01 97.1337 271.897 99.6232C268.52 100.664 265.794 102.833 263.934 105.619C265.706 101.862 268.892 98.8708 273.049 97.5935C281.164 95.0995 289.875 100.046 292.509 108.643C294.045 113.663 293.155 118.805 290.544 122.72C292.23 119.139 292.637 114.866 291.353 110.672Z" fill="#B14B3C"/>
<path d="M299.506 124.689C298.803 124.689 298.142 124.253 297.882 123.556C297.554 122.655 298.01 121.657 298.909 121.327C310.581 117.021 317.673 111.388 319.984 104.574C322.341 97.6446 318.725 91.7739 318.687 91.7089C318.18 90.9054 318.419 89.8372 319.223 89.3217C320.033 88.8108 321.094 89.0476 321.609 89.8511C321.794 90.1391 326.15 97.1058 323.286 105.628C320.64 113.505 312.838 119.882 300.104 124.578L299.506 124.689Z" fill="#682B22"/>
<path d="M307.813 111.174L307.525 115.363C307.525 115.363 306.634 123.101 298.702 124.699L294.422 120.974L290.212 117.607L291.353 113.487L298.644 110.018L307.145 111.49L307.813 111.174Z" fill="#682B22"/>
<path d="M312.818 95.6243C312.818 95.6243 324.358 95.3642 330.342 108.141C330.862 109.237 331.645 110.185 332.619 110.895L340.127 116.371C340.632 116.733 340.906 117.337 340.85 117.955C340.799 118.582 340.414 119.135 339.844 119.409L338.504 120.05L338.137 120.472L337.952 121.062C337.822 121.489 338.035 121.949 338.448 122.116L339.737 122.646L339.417 124.244L340.307 125.795L340.901 126.649C341.592 127.634 340.989 128.6 340.934 129.808L343.442 133.351C344.87 136.394 343.512 140.021 340.437 141.377L338.402 142.273C335.105 143.723 331.608 144.67 328.033 145.088L325.464 145.39C321.074 145.901 316.727 144.127 313.945 140.685L310.42 136.324C301.044 140.787 289.87 135.455 287.582 125.312C286.017 118.382 286.388 110.956 292.348 105.986C292.348 105.986 302.042 96.7018 312.818 95.6243Z" fill="#F0724E"/>
<path d="M340.934 129.808C340.934 129.808 337.038 129.111 335.341 126.979C336.241 127.202 337.284 127.258 338.128 127.258C339.055 127.258 339.746 127.188 339.746 127.188C340.396 127.165 340.804 127.058 341.059 126.914C341.184 127.179 341.23 127.444 341.23 127.718C341.23 128.359 340.971 129.032 340.934 129.808Z" fill="#D3583A"/>
<path d="M334.242 126.264C334.938 125.79 336.913 124.318 337.831 122.302C337.831 122.302 337.961 120.886 339.464 121.09C339.464 121.09 340.66 122 339.858 124.035C339.858 124.035 341.342 125.303 341.379 126.05C341.379 126.05 341.926 127.119 339.746 127.188C339.746 127.188 336.06 127.56 334.251 126.584L334.242 126.264Z" fill="#B73C2B"/>
<path d="M334.363 121.485C332.74 121.485 332.466 119.311 332.466 119.311L333.417 119.381C333.876 119.251 334.261 118.921 334.493 118.498C335.392 116.845 336.537 116.608 337.131 116.608C337.372 116.608 337.521 116.645 337.521 116.645C337.938 116.682 338.286 116.696 338.578 116.696C339.997 116.696 340.085 116.343 340.085 116.343L340.192 116.427C340.618 116.771 340.869 117.291 340.859 117.844C340.859 117.844 340.859 117.848 340.859 117.853C340.859 117.857 340.859 117.862 340.859 117.867C340.855 117.876 340.855 117.881 340.855 117.885C340.855 117.89 340.855 117.895 340.855 117.895C340.855 117.904 340.855 117.913 340.855 117.922C340.855 117.932 340.855 117.946 340.85 117.955C340.799 118.582 340.414 119.135 339.844 119.409L338.578 120.012L338.504 120.05C337.252 120.779 335.054 121.369 335.054 121.369C334.799 121.448 334.571 121.485 334.363 121.485Z" fill="#D3583A"/>
<path d="M328.534 111.127C327.676 110.765 326.776 110.83 325.928 111.007C325.506 111.1 325.093 111.23 324.694 111.388L324.108 111.657L323.817 111.796L323.56 111.936C322.864 112.284 322.145 112.609 321.43 112.864L320.37 113.134L319.484 112.995L319.426 112.948L319.028 113.013L319.037 113.361L319.309 113.668L319.654 113.872L320.017 113.984L320.377 114.03C320.844 114.058 321.297 114.007 321.719 113.905C322.573 113.714 323.357 113.385 324.11 112.995L325.163 112.437L326.215 111.963C326.92 111.694 327.68 111.467 328.432 111.448L328.469 111.443L328.636 111.276L328.534 111.127Z" fill="#682B22"/>
<path d="M326.206 113.152C326.54 113.854 327.087 114.286 327.435 114.119C327.778 113.956 327.787 113.259 327.458 112.558C327.129 111.861 326.577 111.429 326.234 111.592C325.886 111.764 325.877 112.46 326.206 113.152Z" fill="#682B22"/>
<path d="M328.455 114.119L328.511 114.091L328.566 113.896L328.371 113.835C328.362 113.84 327.806 114.142 327.31 113.938C326.99 113.803 326.753 113.487 326.609 112.99L326.429 112.893L326.331 113.074C326.503 113.659 326.795 114.04 327.203 114.207C327.727 114.425 328.274 114.207 328.455 114.119Z" fill="#682B22"/>
<path d="M326.224 105.299C325.728 105.048 325.292 105.071 324.866 105.173C324.447 105.285 324.036 105.42 323.627 105.563C322.815 105.847 322.035 106.218 321.285 106.636C320.54 107.059 319.827 107.537 319.178 108.09C318.524 108.638 317.939 109.256 317.419 109.915L317.444 110.12L317.613 110.129L317.62 110.124C318.316 109.674 318.979 109.223 319.703 108.87C320.41 108.494 321.134 108.169 321.877 107.904C322.611 107.612 323.37 107.393 324.127 107.198L325.269 106.957L326.331 106.4L326.41 106.321L326.377 105.401L326.224 105.299Z" fill="#682B22"/>
<path d="M338.323 118.498C337.836 118.503 337.372 118.591 336.927 118.796C336.501 118.986 336.055 119.32 335.805 119.697L334.877 120.347L333.714 120.207L333.584 120.259L333.602 120.37C333.927 120.704 334.446 120.941 334.98 120.858C335.522 120.788 335.949 120.435 336.245 120.036L337.108 119.158L338.314 118.823H338.328L338.485 118.656L338.323 118.498Z" fill="#682B22"/>
<path d="M320.473 89.3867C325.566 98.0115 319.868 110.816 307.743 118.001C295.619 125.186 281.664 124.025 276.572 115.41C271.48 106.785 277.179 93.9754 289.305 86.7904C301.426 79.61 315.381 80.7712 320.473 89.3867Z" fill="#682B22"/>
<path d="M320.126 90.7242C315.041 82.118 300.644 81.2309 287.966 88.7457C284.552 90.7707 281.632 93.1997 279.253 95.8378C281.728 92.4241 285.122 89.2705 289.305 86.7903C301.426 79.6099 315.381 80.7711 320.473 89.3866C323.085 93.8035 322.843 99.3211 320.372 104.616C322.395 99.6927 322.489 94.7278 320.126 90.7242Z" fill="#B14B3C"/>
<path d="M310.737 101.23C310.737 101.23 312.997 103.399 309.378 109.395C309.378 109.395 308.005 112.721 309.829 114.458C309.829 114.458 315.506 118.359 313.15 121.624C313.15 121.624 311.523 124.467 309.587 123.315C309.587 123.315 305.143 119.516 301.959 123.264C301.959 123.264 298.443 126.947 303.263 132.158C303.263 132.158 305.709 134.926 309.213 134.652C309.213 134.652 314.997 140.397 306.755 147.331C306.755 147.331 293.13 151.274 283.867 133.886C280.021 126.668 280.061 117.904 284.269 110.886C286.658 106.901 290.545 102.754 296.818 99.1866C296.818 99.1866 304.632 94.4725 308.931 97.8397C308.931 97.8397 310.081 98.2577 310.737 101.23Z" fill="#682B22"/>
<path d="M311.791 134.42C312.049 134.968 312.697 135.2 313.235 134.94C313.776 134.68 314.006 134.029 313.75 133.491C313.494 132.952 312.845 132.72 312.304 132.975C311.766 133.235 311.534 133.881 311.791 134.42Z" fill="#923C1D"/>
<path d="M341.096 274.153C363.85 268.947 405.474 266.323 428.817 266.323C440.507 266.323 450.333 275.106 451.65 286.74L459.97 376.215C460.948 384.835 466.647 392.188 474.744 395.276L487.862 400.274C488.664 400.581 489.518 400.733 490.38 400.733H491.729C493.186 400.733 494.609 401.189 495.801 402.03C496.997 402.865 498.421 403.317 499.877 403.317H501.305V405.764C501.305 407.119 500.211 408.217 498.861 408.217H479.979L462.984 406.577C461.662 406.452 460.331 406.726 459.172 407.381C458.203 407.929 457.104 408.217 455.986 408.217H447.649C443.818 408.217 440.994 404.649 441.861 400.915L444.24 390.661L426.54 340.435C423.721 332.436 423.22 307.659 425.08 299.392L386.308 304.435C381.212 305.694 376.278 307.547 371.613 309.953C364.231 313.766 356.208 316.171 347.954 317.058L303.189 321.843L341.096 274.153Z" fill="#F0724E"/>
<path d="M441.671 335.195L452.443 362.027H458.36L451.65 286.74C450.333 275.106 440.507 266.323 428.817 266.323C405.474 266.323 363.85 268.947 341.096 274.153L303.189 321.843L347.954 317.058C356.208 316.171 364.231 313.766 371.613 309.953C376.278 307.547 381.212 305.694 386.308 304.436L425.08 299.392C423.22 307.659 423.721 332.436 426.54 340.435L434.15 362.027H440.016L441.671 335.195Z" fill="#223C50"/>
<path d="M313.148 320.78L331.409 318.824V318.829L313.148 320.78Z" fill="#DEBAA1"/>
<path d="M313.148 320.78C313.224 320.723 313.302 320.673 313.378 320.616C322.455 318.541 330.217 312.684 334.72 304.524L345.102 285.7C347.453 281.436 349.322 276.936 350.681 272.282C368.302 269.314 391.933 267.456 411.247 266.704L331.409 318.829L313.148 320.78Z" fill="#1D2F38"/>
<path d="M290.582 180.344L309.538 242.329C311.86 249.932 309.373 258.181 303.238 263.22L297.48 267.953C284.398 270.47 273.71 279.903 269.561 292.578L268.132 296.944L241.892 313.985C234.667 318.671 227.831 323.938 221.453 329.724L217.994 332.869H216.206C201.57 332.869 164.869 354.288 151.8 360.889L120.726 376.573L114.748 375.013C109 373.512 104.3 377.15 104.3 383.099V394.055C104.3 398.295 106.751 404.222 109.745 407.227L110.738 408.217H141.106C140.636 404.973 137.865 402.573 134.597 402.573H128.877L121.948 395.356V394.505C121.948 391.909 123.763 389.666 126.301 389.122C150.26 384.037 196.869 362.964 221.336 361.929L222.946 361.859C229.378 361.585 235.716 360.198 241.676 357.754L256.125 351.838C276.297 343.57 295.498 333.102 313.378 320.616C322.455 318.541 330.217 312.684 334.72 304.524L345.102 285.7C349.188 278.292 351.817 270.173 352.846 261.771L357.312 225.451C357.641 222.776 357.549 220.064 357.038 217.416L355.364 208.703L358.198 204.825C360.438 201.76 360.651 197.654 358.74 194.37C355.174 188.254 350.277 183.019 344.411 179.067L315.679 159.69C313.438 158.181 310.659 157.707 308.045 158.394L301.914 159.997C293.049 162.319 287.896 171.566 290.582 180.344Z" fill="#F0724E"/>
<path d="M309.607 242.645L309.538 242.33L305.325 228.554L309.538 242.33C309.569 242.432 309.599 242.539 309.63 242.641L309.607 242.645Z" fill="#DEBAA1"/>
<path d="M309.63 242.641C309.599 242.539 309.569 242.432 309.538 242.33L305.325 228.554L356.807 216.204L357.038 217.416C357.349 219.028 357.507 220.668 357.507 222.307C357.507 223.357 357.442 224.406 357.312 225.451L356.649 230.858L309.63 242.641Z" fill="#D3583A"/>
<path d="M304.812 261.771C304.32 262.282 303.796 262.765 303.238 263.22L297.481 267.953C284.398 270.47 273.711 279.903 269.561 292.578L268.132 296.944L241.892 313.985C234.667 318.671 227.835 323.938 221.453 329.724L217.994 332.87H216.206C201.57 332.87 164.869 354.289 151.8 360.889L143.199 365.232L145.353 370.475L174.272 363.017L148.802 378.877L151.144 384.591C168.425 378.431 205.283 362.607 221.337 361.929L222.946 361.859C229.378 361.585 235.716 360.198 241.676 357.754L256.124 351.838C276.297 343.57 295.496 333.102 313.378 320.616C322.455 318.541 330.217 312.684 334.72 304.524L345.102 285.7C349.188 278.292 351.817 270.173 352.847 261.771H304.812Z" fill="#3D7195"/>
<path d="M357.038 217.417L355.364 208.703L358.198 204.825C360.456 201.727 360.623 197.585 358.685 194.278C356.918 191.263 354.831 188.468 352.462 185.932L347.453 183.605C340.878 180.553 335.197 175.862 330.95 169.987L317.776 161.107L329.744 188.133C332.642 194.673 329.726 202.336 323.216 205.285L301.251 215.234L308.707 239.617L357.488 221.443C357.446 220.092 357.293 218.745 357.038 217.417Z" fill="white"/>
<path d="M357.038 217.417L356.352 213.836L306.678 232.98L308.707 239.617L357.488 221.443C357.446 220.092 357.293 218.745 357.038 217.417Z" fill="#3D7195"/>
<path d="M318.243 90.4782L314.711 89.8976C309.82 89.0941 305.163 92.4381 304.361 97.3381L292.215 171.459C291.415 176.359 294.758 181.022 299.649 181.826L303.181 182.406C308.072 183.21 312.729 179.861 313.534 174.961L325.677 100.845C326.479 95.9447 323.134 91.277 318.243 90.4782Z" fill="#F0724E"/>
<path d="M319.605 137.903L323.649 113.222L319.605 137.903ZM323.888 111.764L324.654 107.087L323.888 111.764ZM324.972 105.15L325.399 102.54C325.394 102.563 325.39 102.586 325.385 102.614L324.972 105.15Z" fill="#D3583A"/>
<path d="M323.648 113.222L323.887 111.764L323.648 113.222Z" fill="#59231C"/>
<path d="M324.654 107.087L324.972 105.15L324.654 107.087Z" fill="#59231C"/>
<path d="M303.163 182.258C302.587 182.258 302.002 182.211 301.416 182.114C300.912 182.03 300.428 181.905 299.952 181.756C304.834 181.422 309.059 177.757 309.884 172.727L320.682 106.822C321.502 106.204 322.219 105.475 322.821 104.672C324.668 102.308 325.19 99.86 325.042 97.6725C325.52 99.2051 325.663 100.859 325.399 102.54L324.972 105.15L324.654 107.087L323.888 111.764L323.648 113.222L319.605 137.903L313.824 173.192C312.958 178.477 308.35 182.258 303.163 182.258Z" fill="#D3583A"/>
<path d="M304.214 102.303L292.714 45.3569L292.237 44.2562L301.968 40.2247L324.178 94.0404C326.447 99.5395 323.812 105.898 318.323 108.169C312.833 110.44 306.484 107.807 304.214 102.303Z" fill="#F0724E"/>
<path d="M324.365 94.5234C324.363 94.5234 324.361 94.5187 324.361 94.5187C324.303 94.3608 324.242 94.1983 324.177 94.0404C324.242 94.1983 324.305 94.3608 324.365 94.5234Z" fill="#59231C"/>
<path d="M325.042 97.6725C325.019 97.5982 324.996 97.5193 324.968 97.4449C324.907 96.465 324.706 95.4803 324.362 94.5189C324.362 94.5189 324.364 94.5235 324.366 94.5235C324.71 95.471 324.968 96.5393 325.042 97.6725Z" fill="#D3583A"/>
<path d="M322.821 104.672C324.355 102.614 325.139 100.046 324.968 97.4448C324.995 97.5191 325.019 97.598 325.042 97.6723C325.19 99.8599 324.668 102.308 322.821 104.672Z" fill="#B8442B"/>
<path d="M321.355 106.255L299.965 45.6868C301.343 44.665 302.147 43.0952 302.147 41.4975C302.147 41.0841 302.095 40.6708 301.983 40.262L324.178 94.0405C324.243 94.1984 324.304 94.361 324.362 94.5189C324.706 95.4803 324.907 96.4649 324.968 97.4449C325.139 100.046 324.355 102.614 322.821 104.672C322.402 105.206 321.917 105.735 321.355 106.255Z" fill="#D3583A"/>
<path d="M292.029 44.0937L292.005 44.103C289.39 38.511 283.825 29.6679 282.358 22.0324L282.124 1.55946C282.108 0.310097 283.566 -0.460865 284.552 0.305473C289.489 4.15111 294.686 23.0124 296.671 27.7033L301.624 39.3935L301.776 39.6628C302.85 42.2034 301.513 45.1991 298.784 46.3648C296.146 47.4842 293.193 46.4577 292.029 44.0937Z" fill="#F0724E"/>
<path d="M296.587 46.8153C295.038 46.8153 293.581 46.1558 292.631 45.0039C292.915 45.0457 293.205 45.069 293.498 45.069C294.223 45.069 294.967 44.9296 295.686 44.6185C298.416 43.462 299.755 40.4663 298.679 37.9257L298.526 37.6564L293.574 25.9662C291.788 21.749 287.404 6.10174 282.949 0.189312C283.173 0.0732002 283.423 0.00352097 283.677 0.00352097C283.975 0.00352097 284.282 0.0964203 284.552 0.305424C289.489 4.15105 294.686 23.0123 296.671 27.7032L301.624 39.3934L301.776 39.6628C302.028 40.2573 302.147 40.8797 302.147 41.4974C302.147 43.0951 301.343 44.6649 299.965 45.6867C299.608 45.9514 299.213 46.179 298.784 46.3648C298.061 46.6713 297.313 46.8153 296.587 46.8153Z" fill="#D3583A"/>
<path d="M352.341 265.153L301.359 264.767L299.068 266.648L299.945 267.085L351.882 267.479C352.044 266.708 352.202 265.933 352.341 265.153Z" fill="#223C50"/>
<path d="M163.875 375.018L163.434 375.111C162.846 375.102 162.373 374.614 162.382 374.024L162.552 360.415C162.561 359.826 163.045 359.352 163.632 359.356C164.222 359.365 164.693 359.853 164.686 360.442L164.518 374.051C164.51 374.489 164.248 374.855 163.875 375.018Z" fill="#3D7195"/>
<path d="M168.704 373.086L167.516 372.848L158.026 363.11C157.614 362.682 157.624 362.003 158.044 361.595C158.466 361.181 159.141 361.196 159.555 361.613L169.044 371.357C169.456 371.78 169.446 372.459 169.023 372.866L168.704 373.086Z" fill="#3D7195"/>
<path d="M158.433 377.869L157.995 377.963C157.404 377.952 156.932 377.47 156.941 376.88L157.111 363.267C157.12 362.678 157.606 362.202 158.191 362.208C158.783 362.217 159.254 362.705 159.247 363.295L159.075 376.903C159.069 377.341 158.807 377.707 158.433 377.869Z" fill="#3D7195"/>
<path d="M163.262 375.937L162.074 375.704L152.583 365.956C152.173 365.533 152.181 364.86 152.603 364.447C153.021 364.033 153.702 364.042 154.111 364.465L163.601 374.209C164.012 374.632 164.003 375.314 163.583 375.724L163.262 375.937Z" fill="#3D7195"/>
<path d="M153.046 380.22L152.608 380.307C152.019 380.298 151.546 379.81 151.556 379.226L151.724 365.613C151.733 365.022 152.217 364.554 152.803 364.557C153.396 364.563 153.867 365.051 153.86 365.641L153.688 379.249C153.684 379.685 153.421 380.057 153.046 380.22Z" fill="#3D7195"/>
<path d="M157.877 378.282L156.687 378.055L147.196 368.306C146.786 367.883 146.793 367.21 147.217 366.796C147.636 366.384 148.315 366.393 148.725 366.816L158.214 376.559C158.625 376.982 158.62 377.66 158.196 378.068L157.877 378.282Z" fill="#3D7195"/>
<path d="M450.593 344.508L450.542 344.954C450.357 345.511 449.745 345.809 449.188 345.618L436.315 341.251C435.759 341.061 435.462 340.453 435.648 339.896C435.838 339.339 436.445 339.036 437.002 339.223L449.875 343.597L450.593 344.508Z" fill="#223C50"/>
<path d="M450.255 339.31C450.292 339.738 450.074 340.165 449.661 340.364L437.475 346.393C436.946 346.658 436.306 346.44 436.046 345.91C435.782 345.381 436 344.74 436.529 344.481L448.72 338.452C449.244 338.191 449.888 338.405 450.148 338.94L450.255 339.31Z" fill="#223C50"/>
<path d="M451.623 350.573L451.572 351.014C451.381 351.573 450.774 351.879 450.217 351.689L437.345 347.313C436.784 347.123 436.487 346.515 436.677 345.958C436.862 345.399 437.47 345.103 438.026 345.294L450.899 349.659L451.623 350.573Z" fill="#223C50"/>
<path d="M451.279 345.372C451.321 345.803 451.099 346.232 450.686 346.435L438.499 352.46C437.971 352.72 437.335 352.505 437.071 351.972C436.811 351.447 437.029 350.802 437.558 350.546L449.744 344.517C450.273 344.258 450.913 344.47 451.173 345L451.279 345.372Z" fill="#223C50"/>
<path d="M452.184 356.426L452.133 356.872C451.942 357.433 451.34 357.736 450.779 357.545L437.91 353.169C437.349 352.979 437.053 352.376 437.238 351.814C437.428 351.257 438.036 350.959 438.592 351.15L451.465 355.515L452.184 356.426Z" fill="#223C50"/>
<path d="M451.84 351.228C451.882 351.66 451.66 352.088 451.252 352.293L439.065 358.316C438.536 358.576 437.897 358.358 437.632 357.834C437.373 357.304 437.59 356.662 438.119 356.397L450.306 350.374C450.839 350.114 451.474 350.332 451.738 350.856L451.84 351.228Z" fill="#223C50"/>
</svg>
