<svg width="208" height="33" viewBox="0 0 208 33" fill="none" xmlns="http://www.w3.org/2000/svg">
<path d="M21.5918 1.536L13.8158 16.576V24H8.34375V16.576L0.56775 1.536H6.77575L11.1278 10.944L15.4478 1.536H21.5918ZM31.9245 24.256C30.1752 24.256 28.5965 23.8827 27.1885 23.136C25.8018 22.3893 24.7032 21.3227 23.8925 19.936C23.1032 18.5493 22.7085 16.928 22.7085 15.072C22.7085 13.2373 23.1138 11.6267 23.9245 10.24C24.7352 8.832 25.8445 7.75467 27.2525 7.008C28.6605 6.26133 30.2392 5.888 31.9885 5.888C33.7378 5.888 35.3165 6.26133 36.7245 7.008C38.1325 7.75467 39.2418 8.832 40.0525 10.24C40.8632 11.6267 41.2685 13.2373 41.2685 15.072C41.2685 16.9067 40.8525 18.528 40.0205 19.936C39.2098 21.3227 38.0898 22.3893 36.6605 23.136C35.2525 23.8827 33.6738 24.256 31.9245 24.256ZM31.9245 19.52C32.9698 19.52 33.8552 19.136 34.5805 18.368C35.3272 17.6 35.7005 16.5013 35.7005 15.072C35.7005 13.6427 35.3378 12.544 34.6125 11.776C33.9085 11.008 33.0338 10.624 31.9885 10.624C30.9218 10.624 30.0365 11.008 29.3325 11.776C28.6285 12.5227 28.2765 13.6213 28.2765 15.072C28.2765 16.5013 28.6178 17.6 29.3005 18.368C30.0045 19.136 30.8792 19.52 31.9245 19.52ZM50.9555 5.888C52.2142 5.888 53.3128 6.144 54.2515 6.656C55.2115 7.168 55.9475 7.84 56.4595 8.672V6.144H61.9315V23.968C61.9315 25.6107 61.6008 27.0933 60.9395 28.416C60.2995 29.76 59.3075 30.8267 57.9635 31.616C56.6408 32.4053 54.9875 32.8 53.0035 32.8C50.3582 32.8 48.2142 32.1707 46.5715 30.912C44.9288 29.6747 43.9902 27.9893 43.7555 25.856H49.1635C49.3342 26.5387 49.7395 27.072 50.3795 27.456C51.0195 27.8613 51.8088 28.064 52.7475 28.064C53.8782 28.064 54.7742 27.7333 55.4355 27.072C56.1182 26.432 56.4595 25.3973 56.4595 23.968V21.44C55.9262 22.272 55.1902 22.9547 54.2515 23.488C53.3128 24 52.2142 24.256 50.9555 24.256C49.4835 24.256 48.1502 23.8827 46.9555 23.136C45.7608 22.368 44.8115 21.2907 44.1075 19.904C43.4248 18.496 43.0835 16.8747 43.0835 15.04C43.0835 13.2053 43.4248 11.5947 44.1075 10.208C44.8115 8.82133 45.7608 7.75467 46.9555 7.008C48.1502 6.26133 49.4835 5.888 50.9555 5.888ZM56.4595 15.072C56.4595 13.7067 56.0755 12.6293 55.3075 11.84C54.5608 11.0507 53.6435 10.656 52.5555 10.656C51.4675 10.656 50.5395 11.0507 49.7715 11.84C49.0248 12.608 48.6515 13.6747 48.6515 15.04C48.6515 16.4053 49.0248 17.4933 49.7715 18.304C50.5395 19.0933 51.4675 19.488 52.5555 19.488C53.6435 19.488 54.5608 19.0933 55.3075 18.304C56.0755 17.5147 56.4595 16.4373 56.4595 15.072ZM64.8023 15.04C64.8023 13.2053 65.1436 11.5947 65.8263 10.208C66.5303 8.82133 67.4796 7.75467 68.6743 7.008C69.8689 6.26133 71.2023 5.888 72.6743 5.888C73.9329 5.888 75.0316 6.144 75.9703 6.656C76.9303 7.168 77.6663 7.84 78.1783 8.672V6.144H83.6503V24H78.1783V21.472C77.6449 22.304 76.8983 22.976 75.9383 23.488C74.9996 24 73.9009 24.256 72.6423 24.256C71.1916 24.256 69.8689 23.8827 68.6743 23.136C67.4796 22.368 66.5303 21.2907 65.8263 19.904C65.1436 18.496 64.8023 16.8747 64.8023 15.04ZM78.1783 15.072C78.1783 13.7067 77.7943 12.6293 77.0263 11.84C76.2796 11.0507 75.3623 10.656 74.2743 10.656C73.1863 10.656 72.2583 11.0507 71.4903 11.84C70.7436 12.608 70.3703 13.6747 70.3703 15.04C70.3703 16.4053 70.7436 17.4933 71.4903 18.304C72.2583 19.0933 73.1863 19.488 74.2743 19.488C75.3623 19.488 76.2796 19.0933 77.0263 18.304C77.7943 17.5147 78.1783 16.4373 78.1783 15.072Z" fill="#223C50"/>
<path d="M86.681 12.736C86.681 10.5173 87.161 8.544 88.121 6.816C89.081 5.06667 90.4143 3.712 92.121 2.752C93.849 1.77067 95.801 1.28 97.977 1.28C100.644 1.28 102.926 1.984 104.825 3.392C106.724 4.8 107.993 6.72 108.633 9.152H102.617C102.169 8.21333 101.529 7.49867 100.697 7.008C99.8863 6.51733 98.9583 6.272 97.913 6.272C96.2277 6.272 94.8623 6.85867 93.817 8.032C92.7717 9.20533 92.249 10.7733 92.249 12.736C92.249 14.6987 92.7717 16.2667 93.817 17.44C94.8623 18.6133 96.2277 19.2 97.913 19.2C98.9583 19.2 99.8863 18.9547 100.697 18.464C101.529 17.9733 102.169 17.2587 102.617 16.32H108.633C107.993 18.752 106.724 20.672 104.825 22.08C102.926 23.4667 100.644 24.16 97.977 24.16C95.801 24.16 93.849 23.68 92.121 22.72C90.4143 21.7387 89.081 20.384 88.121 18.656C87.161 16.928 86.681 14.9547 86.681 12.736ZM128.816 14.784C128.816 15.296 128.784 15.8293 128.72 16.384H116.336C116.421 17.4933 116.773 18.3467 117.392 18.944C118.032 19.52 118.811 19.808 119.728 19.808C121.093 19.808 122.043 19.232 122.576 18.08H128.4C128.101 19.2533 127.557 20.3093 126.768 21.248C126 22.1867 125.029 22.9227 123.856 23.456C122.683 23.9893 121.371 24.256 119.92 24.256C118.171 24.256 116.613 23.8827 115.248 23.136C113.883 22.3893 112.816 21.3227 112.048 19.936C111.28 18.5493 110.896 16.928 110.896 15.072C110.896 13.216 111.269 11.5947 112.016 10.208C112.784 8.82133 113.851 7.75467 115.216 7.008C116.581 6.26133 118.149 5.888 119.92 5.888C121.648 5.888 123.184 6.25067 124.528 6.976C125.872 7.70133 126.917 8.736 127.664 10.08C128.432 11.424 128.816 12.992 128.816 14.784ZM123.216 13.344C123.216 12.4053 122.896 11.6587 122.256 11.104C121.616 10.5493 120.816 10.272 119.856 10.272C118.939 10.272 118.16 10.5387 117.52 11.072C116.901 11.6053 116.517 12.3627 116.368 13.344H123.216ZM142.583 5.952C144.673 5.952 146.337 6.63467 147.575 8C148.833 9.344 149.463 11.2 149.463 13.568V24H144.023V14.304C144.023 13.1093 143.713 12.1813 143.095 11.52C142.476 10.8587 141.644 10.528 140.599 10.528C139.553 10.528 138.721 10.8587 138.103 11.52C137.484 12.1813 137.175 13.1093 137.175 14.304V24H131.703V6.144H137.175V8.512C137.729 7.72267 138.476 7.104 139.415 6.656C140.353 6.18667 141.409 5.952 142.583 5.952ZM163.217 19.36V24H160.433C158.449 24 156.903 23.52 155.793 22.56C154.684 21.5787 154.129 19.9893 154.129 17.792V10.688H151.953V6.144H154.129V1.792H159.601V6.144H163.185V10.688H159.601V17.856C159.601 18.3893 159.729 18.7733 159.985 19.008C160.241 19.2427 160.668 19.36 161.265 19.36H163.217ZM171.737 9.12C172.377 8.13867 173.177 7.37067 174.137 6.816C175.097 6.24 176.164 5.952 177.337 5.952V11.744H175.833C174.468 11.744 173.444 12.0427 172.761 12.64C172.079 13.216 171.737 14.24 171.737 15.712V24H166.265V6.144H171.737V9.12ZM178.865 15.04C178.865 13.2053 179.206 11.5947 179.889 10.208C180.593 8.82133 181.542 7.75467 182.737 7.008C183.931 6.26133 185.265 5.888 186.737 5.888C187.995 5.888 189.094 6.144 190.033 6.656C190.993 7.168 191.729 7.84 192.241 8.672V6.144H197.713V24H192.241V21.472C191.707 22.304 190.961 22.976 190.001 23.488C189.062 24 187.963 24.256 186.705 24.256C185.254 24.256 183.931 23.8827 182.737 23.136C181.542 22.368 180.593 21.2907 179.889 19.904C179.206 18.496 178.865 16.8747 178.865 15.04ZM192.241 15.072C192.241 13.7067 191.857 12.6293 191.089 11.84C190.342 11.0507 189.425 10.656 188.337 10.656C187.249 10.656 186.321 11.0507 185.553 11.84C184.806 12.608 184.433 13.6747 184.433 15.04C184.433 16.4053 184.806 17.4933 185.553 18.304C186.321 19.0933 187.249 19.488 188.337 19.488C189.425 19.488 190.342 19.0933 191.089 18.304C191.857 17.5147 192.241 16.4373 192.241 15.072ZM207.144 0.32V24H201.672V0.32H207.144Z" fill="#3D7195"/>
</svg>
